<svg xmlns="http://www.w3.org/2000/svg" viewBox="0 0 1326.08 477.45"><defs><style>.cls-1{fill:#fff;}</style></defs><g id="Capa_2" data-name="Capa 2"><g id="Capa_1-2" data-name="Capa 1"><path class="cls-1" d="M204,92.92V13.27h-30.8v-8H244v8H213.23V92.92Z"/><path class="cls-1" d="M283.74,93.55a33.9,33.9,0,0,1-17.1-4.32,31.7,31.7,0,0,1-12-11.9A34,34,0,0,1,250.3,60a33.93,33.93,0,0,1,4.38-17.41,31.56,31.56,0,0,1,11.9-11.77,34.18,34.18,0,0,1,17.16-4.26,34.76,34.76,0,0,1,17.34,4.26A31,31,0,0,1,313,42.58,34.3,34.3,0,0,1,317.3,60,34.38,34.38,0,0,1,313,77.33a31.15,31.15,0,0,1-12,11.9A34.47,34.47,0,0,1,283.74,93.55Zm0-7.89a24.77,24.77,0,0,0,12.65-3.19,23,23,0,0,0,8.7-9A27.53,27.53,0,0,0,308.28,60a27.45,27.45,0,0,0-3.19-13.53,23,23,0,0,0-8.7-9,26.11,26.11,0,0,0-25.05,0,23.43,23.43,0,0,0-8.77,9A27,27,0,0,0,259.32,60a27.12,27.12,0,0,0,3.25,13.46,23.34,23.34,0,0,0,8.77,9A24.26,24.26,0,0,0,283.74,85.66Z"/><path class="cls-1" d="M417.62,26.55a30,30,0,0,1,14,3.07A21.59,21.59,0,0,1,440.85,39q3.31,6.25,3.32,15.78V92.92h-8.9V55.6q0-10.38-4.94-15.71t-14-5.33a23.26,23.26,0,0,0-11.71,2.82A19,19,0,0,0,397,45.52a28.25,28.25,0,0,0-2.69,12.84V92.92h-8.89V55.6q0-10.38-5-15.71t-14-5.33a23.3,23.3,0,0,0-11.64,2.82A19,19,0,0,0,347,45.52a28.25,28.25,0,0,0-2.69,12.84V92.92h-8.89V27.18H344V45l-1.38-3.13a23.48,23.48,0,0,1,9.7-11.21,30,30,0,0,1,15.85-4.07,27.53,27.53,0,0,1,16.4,4.82q6.76,4.83,8.77,14.47l-3.51-1.38A26,26,0,0,1,400,31.5Q407.34,26.55,417.62,26.55Z"/><path class="cls-1" d="M486.87,93.55A31.13,31.13,0,0,1,474,91.11a19.09,19.09,0,0,1-8.33-6.76,17.54,17.54,0,0,1-2.88-10,18.21,18.21,0,0,1,2.45-9.33,17.13,17.13,0,0,1,8-6.76q5.58-2.56,15-2.57h22.66v6.64H488.5q-9.53,0-13.21,3.38A11.42,11.42,0,0,0,476,83.16q4.39,3.38,12.28,3.38a23.7,23.7,0,0,0,13-3.45,19.75,19.75,0,0,0,8-10l2,6.13a21,21,0,0,1-8.71,10.4Q496.27,93.56,486.87,93.55Zm22.67-.63V78.4L509.16,76V51.72q0-8.38-4.7-12.9t-14-4.51a34.75,34.75,0,0,0-12.15,2.13,31,31,0,0,0-9.77,5.64l-4-6.64a35.38,35.38,0,0,1,12-6.57,46.63,46.63,0,0,1,14.78-2.32q12.76,0,19.72,6.32t6.95,19.23V92.92Z"/><path class="cls-1" d="M603,93.55a36.44,36.44,0,0,1-18-4.32,31.3,31.3,0,0,1-12.15-11.9A34,34,0,0,1,568.4,60a34.79,34.79,0,0,1,4.19-17.28,31.12,31.12,0,0,1,11.52-11.84,34,34,0,0,1,32.94-.12,29.79,29.79,0,0,1,11.33,11.77A35.83,35.83,0,0,1,632.52,60c0,.42,0,.85-.06,1.31a13.36,13.36,0,0,0-.07,1.44H575.16V56.11h52.47l-3.5,2.63A26,26,0,0,0,621.06,46a22.64,22.64,0,0,0-8.33-8.7,23.29,23.29,0,0,0-12.15-3.13,23.7,23.7,0,0,0-12.15,3.13A21.81,21.81,0,0,0,580,46.09,27,27,0,0,0,577,59v1.37a25.73,25.73,0,0,0,3.32,13.22,23.18,23.18,0,0,0,9.26,8.89,28.29,28.29,0,0,0,13.59,3.19,29.25,29.25,0,0,0,11.21-2.13,23.41,23.41,0,0,0,9-6.51l5,5.76a28.2,28.2,0,0,1-11,8A37.23,37.23,0,0,1,603,93.55Z"/><path class="cls-1" d="M650.68,92.92V0h8.89V92.92Z"/><path class="cls-1" d="M744.48,93.55A35.06,35.06,0,0,1,727,89.23a31.42,31.42,0,0,1-12.09-11.9A34,34,0,0,1,710.54,60a33.93,33.93,0,0,1,4.38-17.41A31.16,31.16,0,0,1,727,30.81a35.45,35.45,0,0,1,17.47-4.26,34.5,34.5,0,0,1,15.15,3.26,24.48,24.48,0,0,1,10.64,9.76l-6.63,4.51a20.93,20.93,0,0,0-8.39-7.39,26.39,26.39,0,0,0-23.55.82,23.24,23.24,0,0,0-8.89,9A27,27,0,0,0,719.56,60a27,27,0,0,0,3.25,13.52,23.27,23.27,0,0,0,8.89,9,26.43,26.43,0,0,0,23.55.81A21.2,21.2,0,0,0,763.64,76l6.63,4.51a25.14,25.14,0,0,1-10.64,9.7A33.84,33.84,0,0,1,744.48,93.55Z"/><path class="cls-1" d="M814.48,93.55a33.89,33.89,0,0,1-17.09-4.32,31.7,31.7,0,0,1-12-11.9A33.91,33.91,0,0,1,781,60a33.84,33.84,0,0,1,4.39-17.41,31.56,31.56,0,0,1,11.9-11.77,34.12,34.12,0,0,1,17.15-4.26,34.83,34.83,0,0,1,17.35,4.26,31,31,0,0,1,11.9,11.77A34.3,34.3,0,0,1,848.05,60a34.38,34.38,0,0,1-4.32,17.34,31.15,31.15,0,0,1-12,11.9A34.53,34.53,0,0,1,814.48,93.55Zm0-7.89a24.74,24.74,0,0,0,12.65-3.19,23,23,0,0,0,8.71-9A27.64,27.64,0,0,0,839,60a27.56,27.56,0,0,0-3.19-13.53,23.07,23.07,0,0,0-8.71-9,26.11,26.11,0,0,0-25,0,23.47,23.47,0,0,0-8.76,9A27,27,0,0,0,790.06,60a27.12,27.12,0,0,0,3.26,13.46,23.39,23.39,0,0,0,8.76,9A24.29,24.29,0,0,0,814.48,85.66Z"/><path class="cls-1" d="M899.77,26.55a30.81,30.81,0,0,1,14.09,3.07A22,22,0,0,1,923.37,39q3.45,6.25,3.45,15.78V92.92h-8.89V55.6q0-10.38-5.2-15.71t-14.59-5.33a25.2,25.2,0,0,0-12.21,2.82,19.37,19.37,0,0,0-8,8.14,27.24,27.24,0,0,0-2.81,12.84V92.92h-8.9V27.18h8.52v18l-1.38-3.38a23.93,23.93,0,0,1,10-11.21A31.71,31.71,0,0,1,899.77,26.55Z"/><path class="cls-1" d="M940.59,34.56V27.18H981.3v7.38Zm31.06,59q-9.27,0-14.27-5t-5-14.15V12.65h8.89V73.89q0,5.76,2.94,8.89t8.45,3.13a14.35,14.35,0,0,0,9.77-3.38l3.13,6.39a16.45,16.45,0,0,1-6.32,3.5A25.87,25.87,0,0,1,971.65,93.55Z"/><path class="cls-1" d="M1001.71,92.92V27.18h8.51v17.9l-.87-3.13a21.6,21.6,0,0,1,9.27-11.46q6.51-3.94,16.15-3.94v8.64a8.39,8.39,0,0,1-1-.06,8.51,8.51,0,0,0-1-.06q-10.4,0-16.28,6.32t-5.89,18V92.92Z"/><path class="cls-1" d="M1078.73,93.55a33.9,33.9,0,0,1-17.1-4.32,31.7,31.7,0,0,1-12-11.9A34,34,0,0,1,1045.29,60a33.93,33.93,0,0,1,4.38-17.41,31.56,31.56,0,0,1,11.9-11.77,34.18,34.18,0,0,1,17.16-4.26,34.76,34.76,0,0,1,17.34,4.26A31,31,0,0,1,1108,42.58,34.3,34.3,0,0,1,1112.29,60,34.38,34.38,0,0,1,1108,77.33a31.15,31.15,0,0,1-12,11.9A34.5,34.5,0,0,1,1078.73,93.55Zm0-7.89a24.77,24.77,0,0,0,12.65-3.19,23,23,0,0,0,8.7-9A27.53,27.53,0,0,0,1103.27,60a27.45,27.45,0,0,0-3.19-13.53,23,23,0,0,0-8.7-9,26.11,26.11,0,0,0-25.05,0,23.43,23.43,0,0,0-8.77,9A27,27,0,0,0,1054.31,60a27.12,27.12,0,0,0,3.25,13.46,23.34,23.34,0,0,0,8.77,9A24.23,24.23,0,0,0,1078.73,85.66Z"/><path class="cls-1" d="M1130.45,92.92V0h8.89V92.92Z"/><path class="cls-1" d="M45.32,252.69a46,46,0,0,1-23.08-5.81A42.61,42.61,0,0,1,6,230.62Q0,220.18,0,206q0-14.31,6-24.76a42.13,42.13,0,0,1,16.26-16.18,46.66,46.66,0,0,1,23.08-5.72,38.81,38.81,0,0,1,20.05,5q8.59,5.06,13.31,15.33T83.4,206q0,15.84-4.55,26.2T65.79,247.64Q57.29,252.7,45.32,252.69Zm4.55-21.56a22.71,22.71,0,0,0,11.62-3,22.28,22.28,0,0,0,8.34-8.68,30.49,30.49,0,0,0,0-26.87,22.4,22.4,0,0,0-8.34-8.6,22.71,22.71,0,0,0-11.62-3,23.05,23.05,0,0,0-11.79,3,22.26,22.26,0,0,0-8.34,8.6,30.49,30.49,0,0,0,0,26.87,22.14,22.14,0,0,0,8.34,8.68A23.05,23.05,0,0,0,49.87,231.13Zm23.75,20.22V232.81l.51-26.95-1.68-26.79V126.33H98.73v125Z"/><path class="cls-1" d="M168,252.69q-15.5,0-27.21-6.06A44.76,44.76,0,0,1,122.65,230a45.26,45.26,0,0,1-6.4-24,46,46,0,0,1,6.32-24.17,44.77,44.77,0,0,1,17.26-16.51,54.11,54.11,0,0,1,48.78-.34,42.33,42.33,0,0,1,16.93,16.17q6.24,10.54,6.24,25.19c0,1-.06,2.17-.17,3.46s-.23,2.5-.34,3.62H137.64V198.11h59.81l-10.1,4.55a25.18,25.18,0,0,0-2.87-12.3,20.88,20.88,0,0,0-7.92-8.17,22.93,22.93,0,0,0-11.79-2.95,23.42,23.42,0,0,0-11.88,2.95,20.5,20.5,0,0,0-8,8.25A26,26,0,0,0,142,203v4a25.46,25.46,0,0,0,3.29,13.05,21.43,21.43,0,0,0,9.27,8.6,31.5,31.5,0,0,0,14.06,2.94,34.09,34.09,0,0,0,12.72-2.19,30.82,30.82,0,0,0,10-6.57l14,15.17A40.68,40.68,0,0,1,189.7,248.9,57.89,57.89,0,0,1,168,252.69Z"/><path class="cls-1" d="M266.19,182.94V162.73H329v20.21ZM314,252.69q-16,0-24.94-8.17t-8.92-24.34V140.66h26.28v79.18q0,5.73,3,8.85a11,11,0,0,0,8.26,3.11,16.87,16.87,0,0,0,10.61-3.37L335.44,247a28.65,28.65,0,0,1-9.69,4.3A47.72,47.72,0,0,1,314,252.69Z"/><path class="cls-1" d="M388.51,252.69a44.67,44.67,0,0,1-20.14-4.38,31,31,0,0,1-13.73-13.39q-4.89-9-4.88-23V160.7H376v47.35q0,11.28,4.8,16.59T394.4,230a21.92,21.92,0,0,0,10.79-2.61,18,18,0,0,0,7.41-8.09q2.7-5.48,2.69-13.73V160.7h26.29v90.65H416.64V226.41l4.55,7.25a31.08,31.08,0,0,1-13.39,14.23A39.81,39.81,0,0,1,388.51,252.69Z"/><path class="cls-1" d="M496.5,252.69a88.07,88.07,0,0,1-22.32-2.78q-10.71-2.78-16.93-7L466,224.05a58,58,0,0,0,14.74,6.32,60.47,60.47,0,0,0,16.76,2.44q9.11,0,12.89-2.19a6.72,6.72,0,0,0,3.79-6.06,5.14,5.14,0,0,0-3-4.8,25.83,25.83,0,0,0-7.83-2.45q-4.89-.84-10.7-1.68T481,213.35a39.57,39.57,0,0,1-10.78-4.29,22,22,0,0,1-7.84-7.75q-2.94-4.89-2.94-12.64a24.4,24.4,0,0,1,5-15.16q5-6.57,14.4-10.36t22.58-3.79a91.4,91.4,0,0,1,18.87,2,51.38,51.38,0,0,1,16,5.89L527.5,186a44.17,44.17,0,0,0-13.22-5.31,61.6,61.6,0,0,0-12.89-1.43q-8.76,0-12.81,2.36t-4,6.06a5.45,5.45,0,0,0,2.95,5.05,26.54,26.54,0,0,0,7.83,2.7q4.89,1,10.7,1.77a98.61,98.61,0,0,1,11.71,2.27,42.32,42.32,0,0,1,10.7,4.3,22.44,22.44,0,0,1,7.83,7.58q3,4.8,3,12.55a23.57,23.57,0,0,1-5.06,14.91q-5.06,6.5-14.57,10.2T496.5,252.69Z"/><path class="cls-1" d="M592.36,182.94V162.73h62.85v20.21Zm14,68.41V158.68q0-15.33,9.09-24.51T641.39,125a50.55,50.55,0,0,1,11,1.18,25.77,25.77,0,0,1,9,3.7l-6.91,19a18.24,18.24,0,0,0-4.88-2.36,19.18,19.18,0,0,0-5.73-.84q-5.73,0-8.85,3.29T632,158.85v8.42l.67,11.29v72.79Zm76.82-103.28q-7.24,0-11.79-4.21a14.28,14.28,0,0,1,0-20.9q4.54-4.2,11.79-4.21t11.8,4a12.91,12.91,0,0,1,4.55,10.2,14.41,14.41,0,0,1-4.47,10.86Q690.58,148.07,683.17,148.07ZM670,251.35V160.7h26.28v90.65Z"/><path class="cls-1" d="M775.67,159.36A42.3,42.3,0,0,1,795,163.65a31.24,31.24,0,0,1,13.39,13.14q4.89,8.85,4.89,22.66v51.9H787V203.5q0-11-4.8-16.18t-13.56-5.22a23.69,23.69,0,0,0-11.2,2.61,18.13,18.13,0,0,0-7.75,8q-2.79,5.4-2.78,13.82v44.82H720.57V160.7h25.11v25.11L741,178.23a33.61,33.61,0,0,1,14-14A43.23,43.23,0,0,1,775.67,159.36Z"/><path class="cls-1" d="M865,252.69q-10.62,0-18.2-3.62a27.56,27.56,0,0,1-11.62-9.86,26.73,26.73,0,0,1-.08-28.13q3.95-6.06,12.55-9.52t22.4-3.45h24.1v15.33H872.88q-9.27,0-12.72,3a9.65,9.65,0,0,0-3.46,7.58,9.44,9.44,0,0,0,4,8q4,3,10.87,2.95a22.53,22.53,0,0,0,11.79-3.11,17.92,17.92,0,0,0,7.59-9.19l4,12.13a23.41,23.41,0,0,1-10.45,13.31Q876.93,252.7,865,252.69Zm27.63-1.34V233.66l-1.68-3.88V198.11q0-8.43-5.14-13.15T870,180.25a45.88,45.88,0,0,0-14.23,2.27,37.87,37.87,0,0,0-11.88,6.15l-9.43-18.36a56.86,56.86,0,0,1,17.85-8.09,79.93,79.93,0,0,1,21.23-2.86q20.73,0,32.18,9.77t11.46,30.49v51.73Z"/><path class="cls-1" d="M996,159.36a42.24,42.24,0,0,1,19.29,4.29,31.21,31.21,0,0,1,13.4,13.14q4.89,8.85,4.88,22.66v51.9h-26.28V203.5q0-11-4.8-16.18T989,182.1a23.76,23.76,0,0,0-11.21,2.61,18.24,18.24,0,0,0-7.75,8q-2.78,5.4-2.78,13.82v44.82H940.94V160.7H966v25.11l-4.71-7.58a33.56,33.56,0,0,1,14-14A43.19,43.19,0,0,1,996,159.36Z"/><path class="cls-1" d="M1051.13,251.35V235.51l53.57-63.35,4.55,8.76h-56.94V160.7h78.17v15.84l-53.58,63.35-4.71-8.76H1132v20.22Z"/><path class="cls-1" d="M1176.81,252.69q-10.62,0-18.19-3.62a27.59,27.59,0,0,1-11.63-9.86,26.73,26.73,0,0,1-.08-28.13q3.94-6.06,12.55-9.52t22.41-3.45H1206v15.33h-21.23q-9.27,0-12.72,3a9.68,9.68,0,0,0-3.45,7.58,9.41,9.41,0,0,0,4,8q3.95,3,10.86,2.95a22.59,22.59,0,0,0,11.8-3.11,17.9,17.9,0,0,0,7.58-9.19l4,12.13a23.41,23.41,0,0,1-10.45,13.31Q1188.78,252.7,1176.81,252.69Zm27.63-1.34V233.66l-1.68-3.88V198.11q0-8.43-5.14-13.15t-15.75-4.71a45.9,45.9,0,0,0-14.24,2.27,37.87,37.87,0,0,0-11.88,6.15l-9.43-18.36a56.81,56.81,0,0,1,17.86-8.09,79.81,79.81,0,0,1,21.22-2.86q20.73,0,32.18,9.77T1229,199.62v51.73Z"/><path class="cls-1" d="M1283.29,252.69a88.2,88.2,0,0,1-22.33-2.78q-10.7-2.78-16.93-7l8.76-18.87a58.18,58.18,0,0,0,14.74,6.32,60.54,60.54,0,0,0,16.77,2.44q9.09,0,12.89-2.19a6.74,6.74,0,0,0,3.79-6.06,5.15,5.15,0,0,0-3-4.8,26,26,0,0,0-7.83-2.45q-4.89-.84-10.7-1.68t-11.71-2.28a39.32,39.32,0,0,1-10.78-4.29,22,22,0,0,1-7.84-7.75q-3-4.89-3-12.64a24.46,24.46,0,0,1,5-15.16q5-6.57,14.41-10.36t22.57-3.79a91.25,91.25,0,0,1,18.87,2,51.35,51.35,0,0,1,16,5.89L1314.29,186a44.12,44.12,0,0,0-13.23-5.31,61.53,61.53,0,0,0-12.89-1.43q-8.76,0-12.8,2.36c-2.7,1.57-4,3.59-4,6.06a5.46,5.46,0,0,0,2.94,5.05,26.72,26.72,0,0,0,7.84,2.7q4.88,1,10.7,1.77a99.39,99.39,0,0,1,11.71,2.27,42.25,42.25,0,0,1,10.69,4.3,22.39,22.39,0,0,1,7.84,7.58q3,4.8,3,12.55a23.56,23.56,0,0,1-5,14.91q-5.05,6.5-14.58,10.2T1283.29,252.69Z"/><path class="cls-1" d="M49,389.06a25.25,25.25,0,0,1-9.36-1.7,21.93,21.93,0,0,1-12.35-12,24.43,24.43,0,0,1,0-18.21,21.93,21.93,0,0,1,4.94-7.24,22.4,22.4,0,0,1,7.47-4.78,25.25,25.25,0,0,1,9.36-1.7A25.76,25.76,0,0,1,58.23,345,18.5,18.5,0,0,1,65.48,350l-3,3a16.81,16.81,0,0,0-6.09-4.07,20.37,20.37,0,0,0-7.18-1.25,20.09,20.09,0,0,0-7.5,1.38,17.88,17.88,0,0,0-6,3.91,18.76,18.76,0,0,0,0,26.61,17.88,17.88,0,0,0,6,3.91,20.93,20.93,0,0,0,14.68.1,17.19,17.19,0,0,0,6.09-4.11l3,3a18.75,18.75,0,0,1-7.25,4.93A25.09,25.09,0,0,1,49,389.06Z"/><path class="cls-1" d="M88.36,389a17.33,17.33,0,0,1-8.75-2.22,16.26,16.26,0,0,1-6.12-6.09,18.78,18.78,0,0,1,0-17.79,16.31,16.31,0,0,1,6.09-6,17.54,17.54,0,0,1,8.78-2.18,17.81,17.81,0,0,1,8.88,2.18,16,16,0,0,1,6.1,6,19,19,0,0,1,0,17.79,15.94,15.94,0,0,1-6.13,6.09A17.6,17.6,0,0,1,88.36,389Zm0-4a12.69,12.69,0,0,0,6.48-1.64,11.78,11.78,0,0,0,4.46-4.61,15.46,15.46,0,0,0,0-13.82,11.79,11.79,0,0,0-4.46-4.59,13.42,13.42,0,0,0-12.82,0,12,12,0,0,0-4.49,4.59,15.13,15.13,0,0,0,0,13.82A12,12,0,0,0,82,383.32,12.4,12.4,0,0,0,88.36,385Z"/><path class="cls-1" d="M132,354.69a15.88,15.88,0,0,1,7.21,1.57,11.34,11.34,0,0,1,4.87,4.78,16.58,16.58,0,0,1,1.77,8.08v19.56h-4.56V369.57c0-3.55-.88-6.23-2.66-8.05s-4.26-2.72-7.47-2.72a13,13,0,0,0-6.25,1.44,9.88,9.88,0,0,0-4.1,4.17A13.92,13.92,0,0,0,119.4,371v17.7h-4.56V355h4.36v9.24l-.7-1.73a12.25,12.25,0,0,1,5.13-5.74A16.21,16.21,0,0,1,132,354.69Z"/><path class="cls-1" d="M192.17,354.69a15.88,15.88,0,0,1,7.21,1.57,11.34,11.34,0,0,1,4.87,4.78,16.58,16.58,0,0,1,1.77,8.08v19.56h-4.56V369.57c0-3.55-.88-6.23-2.66-8.05s-4.26-2.72-7.47-2.72a13,13,0,0,0-6.25,1.44,9.88,9.88,0,0,0-4.1,4.17,13.92,13.92,0,0,0-1.44,6.57v17.7H175V355h4.36v9.24l-.7-1.73a12.25,12.25,0,0,1,5.13-5.74A16.21,16.21,0,0,1,192.17,354.69Z"/><path class="cls-1" d="M232.24,389a16.57,16.57,0,0,1-7.5-1.61,11.26,11.26,0,0,1-5-4.81,16.37,16.37,0,0,1-1.76-8V355h4.55v19.05q0,5.38,2.66,8.11c1.77,1.82,4.26,2.72,7.47,2.72a12.42,12.42,0,0,0,6.12-1.44,9.58,9.58,0,0,0,4-4.2,14.61,14.61,0,0,0,1.38-6.6V355h4.55v33.67h-4.36v-9.24l.7,1.67a12.41,12.41,0,0,1-5,5.8A14.59,14.59,0,0,1,232.24,389Z"/><path class="cls-1" d="M275.71,389a18.62,18.62,0,0,1-9.23-2.22,16,16,0,0,1-6.22-6.09,17.34,17.34,0,0,1-2.25-8.88,17.9,17.9,0,0,1,2.15-8.85,15.87,15.87,0,0,1,5.9-6,16.23,16.23,0,0,1,8.43-2.22,16.41,16.41,0,0,1,8.43,2.15,15.26,15.26,0,0,1,5.81,6,18.4,18.4,0,0,1,2.11,8.94c0,.22,0,.44,0,.68s0,.48,0,.73h-29.3v-3.39h26.86l-1.79,1.34a13.4,13.4,0,0,0-1.57-6.51,11.57,11.57,0,0,0-4.27-4.45,11.9,11.9,0,0,0-6.22-1.6,12.13,12.13,0,0,0-6.22,1.6A11.12,11.12,0,0,0,264,364.7a13.74,13.74,0,0,0-1.54,6.6V372a13.11,13.11,0,0,0,1.7,6.76,11.8,11.8,0,0,0,4.74,4.55,14.48,14.48,0,0,0,7,1.64,15.15,15.15,0,0,0,5.74-1.09,11.93,11.93,0,0,0,4.58-3.34l2.57,3a14.46,14.46,0,0,1-5.61,4.11A19,19,0,0,1,275.71,389Z"/><path class="cls-1" d="M309.18,389a25.84,25.84,0,0,1-7.89-1.19,16.8,16.8,0,0,1-5.83-3l2.05-3.59a19.69,19.69,0,0,0,5.26,2.66A20.14,20.14,0,0,0,309.5,385c3.21,0,5.51-.5,6.92-1.51a4.68,4.68,0,0,0,2.12-4,3.71,3.71,0,0,0-1.19-2.92,7.63,7.63,0,0,0-3.11-1.6,35.48,35.48,0,0,0-4.29-.93q-2.37-.39-4.71-.9a16.83,16.83,0,0,1-4.27-1.51,8.36,8.36,0,0,1-3.11-2.72,8.05,8.05,0,0,1-1.18-4.62,8.35,8.35,0,0,1,1.53-4.93,10.21,10.21,0,0,1,4.53-3.44,18.84,18.84,0,0,1,7.27-1.25,25.34,25.34,0,0,1,6.54.87,18.1,18.1,0,0,1,5.39,2.28l-2,3.65a15.31,15.31,0,0,0-4.81-2.21,20.08,20.08,0,0,0-5.13-.67c-3,0-5.27.52-6.7,1.57a4.77,4.77,0,0,0-2.15,4,3.9,3.9,0,0,0,1.19,3,8.31,8.31,0,0,0,3.14,1.7,33.7,33.7,0,0,0,4.3,1q2.34.39,4.68.93a20.8,20.8,0,0,1,4.29,1.47,8,8,0,0,1,3.15,2.63,7.66,7.66,0,0,1,1.18,4.46,8.19,8.19,0,0,1-1.63,5.1,10.44,10.44,0,0,1-4.75,3.33A21.17,21.17,0,0,1,309.18,389Z"/><path class="cls-1" d="M326.17,358.8V355H347v3.79Zm15.9,30.2q-4.74,0-7.31-2.57t-2.56-7.24V347.58h4.55v31.35a6.4,6.4,0,0,0,1.5,4.55,5.66,5.66,0,0,0,4.33,1.6,7.3,7.3,0,0,0,5-1.73l1.61,3.27a8.41,8.41,0,0,1-3.24,1.8A13.41,13.41,0,0,1,342.07,389Z"/><path class="cls-1" d="M357.46,388.68V355h4.36v9.17l-.45-1.6a11.13,11.13,0,0,1,4.74-5.87,15.76,15.76,0,0,1,8.27-2v4.43a4.36,4.36,0,0,1-.51,0,4.38,4.38,0,0,0-.51,0,10.83,10.83,0,0,0-8.34,3.24q-3,3.24-3,9.2v17.19Z"/><path class="cls-1" d="M396.89,389a17.28,17.28,0,0,1-8.75-2.22,16.22,16.22,0,0,1-6.13-6.09,18.78,18.78,0,0,1,0-17.79,16.31,16.31,0,0,1,6.09-6,17.58,17.58,0,0,1,8.79-2.18,17.87,17.87,0,0,1,8.88,2.18,16,16,0,0,1,6.09,6,19,19,0,0,1,0,17.79,16,16,0,0,1-6.12,6.09A17.62,17.62,0,0,1,396.89,389Zm0-4a12.67,12.67,0,0,0,6.47-1.64,11.78,11.78,0,0,0,4.46-4.61,15.46,15.46,0,0,0,0-13.82,11.79,11.79,0,0,0-4.46-4.59,13.42,13.42,0,0,0-12.82,0,12,12,0,0,0-4.49,4.59,15.21,15.21,0,0,0,0,13.82,12,12,0,0,0,4.49,4.61A12.44,12.44,0,0,0,396.89,385Z"/><path class="cls-1" d="M432.41,389a25.84,25.84,0,0,1-7.89-1.19,16.8,16.8,0,0,1-5.83-3l2.05-3.59A19.69,19.69,0,0,0,426,383.9a20.14,20.14,0,0,0,6.73,1.12q4.8,0,6.92-1.51a4.68,4.68,0,0,0,2.12-4,3.71,3.71,0,0,0-1.19-2.92,7.63,7.63,0,0,0-3.11-1.6,35.48,35.48,0,0,0-4.29-.93c-1.58-.26-3.16-.56-4.72-.9a16.9,16.9,0,0,1-4.26-1.51,8.36,8.36,0,0,1-3.11-2.72,8.05,8.05,0,0,1-1.18-4.62,8.35,8.35,0,0,1,1.53-4.93,10.24,10.24,0,0,1,4.52-3.44,18.92,18.92,0,0,1,7.28-1.25,25.34,25.34,0,0,1,6.54.87,18.1,18.1,0,0,1,5.39,2.28l-2,3.65a15.31,15.31,0,0,0-4.81-2.21,20.08,20.08,0,0,0-5.13-.67c-3,0-5.27.52-6.7,1.57a4.77,4.77,0,0,0-2.15,4,3.9,3.9,0,0,0,1.19,3,8.31,8.31,0,0,0,3.14,1.7,33.31,33.31,0,0,0,4.3,1q2.34.39,4.68.93a20.8,20.8,0,0,1,4.29,1.47,7.85,7.85,0,0,1,3.14,2.63,7.59,7.59,0,0,1,1.19,4.46,8.19,8.19,0,0,1-1.63,5.1,10.5,10.5,0,0,1-4.75,3.33A21.17,21.17,0,0,1,432.41,389Z"/><path class="cls-1" d="M469.72,401.11V354.18h9.56v7.05l-.2,10.26.64,10.2v19.42Zm20.39-11.92a14.78,14.78,0,0,1-7.63-1.92,12.85,12.85,0,0,1-5.1-5.87,23.88,23.88,0,0,1-1.82-10,24.72,24.72,0,0,1,1.73-10,12.26,12.26,0,0,1,5-5.84,15.19,15.19,0,0,1,7.82-1.92,17.37,17.37,0,0,1,8.75,2.21,16.35,16.35,0,0,1,6.16,6.19,20.56,20.56,0,0,1,0,18.78,16.06,16.06,0,0,1-6.16,6.16A17.56,17.56,0,0,1,490.11,389.19ZM488.38,381a8.32,8.32,0,0,0,7.6-4.45,11.68,11.68,0,0,0,0-10.23,8.36,8.36,0,0,0-7.6-4.42,8.78,8.78,0,0,0-4.49,1.15,8.31,8.31,0,0,0-3.14,3.27,12,12,0,0,0,0,10.23,8.26,8.26,0,0,0,3.14,3.3A8.78,8.78,0,0,0,488.38,381Z"/><path class="cls-1" d="M514,388.68v-34.5h9.55v9.75l-1.34-2.82a11,11,0,0,1,4.94-5.55,16.77,16.77,0,0,1,8.27-1.89v9.23l-1.16-.1c-.34,0-.7,0-1.09,0a9.37,9.37,0,0,0-6.63,2.34q-2.54,2.34-2.54,7.28v16.29Z"/><path class="cls-1" d="M558,389.19a20.19,20.19,0,0,1-9.78-2.31,17.55,17.55,0,0,1-6.73-6.31,18.26,18.26,0,0,1,0-18.34,17.35,17.35,0,0,1,6.73-6.29,22.12,22.12,0,0,1,19.52,0,17.49,17.49,0,0,1,0,30.94A20.23,20.23,0,0,1,558,389.19Zm0-8.21a8.78,8.78,0,0,0,4.49-1.15,8.26,8.26,0,0,0,3.14-3.3,12,12,0,0,0,0-10.23A8.31,8.31,0,0,0,562.5,363a9.34,9.34,0,0,0-9,0,8.52,8.52,0,0,0-3.17,3.27,11.59,11.59,0,0,0,0,10.23,8.47,8.47,0,0,0,3.17,3.3A8.78,8.78,0,0,0,558,381Z"/><path class="cls-1" d="M598.27,387a18,18,0,0,1-8.68-2.09,16.55,16.55,0,0,1,0-29.2,18.23,18.23,0,0,1,8.68-2.05,16.29,16.29,0,0,1,7.7,1.76,12.15,12.15,0,0,1,5.19,5.45,24.81,24.81,0,0,1,0,18.85,12.27,12.27,0,0,1-5.19,5.48A16,16,0,0,1,598.27,387Zm1.54,14.62a36.84,36.84,0,0,1-9.39-1.19,20.42,20.42,0,0,1-7.53-3.56l4-7.18a16.11,16.11,0,0,0,5.55,2.85,21.85,21.85,0,0,0,6.63,1.06q5.33,0,7.73-2.37t2.4-7.05V379l.64-8.65-.12-8.72v-7.44h9.49v28.73q0,9.61-5,14.17T599.81,401.63Zm.45-22.83a10,10,0,0,0,4.68-1.06,7.83,7.83,0,0,0,3.21-3,9.15,9.15,0,0,0,0-8.88,8,8,0,0,0-3.21-2.95,11,11,0,0,0-9.36,0,8.56,8.56,0,0,0-3.24,11.83,8,8,0,0,0,3.24,3A10,10,0,0,0,600.26,378.8Z"/><path class="cls-1" d="M628.47,388.68v-34.5H638v9.75l-1.35-2.82a11.08,11.08,0,0,1,4.94-5.55,16.77,16.77,0,0,1,8.27-1.89v9.23l-1.16-.1c-.34,0-.7,0-1.09,0a9.39,9.39,0,0,0-6.63,2.34q-2.53,2.34-2.54,7.28v16.29Z"/><path class="cls-1" d="M666.75,389.19a16,16,0,0,1-6.93-1.38,10.57,10.57,0,0,1-4.42-3.75,10.16,10.16,0,0,1,0-10.71,9.87,9.87,0,0,1,4.78-3.62,23.1,23.1,0,0,1,8.52-1.31h9.17v5.83h-8.08c-2.35,0-4,.38-4.84,1.15a3.7,3.7,0,0,0-1.31,2.89,3.59,3.59,0,0,0,1.5,3,6.8,6.8,0,0,0,4.14,1.13,8.61,8.61,0,0,0,4.49-1.19,6.84,6.84,0,0,0,2.88-3.49l1.54,4.61a8.91,8.91,0,0,1-4,5.07A14.37,14.37,0,0,1,666.75,389.19Zm10.51-.51v-6.74l-.64-1.47V368.42a6.48,6.48,0,0,0-2-5c-1.31-1.19-3.3-1.79-6-1.79a17.54,17.54,0,0,0-5.41.86,14.45,14.45,0,0,0-4.53,2.34l-3.59-7a21.61,21.61,0,0,1,6.8-3.08,30.27,30.27,0,0,1,8.08-1.09q7.89,0,12.25,3.72t4.36,11.6v19.69Z"/><path class="cls-1" d="M739.84,353.67a15.68,15.68,0,0,1,7.28,1.63,11.82,11.82,0,0,1,5,5,18,18,0,0,1,1.83,8.63v19.75h-10V370.47c0-2.78-.57-4.83-1.73-6.16a6.13,6.13,0,0,0-4.87-2,7.74,7.74,0,0,0-3.91,1,6.59,6.59,0,0,0-2.69,3,11.61,11.61,0,0,0-1,5.06v17.32h-10V370.47c0-2.78-.56-4.83-1.7-6.16a6,6,0,0,0-4.84-2,7.76,7.76,0,0,0-3.91,1,6.64,6.64,0,0,0-2.69,3,11.62,11.62,0,0,0-1,5.06v17.32h-10v-34.5h9.56v9.43l-1.8-2.76a12.34,12.34,0,0,1,5.1-5.35,15.26,15.26,0,0,1,7.53-1.83,14.52,14.52,0,0,1,8.31,2.4,11.65,11.65,0,0,1,4.71,7.34l-3.53-1a13.87,13.87,0,0,1,5.55-6.41A16.23,16.23,0,0,1,739.84,353.67Z"/><path class="cls-1" d="M773.57,389.19a15.92,15.92,0,0,1-6.93-1.38,10.51,10.51,0,0,1-4.42-3.75,10.16,10.16,0,0,1,0-10.71,9.84,9.84,0,0,1,4.77-3.62,23.13,23.13,0,0,1,8.53-1.31h9.17v5.83h-8.08c-2.35,0-4,.38-4.84,1.15a3.68,3.68,0,0,0-1.32,2.89,3.59,3.59,0,0,0,1.51,3,6.78,6.78,0,0,0,4.14,1.13,8.57,8.57,0,0,0,4.48-1.19,6.81,6.81,0,0,0,2.89-3.49l1.54,4.61a8.93,8.93,0,0,1-4,5.07A14.31,14.31,0,0,1,773.57,389.19Zm10.51-.51v-6.74l-.64-1.47V368.42a6.45,6.45,0,0,0-2-5q-2-1.79-6-1.79a17.6,17.6,0,0,0-5.42.86,14.51,14.51,0,0,0-4.52,2.34l-3.59-7a21.61,21.61,0,0,1,6.8-3.08,30.27,30.27,0,0,1,8.08-1.09q7.88,0,12.24,3.72t4.36,11.6v19.69Z"/><path class="cls-1" d="M814.09,389.19a33.44,33.44,0,0,1-8.5-1.06,20.88,20.88,0,0,1-6.44-2.66l3.33-7.18a22.25,22.25,0,0,0,5.61,2.4,23.07,23.07,0,0,0,6.38.93,10.45,10.45,0,0,0,4.91-.83,2.57,2.57,0,0,0,1.44-2.31,2,2,0,0,0-1.12-1.83,10.28,10.28,0,0,0-3-.93c-1.24-.21-2.6-.42-4.08-.64s-3-.5-4.45-.86a15.23,15.23,0,0,1-4.11-1.64,8.34,8.34,0,0,1-3-2.95,9.18,9.18,0,0,1-1.12-4.81,9.31,9.31,0,0,1,1.89-5.77,12.56,12.56,0,0,1,5.48-3.94,23.11,23.11,0,0,1,8.6-1.44,34.34,34.34,0,0,1,7.18.77,19.61,19.61,0,0,1,6.09,2.24l-3.34,7.12a16.8,16.8,0,0,0-5-2,23.51,23.51,0,0,0-4.9-.55,10.06,10.06,0,0,0-4.88.9,2.66,2.66,0,0,0-1.54,2.31,2.07,2.07,0,0,0,1.13,1.92,10.19,10.19,0,0,0,3,1c1.24.26,2.59.48,4.07.67a35.64,35.64,0,0,1,4.45.87,16.11,16.11,0,0,1,4.08,1.63,8.67,8.67,0,0,1,3,2.89,8.82,8.82,0,0,1,1.15,4.77,9,9,0,0,1-1.92,5.68,12.65,12.65,0,0,1-5.55,3.88A24.32,24.32,0,0,1,814.09,389.19Z"/><path class="cls-1" d="M854.67,401.11V354.18h9.55v7.05L864,371.49l.64,10.2v19.42Zm20.39-11.92a14.78,14.78,0,0,1-7.63-1.92,12.85,12.85,0,0,1-5.1-5.87,23.72,23.72,0,0,1-1.82-10,24.72,24.72,0,0,1,1.73-10,12.26,12.26,0,0,1,5-5.84,15.16,15.16,0,0,1,7.82-1.92,17.37,17.37,0,0,1,8.75,2.21,16.35,16.35,0,0,1,6.16,6.19,20.56,20.56,0,0,1,0,18.78,16.06,16.06,0,0,1-6.16,6.16A17.56,17.56,0,0,1,875.06,389.19ZM873.33,381a8.35,8.35,0,0,0,7.6-4.45,11.68,11.68,0,0,0,0-10.23,8.39,8.39,0,0,0-7.6-4.42,8.75,8.75,0,0,0-4.49,1.15,8.31,8.31,0,0,0-3.14,3.27,11.86,11.86,0,0,0,0,10.23,8.26,8.26,0,0,0,3.14,3.3A8.75,8.75,0,0,0,873.33,381Z"/><path class="cls-1" d="M898.91,388.68v-34.5h9.55v9.75l-1.34-2.82a11.06,11.06,0,0,1,4.93-5.55,16.82,16.82,0,0,1,8.27-1.89v9.23l-1.15-.1c-.34,0-.7,0-1.09,0a9.4,9.4,0,0,0-6.64,2.34c-1.68,1.56-2.53,4-2.53,7.28v16.29Z"/><path class="cls-1" d="M943,389.19a20.19,20.19,0,0,1-9.78-2.31,17.55,17.55,0,0,1-6.73-6.31,18.26,18.26,0,0,1,0-18.34,17.35,17.35,0,0,1,6.73-6.29,22.12,22.12,0,0,1,19.52,0,17.49,17.49,0,0,1,0,30.94A20.23,20.23,0,0,1,943,389.19Zm0-8.21a8.8,8.8,0,0,0,4.49-1.15,8.26,8.26,0,0,0,3.14-3.3,12,12,0,0,0,0-10.23,8.31,8.31,0,0,0-3.14-3.27,9.34,9.34,0,0,0-9,0,8.45,8.45,0,0,0-3.17,3.27,11.59,11.59,0,0,0,0,10.23,8.4,8.4,0,0,0,3.17,3.3A8.75,8.75,0,0,0,943,381Z"/><path class="cls-1" d="M964.44,362.64V355h23.91v7.69Zm5.32,26V353.41a12.67,12.67,0,0,1,3.46-9.33q3.46-3.49,9.87-3.49a19.17,19.17,0,0,1,4.2.45,9.81,9.81,0,0,1,3.43,1.41l-2.62,7.24a7,7,0,0,0-1.86-.89,7.1,7.1,0,0,0-2.18-.33,4.4,4.4,0,0,0-3.37,1.26,5.26,5.26,0,0,0-1.19,3.75v3.2l.26,4.3v27.7Z"/><path class="cls-1" d="M1010.47,389.19a22.18,22.18,0,0,1-10.35-2.31,17.09,17.09,0,0,1-6.9-6.31,17.3,17.3,0,0,1-2.43-9.14,17.56,17.56,0,0,1,2.4-9.2,17.05,17.05,0,0,1,6.57-6.29,19.43,19.43,0,0,1,9.43-2.27,19.23,19.23,0,0,1,9.14,2.15,16.07,16.07,0,0,1,6.44,6.15,18.51,18.51,0,0,1,2.37,9.59c0,.38,0,.82-.06,1.31s-.09.95-.13,1.38h-28v-5.83h22.76l-3.85,1.73a9.52,9.52,0,0,0-1.09-4.68,7.84,7.84,0,0,0-3-3.11,8.73,8.73,0,0,0-4.49-1.13,8.92,8.92,0,0,0-4.52,1.13,7.73,7.73,0,0,0-3,3.14,9.85,9.85,0,0,0-1.09,4.77v1.54a9.63,9.63,0,0,0,1.25,5,8.19,8.19,0,0,0,3.52,3.27,12,12,0,0,0,5.36,1.12,12.92,12.92,0,0,0,4.84-.83,11.65,11.65,0,0,0,3.81-2.5l5.32,5.77a15.48,15.48,0,0,1-6,4.14A22.08,22.08,0,0,1,1010.47,389.19Z"/><path class="cls-1" d="M1045.41,389.19a33.42,33.42,0,0,1-8.49-1.06,20.77,20.77,0,0,1-6.44-2.66l3.33-7.18a22.25,22.25,0,0,0,5.61,2.4,23,23,0,0,0,6.38.93,10.37,10.37,0,0,0,4.9-.83,2.57,2.57,0,0,0,1.45-2.31,2,2,0,0,0-1.13-1.83,10.08,10.08,0,0,0-3-.93c-1.24-.21-2.59-.42-4.07-.64s-3-.5-4.45-.86a15.23,15.23,0,0,1-4.11-1.64,8.34,8.34,0,0,1-3-2.95,9.18,9.18,0,0,1-1.12-4.81,9.31,9.31,0,0,1,1.89-5.77,12.56,12.56,0,0,1,5.48-3.94,23.09,23.09,0,0,1,8.59-1.44,34.27,34.27,0,0,1,7.18.77,19.58,19.58,0,0,1,6.1,2.24l-3.34,7.12a16.9,16.9,0,0,0-5-2,23.6,23.6,0,0,0-4.91-.55,10,10,0,0,0-4.87.9,2.64,2.64,0,0,0-1.54,2.31,2.07,2.07,0,0,0,1.12,1.92,10.37,10.37,0,0,0,3,1c1.23.26,2.59.48,4.07.67a35.64,35.64,0,0,1,4.45.87,15.89,15.89,0,0,1,4.07,1.63,8.61,8.61,0,0,1,3,2.89,8.91,8.91,0,0,1,1.15,4.77,9,9,0,0,1-1.92,5.68,12.71,12.71,0,0,1-5.55,3.88A24.38,24.38,0,0,1,1045.41,389.19Z"/><path class="cls-1" d="M1072.85,349.37a6.32,6.32,0,0,1-4.48-1.6,5.43,5.43,0,0,1,0-7.95,6.32,6.32,0,0,1,4.48-1.6,6.6,6.6,0,0,1,4.49,1.5,4.9,4.9,0,0,1,1.73,3.88,5.5,5.5,0,0,1-1.69,4.14A6.26,6.26,0,0,1,1072.85,349.37Zm-5,39.31v-34.5h10v34.5Z"/><path class="cls-1" d="M1103.57,389.19a20.19,20.19,0,0,1-9.78-2.31,17.55,17.55,0,0,1-6.73-6.31,18.26,18.26,0,0,1,0-18.34,17.35,17.35,0,0,1,6.73-6.29,22.12,22.12,0,0,1,19.52,0,17.5,17.5,0,0,1,0,30.94A20.23,20.23,0,0,1,1103.57,389.19Zm0-8.21a8.8,8.8,0,0,0,4.49-1.15,8.26,8.26,0,0,0,3.14-3.3,12,12,0,0,0,0-10.23,8.31,8.31,0,0,0-3.14-3.27,9.34,9.34,0,0,0-9,0,8.48,8.48,0,0,0-3.18,3.27,11.68,11.68,0,0,0,0,10.23,8.42,8.42,0,0,0,3.18,3.3A8.75,8.75,0,0,0,1103.57,381Z"/><path class="cls-1" d="M1150.11,353.67a16.09,16.09,0,0,1,7.35,1.63,11.91,11.91,0,0,1,5.09,5,17.74,17.74,0,0,1,1.86,8.63v19.75h-10V370.47q0-4.17-1.83-6.16a6.67,6.67,0,0,0-5.16-2,9,9,0,0,0-4.26,1,6.89,6.89,0,0,0-3,3,11.39,11.39,0,0,0-1.06,5.26v17.06h-10v-34.5h9.55v9.55l-1.79-2.88a12.75,12.75,0,0,1,5.32-5.32A16.41,16.41,0,0,1,1150.11,353.67Z"/><path class="cls-1" d="M1184.1,389.19a16,16,0,0,1-6.93-1.38,10.51,10.51,0,0,1-4.42-3.75,10.16,10.16,0,0,1,0-10.71,9.84,9.84,0,0,1,4.77-3.62,23.13,23.13,0,0,1,8.53-1.31h9.17v5.83h-8.08c-2.35,0-4,.38-4.84,1.15a3.68,3.68,0,0,0-1.32,2.89,3.59,3.59,0,0,0,1.51,3,6.78,6.78,0,0,0,4.14,1.13,8.57,8.57,0,0,0,4.48-1.19,6.81,6.81,0,0,0,2.89-3.49l1.54,4.61a8.93,8.93,0,0,1-4,5.07A14.31,14.31,0,0,1,1184.1,389.19Zm10.51-.51v-6.74l-.64-1.47V368.42a6.45,6.45,0,0,0-2-5q-2-1.79-6-1.79a17.6,17.6,0,0,0-5.42.86,14.51,14.51,0,0,0-4.52,2.34l-3.59-7a21.61,21.61,0,0,1,6.8-3.08,30.27,30.27,0,0,1,8.08-1.09q7.88,0,12.24,3.72T1204,369v19.69Z"/><path class="cls-1" d="M1213,388.68V341.1h10v47.58Z"/><path class="cls-1" d="M1249.43,389.19a22.22,22.22,0,0,1-10.36-2.31,17.06,17.06,0,0,1-6.89-6.31,17.3,17.3,0,0,1-2.43-9.14,17.56,17.56,0,0,1,2.4-9.2,17.05,17.05,0,0,1,6.57-6.29,19.43,19.43,0,0,1,9.43-2.27,19.16,19.16,0,0,1,9.13,2.15,16,16,0,0,1,6.45,6.15,18.51,18.51,0,0,1,2.37,9.59c0,.38,0,.82-.06,1.31s-.09.95-.13,1.38h-28v-5.83h22.76l-3.85,1.73a9.52,9.52,0,0,0-1.09-4.68,7.9,7.9,0,0,0-3-3.11,8.73,8.73,0,0,0-4.49-1.13,8.89,8.89,0,0,0-4.52,1.13,7.73,7.73,0,0,0-3,3.14,9.85,9.85,0,0,0-1.09,4.77v1.54a9.63,9.63,0,0,0,1.25,5,8.13,8.13,0,0,0,3.52,3.27,12,12,0,0,0,5.36,1.12,12.92,12.92,0,0,0,4.84-.83,11.75,11.75,0,0,0,3.81-2.5l5.32,5.77a15.56,15.56,0,0,1-6,4.14A22.08,22.08,0,0,1,1249.43,389.19Z"/><path class="cls-1" d="M1284.37,389.19a33.36,33.36,0,0,1-8.49-1.06,20.84,20.84,0,0,1-6.45-2.66l3.34-7.18a22.25,22.25,0,0,0,5.61,2.4,23,23,0,0,0,6.38.93,10.4,10.4,0,0,0,4.9-.83,2.57,2.57,0,0,0,1.44-2.31,2,2,0,0,0-1.12-1.83,10.18,10.18,0,0,0-3-.93c-1.24-.21-2.6-.42-4.07-.64s-3-.5-4.46-.86a15.29,15.29,0,0,1-4.1-1.64,8.34,8.34,0,0,1-3-2.95,9.18,9.18,0,0,1-1.12-4.81,9.31,9.31,0,0,1,1.89-5.77,12.56,12.56,0,0,1,5.48-3.94,23.05,23.05,0,0,1,8.59-1.44,34.27,34.27,0,0,1,7.18.77,19.42,19.42,0,0,1,6.09,2.24l-3.33,7.12a17,17,0,0,0-5-2,23.6,23.6,0,0,0-4.91-.55,10,10,0,0,0-4.87.9,2.64,2.64,0,0,0-1.54,2.31,2.06,2.06,0,0,0,1.12,1.92,10.3,10.3,0,0,0,3,1c1.24.26,2.6.48,4.07.67a35.79,35.79,0,0,1,4.46.87,16,16,0,0,1,4.07,1.63,8.58,8.58,0,0,1,3,2.89,8.82,8.82,0,0,1,1.16,4.77,9,9,0,0,1-1.93,5.68,12.67,12.67,0,0,1-5.54,3.88A24.42,24.42,0,0,1,1284.37,389.19Z"/><path class="cls-1" d="M501.56,477.45a17.5,17.5,0,0,1-8.79-2.22,16.19,16.19,0,0,1-6.19-6.18,20.58,20.58,0,0,1,0-18.79,16,16,0,0,1,6.19-6.15,17.69,17.69,0,0,1,8.79-2.18,14.81,14.81,0,0,1,7.63,1.92,12.66,12.66,0,0,1,5.06,5.83,24.06,24.06,0,0,1,1.8,10,25,25,0,0,1-1.73,10,12.38,12.38,0,0,1-5,5.86A14.93,14.93,0,0,1,501.56,477.45Zm1.73-8.21a8.72,8.72,0,0,0,4.42-1.15,8.36,8.36,0,0,0,3.17-3.31,11.57,11.57,0,0,0,0-10.22,8.45,8.45,0,0,0-3.17-3.27,8.63,8.63,0,0,0-4.42-1.16,8.76,8.76,0,0,0-4.49,1.16,8.45,8.45,0,0,0-3.17,3.27,11.57,11.57,0,0,0,0,10.22,8.36,8.36,0,0,0,3.17,3.31A8.85,8.85,0,0,0,503.29,469.24Zm9,7.69v-7.05l.19-10.26-.64-10.19V429.36h10v47.57Z"/><path class="cls-1" d="M548.23,477.45a22.18,22.18,0,0,1-10.35-2.31,17,17,0,0,1-6.9-6.32,17.24,17.24,0,0,1-2.43-9.13,17.53,17.53,0,0,1,2.4-9.2,17.12,17.12,0,0,1,6.57-6.29,20.66,20.66,0,0,1,18.57-.13,16.17,16.17,0,0,1,6.44,6.16,18.5,18.5,0,0,1,2.37,9.58q0,.58-.06,1.32c-.05.49-.09.95-.13,1.38h-28v-5.84h22.76l-3.84,1.73a9.69,9.69,0,0,0-1.09-4.68,8.06,8.06,0,0,0-3-3.11,8.82,8.82,0,0,0-4.49-1.12,9,9,0,0,0-4.52,1.12,7.82,7.82,0,0,0-3,3.15,9.85,9.85,0,0,0-1.09,4.77v1.54a9.63,9.63,0,0,0,1.25,5,8.19,8.19,0,0,0,3.52,3.27,12,12,0,0,0,5.36,1.12,13.08,13.08,0,0,0,4.84-.83,11.81,11.81,0,0,0,3.81-2.5l5.33,5.77a15.57,15.57,0,0,1-6,4.13A21.88,21.88,0,0,1,548.23,477.45Z"/><path class="cls-1" d="M600.36,477.45a16,16,0,0,1-6.93-1.38,10.51,10.51,0,0,1-4.42-3.75,10.16,10.16,0,0,1,0-10.71,9.78,9.78,0,0,1,4.77-3.62,23.14,23.14,0,0,1,8.53-1.32h9.17v5.84h-8.08q-3.52,0-4.84,1.15a3.67,3.67,0,0,0-1.31,2.89,3.6,3.6,0,0,0,1.5,3,6.78,6.78,0,0,0,4.14,1.12,8.63,8.63,0,0,0,4.49-1.18,6.82,6.82,0,0,0,2.88-3.5l1.54,4.62a9,9,0,0,1-4,5.07A14.31,14.31,0,0,1,600.36,477.45Zm10.51-.52V470.2l-.64-1.47V456.67a6.47,6.47,0,0,0-2-5q-2-1.79-6-1.79a17.65,17.65,0,0,0-5.42.86,14.51,14.51,0,0,0-4.52,2.34l-3.59-7a21.6,21.6,0,0,1,6.8-3.07,30.27,30.27,0,0,1,8.08-1.09c5.25,0,9.34,1.24,12.24,3.71s4.36,6.35,4.36,11.61v19.68Z"/><path class="cls-1" d="M650.24,441.93a16.07,16.07,0,0,1,7.34,1.63,11.88,11.88,0,0,1,5.1,5,17.74,17.74,0,0,1,1.86,8.63v19.74h-10V458.72c0-2.77-.6-4.83-1.82-6.15a6.68,6.68,0,0,0-5.16-2,8.94,8.94,0,0,0-4.27,1,6.89,6.89,0,0,0-2.95,3,11.53,11.53,0,0,0-1.05,5.26v17.05h-10V429.36h10V452L637,449.11a12.75,12.75,0,0,1,5.32-5.32A16.42,16.42,0,0,1,650.24,441.93Z"/><path class="cls-1" d="M690,477.45a20.22,20.22,0,0,1-9.78-2.31,17.57,17.57,0,0,1-6.73-6.32,18.24,18.24,0,0,1,0-18.33,17.35,17.35,0,0,1,6.73-6.29,22.14,22.14,0,0,1,19.53,0,17.51,17.51,0,0,1,0,30.94A20.29,20.29,0,0,1,690,477.45Zm0-8.21a8.88,8.88,0,0,0,4.49-1.15,8.23,8.23,0,0,0,3.14-3.31,11.93,11.93,0,0,0,0-10.22,8.31,8.31,0,0,0-3.14-3.27,9.27,9.27,0,0,0-9,0,8.52,8.52,0,0,0-3.17,3.27,11.57,11.57,0,0,0,0,10.22,8.43,8.43,0,0,0,3.17,3.31A8.88,8.88,0,0,0,690,469.24Z"/><path class="cls-1" d="M715.57,476.93V442.44h9.56v9.74l-1.35-2.82a11.1,11.1,0,0,1,4.94-5.54,16.77,16.77,0,0,1,8.27-1.89v9.23c-.43,0-.81-.08-1.16-.1s-.7,0-1.09,0a9.39,9.39,0,0,0-6.63,2.34q-2.54,2.34-2.54,7.28v16.28Z"/><path class="cls-1" d="M743.21,476.93V442.44h9.55v9.74l-1.35-2.82a11.1,11.1,0,0,1,4.94-5.54,16.8,16.8,0,0,1,8.27-1.89v9.23l-1.15-.1c-.35,0-.71,0-1.09,0a9.4,9.4,0,0,0-6.64,2.34q-2.54,2.34-2.53,7.28v16.28Z"/><path class="cls-1" d="M787.25,477.45a20.18,20.18,0,0,1-9.77-2.31,17.53,17.53,0,0,1-6.74-6.32,18.3,18.3,0,0,1,0-18.33,17.31,17.31,0,0,1,6.74-6.29,22.12,22.12,0,0,1,19.52,0,17.51,17.51,0,0,1,0,30.94A20.24,20.24,0,0,1,787.25,477.45Zm0-8.21a8.85,8.85,0,0,0,4.49-1.15,8.16,8.16,0,0,0,3.14-3.31,11.84,11.84,0,0,0,0-10.22,8.24,8.24,0,0,0-3.14-3.27,9.25,9.25,0,0,0-9,0,8.48,8.48,0,0,0-3.18,3.27,11.65,11.65,0,0,0,0,10.22,8.38,8.38,0,0,0,3.18,3.31A8.84,8.84,0,0,0,787.25,469.24Z"/><path class="cls-1" d="M824.44,477.45a33.82,33.82,0,0,1-8.49-1.06,21.08,21.08,0,0,1-6.45-2.66l3.34-7.18a22.25,22.25,0,0,0,5.61,2.4,23,23,0,0,0,6.38.93,10.53,10.53,0,0,0,4.9-.83,2.57,2.57,0,0,0,1.44-2.31,2,2,0,0,0-1.12-1.83,10.18,10.18,0,0,0-3-.93c-1.24-.21-2.6-.42-4.07-.64s-3-.5-4.46-.86a15.29,15.29,0,0,1-4.1-1.64,8.42,8.42,0,0,1-3-2.95,9.18,9.18,0,0,1-1.12-4.81,9.31,9.31,0,0,1,1.89-5.77,12.42,12.42,0,0,1,5.48-3.94,23.05,23.05,0,0,1,8.59-1.44,34.27,34.27,0,0,1,7.18.77,19.42,19.42,0,0,1,6.09,2.24l-3.33,7.12a16.74,16.74,0,0,0-5-2,23,23,0,0,0-4.91-.55,10,10,0,0,0-4.87.9,2.64,2.64,0,0,0-1.54,2.31,2.08,2.08,0,0,0,1.12,1.92,10.3,10.3,0,0,0,3,1c1.24.25,2.6.48,4.07.67a35.79,35.79,0,0,1,4.46.87,16,16,0,0,1,4.07,1.63,8.58,8.58,0,0,1,3,2.89,8.8,8.8,0,0,1,1.16,4.77,9,9,0,0,1-1.93,5.68,12.67,12.67,0,0,1-5.54,3.88A24.42,24.42,0,0,1,824.44,477.45Z"/></g></g></svg>