<svg xmlns="http://www.w3.org/2000/svg" xmlns:xlink="http://www.w3.org/1999/xlink" viewBox="0 0 426.67 118.43"><defs><style>.cls-1{fill:url(#Degradado_sin_nombre_6);}.cls-2{fill:#fff;}</style><linearGradient id="Degradado_sin_nombre_6" x1="-306.94" y1="59.21" x2="393.78" y2="59.21" gradientUnits="userSpaceOnUse"><stop offset="0" stop-color="#d5b46d"/><stop offset="0" stop-color="#deb457"/><stop offset="0.07" stop-color="#ebd07e"/><stop offset="0.14" stop-color="#f6e9a0"/><stop offset="0.2" stop-color="#fdf8b5"/><stop offset="0.23" stop-color="#fffdbd"/><stop offset="0.41" stop-color="#d6ab47"/><stop offset="0.51" stop-color="#d4a945"/><stop offset="0.54" stop-color="#cea240"/><stop offset="0.56" stop-color="#c29736"/><stop offset="0.58" stop-color="#b28628"/><stop offset="0.59" stop-color="#ae8225"/><stop offset="0.77" stop-color="#cf9e25"/><stop offset="0.92" stop-color="#bd912a"/><stop offset="1" stop-color="#b48a2d"/></linearGradient></defs><g id="Capa_2" data-name="Capa 2"><g id="Capa_1-2" data-name="Capa 1"><rect class="cls-1" width="426.67" height="118.43" rx="12.67"/><path class="cls-2" d="M74.51,77.65a20.62,20.62,0,0,1-7.45-1.31,17.28,17.28,0,0,1-9.9-9.43,18.86,18.86,0,0,1,0-14.36,17.19,17.19,0,0,1,4-5.7,17.92,17.92,0,0,1,6-3.74,20.84,20.84,0,0,1,7.48-1.31,20.49,20.49,0,0,1,8.15,1.56,16,16,0,0,1,6.12,4.58l-5.16,4.75a12,12,0,0,0-4-3,11,11,0,0,0-4.75-1,12.16,12.16,0,0,0-4.46.8A10,10,0,0,0,67,51.7a10.56,10.56,0,0,0-2.31,3.52,12.93,12.93,0,0,0,0,9A10.46,10.46,0,0,0,67,67.75,10.14,10.14,0,0,0,70.5,70a12.15,12.15,0,0,0,4.46.79,11,11,0,0,0,4.75-1,11.49,11.49,0,0,0,4-3.09l5.16,4.75a16.14,16.14,0,0,1-6.12,4.61A20.47,20.47,0,0,1,74.51,77.65Z"/><path class="cls-2" d="M106.36,77.46a15.64,15.64,0,0,1-7.56-1.79,13.57,13.57,0,0,1-5.2-4.88,13.16,13.16,0,0,1-1.9-7.05,13.11,13.11,0,0,1,7.1-12,17,17,0,0,1,15.08,0,13.51,13.51,0,0,1,0,23.89A15.62,15.62,0,0,1,106.36,77.46Zm0-6.34a6.8,6.8,0,0,0,3.46-.89,6.39,6.39,0,0,0,2.43-2.56,9.19,9.19,0,0,0,0-7.89,6.37,6.37,0,0,0-2.43-2.53,7.19,7.19,0,0,0-6.93,0,6.56,6.56,0,0,0-2.45,2.53,8.92,8.92,0,0,0,0,7.89,6.57,6.57,0,0,0,2.45,2.56A6.81,6.81,0,0,0,106.36,71.12Z"/><path class="cls-2" d="M142.31,50A12.44,12.44,0,0,1,148,51.28a9.13,9.13,0,0,1,3.94,3.87,13.75,13.75,0,0,1,1.43,6.66V77.06h-7.72V63a6.86,6.86,0,0,0-1.41-4.76,5.17,5.17,0,0,0-4-1.53,7,7,0,0,0-3.29.76,5.32,5.32,0,0,0-2.28,2.36,8.75,8.75,0,0,0-.82,4.06V77.06h-7.73V50.42h7.38v7.37l-1.38-2.22a9.7,9.7,0,0,1,4.11-4.11A12.63,12.63,0,0,1,142.31,50Z"/><path class="cls-2" d="M173,77.46a15.6,15.6,0,0,1-7.55-1.79,13.5,13.5,0,0,1-5.2-4.88,13.16,13.16,0,0,1-1.91-7.05,13.14,13.14,0,0,1,7.11-12,17,17,0,0,1,15.08,0,13.24,13.24,0,0,1,5.2,4.83,13.55,13.55,0,0,1-5.2,19.06A15.63,15.63,0,0,1,173,77.46Zm0-6.34a6.84,6.84,0,0,0,3.47-.89,6.45,6.45,0,0,0,2.43-2.56,9.19,9.19,0,0,0,0-7.89,6.44,6.44,0,0,0-2.43-2.53,7.19,7.19,0,0,0-6.93,0,6.51,6.51,0,0,0-2.46,2.53,9,9,0,0,0,0,7.89,6.52,6.52,0,0,0,2.46,2.56A6.78,6.78,0,0,0,173,71.12Z"/><path class="cls-2" d="M205.65,77.46A16.4,16.4,0,0,1,198,75.7a13.44,13.44,0,0,1,0-23.92A16.4,16.4,0,0,1,205.65,50,14.73,14.73,0,0,1,213,51.78a10.72,10.72,0,0,1,4.6,5l-6,3.22a6.92,6.92,0,0,0-2.6-2.77,6.76,6.76,0,0,0-3.39-.89,7.22,7.22,0,0,0-3.57.89,6.47,6.47,0,0,0-2.5,2.53,9.07,9.07,0,0,0,0,7.92,6.54,6.54,0,0,0,2.5,2.53,7.22,7.22,0,0,0,3.57.89,6.85,6.85,0,0,0,3.39-.87,6.7,6.7,0,0,0,2.6-2.8l6,3.27a10.73,10.73,0,0,1-4.6,5A14.73,14.73,0,0,1,205.65,77.46Z"/><path class="cls-2" d="M235.26,77.46a17.15,17.15,0,0,1-8-1.79,13,13,0,0,1-7.2-11.93,13.63,13.63,0,0,1,1.85-7.11A13.16,13.16,0,0,1,227,51.78a15.89,15.89,0,0,1,14.34-.1,12.47,12.47,0,0,1,5,4.75,14.22,14.22,0,0,1,1.84,7.41c0,.29,0,.63,0,1s-.07.74-.1,1.07H226.35V61.41h17.58l-3,1.34a7.34,7.34,0,0,0-.85-3.62,6.15,6.15,0,0,0-2.32-2.4,6.75,6.75,0,0,0-3.47-.87,6.87,6.87,0,0,0-3.49.87,6,6,0,0,0-2.35,2.43,7.56,7.56,0,0,0-.85,3.69V64a7.49,7.49,0,0,0,1,3.83,6.28,6.28,0,0,0,2.72,2.53,9.25,9.25,0,0,0,4.14.87,10,10,0,0,0,3.74-.65,9.08,9.08,0,0,0,2.94-1.93l4.12,4.46a12.08,12.08,0,0,1-4.61,3.19A17.11,17.11,0,0,1,235.26,77.46Z"/><path class="cls-2" d="M301.42,50A12.12,12.12,0,0,1,307,51.28a9.09,9.09,0,0,1,3.87,3.87,13.88,13.88,0,0,1,1.41,6.66V77.06h-7.73V63a7.06,7.06,0,0,0-1.34-4.76,4.72,4.72,0,0,0-3.76-1.53,6,6,0,0,0-3,.76,5.22,5.22,0,0,0-2.08,2.31,8.88,8.88,0,0,0-.74,3.91V77.06h-7.73V63a7.23,7.23,0,0,0-1.31-4.76,4.66,4.66,0,0,0-3.74-1.53,6,6,0,0,0-3,.76,5.16,5.16,0,0,0-2.08,2.31,8.88,8.88,0,0,0-.74,3.91V77.06H267.3V50.42h7.38V57.7l-1.39-2.13a9.57,9.57,0,0,1,3.94-4.14A11.83,11.83,0,0,1,283.05,50a11.16,11.16,0,0,1,6.41,1.86,9,9,0,0,1,3.64,5.67l-2.72-.75a10.66,10.66,0,0,1,4.28-4.95A12.57,12.57,0,0,1,301.42,50Z"/><path class="cls-2" d="M327.47,77.46a12.33,12.33,0,0,1-5.35-1.07,8.07,8.07,0,0,1-3.41-2.9,7.32,7.32,0,0,1-1.19-4.11,7.42,7.42,0,0,1,1.16-4.16,7.66,7.66,0,0,1,3.69-2.79,17.84,17.84,0,0,1,6.59-1H336v4.51H329.8c-1.82,0-3.06.29-3.74.89A2.84,2.84,0,0,0,325,69a2.77,2.77,0,0,0,1.17,2.35,5.21,5.21,0,0,0,3.19.87,6.64,6.64,0,0,0,3.47-.92,5.3,5.3,0,0,0,2.23-2.7l1.19,3.57a7,7,0,0,1-3.07,3.91A11.1,11.1,0,0,1,327.47,77.46Zm8.12-.4v-5.2l-.49-1.14V61.41a5,5,0,0,0-1.51-3.86A6.64,6.64,0,0,0,329,56.16a13.36,13.36,0,0,0-4.19.67,11.17,11.17,0,0,0-3.49,1.81l-2.77-5.4a16.7,16.7,0,0,1,5.25-2.38A23.47,23.47,0,0,1,330,50q6.09,0,9.46,2.87c2.24,1.92,3.36,4.9,3.36,9v15.2ZM326.28,47,333,39.87h8.32l-9,7.13Z"/><path class="cls-2" d="M358.77,77.46a26.14,26.14,0,0,1-6.56-.82,16.22,16.22,0,0,1-5-2.06L349.8,69a16.94,16.94,0,0,0,4.34,1.85,17.72,17.72,0,0,0,4.93.72,8,8,0,0,0,3.78-.64A2,2,0,0,0,364,69.19a1.53,1.53,0,0,0-.87-1.42,7.54,7.54,0,0,0-2.3-.71c-1-.17-2-.33-3.15-.5s-2.28-.39-3.44-.67A11.8,11.8,0,0,1,351,64.63a6.44,6.44,0,0,1-2.3-2.28,7.07,7.07,0,0,1-.87-3.71,7.21,7.21,0,0,1,1.46-4.46,9.76,9.76,0,0,1,4.24-3A17.83,17.83,0,0,1,360.2,50a27.29,27.29,0,0,1,5.55.59,15.24,15.24,0,0,1,4.71,1.74l-2.58,5.49A13.24,13.24,0,0,0,364,56.29a17.35,17.35,0,0,0-3.79-.43,7.78,7.78,0,0,0-3.76.7,2,2,0,0,0-1.19,1.78,1.61,1.61,0,0,0,.87,1.49,8,8,0,0,0,2.3.79c1,.2,2,.37,3.15.52a28.57,28.57,0,0,1,3.44.67,12,12,0,0,1,3.14,1.26,6.66,6.66,0,0,1,2.31,2.23,6.86,6.86,0,0,1,.89,3.69,6.93,6.93,0,0,1-1.49,4.38,9.82,9.82,0,0,1-4.28,3A19,19,0,0,1,358.77,77.46Z"/></g></g></svg>