<svg xmlns="http://www.w3.org/2000/svg" viewBox="0 0 928.7 129.41"><defs><style>.cls-1{fill:#fff;}</style></defs><g id="Capa_2" data-name="Capa 2"><g id="Capa_1-2" data-name="Capa 1"><path class="cls-1" d="M20.33,42.05a21.9,21.9,0,0,1-8.11-1.47A19,19,0,0,1,1.53,30.17,20,20,0,0,1,0,22.28a20,20,0,0,1,1.53-7.89A18.84,18.84,0,0,1,5.81,8.11,19.39,19.39,0,0,1,12.28,4,21.86,21.86,0,0,1,20.39,2.5a22,22,0,0,1,7.94,1.42,15.89,15.89,0,0,1,6.28,4.25L32,10.78a14.39,14.39,0,0,0-5.28-3.53A17.6,17.6,0,0,0,20.5,6.17,17.35,17.35,0,0,0,14,7.36a15.59,15.59,0,0,0-5.22,3.39A15.84,15.84,0,0,0,4.06,22.28a16,16,0,0,0,1.25,6.41A15.79,15.79,0,0,0,8.78,33.8,15.29,15.29,0,0,0,14,37.19a17.35,17.35,0,0,0,6.5,1.2,17.17,17.17,0,0,0,6.22-1.11A14.73,14.73,0,0,0,32,33.72l2.61,2.61a16.16,16.16,0,0,1-6.28,4.28A22,22,0,0,1,20.33,42.05Z"/><path class="cls-1" d="M54.44,42a15,15,0,0,1-7.58-1.92,14.16,14.16,0,0,1-5.31-5.28,15.12,15.12,0,0,1-1.94-7.69,15.08,15.08,0,0,1,1.94-7.72,14.07,14.07,0,0,1,5.28-5.22,15.15,15.15,0,0,1,7.61-1.89,15.44,15.44,0,0,1,7.7,1.89,13.7,13.7,0,0,1,5.27,5.22,15.17,15.17,0,0,1,1.92,7.72,15.21,15.21,0,0,1-1.92,7.69,13.79,13.79,0,0,1-5.3,5.28A15.3,15.3,0,0,1,54.44,42Zm0-3.5a10.93,10.93,0,0,0,5.61-1.42,10.11,10.11,0,0,0,3.86-4,12.14,12.14,0,0,0,1.42-6,12.1,12.1,0,0,0-1.42-6,10.17,10.17,0,0,0-3.86-4,11.58,11.58,0,0,0-11.11,0,10.45,10.45,0,0,0-3.89,4,12,12,0,0,0-1.44,6,12,12,0,0,0,1.44,6,10.39,10.39,0,0,0,3.89,4A10.73,10.73,0,0,0,54.44,38.5Z"/><path class="cls-1" d="M92.27,12.28a13.63,13.63,0,0,1,6.25,1.36,9.82,9.82,0,0,1,4.23,4.14,14.48,14.48,0,0,1,1.52,7V41.72h-3.94V25.17c0-3.08-.77-5.4-2.31-7a8.63,8.63,0,0,0-6.47-2.36,11.2,11.2,0,0,0-5.41,1.25,8.61,8.61,0,0,0-3.56,3.61,12.11,12.11,0,0,0-1.25,5.7V41.72H77.39V12.55h3.77v8l-.61-1.5a10.66,10.66,0,0,1,4.45-5A14.05,14.05,0,0,1,92.27,12.28Z"/><path class="cls-1" d="M130.33,41.72V2.83h15.83A23.2,23.2,0,0,1,157.08,5.3a18.12,18.12,0,0,1,7.3,6.87A19.37,19.37,0,0,1,167,22.28a19.42,19.42,0,0,1-2.61,10.11,18.17,18.17,0,0,1-7.3,6.86,23.08,23.08,0,0,1-10.92,2.47Zm4.11-3.55h11.5a18.85,18.85,0,0,0,9-2,14.76,14.76,0,0,0,5.92-5.61,16,16,0,0,0,2.11-8.25A16,16,0,0,0,160.83,14a14.82,14.82,0,0,0-5.92-5.58,18.73,18.73,0,0,0-9-2h-11.5Z"/><path class="cls-1" d="M187.77,42a16.16,16.16,0,0,1-8-1.92,14,14,0,0,1-5.39-5.28,15,15,0,0,1-1.94-7.69,15.5,15.5,0,0,1,1.86-7.67,13.78,13.78,0,0,1,5.11-5.25,15.1,15.1,0,0,1,14.61,0,13.24,13.24,0,0,1,5,5.22,15.94,15.94,0,0,1,1.83,7.75,5.78,5.78,0,0,1,0,.58c0,.21,0,.42,0,.64H175.44V25.39h23.27l-1.55,1.16a11.52,11.52,0,0,0-1.36-5.63,10.06,10.06,0,0,0-3.7-3.87,10.37,10.37,0,0,0-5.39-1.38,10.54,10.54,0,0,0-5.38,1.38,9.7,9.7,0,0,0-3.73,3.89,12,12,0,0,0-1.33,5.73v.61a11.46,11.46,0,0,0,1.47,5.86,10.26,10.26,0,0,0,4.11,3.94,12.49,12.49,0,0,0,6,1.42,12.94,12.94,0,0,0,5-1,10.45,10.45,0,0,0,4-2.88l2.22,2.55a12.59,12.59,0,0,1-4.86,3.56A16.58,16.58,0,0,1,187.77,42Z"/><path class="cls-1" d="M216.77,42a22.14,22.14,0,0,1-6.83-1,14.67,14.67,0,0,1-5.06-2.58l1.78-3.11a16.79,16.79,0,0,0,4.55,2.3,17.5,17.5,0,0,0,5.84,1q4.15,0,6-1.3a4.07,4.07,0,0,0,1.83-3.47,3.19,3.19,0,0,0-1-2.53,6.65,6.65,0,0,0-2.69-1.39,36.36,36.36,0,0,0-3.73-.81c-1.37-.22-2.73-.48-4.08-.77A14.9,14.9,0,0,1,209.66,27a7.25,7.25,0,0,1-2.7-2.36,7,7,0,0,1-1-4,7.24,7.24,0,0,1,1.33-4.28,8.75,8.75,0,0,1,3.92-3,16.32,16.32,0,0,1,6.3-1.08,22.09,22.09,0,0,1,5.67.75,15.38,15.38,0,0,1,4.66,2l-1.72,3.17a13.26,13.26,0,0,0-4.17-1.92,17.35,17.35,0,0,0-4.44-.58q-3.94,0-5.8,1.36a4.11,4.11,0,0,0-1.87,3.47,3.39,3.39,0,0,0,1,2.61,7.05,7.05,0,0,0,2.72,1.47,27.38,27.38,0,0,0,3.73.86c1.35.23,2.7.49,4,.81a17.89,17.89,0,0,1,3.72,1.28,6.82,6.82,0,0,1,2.73,2.27,6.68,6.68,0,0,1,1,3.87,7.09,7.09,0,0,1-1.41,4.41A9.09,9.09,0,0,1,223.3,41,18.3,18.3,0,0,1,216.77,42Z"/><path class="cls-1" d="M244.27,42a13.87,13.87,0,0,1-5.7-1.08,8.55,8.55,0,0,1-3.69-3,7.8,7.8,0,0,1-1.28-4.42,8.09,8.09,0,0,1,1.08-4.14,7.68,7.68,0,0,1,3.56-3,16.08,16.08,0,0,1,6.64-1.14h10.05v3H245q-4.23,0-5.86,1.5a5.07,5.07,0,0,0,.3,7.72,8.74,8.74,0,0,0,5.45,1.5,10.53,10.53,0,0,0,5.75-1.53,8.83,8.83,0,0,0,3.53-4.42l.88,2.73a9.26,9.26,0,0,1-3.86,4.61A12.87,12.87,0,0,1,244.27,42Zm10-.28V35.28l-.16-1.06V23.44a7.55,7.55,0,0,0-2.09-5.72q-2.08-2-6.19-2a15.4,15.4,0,0,0-5.39,1,13.54,13.54,0,0,0-4.33,2.5l-1.78-3a15.85,15.85,0,0,1,5.33-2.92,20.9,20.9,0,0,1,6.56-1q5.65,0,8.75,2.8c2,1.87,3.08,4.72,3.08,8.53V41.72Z"/><path class="cls-1" d="M268.82,41.72V12.55h3.78v8l-.39-1.39A9.54,9.54,0,0,1,276.32,14a13.58,13.58,0,0,1,7.17-1.75v3.83a3.4,3.4,0,0,1-.45,0,3.25,3.25,0,0,0-.44,0,9.37,9.37,0,0,0-7.22,2.81q-2.61,2.81-2.61,8V41.72Z"/><path class="cls-1" d="M291.1,41.72V12.55h3.77v8l-.38-1.39A9.54,9.54,0,0,1,298.6,14a13.54,13.54,0,0,1,7.16-1.75v3.83a3.25,3.25,0,0,1-.44,0,3.4,3.4,0,0,0-.45,0,9.39,9.39,0,0,0-7.22,2.81q-2.61,2.81-2.61,8V41.72Z"/><path class="cls-1" d="M325.26,42a15,15,0,0,1-7.58-1.92,14.16,14.16,0,0,1-5.31-5.28,15.12,15.12,0,0,1-1.94-7.69,15.08,15.08,0,0,1,1.94-7.72,14.07,14.07,0,0,1,5.28-5.22,15.15,15.15,0,0,1,7.61-1.89,15.44,15.44,0,0,1,7.7,1.89,13.7,13.7,0,0,1,5.27,5.22,15.17,15.17,0,0,1,1.92,7.72,15.21,15.21,0,0,1-1.92,7.69,13.79,13.79,0,0,1-5.3,5.28A15.3,15.3,0,0,1,325.26,42Zm0-3.5a10.93,10.93,0,0,0,5.61-1.42,10.11,10.11,0,0,0,3.86-4,12.14,12.14,0,0,0,1.42-6,12.1,12.1,0,0,0-1.42-6,10.17,10.17,0,0,0-3.86-4,11.58,11.58,0,0,0-11.11,0,10.45,10.45,0,0,0-3.89,4,12,12,0,0,0-1.44,6,12,12,0,0,0,1.44,6,10.39,10.39,0,0,0,3.89,4A10.71,10.71,0,0,0,325.26,38.5Z"/><path class="cls-1" d="M348.21,41.72V.5h3.94V41.72Z"/><path class="cls-1" d="M363.15,41.72V.5h3.94V41.72Z"/><path class="cls-1" d="M390,42a15,15,0,0,1-7.58-1.92,14.16,14.16,0,0,1-5.31-5.28,15.12,15.12,0,0,1-1.94-7.69,15.08,15.08,0,0,1,1.94-7.72,14.07,14.07,0,0,1,5.28-5.22A15.15,15.15,0,0,1,390,12.28a15.47,15.47,0,0,1,7.7,1.89A13.7,13.7,0,0,1,403,19.39a15.17,15.17,0,0,1,1.92,7.72A15.21,15.21,0,0,1,403,34.8a13.79,13.79,0,0,1-5.3,5.28A15.3,15.3,0,0,1,390,42Zm0-3.5a10.93,10.93,0,0,0,5.61-1.42,10.11,10.11,0,0,0,3.86-4,12.14,12.14,0,0,0,1.42-6,12.1,12.1,0,0,0-1.42-6,10.17,10.17,0,0,0-3.86-4,11.58,11.58,0,0,0-11.11,0,10.45,10.45,0,0,0-3.89,4,12,12,0,0,0-1.44,6,12,12,0,0,0,1.44,6,10.39,10.39,0,0,0,3.89,4A10.71,10.71,0,0,0,390,38.5Z"/><path class="cls-1" d="M428.31,41.72V2.83h14.56a20.73,20.73,0,0,1,8.5,1.59A12.21,12.21,0,0,1,456.84,9a13,13,0,0,1,1.92,7.2,12.76,12.76,0,0,1-1.92,7.08,12.39,12.39,0,0,1-5.47,4.58,20.4,20.4,0,0,1-8.5,1.61H430.59l1.83-1.94V41.72Zm4.11-13.89-1.83-2h12.17q5.83,0,8.86-2.53a8.76,8.76,0,0,0,3-7.13,8.94,8.94,0,0,0-3-7.23q-3-2.55-8.86-2.55H430.59l1.83-1.95Z"/><path class="cls-1" d="M479.76,42a16.13,16.13,0,0,1-8-1.92,13.89,13.89,0,0,1-5.39-5.28,15,15,0,0,1-1.95-7.69,15.5,15.5,0,0,1,1.86-7.67,13.85,13.85,0,0,1,5.11-5.25,15.12,15.12,0,0,1,14.62,0,13.28,13.28,0,0,1,5,5.22,15.94,15.94,0,0,1,1.84,7.75,5.78,5.78,0,0,1,0,.58c0,.21,0,.42,0,.64H467.42V25.39H490.7l-1.56,1.16a11.42,11.42,0,0,0-1.36-5.63,10.11,10.11,0,0,0-3.69-3.87,10.39,10.39,0,0,0-5.39-1.38,10.57,10.57,0,0,0-5.39,1.38,9.75,9.75,0,0,0-3.72,3.89,12,12,0,0,0-1.33,5.73v.61a11.46,11.46,0,0,0,1.47,5.86,10.26,10.26,0,0,0,4.11,3.94,12.49,12.49,0,0,0,6,1.42,13,13,0,0,0,5-1,10.41,10.41,0,0,0,4-2.88L491,37.22a12.44,12.44,0,0,1-4.86,3.56A16.49,16.49,0,0,1,479.76,42Z"/><path class="cls-1" d="M500.92,41.72V12.55h3.78v8l-.39-1.39A9.54,9.54,0,0,1,508.42,14a13.58,13.58,0,0,1,7.17-1.75v3.83a3.4,3.4,0,0,1-.45,0,3.25,3.25,0,0,0-.44,0,9.37,9.37,0,0,0-7.22,2.81q-2.62,2.81-2.62,8V41.72Z"/><path class="cls-1" d="M531,42a22.14,22.14,0,0,1-6.83-1,14.67,14.67,0,0,1-5.06-2.58l1.78-3.11a16.79,16.79,0,0,0,4.55,2.3,17.54,17.54,0,0,0,5.84,1q4.17,0,6-1.3a4.07,4.07,0,0,0,1.83-3.47,3.19,3.19,0,0,0-1-2.53,6.65,6.65,0,0,0-2.69-1.39,36.14,36.14,0,0,0-3.72-.81c-1.37-.22-2.73-.48-4.09-.77A14.9,14.9,0,0,1,523.92,27a7.25,7.25,0,0,1-2.7-2.36,7,7,0,0,1-1-4,7.24,7.24,0,0,1,1.33-4.28,8.75,8.75,0,0,1,3.92-3,16.32,16.32,0,0,1,6.3-1.08,22.09,22.09,0,0,1,5.67.75,15.56,15.56,0,0,1,4.67,2l-1.73,3.17a13.21,13.21,0,0,0-4.16-1.92,17.49,17.49,0,0,0-4.45-.58q-3.94,0-5.8,1.36a4.12,4.12,0,0,0-1.86,3.47,3.38,3.38,0,0,0,1,2.61,7.1,7.1,0,0,0,2.73,1.47,27.57,27.57,0,0,0,3.72.86c1.35.23,2.7.49,4.05.81a18.19,18.19,0,0,1,3.73,1.28,6.85,6.85,0,0,1,2.72,2.27,6.68,6.68,0,0,1,1,3.87,7.1,7.1,0,0,1-1.42,4.41A9.09,9.09,0,0,1,537.56,41,18.26,18.26,0,0,1,531,42Z"/><path class="cls-1" d="M562.2,42a15,15,0,0,1-7.59-1.92,14.07,14.07,0,0,1-5.3-5.28,15,15,0,0,1-1.95-7.69,15,15,0,0,1,1.95-7.72,14,14,0,0,1,5.27-5.22,15.19,15.19,0,0,1,7.62-1.89,15.43,15.43,0,0,1,7.69,1.89,13.79,13.79,0,0,1,5.28,5.22,15.27,15.27,0,0,1,1.91,7.72,15.31,15.31,0,0,1-1.91,7.69,13.88,13.88,0,0,1-5.31,5.28A15.26,15.26,0,0,1,562.2,42Zm0-3.5a10.93,10.93,0,0,0,5.61-1.42,10.18,10.18,0,0,0,3.86-4,12.25,12.25,0,0,0,1.41-6,12.21,12.21,0,0,0-1.41-6,10.24,10.24,0,0,0-3.86-4,11.58,11.58,0,0,0-11.11,0,10.38,10.38,0,0,0-3.89,4,11.9,11.9,0,0,0-1.45,6,11.94,11.94,0,0,0,1.45,6,10.32,10.32,0,0,0,3.89,4A10.68,10.68,0,0,0,562.2,38.5Z"/><path class="cls-1" d="M600,12.28a13.66,13.66,0,0,1,6.25,1.36,9.85,9.85,0,0,1,4.22,4.14,14.36,14.36,0,0,1,1.53,7V41.72h-3.95V25.17c0-3.08-.77-5.4-2.3-7a8.67,8.67,0,0,0-6.48-2.36,11.23,11.23,0,0,0-5.41,1.25,8.66,8.66,0,0,0-3.56,3.61,12.11,12.11,0,0,0-1.25,5.7V41.72h-3.94V12.55h3.78v8l-.61-1.5a10.59,10.59,0,0,1,4.44-5A14.09,14.09,0,0,1,600,12.28Z"/><path class="cls-1" d="M630.91,42a13.85,13.85,0,0,1-5.69-1.08,8.55,8.55,0,0,1-3.69-3,7.72,7.72,0,0,1-1.28-4.42,8.09,8.09,0,0,1,1.08-4.14,7.63,7.63,0,0,1,3.56-3,16,16,0,0,1,6.64-1.14h10.05v3h-9.94q-4.23,0-5.86,1.5a5.07,5.07,0,0,0,.3,7.72,8.74,8.74,0,0,0,5.45,1.5,10.55,10.55,0,0,0,5.75-1.53,8.76,8.76,0,0,0,3.52-4.42l.89,2.73a9.31,9.31,0,0,1-3.86,4.61A12.88,12.88,0,0,1,630.91,42ZM641,41.72V35.28l-.17-1.06V23.44a7.55,7.55,0,0,0-2.08-5.72q-2.09-2-6.19-2a15.4,15.4,0,0,0-5.39,1,13.7,13.7,0,0,0-4.34,2.5l-1.77-3a15.75,15.75,0,0,1,5.33-2.92,20.88,20.88,0,0,1,6.55-1q5.67,0,8.75,2.8c2.06,1.87,3.09,4.72,3.09,8.53V41.72Z"/><path class="cls-1" d="M655.47,41.72V.5h3.94V41.72Z"/><path class="cls-1" d="M692.69,42.17a13.78,13.78,0,0,1-6-1.2,9.12,9.12,0,0,1-3.83-3.25,8.79,8.79,0,0,1,0-9.28A8.57,8.57,0,0,1,687,25.3a20.32,20.32,0,0,1,7.39-1.13h7.94v5h-7c-2,0-3.44.33-4.19,1a3.19,3.19,0,0,0-1.14,2.5,3.12,3.12,0,0,0,1.3,2.64,5.89,5.89,0,0,0,3.59,1,7.36,7.36,0,0,0,3.88-1,5.81,5.81,0,0,0,2.5-3l1.34,4a7.76,7.76,0,0,1-3.45,4.39A12.35,12.35,0,0,1,692.69,42.17Zm9.11-.45V35.89l-.56-1.28V24.17a5.59,5.59,0,0,0-1.69-4.34,7.5,7.5,0,0,0-5.19-1.55,15.1,15.1,0,0,0-4.7.75,12.5,12.5,0,0,0-3.92,2L682.63,15a18.79,18.79,0,0,1,5.89-2.67,26.36,26.36,0,0,1,7-.94q6.84,0,10.61,3.22t3.78,10.06v17Z"/><path class="cls-1" d="M742.13,41.72V10.17H729.69V2.83h33.88v7.34H751.13V41.72Z"/><path class="cls-1" d="M767.8,41.72V11.83h8.27v8.45l-1.16-2.45a9.59,9.59,0,0,1,4.27-4.8,14.51,14.51,0,0,1,7.17-1.64v8l-1-.09-.94,0a8.14,8.14,0,0,0-5.75,2q-2.2,2-2.2,6.31V41.72Z"/><path class="cls-1" d="M801,42.17a13.78,13.78,0,0,1-6-1.2,9.18,9.18,0,0,1-3.83-3.25,8.84,8.84,0,0,1,0-9.28,8.57,8.57,0,0,1,4.14-3.14,20.32,20.32,0,0,1,7.39-1.13h7.94v5h-7c-2,0-3.43.33-4.19,1a3.19,3.19,0,0,0-1.14,2.5,3.13,3.13,0,0,0,1.31,2.64,5.85,5.85,0,0,0,3.58,1,7.42,7.42,0,0,0,3.89-1,5.86,5.86,0,0,0,2.5-3l1.33,4a7.78,7.78,0,0,1-3.44,4.39A12.42,12.42,0,0,1,801,42.17Zm9.11-.45V35.89l-.55-1.28V24.17a5.6,5.6,0,0,0-1.7-4.34,7.5,7.5,0,0,0-5.19-1.55,15.15,15.15,0,0,0-4.7.75,12.44,12.44,0,0,0-3.91,2L790.91,15a18.68,18.68,0,0,1,5.89-2.67,26.3,26.3,0,0,1,7-.94q6.83,0,10.61,3.22t3.77,10.06v17Z"/><path class="cls-1" d="M834.13,41.72,821.57,11.83h8.95L841,37.55h-4.44l10.83-25.72h8.33L843.07,41.72Z"/><path class="cls-1" d="M874.07,42.17a19.25,19.25,0,0,1-9-2,14.68,14.68,0,0,1-6-5.48A14.89,14.89,0,0,1,857,26.78a15.23,15.23,0,0,1,2.09-8,14.81,14.81,0,0,1,5.69-5.44,17.86,17.86,0,0,1,16.09-.11,14,14,0,0,1,5.58,5.33,16.05,16.05,0,0,1,2,8.31c0,.33,0,.71,0,1.14s-.08.82-.11,1.19H864.07v-5h19.72l-3.33,1.5a8.31,8.31,0,0,0-1-4.06,6.82,6.82,0,0,0-2.61-2.69,7.57,7.57,0,0,0-3.89-1,7.69,7.69,0,0,0-3.91,1,6.72,6.72,0,0,0-2.64,2.72,8.55,8.55,0,0,0-1,4.14v1.33a8.47,8.47,0,0,0,1.09,4.31,7.08,7.08,0,0,0,3,2.83,10.37,10.37,0,0,0,4.64,1,11.34,11.34,0,0,0,4.2-.72,10.27,10.27,0,0,0,3.3-2.17l4.61,5a13.47,13.47,0,0,1-5.16,3.59A19.24,19.24,0,0,1,874.07,42.17ZM867.74,8l7.5-8h9.33L874.51,8Z"/><path class="cls-1" d="M904.35,42.17a29.16,29.16,0,0,1-7.36-.92,18.05,18.05,0,0,1-5.59-2.31l2.89-6.22a19,19,0,0,0,4.86,2.08,19.85,19.85,0,0,0,5.53.81,9.07,9.07,0,0,0,4.25-.72,2.23,2.23,0,0,0,1.25-2,1.72,1.72,0,0,0-1-1.59,8.44,8.44,0,0,0-2.59-.8c-1.07-.19-2.25-.37-3.52-.56a38.05,38.05,0,0,1-3.86-.75,12.85,12.85,0,0,1-3.56-1.41,7.19,7.19,0,0,1-2.58-2.56,7.94,7.94,0,0,1-1-4.17,8.11,8.11,0,0,1,1.64-5,10.91,10.91,0,0,1,4.75-3.41A19.86,19.86,0,0,1,906,11.39a30.47,30.47,0,0,1,6.22.66A17.13,17.13,0,0,1,917.46,14l-2.89,6.17a14.39,14.39,0,0,0-4.36-1.75,19.92,19.92,0,0,0-4.25-.48,8.65,8.65,0,0,0-4.22.78,2.3,2.3,0,0,0-1.34,2,1.82,1.82,0,0,0,1,1.67,9.15,9.15,0,0,0,2.59.89c1.07.22,2.25.41,3.53.58a34.08,34.08,0,0,1,3.86.75A13.8,13.8,0,0,1,914.87,26a7.38,7.38,0,0,1,2.59,2.5,7.69,7.69,0,0,1,1,4.14,7.76,7.76,0,0,1-1.67,4.91,10.86,10.86,0,0,1-4.8,3.36A21,21,0,0,1,904.35,42.17Z"/><path class="cls-1" d="M16.92,118.64a15.12,15.12,0,0,1-7.61-1.92A14,14,0,0,1,4,111.36,17.72,17.72,0,0,1,4,95.08a13.86,13.86,0,0,1,5.36-5.33,15.31,15.31,0,0,1,7.61-1.89,12.83,12.83,0,0,1,6.61,1.67,10.94,10.94,0,0,1,4.39,5,21,21,0,0,1,1.55,8.67,21.6,21.6,0,0,1-1.5,8.64,10.7,10.7,0,0,1-4.3,5.08A13,13,0,0,1,16.92,118.64Zm1.5-7.11a7.57,7.57,0,0,0,3.83-1A7.36,7.36,0,0,0,25,107.67a10.06,10.06,0,0,0,0-8.87A7.35,7.35,0,0,0,18.42,95a7.56,7.56,0,0,0-3.89,1,7.34,7.34,0,0,0-2.75,2.83,10.06,10.06,0,0,0,0,8.87,7.29,7.29,0,0,0,2.75,2.86A7.66,7.66,0,0,0,18.42,111.53Zm7.83,6.66v-6.11l.17-8.89-.56-8.83V77h8.67v41.22Z"/><path class="cls-1" d="M57.36,118.64a19.25,19.25,0,0,1-9-2,14.73,14.73,0,0,1-6-5.47,15,15,0,0,1-2.12-7.92,15.17,15.17,0,0,1,2.09-8,14.76,14.76,0,0,1,5.69-5.45,17.84,17.84,0,0,1,16.08-.11,13.92,13.92,0,0,1,5.59,5.33,16.05,16.05,0,0,1,2,8.31c0,.33,0,.71,0,1.14s-.08.82-.11,1.19H47.36v-5H67.08l-3.33,1.5a8.31,8.31,0,0,0-1-4.06,6.89,6.89,0,0,0-2.61-2.69,7.56,7.56,0,0,0-3.89-1,7.69,7.69,0,0,0-3.91,1,6.78,6.78,0,0,0-2.64,2.72,8.61,8.61,0,0,0-1,4.14v1.33a8.34,8.34,0,0,0,1.09,4.31,7.08,7.08,0,0,0,3,2.83,10.37,10.37,0,0,0,4.64,1,11.34,11.34,0,0,0,4.2-.72,10.11,10.11,0,0,0,3.3-2.17l4.61,5a13.47,13.47,0,0,1-5.16,3.59A19.24,19.24,0,0,1,57.36,118.64Z"/><path class="cls-1" d="M93.3,118.19V77H102v41.22Z"/><path class="cls-1" d="M119.24,118.64a13.7,13.7,0,0,1-6-1.2,9.08,9.08,0,0,1-3.84-3.25,8.83,8.83,0,0,1,0-9.27,8.51,8.51,0,0,1,4.14-3.14,20.08,20.08,0,0,1,7.39-1.14h8v5h-7c-2,0-3.44.34-4.2,1a3.19,3.19,0,0,0-1.14,2.5,3.13,3.13,0,0,0,1.31,2.64,5.85,5.85,0,0,0,3.58,1,7.48,7.48,0,0,0,3.89-1,5.92,5.92,0,0,0,2.5-3l1.33,4a7.74,7.74,0,0,1-3.44,4.39A12.42,12.42,0,0,1,119.24,118.64Zm9.12-.45v-5.83l-.56-1.28V100.64a5.61,5.61,0,0,0-1.69-4.34,7.53,7.53,0,0,0-5.2-1.55,15,15,0,0,0-4.69.75,12.2,12.2,0,0,0-3.92,2l-3.11-6.06a18.68,18.68,0,0,1,5.89-2.67,26.3,26.3,0,0,1,7-.94q6.83,0,10.61,3.22t3.78,10.06v17Z"/><path class="cls-1" d="M179.24,118.86a23.28,23.28,0,0,1-8.36-1.47,19.47,19.47,0,0,1-11.11-10.59,21.32,21.32,0,0,1,0-16.11,19.53,19.53,0,0,1,4.44-6.39,20,20,0,0,1,6.7-4.19,23.22,23.22,0,0,1,8.39-1.47,23,23,0,0,1,9.14,1.75,17.81,17.81,0,0,1,6.86,5.14l-5.78,5.33a13.5,13.5,0,0,0-4.45-3.42,12.43,12.43,0,0,0-5.33-1.14,13.72,13.72,0,0,0-5,.89,11.42,11.42,0,0,0-3.94,2.56,11.79,11.79,0,0,0-2.59,3.94,14.5,14.5,0,0,0,0,10.11,11.84,11.84,0,0,0,2.59,4,11.26,11.26,0,0,0,3.94,2.55,13.51,13.51,0,0,0,5,.89,12.43,12.43,0,0,0,5.33-1.14,13.16,13.16,0,0,0,4.45-3.47l5.78,5.34a18.16,18.16,0,0,1-6.86,5.16A22.77,22.77,0,0,1,179.24,118.86Z"/><path class="cls-1" d="M215,118.64a17.55,17.55,0,0,1-8.47-2,15.28,15.28,0,0,1-5.83-5.47,15.82,15.82,0,0,1,0-15.89,15,15,0,0,1,5.83-5.45,19.15,19.15,0,0,1,16.92,0,15.5,15.5,0,0,1,5.83,21.34,15.07,15.07,0,0,1-5.83,5.47A17.64,17.64,0,0,1,215,118.64Zm0-7.11a7.66,7.66,0,0,0,3.89-1,7.08,7.08,0,0,0,2.72-2.86,10.33,10.33,0,0,0,0-8.87A7.13,7.13,0,0,0,218.85,96a8.07,8.07,0,0,0-7.78,0,7.41,7.41,0,0,0-2.75,2.83,10.15,10.15,0,0,0,0,8.87,7.36,7.36,0,0,0,2.75,2.86A7.69,7.69,0,0,0,215,111.53Z"/><path class="cls-1" d="M275.4,87.86a13.52,13.52,0,0,1,6.31,1.42A10.16,10.16,0,0,1,286,93.61a15.49,15.49,0,0,1,1.59,7.47v17.11H279V102.42q0-3.61-1.5-5.34a5.29,5.29,0,0,0-4.22-1.72,6.73,6.73,0,0,0-3.39.86,5.76,5.76,0,0,0-2.33,2.58,10,10,0,0,0-.84,4.39v15H258V102.42c0-2.41-.5-4.19-1.48-5.34a5.2,5.2,0,0,0-4.19-1.72,6.73,6.73,0,0,0-3.39.86,5.76,5.76,0,0,0-2.33,2.58,10,10,0,0,0-.84,4.39v15h-8.66V88.3h8.28v8.17l-1.56-2.39a10.78,10.78,0,0,1,4.42-4.64,13.28,13.28,0,0,1,6.52-1.58,12.56,12.56,0,0,1,7.2,2.08,10.11,10.11,0,0,1,4.08,6.36L263,95.47a12,12,0,0,1,4.8-5.55A14.05,14.05,0,0,1,275.4,87.86Z"/><path class="cls-1" d="M308,118.64a14.7,14.7,0,0,1-6.64-1.45,10.19,10.19,0,0,1-4.52-4.41,15.78,15.78,0,0,1-1.61-7.59V88.3h8.66v15.62q0,3.72,1.59,5.47a5.73,5.73,0,0,0,4.47,1.75,7.23,7.23,0,0,0,3.55-.86,6,6,0,0,0,2.45-2.67,10.24,10.24,0,0,0,.89-4.53V88.3h8.66v29.89h-8.22V110l1.5,2.39a10.21,10.21,0,0,1-4.42,4.69A13,13,0,0,1,308,118.64Z"/><path class="cls-1" d="M351.73,87.86a13.84,13.84,0,0,1,6.36,1.42,10.25,10.25,0,0,1,4.42,4.33,15.26,15.26,0,0,1,1.61,7.47v17.11h-8.66V102.42q0-3.61-1.59-5.34a5.74,5.74,0,0,0-4.47-1.72,7.84,7.84,0,0,0-3.69.86,5.9,5.9,0,0,0-2.56,2.64,9.91,9.91,0,0,0-.92,4.56v14.77h-8.66V88.3h8.28v8.28l-1.56-2.5a11.08,11.08,0,0,1,4.61-4.61A14.26,14.26,0,0,1,351.73,87.86Z"/><path class="cls-1" d="M376.29,84.14a5.53,5.53,0,0,1-3.89-1.39,4.71,4.71,0,0,1,0-6.89,5.49,5.49,0,0,1,3.89-1.39,5.72,5.72,0,0,1,3.89,1.31,4.25,4.25,0,0,1,1.5,3.36,4.73,4.73,0,0,1-1.48,3.58A5.37,5.37,0,0,1,376.29,84.14ZM372,118.19V88.3h8.66v29.89Z"/><path class="cls-1" d="M401.51,118.64a15.15,15.15,0,0,1-7.61-1.92,14,14,0,0,1-5.36-5.36,17.8,17.8,0,0,1,0-16.28,13.86,13.86,0,0,1,5.36-5.33,15.34,15.34,0,0,1,7.61-1.89,12.81,12.81,0,0,1,6.61,1.67,10.94,10.94,0,0,1,4.39,5,20.83,20.83,0,0,1,1.55,8.67,21.6,21.6,0,0,1-1.5,8.64,10.7,10.7,0,0,1-4.3,5.08A13,13,0,0,1,401.51,118.64Zm1.5-7.11a7.55,7.55,0,0,0,3.83-1,7.29,7.29,0,0,0,2.75-2.86,10.06,10.06,0,0,0,0-8.87A7.34,7.34,0,0,0,406.84,96,7.45,7.45,0,0,0,403,95a7.56,7.56,0,0,0-3.89,1,7.41,7.41,0,0,0-2.75,2.83,10.06,10.06,0,0,0,0,8.87,7.36,7.36,0,0,0,2.75,2.86A7.66,7.66,0,0,0,403,111.53Zm7.83,6.66v-6.11l.17-8.89-.56-8.83V77h8.67v41.22Z"/><path class="cls-1" d="M436.34,118.64a13.78,13.78,0,0,1-6-1.2,9.05,9.05,0,0,1-3.83-3.25,8.77,8.77,0,0,1,0-9.27,8.51,8.51,0,0,1,4.14-3.14,20.08,20.08,0,0,1,7.39-1.14H446v5h-7c-2,0-3.43.34-4.19,1a3.19,3.19,0,0,0-1.14,2.5,3.12,3.12,0,0,0,1.3,2.64,5.89,5.89,0,0,0,3.59,1,7.51,7.51,0,0,0,3.89-1,6,6,0,0,0,2.5-3l1.33,4a7.76,7.76,0,0,1-3.45,4.39A12.35,12.35,0,0,1,436.34,118.64Zm9.11-.45v-5.83l-.55-1.28V100.64a5.61,5.61,0,0,0-1.7-4.34A7.5,7.5,0,0,0,438,94.75a15.1,15.1,0,0,0-4.7.75,12.25,12.25,0,0,0-3.91,2l-3.11-6.06a18.63,18.63,0,0,1,5.88-2.67,26.36,26.36,0,0,1,7-.94q6.84,0,10.61,3.22t3.78,10.06v17Z"/><path class="cls-1" d="M474.23,118.64a15.15,15.15,0,0,1-7.61-1.92,14,14,0,0,1-5.36-5.36,17.72,17.72,0,0,1,0-16.28,13.86,13.86,0,0,1,5.36-5.33,15.34,15.34,0,0,1,7.61-1.89,12.81,12.81,0,0,1,6.61,1.67,10.94,10.94,0,0,1,4.39,5,21,21,0,0,1,1.55,8.67,21.6,21.6,0,0,1-1.5,8.64A10.7,10.7,0,0,1,481,117,13,13,0,0,1,474.23,118.64Zm1.5-7.11a7.57,7.57,0,0,0,3.83-1,7.36,7.36,0,0,0,2.75-2.86,10.06,10.06,0,0,0,0-8.87A7.35,7.35,0,0,0,475.73,95a7.56,7.56,0,0,0-3.89,1,7.34,7.34,0,0,0-2.75,2.83,10.06,10.06,0,0,0,0,8.87,7.29,7.29,0,0,0,2.75,2.86A7.66,7.66,0,0,0,475.73,111.53Zm7.83,6.66v-6.11l.17-8.89-.56-8.83V77h8.67v41.22Z"/><path class="cls-1" d="M519.34,129.41a15.26,15.26,0,0,1-4.62-.72,10.3,10.3,0,0,1-3.72-2l3.17-6.16a7.42,7.42,0,0,0,2.3,1.38,7.09,7.09,0,0,0,2.59.5,4.5,4.5,0,0,0,2.91-.86,7.4,7.4,0,0,0,2-2.86L525.5,115l.67-1L536.89,88.3h8.33L531.72,120a18.82,18.82,0,0,1-3.3,5.66,10.4,10.4,0,0,1-4.11,2.89A14.12,14.12,0,0,1,519.34,129.41Zm5.11-10L511.11,88.3h8.95l10.33,25Z"/><path class="cls-1" d="M564.5,118.19V77h8.67v41.22Z"/><path class="cls-1" d="M590.44,118.64a13.78,13.78,0,0,1-6-1.2,9.11,9.11,0,0,1-3.83-3.25,8.83,8.83,0,0,1,0-9.27,8.51,8.51,0,0,1,4.14-3.14,20.08,20.08,0,0,1,7.39-1.14h7.94v5h-7c-2,0-3.43.34-4.19,1a3.19,3.19,0,0,0-1.14,2.5,3.13,3.13,0,0,0,1.31,2.64,5.85,5.85,0,0,0,3.58,1,7.51,7.51,0,0,0,3.89-1,5.92,5.92,0,0,0,2.5-3l1.33,4a7.78,7.78,0,0,1-3.44,4.39A12.42,12.42,0,0,1,590.44,118.64Zm9.11-.45v-5.83l-.55-1.28V100.64a5.61,5.61,0,0,0-1.7-4.34,7.5,7.5,0,0,0-5.19-1.55,15,15,0,0,0-4.69.75,12.2,12.2,0,0,0-3.92,2l-3.11-6.06a18.68,18.68,0,0,1,5.89-2.67,26.3,26.3,0,0,1,7-.94q6.83,0,10.61,3.22t3.77,10.06v17Z"/><path class="cls-1" d="M640.77,111h21.17v7.22H631.83V79.3h29.39v7.23H640.77Zm-.66-16h18.72v7H640.11Z"/><path class="cls-1" d="M681.33,118.64a15.12,15.12,0,0,1-7.61-1.92,14,14,0,0,1-5.36-5.36,17.72,17.72,0,0,1,0-16.28,13.86,13.86,0,0,1,5.36-5.33,15.31,15.31,0,0,1,7.61-1.89,12.81,12.81,0,0,1,6.61,1.67,10.94,10.94,0,0,1,4.39,5,21,21,0,0,1,1.55,8.67,21.6,21.6,0,0,1-1.5,8.64,10.7,10.7,0,0,1-4.3,5.08A13,13,0,0,1,681.33,118.64Zm1.5-7.11a7.57,7.57,0,0,0,3.83-1,7.36,7.36,0,0,0,2.75-2.86,10.06,10.06,0,0,0,0-8.87A7.35,7.35,0,0,0,682.83,95a7.56,7.56,0,0,0-3.89,1,7.34,7.34,0,0,0-2.75,2.83,10.06,10.06,0,0,0,0,8.87,7.29,7.29,0,0,0,2.75,2.86A7.66,7.66,0,0,0,682.83,111.53Zm7.83,6.66v-6.11l.17-8.89-.56-8.83V77h8.67v41.22Z"/><path class="cls-1" d="M719.55,118.64a14.67,14.67,0,0,1-6.64-1.45,10.16,10.16,0,0,1-4.53-4.41,15.9,15.9,0,0,1-1.61-7.59V88.3h8.67v15.62c0,2.48.52,4.3,1.58,5.47a5.74,5.74,0,0,0,4.47,1.75,7.3,7.3,0,0,0,3.56-.86,6,6,0,0,0,2.44-2.67,10.24,10.24,0,0,0,.89-4.53V88.3h8.67v29.89h-8.23V110l1.5,2.39a10.24,10.24,0,0,1-4.41,4.69A13.1,13.1,0,0,1,719.55,118.64Z"/><path class="cls-1" d="M759.55,118.64a18.41,18.41,0,0,1-8.62-2,15.09,15.09,0,0,1,0-26.84,18.41,18.41,0,0,1,8.62-2,16.55,16.55,0,0,1,8.22,2,12.07,12.07,0,0,1,5.16,5.64l-6.72,3.61A7.85,7.85,0,0,0,763.3,96a7.53,7.53,0,0,0-3.81-1,8,8,0,0,0-4,1,7.28,7.28,0,0,0-2.81,2.83,10.2,10.2,0,0,0,0,8.89,7.24,7.24,0,0,0,2.81,2.84,8.1,8.1,0,0,0,4,1,7.72,7.72,0,0,0,3.81-1,7.53,7.53,0,0,0,2.91-3.13l6.72,3.66a12.1,12.1,0,0,1-5.16,5.59A16.55,16.55,0,0,1,759.55,118.64Z"/><path class="cls-1" d="M787.16,118.64a13.72,13.72,0,0,1-6-1.2,9.08,9.08,0,0,1-3.84-3.25,8.83,8.83,0,0,1,0-9.27,8.51,8.51,0,0,1,4.14-3.14,20.08,20.08,0,0,1,7.39-1.14h7.95v5h-7c-2,0-3.44.34-4.2,1a3.19,3.19,0,0,0-1.14,2.5,3.13,3.13,0,0,0,1.31,2.64,5.85,5.85,0,0,0,3.58,1,7.48,7.48,0,0,0,3.89-1,5.92,5.92,0,0,0,2.5-3l1.33,4a7.74,7.74,0,0,1-3.44,4.39A12.4,12.4,0,0,1,787.16,118.64Zm9.11-.45v-5.83l-.56-1.28V100.64A5.61,5.61,0,0,0,794,96.3q-1.69-1.55-5.2-1.55a15,15,0,0,0-4.69.75,12.2,12.2,0,0,0-3.92,2l-3.11-6.06A18.68,18.68,0,0,1,783,88.8a26.3,26.3,0,0,1,7-.94q6.82,0,10.61,3.22t3.78,10.06v17Z"/><path class="cls-1" d="M826.65,118.64a18.39,18.39,0,0,1-8.61-2,15.09,15.09,0,0,1,0-26.84,18.39,18.39,0,0,1,8.61-2,16.5,16.5,0,0,1,8.22,2A12,12,0,0,1,840,95.47l-6.72,3.61A7.8,7.8,0,0,0,830.4,96a7.47,7.47,0,0,0-3.8-1,8,8,0,0,0-4,1,7.28,7.28,0,0,0-2.81,2.83,10.11,10.11,0,0,0,0,8.89,7.24,7.24,0,0,0,2.81,2.84,8.08,8.08,0,0,0,4,1,7.66,7.66,0,0,0,3.8-1,7.48,7.48,0,0,0,2.92-3.13l6.72,3.66a12.07,12.07,0,0,1-5.17,5.59A16.5,16.5,0,0,1,826.65,118.64Z"/><path class="cls-1" d="M849.37,84.14a5.51,5.51,0,0,1-3.88-1.39,4.71,4.71,0,0,1,0-6.89,5.46,5.46,0,0,1,3.88-1.39,5.7,5.7,0,0,1,3.89,1.31,4.25,4.25,0,0,1,1.5,3.36,4.76,4.76,0,0,1-1.47,3.58A5.39,5.39,0,0,1,849.37,84.14ZM845,118.19V88.3h8.67v29.89Z"/><path class="cls-1" d="M876,118.64a17.55,17.55,0,0,1-8.47-2,15.28,15.28,0,0,1-5.83-5.47,15.82,15.82,0,0,1,0-15.89,15,15,0,0,1,5.83-5.45,19.15,19.15,0,0,1,16.92,0,15.5,15.5,0,0,1,5.83,21.34,15.07,15.07,0,0,1-5.83,5.47A17.61,17.61,0,0,1,876,118.64Zm0-7.11a7.66,7.66,0,0,0,3.89-1,7.08,7.08,0,0,0,2.72-2.86,10.33,10.33,0,0,0,0-8.87A7.13,7.13,0,0,0,879.87,96a8.07,8.07,0,0,0-7.78,0,7.48,7.48,0,0,0-2.75,2.83,10.15,10.15,0,0,0,0,8.87,7.43,7.43,0,0,0,2.75,2.86A7.69,7.69,0,0,0,876,111.53Zm-5.16-27.06,7.5-8h9.33l-10.06,8Z"/><path class="cls-1" d="M916.32,87.86a13.84,13.84,0,0,1,6.36,1.42,10.23,10.23,0,0,1,4.41,4.33,15.26,15.26,0,0,1,1.61,7.47v17.11H920V102.42q0-3.61-1.59-5.34A5.74,5.74,0,0,0,914,95.36a7.84,7.84,0,0,0-3.69.86,6,6,0,0,0-2.56,2.64,9.92,9.92,0,0,0-.91,4.56v14.77h-8.67V88.3h8.28v8.28l-1.56-2.5a11.13,11.13,0,0,1,4.61-4.61A14.27,14.27,0,0,1,916.32,87.86Z"/></g></g></svg>