<svg xmlns="http://www.w3.org/2000/svg" viewBox="0 0 1935.89 293.67"><defs><style>.cls-1{fill:#fff;}</style></defs><g id="Capa_2" data-name="Capa 2"><g id="Capa_1-2" data-name="Capa 1"><path class="cls-1" d="M107.57,123.57A72.47,72.47,0,0,1,83,119.38Q71.29,115.2,64.9,108.64l4.76-9.36q6.07,5.91,16.33,9.93a58.61,58.61,0,0,0,21.58,4q10.83,0,17.64-2.71t10-7.3a17.34,17.34,0,0,0,3.2-10.17q0-6.73-3.85-10.84a26.77,26.77,0,0,0-10.1-6.48,112.13,112.13,0,0,0-13.78-4.18q-7.55-1.8-15.1-3.86a63.21,63.21,0,0,1-13.86-5.5,28.62,28.62,0,0,1-10.18-9.1q-3.85-5.67-3.86-14.85a28.77,28.77,0,0,1,4.52-15.68q4.5-7.14,13.86-11.48t24-4.35a69.62,69.62,0,0,1,19.2,2.71,55.1,55.1,0,0,1,16.41,7.46l-4.1,9.68a54.52,54.52,0,0,0-15.67-7.22,59.9,59.9,0,0,0-16-2.29q-10.34,0-17.07,2.79c-4.49,1.86-7.79,4.35-9.93,7.46a18.35,18.35,0,0,0-3.2,10.59q0,6.72,3.86,10.83a25.78,25.78,0,0,0,10.17,6.4,127,127,0,0,0,13.87,4.1q7.55,1.82,15,3.94a70.5,70.5,0,0,1,13.78,5.5,28.37,28.37,0,0,1,10.18,8.94q3.84,5.58,3.85,14.61a28.12,28.12,0,0,1-4.59,15.5q-4.6,7.14-14,11.49T107.57,123.57Z"/><path class="cls-1" d="M209.48,123.4a44.34,44.34,0,0,1-22.4-5.66,41.51,41.51,0,0,1-15.67-15.59,44.41,44.41,0,0,1-5.75-22.72,44.3,44.3,0,0,1,5.75-22.81A41.29,41.29,0,0,1,187,41.19a44.82,44.82,0,0,1,22.49-5.58,45.63,45.63,0,0,1,22.73,5.58,40.59,40.59,0,0,1,15.58,15.43,44.86,44.86,0,0,1,5.67,22.81,45,45,0,0,1-5.67,22.72,40.82,40.82,0,0,1-15.67,15.59A45.11,45.11,0,0,1,209.48,123.4Zm0-10.33a32.44,32.44,0,0,0,16.57-4.19,30.1,30.1,0,0,0,11.41-11.81,36.11,36.11,0,0,0,4.18-17.64,36,36,0,0,0-4.18-17.73A30.22,30.22,0,0,0,226.05,50a34.23,34.23,0,0,0-32.82,0A30.84,30.84,0,0,0,181.74,61.7a35.49,35.49,0,0,0-4.26,17.73,35.6,35.6,0,0,0,4.26,17.64,30.71,30.71,0,0,0,11.49,11.81A31.8,31.8,0,0,0,209.48,113.07Z"/><path class="cls-1" d="M277.25,122.58V.82H288.9V122.58Z"/><path class="cls-1" d="M357,123.4a42.36,42.36,0,0,1-19.2-4.1A28.94,28.94,0,0,1,325.09,107q-4.51-8.2-4.52-20.51V36.43h11.65V85.17q0,13.78,6.81,20.76t19.12,7a31.77,31.77,0,0,0,15.67-3.69A24.47,24.47,0,0,0,384,98.46a37.44,37.44,0,0,0,3.53-16.9V36.43h11.65v86.15H388V99l1.8,4.27a31.77,31.77,0,0,1-12.71,14.85A37.4,37.4,0,0,1,357,123.4Z"/><path class="cls-1" d="M467.44,123.4a45.92,45.92,0,0,1-22.89-5.66,41.17,41.17,0,0,1-15.83-15.59A44.51,44.51,0,0,1,423,79.43a44.4,44.4,0,0,1,5.75-22.81,40.77,40.77,0,0,1,15.83-15.43,46.52,46.52,0,0,1,22.89-5.58,45.13,45.13,0,0,1,19.86,4.27,32.12,32.12,0,0,1,13.95,12.8l-8.7,5.9a27.39,27.39,0,0,0-11-9.68A34.57,34.57,0,0,0,450.71,50,30.43,30.43,0,0,0,439.05,61.7a35.49,35.49,0,0,0-4.26,17.73,35.45,35.45,0,0,0,4.26,17.72,30.43,30.43,0,0,0,11.66,11.73A34.57,34.57,0,0,0,481.56,110a27.74,27.74,0,0,0,11-9.52l8.7,5.91a33,33,0,0,1-13.95,12.72A44.48,44.48,0,0,1,467.44,123.4Z"/><path class="cls-1" d="M530,17.39a8.26,8.26,0,0,1-6.08-2.46A8.05,8.05,0,0,1,521.43,9a7.8,7.8,0,0,1,2.46-5.83A8.44,8.44,0,0,1,530,.82,8.58,8.58,0,0,1,536,3.12a7.52,7.52,0,0,1,2.46,5.74,8.41,8.41,0,0,1-2.38,6.07A8.19,8.19,0,0,1,530,17.39Zm-5.91,105.19V36.43h11.65v86.15Z"/><path class="cls-1" d="M603.32,123.4a44.34,44.34,0,0,1-22.4-5.66,41.51,41.51,0,0,1-15.67-15.59,44.51,44.51,0,0,1-5.75-22.72,44.4,44.4,0,0,1,5.75-22.81,41.24,41.24,0,0,1,15.59-15.43,44.76,44.76,0,0,1,22.48-5.58,45.61,45.61,0,0,1,22.73,5.58,40.68,40.68,0,0,1,15.59,15.43,45,45,0,0,1,5.66,22.81,45.06,45.06,0,0,1-5.66,22.72A40.85,40.85,0,0,1,626,117.74,45.11,45.11,0,0,1,603.32,123.4Zm0-10.33a32.44,32.44,0,0,0,16.57-4.19A30,30,0,0,0,631.3,97.07a36.11,36.11,0,0,0,4.18-17.64A36,36,0,0,0,631.3,61.7,30.15,30.15,0,0,0,619.89,50a34.23,34.23,0,0,0-32.82,0A30.84,30.84,0,0,0,575.58,61.7a35.49,35.49,0,0,0-4.26,17.73,35.6,35.6,0,0,0,4.26,17.64,30.71,30.71,0,0,0,11.49,11.81A31.8,31.8,0,0,0,603.32,113.07Z"/><path class="cls-1" d="M715.07,35.61a40.41,40.41,0,0,1,18.46,4A28.9,28.9,0,0,1,746,51.86q4.51,8.2,4.52,20.67v50.05H738.87V73.68q0-13.62-6.81-20.59t-19.12-7a33.08,33.08,0,0,0-16,3.69,25.37,25.37,0,0,0-10.5,10.67q-3.71,7-3.7,16.82v45.29H671.09V36.43h11.16V60.06l-1.8-4.43a31.35,31.35,0,0,1,13.12-14.69Q702.6,35.62,715.07,35.61Z"/><path class="cls-1" d="M818.62,123.4q-13.46,0-23.63-5.66a41.06,41.06,0,0,1-15.92-15.59,44.5,44.5,0,0,1-5.74-22.72,45.7,45.7,0,0,1,5.49-22.65,40.76,40.76,0,0,1,15.1-15.51,44.52,44.52,0,0,1,43.16-.16,39.16,39.16,0,0,1,14.85,15.42,47.06,47.06,0,0,1,5.42,22.9c0,.54,0,1.12-.09,1.72s-.08,1.23-.08,1.89h-75v-8.7H851l-4.6,3.44a34,34,0,0,0-4-16.65,29.65,29.65,0,0,0-10.91-11.41,30.58,30.58,0,0,0-15.92-4.1,31.15,31.15,0,0,0-15.92,4.1,28.56,28.56,0,0,0-11,11.49,35.31,35.31,0,0,0-3.94,16.9v1.81A33.77,33.77,0,0,0,789,97.23a30.34,30.34,0,0,0,12.14,11.65A37.06,37.06,0,0,0,819,113.07a38.33,38.33,0,0,0,14.68-2.79,30.53,30.53,0,0,0,11.74-8.54l6.56,7.55a36.8,36.8,0,0,1-14.36,10.5A48.48,48.48,0,0,1,818.62,123.4Z"/><path class="cls-1" d="M904.28,123.4a66.21,66.21,0,0,1-20.19-3q-9.51-3-14.93-7.63l5.25-9.19a49.84,49.84,0,0,0,13.46,6.81,51.88,51.88,0,0,0,17.23,2.87q12.3,0,17.72-3.86a12,12,0,0,0,5.42-10.25,9.52,9.52,0,0,0-3-7.47,20,20,0,0,0-8-4.1,99.11,99.11,0,0,0-11-2.38q-6.07-1-12.06-2.3A44.43,44.43,0,0,1,883.27,79a21.51,21.51,0,0,1-8-7q-3-4.42-3-11.81a21.35,21.35,0,0,1,3.94-12.64,25.93,25.93,0,0,1,11.57-8.78q7.62-3.2,18.62-3.2a65.06,65.06,0,0,1,16.74,2.22,46,46,0,0,1,13.78,5.82L931.85,53a39.49,39.49,0,0,0-12.31-5.66,51.47,51.47,0,0,0-13.13-1.72q-11.65,0-17.15,4a12.23,12.23,0,0,0-5.49,10.26,10,10,0,0,0,3,7.71,20.82,20.82,0,0,0,8,4.35,80.38,80.38,0,0,0,11,2.54q6,1,12,2.38a54,54,0,0,1,11,3.78,20.11,20.11,0,0,1,8,6.72q3,4.35,3,11.41a21,21,0,0,1-4.19,13,26.74,26.74,0,0,1-12.14,8.53Q915.6,123.4,904.28,123.4Z"/><path class="cls-1" d="M990.76,46.11V36.43h53.33v9.68Zm15.42,76.47v-97q0-11.49,6.73-18.54T1032.28,0a34.61,34.61,0,0,1,9.51,1.31,19.46,19.46,0,0,1,7.72,4.11l-3.94,8.69a16.58,16.58,0,0,0-5.75-3.2,22.73,22.73,0,0,0-7-1.06q-7.39,0-11.33,4.1t-3.93,12.14V39.22l.32,5.42v77.94Zm59.57-105.19a8.24,8.24,0,0,1-6.07-2.46,8.05,8.05,0,0,1-2.46-5.9,7.8,7.8,0,0,1,2.46-5.83,8.41,8.41,0,0,1,6.07-2.38,8.56,8.56,0,0,1,6.07,2.3,7.53,7.53,0,0,1,2.47,5.74,8.41,8.41,0,0,1-2.38,6.07A8.2,8.2,0,0,1,1065.75,17.39Zm-5.91,105.19V36.43h11.66v86.15Z"/><path class="cls-1" d="M1148.13,35.61a40.44,40.44,0,0,1,18.46,4,28.9,28.9,0,0,1,12.47,12.23q4.51,8.2,4.52,20.67v50.05h-11.66V73.68q0-13.62-6.81-20.59t-19.11-7a33.08,33.08,0,0,0-16,3.69,25.45,25.45,0,0,0-10.51,10.67q-3.69,7-3.69,16.82v45.29h-11.65V36.43h11.16V60.06l-1.81-4.43a31.37,31.37,0,0,1,13.13-14.69Q1135.66,35.62,1148.13,35.61Z"/><path class="cls-1" d="M1239.37,123.4a40.71,40.71,0,0,1-16.82-3.2,24.87,24.87,0,0,1-10.91-8.86,22.92,22.92,0,0,1-3.78-13,23.91,23.91,0,0,1,3.2-12.23q3.21-5.49,10.5-8.86t19.62-3.36h29.7v8.69H1241.5q-12.46,0-17.31,4.43a14.31,14.31,0,0,0-4.84,11,14.16,14.16,0,0,0,5.74,11.81q5.75,4.44,16.09,4.43a31.1,31.1,0,0,0,17-4.51,25.91,25.91,0,0,0,10.42-13l2.63,8a27.36,27.36,0,0,1-11.41,13.62Q1251.69,123.41,1239.37,123.4Zm29.7-.82v-19l-.49-3.12V68.59q0-11-6.15-16.9t-18.3-5.91a45.54,45.54,0,0,0-15.92,2.79,40.84,40.84,0,0,0-12.8,7.39l-5.25-8.7a46.47,46.47,0,0,1,15.75-8.61,61.18,61.18,0,0,1,19.37-3q16.74,0,25.84,8.29t9.11,25.19v53.49Z"/><path class="cls-1" d="M1355.88,35.61a40.41,40.41,0,0,1,18.46,4,28.9,28.9,0,0,1,12.47,12.23q4.51,8.2,4.52,20.67v50.05h-11.65V73.68q0-13.62-6.81-20.59t-19.12-7a33.08,33.08,0,0,0-16,3.69,25.37,25.37,0,0,0-10.5,10.67q-3.7,7-3.7,16.82v45.29H1311.9V36.43h11.16V60.06l-1.8-4.43a31.35,31.35,0,0,1,13.12-14.69Q1343.41,35.62,1355.88,35.61Z"/><path class="cls-1" d="M1458.61,123.4a45.9,45.9,0,0,1-22.89-5.66,41.26,41.26,0,0,1-15.84-15.59,44.5,44.5,0,0,1-5.74-22.72,44.4,44.4,0,0,1,5.74-22.81,40.86,40.86,0,0,1,15.84-15.43,46.49,46.49,0,0,1,22.89-5.58,45.06,45.06,0,0,1,19.85,4.27,32.12,32.12,0,0,1,14,12.8l-8.69,5.9a27.42,27.42,0,0,0-11-9.68A34.57,34.57,0,0,0,1441.87,50a30.4,30.4,0,0,0-11.65,11.73A35.39,35.39,0,0,0,1426,79.43a35.35,35.35,0,0,0,4.27,17.72,30.4,30.4,0,0,0,11.65,11.73,34.57,34.57,0,0,0,30.85,1.07,27.76,27.76,0,0,0,11-9.52l8.69,5.91a33,33,0,0,1-14,12.72A44.4,44.4,0,0,1,1458.61,123.4Z"/><path class="cls-1" d="M1521.13,17.39a8.24,8.24,0,0,1-6.07-2.46A8.05,8.05,0,0,1,1512.6,9a7.8,7.8,0,0,1,2.46-5.83,8.41,8.41,0,0,1,6.07-2.38,8.56,8.56,0,0,1,6.07,2.3,7.52,7.52,0,0,1,2.46,5.74,8.37,8.37,0,0,1-2.38,6.07A8.16,8.16,0,0,1,1521.13,17.39Zm-5.91,105.19V36.43h11.65v86.15Z"/><path class="cls-1" d="M1596,123.4q-13.45,0-23.63-5.66a41.06,41.06,0,0,1-15.92-15.59,44.5,44.5,0,0,1-5.74-22.72,45.6,45.6,0,0,1,5.5-22.65,40.66,40.66,0,0,1,15.09-15.51,44.52,44.52,0,0,1,43.16-.16,39.16,39.16,0,0,1,14.85,15.42,47.06,47.06,0,0,1,5.42,22.9c0,.54,0,1.12-.08,1.72s-.09,1.23-.09,1.89h-75v-8.7h68.76l-4.6,3.44a34,34,0,0,0-4-16.65,29.65,29.65,0,0,0-10.91-11.41,30.56,30.56,0,0,0-15.92-4.1,31.15,31.15,0,0,0-15.92,4.1,28.63,28.63,0,0,0-11,11.49,35.31,35.31,0,0,0-3.94,16.9v1.81a33.77,33.77,0,0,0,4.35,17.31,30.4,30.4,0,0,0,12.14,11.65,37.06,37.06,0,0,0,17.81,4.19,38.42,38.42,0,0,0,14.69-2.79,30.57,30.57,0,0,0,11.73-8.54l6.56,7.55a36.8,36.8,0,0,1-14.36,10.5A48.48,48.48,0,0,1,1596,123.4Z"/><path class="cls-1" d="M1658.48,122.58V36.43h11.16V59.9l-1.15-4.11a28.41,28.41,0,0,1,12.14-15q8.53-5.18,21.17-5.17V46.93a9.6,9.6,0,0,1-1.31-.08,11.66,11.66,0,0,0-1.31-.08q-13.62,0-21.34,8.29t-7.71,23.54v44Z"/><path class="cls-1" d="M1748.57,123.4a40.71,40.71,0,0,1-16.82-3.2,24.87,24.87,0,0,1-10.91-8.86,22.92,22.92,0,0,1-3.78-13,23.91,23.91,0,0,1,3.2-12.23q3.21-5.49,10.51-8.86t19.61-3.36h29.7v8.69H1750.7q-12.46,0-17.31,4.43a14.31,14.31,0,0,0-4.84,11,14.16,14.16,0,0,0,5.74,11.81q5.74,4.44,16.09,4.43a31.1,31.1,0,0,0,17-4.51,25.91,25.91,0,0,0,10.42-13l2.63,8A27.36,27.36,0,0,1,1769,118.32Q1760.88,123.41,1748.57,123.4Zm29.7-.82v-19l-.49-3.12V68.59q0-11-6.15-16.9t-18.3-5.91a45.54,45.54,0,0,0-15.92,2.79,40.84,40.84,0,0,0-12.8,7.39l-5.25-8.7a46.47,46.47,0,0,1,15.75-8.61,61.18,61.18,0,0,1,19.37-3q16.74,0,25.84,8.29t9.11,25.19v53.49Z"/><path class="cls-1" d="M1844.24,123.4a66.1,66.1,0,0,1-20.18-3q-9.52-3-14.94-7.63l5.25-9.19a49.84,49.84,0,0,0,13.46,6.81,51.88,51.88,0,0,0,17.23,2.87q12.32,0,17.72-3.86a12,12,0,0,0,5.42-10.25,9.49,9.49,0,0,0-3-7.47,19.93,19.93,0,0,0-8-4.1,99.31,99.31,0,0,0-11-2.38q-6.07-1-12.06-2.3A44.21,44.21,0,0,1,1823.24,79a21.35,21.35,0,0,1-8-7q-3-4.42-3-11.81a21.35,21.35,0,0,1,3.94-12.64,26,26,0,0,1,11.57-8.78q7.63-3.2,18.62-3.2a65.06,65.06,0,0,1,16.74,2.22,46.08,46.08,0,0,1,13.79,5.82L1871.81,53a39.38,39.38,0,0,0-12.31-5.66,51.41,51.41,0,0,0-13.13-1.72q-11.65,0-17.14,4t-5.5,10.26a10,10,0,0,0,3,7.71,20.94,20.94,0,0,0,8,4.35,80.22,80.22,0,0,0,11,2.54q6,1,12,2.38a53.8,53.8,0,0,1,11,3.78,20.11,20.11,0,0,1,8,6.72q3,4.35,3,11.41a20.94,20.94,0,0,1-4.18,13,26.77,26.77,0,0,1-12.15,8.53Q1855.57,123.4,1844.24,123.4Z"/><path class="cls-1" d="M0,292.16,59,159.7H89.31l59.23,132.46H116.37L67.93,175.22H80L31.41,292.16Zm29.52-28.39,8.13-23.27h68.12l8.33,23.27Z"/><path class="cls-1" d="M160.27,292.16V151.75h29.52V292.16Z"/><path class="cls-1" d="M302.18,293.67q-11.93,0-20.44-4.07a31.05,31.05,0,0,1-13.05-11.07,30,30,0,0,1-.1-31.6q4.46-6.81,14.1-10.69t25.17-3.88h27.06v17.22H311.07q-10.41,0-14.28,3.41a10.85,10.85,0,0,0-3.88,8.51,10.61,10.61,0,0,0,4.44,9q4.45,3.31,12.21,3.31a25.33,25.33,0,0,0,13.25-3.5A20.1,20.1,0,0,0,331.32,260l4.54,13.62a26.34,26.34,0,0,1-11.73,14.95Q315.61,293.68,302.18,293.67Zm31-1.51V272.29l-1.89-4.35V232.36q0-9.45-5.77-14.76t-17.69-5.29a51.42,51.42,0,0,0-16,2.55,42.13,42.13,0,0,0-13.34,6.91l-10.6-20.63A64,64,0,0,1,288,192.06a90,90,0,0,1,23.84-3.22q23.28,0,36.14,11t12.87,34.25v58.09Z"/><path class="cls-1" d="M387.52,292.16V151.75H417V292.16Z"/><path class="cls-1" d="M493.67,293.67q-16.47,0-29.33-6.72a51.36,51.36,0,0,1,0-91.39q12.87-6.72,29.33-6.72,16.08,0,28,6.72a40.93,40.93,0,0,1,17.6,19.21l-22.9,12.29a26.53,26.53,0,0,0-9.93-10.59,25.69,25.69,0,0,0-13-3.41,27.33,27.33,0,0,0-13.63,3.41,24.69,24.69,0,0,0-9.55,9.65,34.47,34.47,0,0,0,0,30.27,24.62,24.62,0,0,0,9.55,9.65,27.33,27.33,0,0,0,13.63,3.41,26.23,26.23,0,0,0,13-3.31,25.63,25.63,0,0,0,9.93-10.69l22.9,12.49a41,41,0,0,1-17.6,19Q509.76,293.67,493.67,293.67Z"/><path class="cls-1" d="M587.71,293.67q-11.93,0-20.44-4.07a31,31,0,0,1-13-11.07,30,30,0,0,1-.1-31.6q4.44-6.81,14.1-10.69t25.16-3.88h27.06v17.22H596.6q-10.41,0-14.28,3.41a10.85,10.85,0,0,0-3.88,8.51,10.61,10.61,0,0,0,4.44,9c3,2.21,7,3.31,12.21,3.31a25.27,25.27,0,0,0,13.24-3.5A20.07,20.07,0,0,0,616.85,260l4.54,13.62a26.38,26.38,0,0,1-11.73,14.95Q601.14,293.68,587.71,293.67Zm31-1.51V272.29l-1.89-4.35V232.36q0-9.45-5.77-14.76t-17.7-5.29a51.4,51.4,0,0,0-16,2.55,42.13,42.13,0,0,0-13.34,6.91l-10.6-20.63a63.88,63.88,0,0,1,20.06-9.08,89.9,89.9,0,0,1,23.84-3.22q23.26,0,36.14,11t12.87,34.25v58.09Z"/><path class="cls-1" d="M734.92,188.84a47.42,47.42,0,0,1,21.67,4.83,35,35,0,0,1,15,14.76q5.49,9.93,5.49,25.45v58.28H747.6V238.42q0-12.3-5.39-18.17T727,214.39a26.68,26.68,0,0,0-12.58,2.93,20.36,20.36,0,0,0-8.7,9q-3.13,6.06-3.13,15.51v50.34H673V190.36h28.2v28.19l-5.3-8.52a37.69,37.69,0,0,1,15.71-15.7A48.39,48.39,0,0,1,734.92,188.84Z"/><path class="cls-1" d="M853,293.67q-16.46,0-29.33-6.72a51.36,51.36,0,0,1,0-91.39q12.87-6.72,29.33-6.72,16.08,0,28,6.72a41,41,0,0,1,17.59,19.21L875.7,227.06a26.55,26.55,0,0,0-9.94-10.59,25.67,25.67,0,0,0-13-3.41,27.3,27.3,0,0,0-13.62,3.41,24.71,24.71,0,0,0-9.56,9.65,34.47,34.47,0,0,0,0,30.27,24.64,24.64,0,0,0,9.56,9.65,27.3,27.3,0,0,0,13.62,3.41,26.2,26.2,0,0,0,13-3.31q6-3.31,9.94-10.69l22.89,12.49A41.07,41.07,0,0,1,881,287Q869.08,293.67,853,293.67Z"/><path class="cls-1" d="M966.14,293.67q-17.4,0-30.56-6.81a50.33,50.33,0,0,1-20.34-18.64,50.87,50.87,0,0,1-7.19-27,51.78,51.78,0,0,1,7.1-27.16,50.32,50.32,0,0,1,19.39-18.54,60.72,60.72,0,0,1,54.78-.38,47.49,47.49,0,0,1,19,18.17q7,11.82,7,28.28c0,1.14-.06,2.43-.19,3.88s-.25,2.81-.38,4.07H932.08V232.36h67.18l-11.36,5.11a28.32,28.32,0,0,0-3.21-13.81,23.53,23.53,0,0,0-8.9-9.18,25.87,25.87,0,0,0-13.24-3.31,26.4,26.4,0,0,0-13.34,3.31,23.12,23.12,0,0,0-9,9.27,29.24,29.24,0,0,0-3.22,14.1v4.54a28.65,28.65,0,0,0,3.69,14.67,24.12,24.12,0,0,0,10.41,9.65A35.47,35.47,0,0,0,966.9,270a38.33,38.33,0,0,0,14.29-2.46,35,35,0,0,0,11.26-7.38l15.7,17a45.72,45.72,0,0,1-17.6,12.2A65.06,65.06,0,0,1,966.14,293.67Z"/><path class="cls-1" d="M1132.28,293.67a51.78,51.78,0,0,1-25.93-6.53,47.87,47.87,0,0,1-18.26-18.26q-6.72-11.73-6.71-27.62,0-16.08,6.71-27.82a47.27,47.27,0,0,1,18.26-18.16,52.35,52.35,0,0,1,25.93-6.44q12.85,0,22.51,5.68t15,17.22q5.29,11.53,5.3,29.52,0,17.78-5.11,29.42T1155.27,288Q1145.72,293.67,1132.28,293.67Zm5.11-24.22a25.52,25.52,0,0,0,13-3.41,24.91,24.91,0,0,0,9.37-9.74,34.28,34.28,0,0,0,0-30.18,25.14,25.14,0,0,0-9.37-9.65,25.52,25.52,0,0,0-13-3.41,25.91,25.91,0,0,0-13.25,3.41,25.14,25.14,0,0,0-9.37,9.65,34.28,34.28,0,0,0,0,30.18,24.91,24.91,0,0,0,9.37,9.74A25.91,25.91,0,0,0,1137.39,269.45Zm26.67,22.71V271.34l.57-30.27L1162.74,211V151.75h29.52V292.16Z"/><path class="cls-1" d="M1270,293.67q-17.41,0-30.56-6.81a50.2,50.2,0,0,1-20.34-18.64,50.78,50.78,0,0,1-7.19-27q0-15.33,7.09-27.16a50.28,50.28,0,0,1,19.4-18.54,60.72,60.72,0,0,1,54.78-.38,47.53,47.53,0,0,1,19,18.17q7,11.82,7,28.28c0,1.14-.06,2.43-.19,3.88s-.25,2.81-.37,4.07H1236V232.36h67.17l-11.35,5.11a28.32,28.32,0,0,0-3.22-13.81,23.57,23.57,0,0,0-8.89-9.18,25.93,25.93,0,0,0-13.25-3.31,26.4,26.4,0,0,0-13.34,3.31,23.19,23.19,0,0,0-9,9.27,29.35,29.35,0,0,0-3.21,14.1v4.54a28.65,28.65,0,0,0,3.69,14.67,24.1,24.1,0,0,0,10.4,9.65,35.47,35.47,0,0,0,15.8,3.31,38.29,38.29,0,0,0,14.29-2.46,34.84,34.84,0,0,0,11.26-7.38l15.7,17a45.76,45.76,0,0,1-17.59,12.2A65.13,65.13,0,0,1,1270,293.67Z"/><path class="cls-1" d="M1380.34,215.33v-22.7h70.58v22.7Zm53.74,78.34q-18,0-28-9.18t-10-27.34V167.84h29.52v88.93q0,6.44,3.41,9.94t9.27,3.5a18.92,18.92,0,0,0,11.92-3.79l7.95,20.82a32.54,32.54,0,0,1-10.88,4.82A53.4,53.4,0,0,1,1434.08,293.67Z"/><path class="cls-1" d="M1523.2,293.67q-16.28,0-28.86-6.81a51.81,51.81,0,0,1-19.86-18.64,53.87,53.87,0,0,1,0-54.12,51.12,51.12,0,0,1,19.86-18.54q12.59-6.72,28.86-6.72a60.46,60.46,0,0,1,28.76,6.72A50.62,50.62,0,0,1,1571.83,214q7.18,11.73,7.19,27.25a50.18,50.18,0,0,1-27.06,45.6A59.81,59.81,0,0,1,1523.2,293.67Zm0-24.22a25.94,25.94,0,0,0,13.25-3.41,24.27,24.27,0,0,0,9.27-9.74,35.19,35.19,0,0,0,0-30.18,24.48,24.48,0,0,0-9.27-9.65,27.45,27.45,0,0,0-26.5,0,25,25,0,0,0-9.36,9.65,34.28,34.28,0,0,0,0,30.18A24.82,24.82,0,0,0,1510,266,25.91,25.91,0,0,0,1523.2,269.45Z"/><path class="cls-1" d="M1642.41,293.67a51.72,51.72,0,0,1-25.92-6.53,47.74,47.74,0,0,1-18.26-18.26q-6.72-11.73-6.72-27.62,0-16.08,6.72-27.82a47.14,47.14,0,0,1,18.26-18.16,52.29,52.29,0,0,1,25.92-6.44q12.87,0,22.52,5.68t14.94,17.22q5.3,11.53,5.3,29.52,0,17.78-5.11,29.42T1665.4,288Q1655.84,293.67,1642.41,293.67Zm5.11-24.22a25.52,25.52,0,0,0,13-3.41,24.91,24.91,0,0,0,9.37-9.74,34.28,34.28,0,0,0,0-30.18,25.14,25.14,0,0,0-9.37-9.65,25.52,25.52,0,0,0-13-3.41,25.91,25.91,0,0,0-13.25,3.41,25,25,0,0,0-9.36,9.65,34.19,34.19,0,0,0,0,30.18,24.82,24.82,0,0,0,9.36,9.74A25.91,25.91,0,0,0,1647.52,269.45Zm26.68,22.71V271.34l.57-30.27-1.9-30.09V151.75h29.52V292.16Z"/><path class="cls-1" d="M1778.08,293.67q-16.27,0-28.86-6.81a51.91,51.91,0,0,1-19.87-18.64,53.93,53.93,0,0,1,0-54.12,51.22,51.22,0,0,1,19.87-18.54q12.58-6.72,28.86-6.72a60.46,60.46,0,0,1,28.76,6.72A50.62,50.62,0,0,1,1826.71,214q7.18,11.73,7.19,27.25a50.18,50.18,0,0,1-27.06,45.6A59.81,59.81,0,0,1,1778.08,293.67Zm0-24.22a25.88,25.88,0,0,0,13.24-3.41,24.2,24.2,0,0,0,9.27-9.74,35.09,35.09,0,0,0,0-30.18,24.41,24.41,0,0,0-9.27-9.65,27.43,27.43,0,0,0-26.49,0,25,25,0,0,0-9.36,9.65,34.19,34.19,0,0,0,0,30.18,24.82,24.82,0,0,0,9.36,9.74A25.91,25.91,0,0,0,1778.08,269.45Z"/><path class="cls-1" d="M1887.82,293.67a99.37,99.37,0,0,1-25.07-3.12q-12-3.12-19-7.85l9.84-21.2a65,65,0,0,0,16.55,7.1,68,68,0,0,0,18.83,2.74q10.21,0,14.48-2.46t4.25-6.81a5.79,5.79,0,0,0-3.31-5.39,29.2,29.2,0,0,0-8.8-2.75q-5.49-.94-12-1.89t-13.15-2.55a44.2,44.2,0,0,1-12.11-4.83,24.62,24.62,0,0,1-8.8-8.7q-3.32-5.49-3.31-14.19a27.46,27.46,0,0,1,5.58-17q5.58-7.38,16.18-11.64t25.35-4.26a102.91,102.91,0,0,1,21.19,2.27,57.48,57.48,0,0,1,18,6.63l-9.84,21a49.88,49.88,0,0,0-14.85-6,69,69,0,0,0-14.48-1.61q-9.84,0-14.38,2.65t-4.54,6.81a6.13,6.13,0,0,0,3.31,5.68,30.17,30.17,0,0,0,8.8,3q5.49,1.14,12,2a109.64,109.64,0,0,1,13.15,2.56,47.22,47.22,0,0,1,12,4.82,25.17,25.17,0,0,1,8.8,8.52q3.4,5.39,3.41,14.09a26.53,26.53,0,0,1-5.68,16.75q-5.67,7.29-16.37,11.45T1887.82,293.67Z"/></g></g></svg>