<svg xmlns="http://www.w3.org/2000/svg" viewBox="0 0 1193.67 314.55"><defs><style>.cls-1{fill:#fff;}</style></defs><g id="Capa_2" data-name="Capa 2"><g id="Capa_1-2" data-name="Capa 1"><path class="cls-1" d="M121.57,93.59h58.11v8.83H111.36V5.8h66.25v8.83h-56ZM120.47,49h51.07v8.7H120.47Z"/><path class="cls-1" d="M292.18,29.26a33.07,33.07,0,0,1,15.39,3.39,23.71,23.71,0,0,1,10.22,10.28q3.66,6.9,3.66,17.39v42.1h-9.8V61.29q0-11.46-5.46-17.33T290.8,38.1a25.61,25.61,0,0,0-12.9,3.1,20.86,20.86,0,0,0-8.42,9,31,31,0,0,0-3,14.15v38.09h-9.8V61.29q0-11.46-5.52-17.33T235.73,38.1a25.75,25.75,0,0,0-12.84,3.1,20.83,20.83,0,0,0-8.49,9,31,31,0,0,0-3,14.15v38.09h-9.8V30H211V49.56L209.5,46.1a25.88,25.88,0,0,1,10.7-12.35,33,33,0,0,1,17.46-4.49q10.62,0,18.08,5.32t9.66,15.94L261.54,49a28.6,28.6,0,0,1,11.25-14.28Q280.86,29.26,292.18,29.26Z"/><path class="cls-1" d="M348.09,129.2V30h9.38V51.76l-1,14.5,1.38,14.63V129.2Zm37.41-26.09a33.63,33.63,0,0,1-17-4.34A31.49,31.49,0,0,1,356.44,86.2Q352,78,352,66.12T356.37,46a30.57,30.57,0,0,1,12-12.5,34.29,34.29,0,0,1,17.12-4.28,37.21,37.21,0,0,1,18.56,4.63,33.33,33.33,0,0,1,12.91,13,38.64,38.64,0,0,1,4.69,19.26A38.57,38.57,0,0,1,417,85.45a33.93,33.93,0,0,1-12.91,13A36.73,36.73,0,0,1,385.5,103.11Zm-.69-8.69a27.08,27.08,0,0,0,13.8-3.52A25.73,25.73,0,0,0,408.27,81a29.94,29.94,0,0,0,3.59-14.84,29.54,29.54,0,0,0-3.59-14.77,26.36,26.36,0,0,0-9.66-9.94,26.64,26.64,0,0,0-13.8-3.59,27,27,0,0,0-13.88,3.59,25.78,25.78,0,0,0-9.66,9.94,29.93,29.93,0,0,0-3.52,14.77A30.34,30.34,0,0,0,361.27,81a25.18,25.18,0,0,0,9.66,9.94A27.49,27.49,0,0,0,384.81,94.42Z"/><path class="cls-1" d="M471.22,103.11a37.32,37.32,0,0,1-18.85-4.76,35,35,0,0,1-13.18-13.11,37.5,37.5,0,0,1-4.83-19.12,37.39,37.39,0,0,1,4.83-19.19A34.8,34.8,0,0,1,452.3,34a37.72,37.72,0,0,1,18.92-4.7A38.31,38.31,0,0,1,490.33,34a34.2,34.2,0,0,1,13.12,13,37.86,37.86,0,0,1,4.76,19.19,38,38,0,0,1-4.76,19.12,34.37,34.37,0,0,1-13.18,13.11A38,38,0,0,1,471.22,103.11Zm0-8.69a27.37,27.37,0,0,0,13.94-3.52A25.28,25.28,0,0,0,494.75,81a30.34,30.34,0,0,0,3.52-14.84,30.27,30.27,0,0,0-3.52-14.91,25.43,25.43,0,0,0-9.59-9.87,28.83,28.83,0,0,0-27.61,0,25.88,25.88,0,0,0-9.66,9.87,29.76,29.76,0,0,0-3.59,14.91A29.83,29.83,0,0,0,447.89,81a25.73,25.73,0,0,0,9.66,9.94A26.81,26.81,0,0,0,471.22,94.42Z"/><path class="cls-1" d="M557.08,103.11a36.71,36.71,0,0,1-18.57-4.69,33.78,33.78,0,0,1-12.91-13,38.64,38.64,0,0,1-4.69-19.26,38.57,38.57,0,0,1,4.69-19.33,33.41,33.41,0,0,1,12.91-12.9,37.19,37.19,0,0,1,18.57-4.63,33.88,33.88,0,0,1,17,4.28,31.15,31.15,0,0,1,12,12.5q4.49,8.2,4.49,20.08t-4.42,20a31,31,0,0,1-11.94,12.64A33.79,33.79,0,0,1,557.08,103.11Zm.69-8.69a27.48,27.48,0,0,0,13.87-3.52A25.18,25.18,0,0,0,581.3,81a30.34,30.34,0,0,0,3.52-14.84,30.27,30.27,0,0,0-3.52-14.91,25.33,25.33,0,0,0-9.66-9.87,27.48,27.48,0,0,0-13.87-3.52,26.81,26.81,0,0,0-13.67,3.52,25.88,25.88,0,0,0-9.66,9.87,29.76,29.76,0,0,0-3.59,14.91A29.83,29.83,0,0,0,534.44,81a25.73,25.73,0,0,0,9.66,9.94A26.81,26.81,0,0,0,557.77,94.42Zm27.33,8V80.61l1-14.63-1.38-14.63V0h9.8V102.42Z"/><path class="cls-1" d="M652.6,103.11a40.14,40.14,0,0,1-19.88-4.76,34.51,34.51,0,0,1-13.39-13.11,37.5,37.5,0,0,1-4.83-19.12,38.44,38.44,0,0,1,4.62-19.05,34.21,34.21,0,0,1,12.7-13A35,35,0,0,1,650,29.26a35.47,35.47,0,0,1,18.16,4.63,33,33,0,0,1,12.49,13,39.67,39.67,0,0,1,4.55,19.26c0,.46,0,.94-.07,1.45s-.06,1-.06,1.59H622V61.84h57.84l-3.87,2.9a28.48,28.48,0,0,0-3.38-14,24.87,24.87,0,0,0-9.18-9.6A25.77,25.77,0,0,0,650,37.68a26.26,26.26,0,0,0-13.39,3.45,24,24,0,0,0-9.24,9.67A29.73,29.73,0,0,0,624,65v1.51a28.41,28.41,0,0,0,3.66,14.57,25.52,25.52,0,0,0,10.22,9.8,31.22,31.22,0,0,0,15,3.52,32.19,32.19,0,0,0,12.36-2.35,25.6,25.6,0,0,0,9.87-7.18l5.52,6.35a31.12,31.12,0,0,1-12.08,8.84A40.94,40.94,0,0,1,652.6,103.11Z"/><path class="cls-1" d="M705.19,102.42V30h9.38V49.69l-1-3.45a23.88,23.88,0,0,1,10.21-12.63q7.18-4.35,17.81-4.35v9.53a8.27,8.27,0,0,1-1.11-.07,8,8,0,0,0-1.1-.07q-11.46,0-17.94,7T715,65.43v37Z"/><path class="cls-1" d="M781,103.11a34.25,34.25,0,0,1-14.15-2.69A21,21,0,0,1,757.64,93a19.33,19.33,0,0,1-3.18-11,20,20,0,0,1,2.7-10.28A18.91,18.91,0,0,1,766,64.26q6.13-2.84,16.5-2.83h25v7.31H782.76q-10.49,0-14.56,3.73A12.6,12.6,0,0,0,769,91.66q4.83,3.72,13.53,3.72a26.15,26.15,0,0,0,14.28-3.79,21.77,21.77,0,0,0,8.77-11l2.21,6.77a23,23,0,0,1-9.6,11.45Q791.33,103.12,781,103.11Zm25-.69v-16l-.41-2.62V57q0-9.25-5.18-14.22t-15.39-5a38.19,38.19,0,0,0-13.39,2.35,34.07,34.07,0,0,0-10.77,6.21l-4.41-7.32a39.19,39.19,0,0,1,13.25-7.24,51.64,51.64,0,0,1,16.29-2.56q14.07,0,21.74,7t7.66,21.19v45Z"/><path class="cls-1" d="M879,29.26a33.93,33.93,0,0,1,15.53,3.39A24.25,24.25,0,0,1,905,42.93q3.79,6.9,3.8,17.39v42.1H899V61.29q0-11.46-5.73-17.33T877.18,38.1a27.81,27.81,0,0,0-13.46,3.1,21.31,21.31,0,0,0-8.83,9,29.87,29.87,0,0,0-3.11,14.15v38.09H842V30h9.39V49.83l-1.52-3.73a26.38,26.38,0,0,1,11-12.35A34.92,34.92,0,0,1,879,29.26Z"/><path class="cls-1" d="M964.14,103.11a36.7,36.7,0,0,1-18.56-4.69,33.78,33.78,0,0,1-12.91-13A38.64,38.64,0,0,1,928,66.12a38.57,38.57,0,0,1,4.69-19.33,33.41,33.41,0,0,1,12.91-12.9,37.18,37.18,0,0,1,18.56-4.63,33.91,33.91,0,0,1,17.05,4.28,31.21,31.21,0,0,1,12,12.5q4.49,8.2,4.49,20.08t-4.42,20a31.11,31.11,0,0,1-11.94,12.64A33.83,33.83,0,0,1,964.14,103.11Zm.69-8.69a27.49,27.49,0,0,0,13.88-3.52A25.18,25.18,0,0,0,988.37,81a30.45,30.45,0,0,0,3.52-14.84,30.38,30.38,0,0,0-3.52-14.91,25.33,25.33,0,0,0-9.66-9.87,27.49,27.49,0,0,0-13.88-3.52,26.8,26.8,0,0,0-13.66,3.52,26,26,0,0,0-9.67,9.87,29.86,29.86,0,0,0-3.58,14.91A29.93,29.93,0,0,0,941.5,81a25.82,25.82,0,0,0,9.67,9.94A26.8,26.8,0,0,0,964.83,94.42Zm27.33,8V80.61l1-14.63-1.38-14.63V0h9.8V102.42Z"/><path class="cls-1" d="M1058.42,103.11a37.31,37.31,0,0,1-18.84-4.76,34.93,34.93,0,0,1-13.18-13.11,37.4,37.4,0,0,1-4.83-19.12,37.3,37.3,0,0,1,4.83-19.19,34.8,34.8,0,0,1,13.11-13,37.66,37.66,0,0,1,18.91-4.7,38.35,38.35,0,0,1,19.12,4.7,34.11,34.11,0,0,1,13.11,13,37.76,37.76,0,0,1,4.77,19.19,37.87,37.87,0,0,1-4.77,19.12,34.3,34.3,0,0,1-13.18,13.11A37.94,37.94,0,0,1,1058.42,103.11Zm0-8.69a27.34,27.34,0,0,0,13.94-3.52A25.31,25.31,0,0,0,1082,81a30.45,30.45,0,0,0,3.52-14.84A30.38,30.38,0,0,0,1082,51.21a25.46,25.46,0,0,0-9.6-9.87,28.81,28.81,0,0,0-27.6,0,26,26,0,0,0-9.67,9.87,29.86,29.86,0,0,0-3.59,14.91A29.94,29.94,0,0,0,1035.09,81a25.82,25.82,0,0,0,9.67,9.94A26.78,26.78,0,0,0,1058.42,94.42Z"/><path class="cls-1" d="M41.6,277V171.56H0V147.05H113.28v24.51H71.68V277Z"/><path class="cls-1" d="M127.39,277V177.13h27.67v28.23l-3.9-8.17a32.14,32.14,0,0,1,14.3-16.07q9.84-5.48,23.95-5.48v26.75c-1.24-.13-2.35-.22-3.34-.28s-2-.1-3.16-.1q-11.88,0-19.22,6.78t-7.33,21.08V277Z"/><path class="cls-1" d="M238.25,278.52q-11.7,0-20.05-4a30.47,30.47,0,0,1-12.82-10.86,29.49,29.49,0,0,1-.09-31q4.36-6.69,13.84-10.5t24.69-3.8h26.56v16.89H247q-10.22,0-14,3.35a10.65,10.65,0,0,0-3.81,8.35,10.4,10.4,0,0,0,4.37,8.82q4.35,3.25,12,3.25a24.84,24.84,0,0,0,13-3.43,19.69,19.69,0,0,0,8.36-10.12l4.46,13.37a25.84,25.84,0,0,1-11.52,14.67Q251.44,278.52,238.25,278.52ZM268.71,277v-19.5l-1.86-4.27V218.36q0-9.29-5.66-14.49t-17.37-5.2a50.48,50.48,0,0,0-15.69,2.51A41.4,41.4,0,0,0,215,208l-10.4-20.24a62.74,62.74,0,0,1,19.69-8.92,88.21,88.21,0,0,1,23.39-3.16q22.85,0,35.47,10.78T295.82,220v57Z"/><path class="cls-1" d="M334.63,314.55a50.66,50.66,0,0,1-15.41-2.42,34,34,0,0,1-12.45-6.68l10.59-20.61a24.83,24.83,0,0,0,7.71,4.64,24,24,0,0,0,8.63,1.67q6.14,0,9.75-2.88t6.59-9.56l5.2-12.26,2.23-3.15,35.84-86.17h27.86L376,283.17q-4.83,12.06-11.05,18.94a34.9,34.9,0,0,1-13.74,9.65A47.47,47.47,0,0,1,334.63,314.55Zm17.08-33.61L307.15,177.13H337l34.54,83.57Z"/><path class="cls-1" d="M482.63,278.52q-17.08,0-30-6.68a49.22,49.22,0,0,1-20-18.29,49.89,49.89,0,0,1-7.06-26.47,50.77,50.77,0,0,1,7-26.64,49.36,49.36,0,0,1,19-18.2,59.54,59.54,0,0,1,53.76-.37A46.56,46.56,0,0,1,524,199.69q6.87,11.61,6.87,27.77c0,1.11-.06,2.38-.18,3.8s-.25,2.76-.37,4H449.21V218.36h65.92l-11.14,5a27.84,27.84,0,0,0-3.16-13.56,23,23,0,0,0-8.73-9,25.29,25.29,0,0,0-13-3.25A25.81,25.81,0,0,0,466,200.81a22.6,22.6,0,0,0-8.82,9.1A28.65,28.65,0,0,0,454,223.74v4.46a28.12,28.12,0,0,0,3.62,14.39,23.59,23.59,0,0,0,10.22,9.47,34.61,34.61,0,0,0,15.5,3.25,37.53,37.53,0,0,0,14-2.41,33.91,33.91,0,0,0,11.05-7.25l15.42,16.72a44.91,44.91,0,0,1-17.27,12A63.85,63.85,0,0,1,482.63,278.52Z"/><path class="cls-1" d="M598.51,278.52q-16.15,0-28.79-6.59a50.41,50.41,0,0,1,0-89.69q12.63-6.6,28.79-6.6,15.78,0,27.48,6.6a40.16,40.16,0,0,1,17.27,18.85l-22.47,12.07a26.05,26.05,0,0,0-9.75-10.4,25.19,25.19,0,0,0-12.72-3.35A26.78,26.78,0,0,0,585,202.76a24.2,24.2,0,0,0-9.38,9.47,33.88,33.88,0,0,0,0,29.71,24.2,24.2,0,0,0,9.38,9.47,26.78,26.78,0,0,0,13.37,3.34A25.73,25.73,0,0,0,611,251.5,25.13,25.13,0,0,0,620.79,241l22.47,12.26A40.29,40.29,0,0,1,626,271.93Q614.29,278.53,598.51,278.52Z"/><path class="cls-1" d="M648.09,201.64V179.36h69.26v22.28Zm52.74,76.88q-17.66,0-27.49-9t-9.84-26.84V155h29v87.28q0,6.31,3.34,9.75t9.1,3.44a18.6,18.6,0,0,0,11.7-3.72l7.8,20.43a31.65,31.65,0,0,1-10.68,4.73A51.92,51.92,0,0,1,700.83,278.52Z"/><path class="cls-1" d="M788.29,278.52q-16,0-28.32-6.68a51,51,0,0,1-19.5-18.29,52.89,52.89,0,0,1,0-53.11,50.21,50.21,0,0,1,19.5-18.2q12.35-6.6,28.32-6.6a59.34,59.34,0,0,1,28.23,6.6,49.66,49.66,0,0,1,19.5,18.1q7.05,11.52,7.05,26.74a49.21,49.21,0,0,1-26.55,44.76A58.8,58.8,0,0,1,788.29,278.52Zm0-23.77a25.4,25.4,0,0,0,13-3.34,23.78,23.78,0,0,0,9.1-9.56,34.5,34.5,0,0,0,0-29.62,23.93,23.93,0,0,0-9.1-9.47,26.9,26.9,0,0,0-26,0,24.56,24.56,0,0,0-9.19,9.47,33.6,33.6,0,0,0,0,29.62,24.4,24.4,0,0,0,9.19,9.56A25.4,25.4,0,0,0,788.29,254.75Z"/><path class="cls-1" d="M862.39,277V177.13h27.66v28.23l-3.9-8.17a32.18,32.18,0,0,1,14.3-16.07q9.84-5.48,24-5.48v26.75c-1.24-.13-2.35-.22-3.34-.28s-2.05-.1-3.16-.1q-11.88,0-19.22,6.78t-7.34,21.08V277Z"/><path class="cls-1" d="M956.91,163.2q-8,0-13-4.64a15.72,15.72,0,0,1,0-23q5-4.64,13-4.64t13,4.36a14.24,14.24,0,0,1,5,11.24,15.92,15.92,0,0,1-4.92,12Q965.08,163.2,956.91,163.2ZM942.42,277V177.13h29V277Z"/><path class="cls-1" d="M1029.14,278.52q-11.7,0-20.05-4a30.53,30.53,0,0,1-12.82-10.86,29.49,29.49,0,0,1-.09-31q4.37-6.69,13.84-10.5t24.69-3.8h26.56v16.89h-23.4q-10.21,0-14,3.35A10.65,10.65,0,0,0,1020,247a10.4,10.4,0,0,0,4.37,8.82q4.36,3.25,12,3.25a24.84,24.84,0,0,0,13-3.43,19.69,19.69,0,0,0,8.36-10.12l4.46,13.37a25.84,25.84,0,0,1-11.52,14.67Q1042.32,278.52,1029.14,278.52ZM1059.6,277v-19.5l-1.86-4.27V218.36q0-9.29-5.66-14.49t-17.37-5.2a50.48,50.48,0,0,0-15.69,2.51,41.4,41.4,0,0,0-13.09,6.78l-10.4-20.24a62.74,62.74,0,0,1,19.69-8.92,88.21,88.21,0,0,1,23.39-3.16q22.85,0,35.47,10.78T1086.71,220v57Z"/><path class="cls-1" d="M1146.5,278.52a97.54,97.54,0,0,1-24.6-3.06q-11.79-3.06-18.66-7.71l9.65-20.8a64.36,64.36,0,0,0,16.25,7,66.91,66.91,0,0,0,18.48,2.69q10,0,14.2-2.41t4.18-6.69a5.68,5.68,0,0,0-3.25-5.29,28.27,28.27,0,0,0-8.63-2.69q-5.38-.93-11.79-1.86t-12.91-2.51a43.59,43.59,0,0,1-11.88-4.73,24.16,24.16,0,0,1-8.64-8.55q-3.26-5.38-3.25-13.92a27,27,0,0,1,5.48-16.72q5.47-7.23,15.88-11.42t24.88-4.18a101.2,101.2,0,0,1,20.8,2.23,56.88,56.88,0,0,1,17.64,6.5L1180.67,205a48.92,48.92,0,0,0-14.57-5.85,67.74,67.74,0,0,0-14.21-1.58q-9.66,0-14.11,2.6t-4.46,6.68a6,6,0,0,0,3.25,5.57,29.49,29.49,0,0,0,8.63,3q5.38,1.13,11.8,2a109,109,0,0,1,12.9,2.51,46.39,46.39,0,0,1,11.79,4.74,24.83,24.83,0,0,1,8.64,8.35q3.35,5.3,3.34,13.84a26,26,0,0,1-5.57,16.43q-5.56,7.16-16.06,11.24T1146.5,278.52Z"/></g></g></svg>