<svg xmlns="http://www.w3.org/2000/svg" xmlns:xlink="http://www.w3.org/1999/xlink" viewBox="0 0 426.67 118.43"><defs><style>.cls-1{fill:url(#Degradado_sin_nombre);}.cls-2{fill:#fffdfd;}</style><linearGradient id="Degradado_sin_nombre" x1="-306.94" y1="60.78" x2="393.78" y2="60.78" gradientTransform="matrix(1, 0, 0, -1, 0, 120)" gradientUnits="userSpaceOnUse"><stop offset="0" stop-color="#d5b46d"/><stop offset="0" stop-color="#deb457"/><stop offset="0.07" stop-color="#ebd07e"/><stop offset="0.14" stop-color="#f6e9a0"/><stop offset="0.2" stop-color="#fdf8b5"/><stop offset="0.23" stop-color="#fffdbd"/><stop offset="0.41" stop-color="#d6ab47"/><stop offset="0.51" stop-color="#d4a945"/><stop offset="0.54" stop-color="#cea240"/><stop offset="0.56" stop-color="#c29736"/><stop offset="0.58" stop-color="#b28628"/><stop offset="0.59" stop-color="#ae8225"/><stop offset="0.77" stop-color="#cf9e25"/><stop offset="0.92" stop-color="#bd912a"/><stop offset="1" stop-color="#b48a2d"/></linearGradient></defs><g id="Capa_2" data-name="Capa 2"><g id="Capa_1-2" data-name="Capa 1"><rect class="cls-1" width="426.67" height="118.43" rx="12.67"/><path class="cls-2" d="M94,80,80.32,38.41h5.87l6.48,20.5c1.73,5.61,3.27,10.68,4.45,15.55h.12C98.41,69.65,100.08,64.4,102,59l7-20.56h5.74L99.89,80Z"/><path class="cls-2" d="M120.1,66.07c.12,7.34,4.75,10.37,10.24,10.37a19.3,19.3,0,0,0,8.27-1.55l1,3.89a24.18,24.18,0,0,1-10,1.92c-9.2,0-14.69-6.12-14.69-15.13s5.31-16,14-16c9.82,0,12.35,8.52,12.35,14a12.67,12.67,0,0,1-.19,2.53ZM136,62.18c.06-3.4-1.42-8.77-7.53-8.77-5.56,0-7.9,5-8.33,8.77Z"/><path class="cls-2" d="M148,59.46c0-3.52-.06-6.54-.24-9.32h4.75l.25,5.93H153c1.36-4,4.69-6.55,8.34-6.55a11.48,11.48,0,0,1,1.48.13v5.12a8.7,8.7,0,0,0-1.85-.12c-3.83,0-6.55,2.84-7.29,6.91a16.73,16.73,0,0,0-.18,2.53V80H148Z"/><path class="cls-2" d="M210.5,78.72c-1.91,1-5.92,2-11,2C187.79,80.7,179,73.29,179,59.59c0-13.09,8.83-21.86,21.73-21.86,5.12,0,8.46,1.11,9.88,1.86L209.27,44a19.06,19.06,0,0,0-8.34-1.73c-9.75,0-16.23,6.23-16.23,17.16,0,10.25,5.86,16.73,15.93,16.73a21.55,21.55,0,0,0,8.82-1.73Z"/><path class="cls-2" d="M241.39,71.81c0,3.15.06,5.86.25,8.21h-4.82l-.31-4.88h-.12a11.16,11.16,0,0,1-9.88,5.56c-4.69,0-10.31-2.66-10.31-13.09V50.14h5.44V66.62c0,5.68,1.79,9.57,6.66,9.57a7.79,7.79,0,0,0,7.16-5,7.42,7.42,0,0,0,.5-2.78V50.14h5.43Z"/><path class="cls-2" d="M250.42,59.46c0-3.52-.06-6.54-.25-9.32h4.75l.25,5.93h.19c1.35-4,4.69-6.55,8.33-6.55a11.17,11.17,0,0,1,1.48.13v5.12a8.65,8.65,0,0,0-1.85-.12c-3.83,0-6.54,2.84-7.29,6.91a16.73,16.73,0,0,0-.18,2.53V80h-5.43Z"/><path class="cls-2" d="M269.87,74.52a15.35,15.35,0,0,0,7.23,2.1c3.89,0,5.74-1.91,5.74-4.44s-1.55-4-5.5-5.43c-5.43-2-8-4.88-8-8.46,0-4.82,3.95-8.77,10.31-8.77A13.85,13.85,0,0,1,287,51.37l-1.29,4a11.53,11.53,0,0,0-6.11-1.79c-3.22,0-4.94,1.85-4.94,4.07,0,2.47,1.72,3.58,5.62,5.12,5.12,1.92,7.83,4.51,7.83,9,0,5.31-4.13,9-11.11,9a17.07,17.07,0,0,1-8.39-2.1Z"/><path class="cls-2" d="M322.11,64.83c0,11-7.72,15.87-14.88,15.87-8,0-14.32-5.93-14.32-15.37,0-9.94,6.61-15.81,14.82-15.81C316.31,49.52,322.11,55.76,322.11,64.83Zm-23.64.31c0,6.54,3.7,11.48,9,11.48s9.08-4.87,9.08-11.6c0-5.06-2.53-11.42-9-11.42S298.47,59.52,298.47,65.14Z"/><path class="cls-2" d="M328.24,74.52a15.34,15.34,0,0,0,7.22,2.1c3.89,0,5.74-1.91,5.74-4.44s-1.54-4-5.49-5.43c-5.43-2-8-4.88-8-8.46,0-4.82,3.95-8.77,10.31-8.77a13.85,13.85,0,0,1,7.28,1.85l-1.3,4a11.47,11.47,0,0,0-6.11-1.79c-3.21,0-4.93,1.85-4.93,4.07,0,2.47,1.72,3.58,5.61,5.12,5.13,1.92,7.84,4.51,7.84,9,0,5.31-4.13,9-11.11,9a17.11,17.11,0,0,1-8.4-2.1Z"/></g></g></svg>