<svg xmlns="http://www.w3.org/2000/svg" viewBox="0 0 564.68 118.31"><defs><style>.cls-1{fill:#fff;}</style></defs><g id="Capa_2" data-name="Capa 2"><g id="Capa_1-2" data-name="Capa 1"><path class="cls-1" d="M10.24,12.39a4.16,4.16,0,0,1,1.24,3.07,4,4,0,0,1-1.24,3,4.26,4.26,0,0,1-3.11,1.21,4.46,4.46,0,0,1-3.21-1.21,4,4,0,0,1-1.27-3,4.11,4.11,0,0,1,1.27-3.07,4.4,4.4,0,0,1,3.21-1.24A4.21,4.21,0,0,1,10.24,12.39Zm1,37.08H3L4.36,24.29H9.83Z"/><path class="cls-1" d="M54.27,2.32V41H47.1V24.4h-20V41H19.93V2.32h7.18v16h20V2.32Z"/><path class="cls-1" d="M85.22,14.27c2.29,2.08,3.45,5.22,3.45,9.41V41H82.15V37.38a8,8,0,0,1-3.61,2.95,14.17,14.17,0,0,1-5.66,1,14,14,0,0,1-5.8-1.13,8.92,8.92,0,0,1-3.84-3.15,8,8,0,0,1-1.35-4.55,7.81,7.81,0,0,1,3-6.38c2-1.6,5.08-2.4,9.31-2.4h7.62V23.3a6.05,6.05,0,0,0-1.85-4.75,8.05,8.05,0,0,0-5.5-1.66,15.71,15.71,0,0,0-4.88.78,11.8,11.8,0,0,0-4.06,2.15l-2.7-5a16.72,16.72,0,0,1,5.57-2.71,24.63,24.63,0,0,1,6.9-.94Q81.76,11.15,85.22,14.27Zm-6.3,20.87a6.42,6.42,0,0,0,2.85-3.39V28.32H74.64q-6,0-6,3.92a3.52,3.52,0,0,0,1.49,3,6.81,6.81,0,0,0,4.14,1.11A8.92,8.92,0,0,0,78.92,35.14Z"/><path class="cls-1" d="M99.6,40.41A17.47,17.47,0,0,1,94.13,38l2.65-5.25a16.83,16.83,0,0,0,4.78,2.13,20,20,0,0,0,5.49.8c4.12,0,6.19-1.09,6.19-3.26a2.17,2.17,0,0,0-1.58-2.15,27.7,27.7,0,0,0-5-1.16,41.18,41.18,0,0,1-5.94-1.27,9.19,9.19,0,0,1-4-2.51,7,7,0,0,1-1.68-5,7.87,7.87,0,0,1,3.5-6.71q3.51-2.5,9.47-2.51a27.24,27.24,0,0,1,6.07.69,17.07,17.07,0,0,1,5,1.85l-2.65,5.25a16.26,16.26,0,0,0-8.44-2.21,9.32,9.32,0,0,0-4.61.91,2.73,2.73,0,0,0-1.58,2.4,2.4,2.4,0,0,0,1.69,2.35,26.47,26.47,0,0,0,5.21,1.29,41.66,41.66,0,0,1,5.8,1.27,9.14,9.14,0,0,1,3.9,2.43A6.79,6.79,0,0,1,120,32.24a7.69,7.69,0,0,1-3.59,6.63q-3.59,2.48-9.77,2.48A26.21,26.21,0,0,1,99.6,40.41Z"/><path class="cls-1" d="M166.85,14.41q3.36,3.25,3.36,9.66V41h-6.9V25q0-3.86-1.82-5.82a6.73,6.73,0,0,0-5.19-2,8,8,0,0,0-6,2.29q-2.21,2.29-2.2,6.6V41h-6.91V0h6.91V14.91a11.06,11.06,0,0,1,4.22-2.79,15.55,15.55,0,0,1,5.6-1A12.35,12.35,0,0,1,166.85,14.41Z"/><path class="cls-1" d="M206.87,28.43H183.74a8,8,0,0,0,3.17,5.16,10.41,10.41,0,0,0,6.38,1.91,10.74,10.74,0,0,0,8-3.2L205,36.55a12.51,12.51,0,0,1-5,3.59,19.94,19.94,0,0,1-15.4-.72A14,14,0,0,1,178.85,34a15.25,15.25,0,0,1-2-7.82,15.37,15.37,0,0,1,2-7.75,14,14,0,0,1,5.43-5.39,16,16,0,0,1,7.85-1.93,15.46,15.46,0,0,1,7.7,1.91,13.5,13.5,0,0,1,5.3,5.35,16.24,16.24,0,0,1,1.9,8C207,26.87,207,27.55,206.87,28.43Zm-20.4-9.8a8.25,8.25,0,0,0-2.79,5.22h16.73a8.13,8.13,0,0,0-2.7-5.19,8.21,8.21,0,0,0-5.63-2A8.38,8.38,0,0,0,186.47,18.63Z"/><path class="cls-1" d="M218.91,39.42A14.19,14.19,0,0,1,213.22,34a15.08,15.08,0,0,1-2-7.82,14.91,14.91,0,0,1,2-7.78,14.33,14.33,0,0,1,5.66-5.36,17.32,17.32,0,0,1,8.25-1.93,15.89,15.89,0,0,1,7.65,1.77A11.44,11.44,0,0,1,239.72,18l-5.3,3.09A8.43,8.43,0,0,0,231.25,18a9.24,9.24,0,0,0-10.58,1.49,9,9,0,0,0-2.54,6.7,9,9,0,0,0,2.52,6.71,9.32,9.32,0,0,0,10.6,1.49,8.43,8.43,0,0,0,3.17-3.06l5.3,3.09a11.94,11.94,0,0,1-5,5.11,15.72,15.72,0,0,1-7.6,1.79A17.25,17.25,0,0,1,218.91,39.42Z"/><path class="cls-1" d="M271.08,14.41q3.36,3.25,3.37,9.66V41h-6.91V25c0-2.57-.6-4.51-1.82-5.82a6.71,6.71,0,0,0-5.19-2,8,8,0,0,0-6,2.29c-1.46,1.53-2.2,3.73-2.2,6.6V41h-6.9V0h6.9V14.91a11.13,11.13,0,0,1,4.22-2.79,15.59,15.59,0,0,1,5.6-1A12.35,12.35,0,0,1,271.08,14.41Z"/><path class="cls-1" d="M288.69,39.42a14.08,14.08,0,0,1-5.6-5.38,15.16,15.16,0,0,1-2-7.82,15,15,0,0,1,2-7.78,14.17,14.17,0,0,1,5.6-5.36,17.92,17.92,0,0,1,16.18,0,14.17,14.17,0,0,1,5.6,5.36,15.09,15.09,0,0,1,2,7.78,15.26,15.26,0,0,1-2,7.82,14.08,14.08,0,0,1-5.6,5.38,17.92,17.92,0,0,1-16.18,0ZM303,32.9a9.13,9.13,0,0,0,2.49-6.68A9.14,9.14,0,0,0,303,19.54,8.42,8.42,0,0,0,296.75,17a8.33,8.33,0,0,0-6.26,2.54A9.21,9.21,0,0,0,288,26.22a9.19,9.19,0,0,0,2.46,6.68,8.29,8.29,0,0,0,6.26,2.54A8.39,8.39,0,0,0,303,32.9Z"/><path class="cls-1" d="M362.89,11.48V41h-6.57V37.21a10.9,10.9,0,0,1-4.14,3.07,13.46,13.46,0,0,1-5.36,1.07q-5.9,0-9.3-3.28t-3.39-9.75V11.48H341v15.9c0,2.65.59,4.63,1.79,5.94a6.57,6.57,0,0,0,5.11,2A7.74,7.74,0,0,0,353.81,33q2.18-2.3,2.18-6.6V11.48Z"/><path class="cls-1" d="M397.62,14.41Q401,17.67,401,24.07V41h-6.91V25c0-2.57-.6-4.51-1.82-5.82a6.71,6.71,0,0,0-5.19-2,8,8,0,0,0-6,2.29q-2.21,2.29-2.21,6.6V41h-6.9V11.48h6.58v3.81a10.71,10.71,0,0,1,4.3-3.09,15.48,15.48,0,0,1,5.85-1A12.35,12.35,0,0,1,397.62,14.41Z"/><path class="cls-1" d="M454.26,11.48v25q0,15.57-15.9,15.57A29.83,29.83,0,0,1,430.3,51,17.09,17.09,0,0,1,424,47.87l3.09-5.19A14.7,14.7,0,0,0,432,45.24a19,19,0,0,0,6,1c3.23,0,5.61-.74,7.12-2.21s2.26-3.72,2.26-6.74V35.72a11.4,11.4,0,0,1-4.31,2.93,15.2,15.2,0,0,1-5.57,1,16,16,0,0,1-7.6-1.8,13.41,13.41,0,0,1-5.35-5.05,14.21,14.21,0,0,1-2-7.45,14.05,14.05,0,0,1,2-7.42,13.35,13.35,0,0,1,5.35-5,16.22,16.22,0,0,1,7.6-1.77,15.54,15.54,0,0,1,5.82,1,10.8,10.8,0,0,1,4.39,3.2V11.48Zm-9.3,20a8,8,0,0,0,2.51-6.1,7.85,7.85,0,0,0-2.51-6,10.15,10.15,0,0,0-12.92,0,7.85,7.85,0,0,0-2.51,6,8,8,0,0,0,2.51,6.1,10.05,10.05,0,0,0,12.92,0Z"/><path class="cls-1" d="M480.37,11.15v6.57a8.74,8.74,0,0,0-1.6-.16,8.35,8.35,0,0,0-6.29,2.34c-1.51,1.57-2.27,3.82-2.27,6.77V41h-6.9V11.48h6.58v4.31Q472.86,11.16,480.37,11.15Z"/><path class="cls-1" d="M507.29,14.27q3.45,3.12,3.45,9.41V41h-6.51V37.38a8.12,8.12,0,0,1-3.62,2.95,14.17,14.17,0,0,1-5.66,1,14,14,0,0,1-5.8-1.13,8.92,8.92,0,0,1-3.84-3.15A8,8,0,0,1,484,32.52a7.83,7.83,0,0,1,3-6.38c2-1.6,5.08-2.4,9.31-2.4h7.62V23.3A6.05,6.05,0,0,0,502,18.55a8.05,8.05,0,0,0-5.5-1.66,15.71,15.71,0,0,0-4.88.78,11.89,11.89,0,0,0-4.06,2.15l-2.7-5a16.72,16.72,0,0,1,5.57-2.71,24.63,24.63,0,0,1,6.9-.94Q503.83,11.15,507.29,14.27ZM501,35.14a6.42,6.42,0,0,0,2.85-3.39V28.32h-7.13q-6,0-6,3.92a3.52,3.52,0,0,0,1.49,3,6.84,6.84,0,0,0,4.15,1.11A8.91,8.91,0,0,0,501,35.14Z"/><path class="cls-1" d="M545.25,14.41q3.36,3.25,3.36,9.66V41h-6.9V25q0-3.86-1.82-5.82a6.73,6.73,0,0,0-5.19-2,8,8,0,0,0-6,2.29q-2.2,2.29-2.21,6.6V41h-6.9V11.48h6.57v3.81a10.81,10.81,0,0,1,4.31-3.09,15.48,15.48,0,0,1,5.85-1A12.35,12.35,0,0,1,545.25,14.41Z"/><path class="cls-1" d="M21.64,105.61a8.14,8.14,0,0,1-2.95,1.5,13.33,13.33,0,0,1-3.67.49c-3.24,0-5.74-.84-7.51-2.54s-2.65-4.16-2.65-7.4V83.48H0V78H4.86V71.22h6.9V78h7.9v5.52h-7.9v14a4.63,4.63,0,0,0,1.05,3.28,3.92,3.92,0,0,0,3,1.14,6.06,6.06,0,0,0,3.86-1.22Z"/><path class="cls-1" d="M44.39,77.4V84a8.74,8.74,0,0,0-1.6-.16,8.32,8.32,0,0,0-6.29,2.34C35,87.72,34.23,90,34.23,92.92v14.3h-6.9V77.73H33.9V82Q36.89,77.41,44.39,77.4Z"/><path class="cls-1" d="M71.31,80.52c2.29,2.08,3.45,5.22,3.45,9.42v17.28H68.24v-3.59a8,8,0,0,1-3.61,3,14.17,14.17,0,0,1-5.66,1,13.8,13.8,0,0,1-5.8-1.13,8.92,8.92,0,0,1-3.84-3.15A8,8,0,0,1,48,98.77a7.81,7.81,0,0,1,3-6.38c2-1.6,5.08-2.4,9.31-2.4h7.62v-.44A6.07,6.07,0,0,0,66,84.8a8.05,8.05,0,0,0-5.5-1.66,15.71,15.71,0,0,0-4.88.78,11.8,11.8,0,0,0-4.06,2.15l-2.7-5a16.72,16.72,0,0,1,5.57-2.71,25,25,0,0,1,6.9-.94Q67.85,77.4,71.31,80.52ZM65,101.39A6.47,6.47,0,0,0,67.86,98V94.57H60.73q-6,0-6,3.92a3.52,3.52,0,0,0,1.49,3,6.81,6.81,0,0,0,4.14,1.11A8.92,8.92,0,0,0,65,101.39Z"/><path class="cls-1" d="M107.63,79.28a13.52,13.52,0,0,1,5.33,5.3,15.74,15.74,0,0,1,1.93,7.89A15.92,15.92,0,0,1,113,100.4a13.37,13.37,0,0,1-5.33,5.32,15.55,15.55,0,0,1-7.7,1.88,14.29,14.29,0,0,1-5.55-1,10.67,10.67,0,0,1-4.22-3.14v3.81H83.59v-41h6.9V81.32a11.68,11.68,0,0,1,4.17-2.92,13.52,13.52,0,0,1,5.27-1A15.65,15.65,0,0,1,107.63,79.28Zm-2.2,19.88a10.3,10.3,0,0,0,0-13.36,8.33,8.33,0,0,0-6.27-2.54,8.82,8.82,0,0,0-4.47,1.13,8.1,8.1,0,0,0-3.15,3.23,10.74,10.74,0,0,0,0,9.71,8.1,8.1,0,0,0,3.15,3.23,8.82,8.82,0,0,0,4.47,1.13A8.36,8.36,0,0,0,105.43,99.16Z"/><path class="cls-1" d="M142.31,80.52q3.45,3.12,3.45,9.42v17.28h-6.52v-3.59a8,8,0,0,1-3.61,3,14.21,14.21,0,0,1-5.66,1,13.8,13.8,0,0,1-5.8-1.13,8.86,8.86,0,0,1-3.84-3.15A8,8,0,0,1,119,98.77a7.79,7.79,0,0,1,3-6.38q2.94-2.4,9.3-2.4h7.62v-.44A6,6,0,0,0,137,84.8a8,8,0,0,0-5.49-1.66,15.71,15.71,0,0,0-4.88.78,11.89,11.89,0,0,0-4.06,2.15l-2.71-5a16.87,16.87,0,0,1,5.58-2.71,25,25,0,0,1,6.9-.94Q138.87,77.4,142.31,80.52ZM136,101.39A6.47,6.47,0,0,0,138.86,98V94.57h-7.13q-6,0-6,3.92a3.52,3.52,0,0,0,1.49,3,6.83,6.83,0,0,0,4.14,1.11A8.92,8.92,0,0,0,136,101.39Z"/><path class="cls-1" d="M144.93,116.6l2-5.13a6.55,6.55,0,0,0,4,1.16,3.68,3.68,0,0,0,3-1.19,5.25,5.25,0,0,0,1-3.51V77.73h6.9v30a10.68,10.68,0,0,1-2.71,7.73,10,10,0,0,1-7.56,2.81Q147.2,118.31,144.93,116.6ZM155.2,71.69a4.07,4.07,0,0,1,0-5.91,4.42,4.42,0,0,1,3.14-1.19,4.54,4.54,0,0,1,3.15,1.14,3.63,3.63,0,0,1,1.27,2.84,4.16,4.16,0,0,1-1.24,3.06,4.31,4.31,0,0,1-3.18,1.25A4.42,4.42,0,0,1,155.2,71.69Z"/><path class="cls-1" d="M176.07,105.67a14.11,14.11,0,0,1-5.61-5.38,15.25,15.25,0,0,1-2-7.82,15.08,15.08,0,0,1,2-7.78,14.19,14.19,0,0,1,5.61-5.36,17.9,17.9,0,0,1,16.17,0,14.19,14.19,0,0,1,5.61,5.36,15.08,15.08,0,0,1,2,7.78,15.25,15.25,0,0,1-2,7.82,14.11,14.11,0,0,1-5.61,5.38,17.9,17.9,0,0,1-16.17,0Zm14.35-6.51a10.21,10.21,0,0,0,0-13.36,9,9,0,0,0-12.56,0,10.3,10.3,0,0,0,0,13.36,9.06,9.06,0,0,0,12.56,0Z"/><path class="cls-1" d="M247.4,80.66q3.36,3.25,3.36,9.66v16.9h-6.9v-16q0-3.87-1.82-5.83a6.76,6.76,0,0,0-5.19-2,8,8,0,0,0-6,2.29q-2.21,2.3-2.2,6.6v14.91h-6.91v-41h6.91V81.16a11.06,11.06,0,0,1,4.22-2.79,15.55,15.55,0,0,1,5.6-1A12.35,12.35,0,0,1,247.4,80.66Z"/><path class="cls-1" d="M280.77,80.52q3.45,3.12,3.45,9.42v17.28h-6.51v-3.59a8.06,8.06,0,0,1-3.62,3,14.17,14.17,0,0,1-5.66,1,13.8,13.8,0,0,1-5.8-1.13,8.89,8.89,0,0,1-3.83-3.15,7.91,7.91,0,0,1-1.36-4.55,7.81,7.81,0,0,1,3-6.38c2-1.6,5.07-2.4,9.3-2.4h7.62v-.44a6.07,6.07,0,0,0-1.85-4.75,8,8,0,0,0-5.5-1.66,15.71,15.71,0,0,0-4.88.78A11.89,11.89,0,0,0,261,86.07l-2.7-5a16.72,16.72,0,0,1,5.57-2.71,25.08,25.08,0,0,1,6.91-.94Q277.32,77.4,280.77,80.52Zm-6.29,20.87A6.45,6.45,0,0,0,277.32,98V94.57h-7.13q-6,0-6,3.92a3.52,3.52,0,0,0,1.49,3,6.84,6.84,0,0,0,4.15,1.11A8.94,8.94,0,0,0,274.48,101.39Z"/><path class="cls-1" d="M295.15,106.66a17.4,17.4,0,0,1-5.46-2.37l2.65-5.24a16.9,16.9,0,0,0,4.77,2.12,19.62,19.62,0,0,0,5.5.8c4.12,0,6.18-1.08,6.18-3.26a2.18,2.18,0,0,0-1.57-2.15,27.85,27.85,0,0,0-5.06-1.16,41,41,0,0,1-5.93-1.27,9,9,0,0,1-4-2.51,7,7,0,0,1-1.69-5,7.89,7.89,0,0,1,3.5-6.71q3.51-2.5,9.48-2.51a27.37,27.37,0,0,1,6.07.69,17.18,17.18,0,0,1,5,1.85l-2.66,5.25A16.36,16.36,0,0,0,303.49,83a9.35,9.35,0,0,0-4.61.91,2.72,2.72,0,0,0-1.57,2.4A2.4,2.4,0,0,0,299,88.64a27,27,0,0,0,5.22,1.3A39.07,39.07,0,0,1,310,91.21a9,9,0,0,1,3.9,2.42,6.81,6.81,0,0,1,1.62,4.86,7.69,7.69,0,0,1-3.59,6.63q-3.58,2.47-9.77,2.48A26.27,26.27,0,0,1,295.15,106.66Z"/><path class="cls-1" d="M339.21,105.61a8.22,8.22,0,0,1-2.95,1.5,13.41,13.41,0,0,1-3.68.49c-3.24,0-5.74-.84-7.5-2.54s-2.65-4.16-2.65-7.4V83.48h-4.86V78h4.86V71.22h6.9V78h7.89v5.52h-7.89v14a4.63,4.63,0,0,0,1.05,3.28,3.91,3.91,0,0,0,3,1.14,6.06,6.06,0,0,0,3.86-1.22Z"/><path class="cls-1" d="M366.12,80.52q3.45,3.12,3.46,9.42v17.28h-6.52v-3.59a8,8,0,0,1-3.62,3,14.12,14.12,0,0,1-5.65,1,13.77,13.77,0,0,1-5.8-1.13,8.86,8.86,0,0,1-3.84-3.15,8,8,0,0,1-1.35-4.55,7.81,7.81,0,0,1,2.95-6.38q3-2.4,9.3-2.4h7.62v-.44a6,6,0,0,0-1.85-4.75,8,8,0,0,0-5.49-1.66,15.77,15.77,0,0,0-4.89.78,11.84,11.84,0,0,0-4.05,2.15l-2.71-5a16.87,16.87,0,0,1,5.58-2.71,25,25,0,0,1,6.9-.94Q362.67,77.4,366.12,80.52Zm-6.29,20.87A6.45,6.45,0,0,0,362.67,98V94.57h-7.12q-6,0-6,3.92a3.49,3.49,0,0,0,1.49,3,6.79,6.79,0,0,0,4.14,1.11A8.92,8.92,0,0,0,359.83,101.39Z"/><path class="cls-1" d="M414.87,80.52q3.45,3.12,3.45,9.42v17.28h-6.51v-3.59a8,8,0,0,1-3.62,3,14.12,14.12,0,0,1-5.65,1,13.77,13.77,0,0,1-5.8-1.13,8.86,8.86,0,0,1-3.84-3.15,8,8,0,0,1-1.35-4.55,7.81,7.81,0,0,1,2.95-6.38q3-2.4,9.3-2.4h7.62v-.44a6,6,0,0,0-1.85-4.75,8,8,0,0,0-5.49-1.66,15.77,15.77,0,0,0-4.89.78,11.84,11.84,0,0,0-4.05,2.15l-2.71-5A16.87,16.87,0,0,1,398,78.34a25,25,0,0,1,6.9-.94Q411.42,77.4,414.87,80.52Zm-6.29,20.87A6.45,6.45,0,0,0,411.42,98V94.57H404.3q-6,0-6,3.92a3.49,3.49,0,0,0,1.49,3,6.79,6.79,0,0,0,4.14,1.11A8.92,8.92,0,0,0,408.58,101.39Z"/><path class="cls-1" d="M452.83,80.66q3.36,3.25,3.37,9.66v16.9h-6.91v-16c0-2.58-.6-4.52-1.82-5.83a6.74,6.74,0,0,0-5.18-2,8,8,0,0,0-6,2.29c-1.46,1.53-2.2,3.73-2.2,6.6v14.91h-6.9v-41h6.9V81.16a11.13,11.13,0,0,1,4.22-2.79,15.59,15.59,0,0,1,5.6-1A12.35,12.35,0,0,1,452.83,80.66Z"/><path class="cls-1" d="M470.44,105.67a14,14,0,0,1-5.6-5.38,15.16,15.16,0,0,1-2-7.82,15,15,0,0,1,2-7.78,14.1,14.1,0,0,1,5.6-5.36,17.9,17.9,0,0,1,16.17,0,14.19,14.19,0,0,1,5.61,5.36,15.08,15.08,0,0,1,2,7.78,15.25,15.25,0,0,1-2,7.82,14.11,14.11,0,0,1-5.61,5.38,17.9,17.9,0,0,1-16.17,0Zm14.35-6.51a10.21,10.21,0,0,0,0-13.36,9,9,0,0,0-12.56,0,10.3,10.3,0,0,0,0,13.36,9.06,9.06,0,0,0,12.56,0Z"/><path class="cls-1" d="M517.92,77.4V84a8.82,8.82,0,0,0-1.6-.16,8.36,8.36,0,0,0-6.3,2.34c-1.51,1.57-2.26,3.82-2.26,6.77v14.3h-6.9V77.73h6.57V82Q510.4,77.41,517.92,77.4Z"/><path class="cls-1" d="M544.83,80.52q3.45,3.12,3.45,9.42v17.28h-6.51v-3.59a8,8,0,0,1-3.62,3,14.12,14.12,0,0,1-5.65,1,13.82,13.82,0,0,1-5.81-1.13,8.89,8.89,0,0,1-3.83-3.15,8,8,0,0,1-1.35-4.55,7.81,7.81,0,0,1,3-6.38q3-2.4,9.3-2.4h7.62v-.44a6,6,0,0,0-1.85-4.75A8,8,0,0,0,534,83.14a15.77,15.77,0,0,0-4.89.78,11.84,11.84,0,0,0-4,2.15l-2.71-5A16.87,16.87,0,0,1,528,78.34a25,25,0,0,1,6.9-.94Q541.38,77.4,544.83,80.52Zm-6.29,20.87A6.45,6.45,0,0,0,541.38,98V94.57h-7.12c-4,0-6,1.31-6,3.92a3.49,3.49,0,0,0,1.49,3,6.79,6.79,0,0,0,4.14,1.11A8.94,8.94,0,0,0,538.54,101.39Z"/><path class="cls-1" d="M557.12,106.36a4.11,4.11,0,0,1-1.27-3.06,4,4,0,0,1,1.27-3,4.42,4.42,0,0,1,3.2-1.21,4.28,4.28,0,0,1,3.12,1.21,4.06,4.06,0,0,1,1.24,3,4.16,4.16,0,0,1-1.24,3.06,4.23,4.23,0,0,1-3.12,1.24A4.36,4.36,0,0,1,557.12,106.36Zm-.89-37.79h8.17L563,94.41h-5.47Z"/></g></g></svg>