<svg xmlns="http://www.w3.org/2000/svg" viewBox="0 0 383.62 647.22"><defs><style>.cls-1{fill:#fefefe;}</style></defs><g id="Capa_2" data-name="Capa 2"><g id="Capa_1-2" data-name="Capa 1"><path d="M185,337.27v-5.82c0-22.16-.09-44.32.06-66.48,0-3.74-.51-5.36-4.87-5.82-44-4.69-78-25.87-100.53-64-46.57-78.71,2.39-180.4,92.9-193.76A129.84,129.84,0,0,1,320.13,109.35c11.88,72.21-39.93,141-112.5,149.4-9,1-9,1-9,10.42v26.51c1.73-2.16,2.72-3.38,3.69-4.63a95.57,95.57,0,0,1,102-33.28c9.7,2.77,11,5.43,7.12,14.78-17.76,43-62.46,66.82-108.06,57.34-3.78-.78-4.87-.21-4.83,3.84.21,17.32.24,34.65,0,52-.06,4.24,1.19,5.18,5.28,5.17q68.73-.21,137.45-.07c22.13,0,38.58,13.9,41.93,35.11,3.37,21.41-12.29,42.76-33.76,45.55-3.91.51-5.13,1.9-5.81,5.64-5.7,31.46-11.27,62.94-17.61,94.26-9,44.53-47.51,75.68-92.89,75.81q-41,.12-82,0c-47,0-85.95-32.83-94.28-79.14-5.53-30.8-11.41-61.54-17.06-92.32-.45-2.47-1.33-3.62-4-4.05C13.44,468.09-1.44,450.16.11,428.93c1.62-22.23,19.1-38.09,42.26-38.12q68.22-.09,136.45.1c4.93,0,6.91-1,6.27-6.21-.55-4.42,1.32-10.29-.92-13-2-2.47-7.89.7-12.08,1.23-43.34,5.48-86.2-20.56-100.88-61.48-2.25-6.28-.81-9.17,5.65-11.33,37-12.4,79.63.7,104.09,32Z"/><path class="cls-1" d="M192,404.4q74.72,0,149.42,0c11.11,0,19.86,4.21,25.23,14,10.23,18.7-3.07,40.17-24.84,40.19q-92.44.09-184.89,0a35.84,35.84,0,0,0-6.48.21c-3.55.64-5.5,3-5.52,6.66,0,3.49,1.93,5.65,5.22,6.36a28,28,0,0,0,6,.35q84.45,0,168.91-.06c4.33,0,6,.41,5,5.59-5.92,30.22-11.26,60.55-17.13,90.78a80.84,80.84,0,0,1-78.56,65.08c-28.31.15-56.63.09-85,0-37.77-.14-71.24-27.5-78.49-64.55-6-30.7-11.39-61.53-17.32-92.26-.82-4.27.51-4.7,4.08-4.6,7.15.2,14.32.11,21.48,0,5.35-.06,8.54-2.87,8.37-7.12-.16-4-3.22-6.39-8.5-6.42-12-.05-24,0-36,0-17.31,0-29.05-11.16-29.4-27.16-.3-13.41,11.55-27.37,29.5-27.2C92.72,404.71,142.36,404.4,192,404.4Z"/><path class="cls-1" d="M308.17,129.21c1.3,62.59-50.59,115.88-114.07,117.14C130,247.62,76.91,196.55,75.52,132.27c-1.39-64,49.57-117.46,113.27-118.74C254.51,12.2,306.78,62.86,308.17,129.21Z"/><path class="cls-1" d="M222.8,318.69a113.44,113.44,0,0,1-15.46-1.6c-3.92-.56-4.09-2-2.39-5.16q16.61-31.11,50.33-41.22c12.5-3.73,25.2-4,38.06-1.8,4.12.71,4.35,2,2.49,5.39C279.88,303,255.25,317.28,222.8,318.69Z"/><path class="cls-1" d="M105.83,309c32.29,1.37,56.76,15.63,72.72,44.1,2,3.58,1.64,4.86-2.65,5.66-35.53,6.62-71.64-11-88.05-42.88-1.77-3.43-1.59-4.77,2.49-5.38C95.46,309.7,100.59,309.25,105.83,309Z"/><path d="M115.66,472.16c-3,0-6,.17-9-.05-4-.31-6.44-2.59-6.65-6.69-.2-3.79,2.72-6.64,7-6.76,5.8-.17,11.61-.11,17.41,0,4.33.06,7,2.41,7.1,6.69s-2.64,6.36-6.52,6.77A90,90,0,0,1,115.66,472.16Z"/><path d="M187.16,154.77c3.49,0,7,.18,10.49-.05a9,9,0,0,0,0-18c-3.82-.23-7.66,0-11.49-.1A22.7,22.7,0,0,1,164,116.7a22.3,22.3,0,0,1,16.85-24.46c3.59-.88,4.54-2.34,4.21-5.66a26.72,26.72,0,0,1,.13-7c.64-3.75,3-6,6.94-5.82,3.64.14,5.72,2.4,6.39,5.92a17.17,17.17,0,0,1,.1,2.49c.1,2.82-.71,6.17.54,8.32s4.93.49,7.48,1c3.59.75,5.58,3,5.55,6.63,0,3.9-2.21,6.38-6.11,6.55-5.82.25-11.66.06-17.49.11-6.85.06-10.9,3.31-11.08,8.83-.18,5.76,3.88,9.34,10.93,9.52,3.33.08,6.67-.09,10,.08a22.47,22.47,0,0,1,21.27,20.21c1.08,10.79-5.8,21.26-16.37,23.85-3.94,1-5.27,2.52-4.76,6.34a24,24,0,0,1-.05,6c-.44,3.79-2.58,6.13-6.53,6.23s-6.1-2.19-6.87-5.91a12,12,0,0,1-.11-2c-.13-3,.73-6.58-.67-8.72s-5.27-.44-8-.9c-3.77-.64-6.18-2.85-6.19-6.68,0-4.08,2.47-6.41,6.53-6.81a53.09,53.09,0,0,1,5.5-.05h5Z"/><path d="M284.06,136.25c-1,29.19-16.42,56.38-47.25,74.6-3.25,1.93-6.47,2.86-9.65.06-3.64-3.19-2.86-8.44,1.91-11.16a84.58,84.58,0,0,0,21.77-17.35A78.54,78.54,0,0,0,256,84.49c-4.6-6.46-4.84-10.16-.8-12.9,3.82-2.59,7.38-1.09,11.74,4.93C278,91.92,284,110.4,284.06,136.25Z"/><path d="M151.12,47.47c3.69,0,5.85,1.37,7,4.07a6.11,6.11,0,0,1-1.84,7.65,35.5,35.5,0,0,1-4.65,2.89,78.69,78.69,0,0,0-23.42,114.26c.49.68,1,1.32,1.49,2,2.61,3.85,2.23,7.85-1.15,10.07-3.74,2.46-7,1.38-9.62-1.95a90.36,90.36,0,0,1-16.87-34.8A92.4,92.4,0,0,1,145.43,50.05C147.42,48.89,149.34,47.44,151.12,47.47Z"/><path d="M151.07,198.37c4.37.11,8.39,3.77,8.39,7.64a6.76,6.76,0,0,1-7.2,6.62c-4.4-.25-8.31-4-8.13-7.9A6.63,6.63,0,0,1,151.07,198.37Z"/><path d="M232.48,61.77c-4.35-.14-8.37-3.88-8.31-7.74a6.7,6.7,0,0,1,6.77-6.56c4.55,0,8.79,4,8.57,8A6.75,6.75,0,0,1,232.48,61.77Z"/></g></g></svg>