<svg xmlns="http://www.w3.org/2000/svg" viewBox="0 0 254.74 254.91"><defs><style>.cls-1{fill:#020202;}.cls-2{fill:#f7f9fa;}.cls-3{fill:#f5f7f8;}</style></defs><g id="Capa_2" data-name="Capa 2"><g id="Capa_1-2" data-name="Capa 1"><path d="M207.37,51.62c3.26-3.69,5.69-6.4,8.08-9.16,2.16-2.49,4.75-3.35,7.42-1.22s2.47,5,.34,7.47c-5.53,6.44-11.1,12.84-16.77,19.15-2.59,2.88-5.58,2.85-8.16,0C192.6,61.53,187,55.13,181.5,48.69c-2.14-2.49-2.34-5.29.35-7.47,2.44-2,5-1.39,7.09.89,2.57,2.83,5.06,5.73,8,9.08A39.2,39.2,0,0,0,197,37.66a8.89,8.89,0,0,0-8.84-7.48c-6.48-.27-13-.05-19.47-.19-2.8-.06-2.26,1.48-2,3.23C169.82,55.1,157.15,74,136.12,79,109.31,85.39,83.34,61.39,88,34.27c.68-4-.4-4.37-3.79-4.31-10.82.17-21.64,0-32.46.09C43.71,30.1,40,33.68,40,41.6c-.06,33.8,0,67.6-.1,101.4,0,3.39,1,3.77,4,3.18,30.71-5.9,58.82,13,65.05,43.61,5.9,29-13.54,57.62-43.44,64-25.25,5.37-51.51-8.84-61.52-33.28a54.62,54.62,0,0,1,21.52-66.87c3.42-2.14,4.54-4.33,4.52-8.24-.15-34-.1-67.93-.08-101.9,0-16,7.48-23.43,23.56-23.45C65.4,20,77.22,20,89,20.09a6.1,6.1,0,0,0,5.71-2.89c16.64-22.95,48.73-22.93,65.37.05a6,6,0,0,0,5.74,2.83q10.24-.2,20.48,0c13,.23,21,8.39,21,21.44C207.38,44.48,207.37,47.44,207.37,51.62Z"/><path d="M192.53,254.83c-8.65,0-17.31.06-26,0-21-.18-35.18-14.16-36.42-35-.93-15.69,2.73-30.33,8.52-44.63,6.13-15.16,13.78-29.48,24-42.31,1.58-2,1.43-2.94-.23-4.82-5.8-6.56-5.46-14.86,1-20.9,2.09-2,2-3.23.64-5.3a56.72,56.72,0,0,1-3.75-6.45c-3.55-7.13,1.13-14.85,8.93-13.78a156.08,156.08,0,0,0,42.25-.12c7.74-1,12.39,5.64,9.73,13a16.48,16.48,0,0,1-1,2.28c-2.45,4.51-3.83,8.19,1.39,12.58,4.67,3.93,4.39,11.86.57,17-2,2.64-1.91,4,.23,6.57,20.64,24.3,31.54,52.38,32.32,84.34.53,21.84-14.32,37.34-36.23,37.55C209.84,254.9,201.19,254.83,192.53,254.83Z"/><path class="cls-1" d="M130.4,105c-1.85-2.89-3.11-4.79-4.3-6.73-1.72-2.81-1.65-5.59,1.25-7.39,2.6-1.62,5.17-.87,6.93,1.73,3.26,4.8,6.64,9.55,9.62,14.52,2.31,3.85.33,7.71-4.14,7.76-16.46.2-32.93.13-49.39.07-3.31,0-5.44-1.79-5.25-5.26S87.82,105,91,105q17.2,0,34.42,0Z"/><path class="cls-1" d="M99.45,135c2,3.08,3.42,5.07,4.59,7.22,1.46,2.68,1.14,5.34-1.57,7a4.65,4.65,0,0,1-6.62-1.43c-3.41-4.91-6.85-9.81-9.92-14.93-2.3-3.84-.28-7.66,4.23-7.71,16.46-.19,32.92-.11,49.38,0,3.33,0,5.41,1.83,5.19,5.31s-2.76,4.62-5.93,4.63H99.45Z"/><path class="cls-2" d="M55.14,165c3.29.37,4.91,2.35,4.75,5.4-.17,3.28.59,4.91,4.32,4.58,3.24-.28,5.6,1.41,5.61,4.9s-2.32,4.93-5.6,5c-2.67.05-5.33,0-8,0-3.14,0-5.77.92-6,4.51-.31,3.84,2.2,5,5.57,5.58,10.23,1.62,15.61,8.81,13.82,18.08a9.87,9.87,0,0,1-2.41,5.38c-4,3.79-8.48,6.94-7.94,13.57.15,1.88-2.53,2.88-4.73,2.66-2.45-.24-4.32-1.68-4.25-4.09.12-4.21-1-6.34-5.74-6-2.86.22-4.46-2.08-4.36-5A4.39,4.39,0,0,1,44.5,215c3.14-.23,6.32-.13,9.48-.18s5.68-1.2,5.83-4.76-2.17-4.77-5.36-5.3c-9.86-1.64-15.13-7.77-14.31-16.38.39-4.2,2-8.08,5.6-10.08s4.46-4.65,4.37-8.41C50,166.81,52,165.13,55.14,165Z"/><path class="cls-3" d="M124.73,20.13c2.38.1,4.23,1,4.83,3.49a10.34,10.34,0,0,1,.32,3.94c-1.17,7.39,1.21,13.16,7.24,17.66,2.82,2.1,4.1,5.2,1.26,8.13s-5.71,1.63-8.17-1a6.56,6.56,0,0,0-1.07-1c-9.93-6.19-10-15.85-9.21-25.88C120.18,22.4,121.53,20.47,124.73,20.13Z"/><path class="cls-2" d="M192,144.78c3.25,9.22,6.15,17.45,9,25.7.55,1.56,1,3.16,1.55,4.73,1.08,3.19,3,5.42,6.65,4.29,4.07-1.26,3.86-4.48,2.8-7.75s-2.22-6.25-3.3-9.39q-4.93-14.3-9.85-28.64c6.83-1.68,11.53,0,15.95,5.36,18.94,23,29.35,49.15,29.86,79.06.27,15.48-9.94,26.41-25.39,26.63q-27,.39-53.93,0c-14.59-.22-24.37-10.23-25.2-24.85a80.39,80.39,0,0,1,4.22-31.41c6.53-18.82,15.39-36.31,27.87-52,3.16-4,6.85-3.54,10.68-3.22,2.9.24,1.16,2.45.79,3.76-3.91,13.72-7.9,27.43-11.86,41.13-.37,1.28-.78,2.55-1.13,3.82-1,3.52-1.87,7.28,2.93,8.51,4.35,1.12,5.7-2.11,6.67-5.58,2-7,4-14,6.05-21C188.18,157.9,190,151.91,192,144.78Z"/><path class="cls-3" d="M169.73,91.69a131.5,131.5,0,0,0,41.73-.3c-1.27,3.14-2.49,5.73-3.35,8.44-.93,2.91-2.79,3.53-5.63,3.45-7-.19-14-.28-20.92,0-3.75.17-6.3-.67-7.79-4.35A71.86,71.86,0,0,0,169.73,91.69Z"/></g></g></svg>