<svg xmlns="http://www.w3.org/2000/svg" xmlns:xlink="http://www.w3.org/1999/xlink" viewBox="0 0 498.88 498.77"><defs><style>.cls-1{fill:url(#Degradado_sin_nombre_6);}.cls-2{fill:url(#Degradado_sin_nombre_6-2);}</style><linearGradient id="Degradado_sin_nombre_6" x1="193.21" y1="100.39" x2="420.07" y2="100.39" gradientUnits="userSpaceOnUse"><stop offset="0" stop-color="#d5b46d"/><stop offset="0" stop-color="#deb457"/><stop offset="0.07" stop-color="#ebd07e"/><stop offset="0.14" stop-color="#f6e9a0"/><stop offset="0.2" stop-color="#fdf8b5"/><stop offset="0.23" stop-color="#fffdbd"/><stop offset="0.41" stop-color="#d6ab47"/><stop offset="0.51" stop-color="#d4a945"/><stop offset="0.54" stop-color="#cea240"/><stop offset="0.56" stop-color="#c29736"/><stop offset="0.58" stop-color="#b28628"/><stop offset="0.59" stop-color="#ae8225"/><stop offset="0.77" stop-color="#cf9e25"/><stop offset="0.92" stop-color="#bd912a"/><stop offset="1" stop-color="#b48a2d"/></linearGradient><linearGradient id="Degradado_sin_nombre_6-2" x1="48.29" y1="78.6" x2="463.94" y2="78.6" xlink:href="#Degradado_sin_nombre_6"/></defs><g id="Capa_2" data-name="Capa 2"><g id="Capa_1-2" data-name="Capa 1"><path d="M498.62,248.75c-.19-12.71-9.49-21.83-22.08-22.89-2.8-.24-5.61-.41-8.33-.6V209.41c7.54-2.68,14.58-5.06,21.55-7.67,9.28-3.48,10.43-5.87,7.06-15.45q-31.05-88.51-62.25-177c-3.53-10-5.78-11-16-7.4C395.68,10,372.8,18.23,349.91,26.37c-3.27,1.16-6.62,2.12-10.41,3.33-4.12-8.08-7.82-15.6-11.77-23-3.75-7-5.84-7.79-13.21-5.46-1.54.49-3.06,1.05-4.59,1.6Q183.32,48.56,56.67,94.27c-2.86,1-5.81,1.78-9.27,2.83C52.09,79,63.06,70.25,80.47,70c9.31-.12,18.63,0,28.08,0V54.57c-20,0-39.5-.5-58.9.19-11.95.43-22.59,5.57-31.5,13.75C5.43,80.19,0,94.8,0,112Q.17,260.49.06,409c0,1.94-.08,3.9.07,5.84,1,13.12,6.85,23.56,18,30.68,3.76,2.4,8.07,4,13.1,6.37v11c0,2.92.23,5.86,0,8.76-1.49,15.92,11.14,27.23,27.05,27.14q120.75-.7,241.5,0c17.24.11,28-11.73,27.83-27.53q-.92-74,0-148c.2-15.65-10.45-27.64-27.82-27.53q-120.27.8-240.53,0C42,295.56,30.57,307,31,323.81c.81,33.42.24,66.87.24,100.3V434c-1.77-.44-2.79-.47-3.56-.92-9.52-5.57-12.09-14.26-12.07-24.78q.23-147.53.09-295.07a59.33,59.33,0,0,1,.18-7.78c1.95-14.29,8.76-25.08,24.26-32.31-1.92,3.89-2.88,5.78-3.8,7.68C23,108.58,38,139.86,68.16,146.64c5.3,1.2,10.94,1.23,16.42,1.24q176.27.09,352.53.05c13.87,0,14.84,1,14.84,15q0,38.46,0,76.93v9.3H441.45c-24.34,0-48.69-.1-73,0-16.05.09-25.35,9.42-25.51,25.42-.14,13.31.65,26.66-.2,39.92-1.15,18.25,12,29,27.9,28.39,24-.87,48-.23,72.05-.23h8.73c.26,2.19.53,3.43.53,4.66,0,23.05-.11,46.1.13,69.14.06,5.83-2.3,9.95-6.53,13.37a28.72,28.72,0,0,1-18.95,6.33c-14.94-.14-29.87-.07-44.8,0-2.47,0-4.93.44-7.26.66v14.93c16.92,0,33.39,0,49.86,0a69.87,69.87,0,0,0,9.72-.37c20.73-3,33.48-17.71,33.49-38.39,0-20.45,0-40.91,0-61.36,0-2.81.33-5.62.54-9,3.21,0,5.78.17,8.31,0,12.65-1,22-10.09,22.16-22.79Q499.15,284.29,498.62,248.75Zm-30.3-93.63,1.05.19L480.86,188l-12.54,4.79ZM311.68,471.39c-.08,9.28-2.22,11.49-11.5,11.5q-120.74.08-241.48,0c-9.29,0-11.75-2-11.79-10.19-.15-29.85-.06-59.69-.06-89.44,7.4-2,243-2.85,264.86-.9V430.5C311.71,444.13,311.8,457.76,311.68,471.39ZM46.91,320.94c.26-6.77,2.72-9,9.69-9.37,1.94-.11,3.89,0,5.84,0H296.12c1.94,0,3.9-.09,5.84,0,7,.4,9.42,2.61,9.68,9.38s.06,13.57.06,21H46.85C46.85,334.52,46.65,327.72,46.91,320.94Zm264.4,38v6.63H47.72c-.28-1.8-.6-3.87-1-6.63ZM193.21,131.66v-1L366.49,69.12c9.37,12.42,21.36,19.15,37.81,18.06,5.18,14.6,10.33,29.13,15.77,44.48Zm243.85,1c-6.2-17.47-12.05-33.94-17.89-50.41-.65-1.83-1.2-3.71-2-5.49-2.69-6.19-4.77-7.33-11.24-6.32-14.07,2.18-20.1-.64-27.23-12.76-3.93-6.66-5.9-7.38-14.54-4.33Q322.94,67.87,281.75,82.6C239.32,97.71,196.87,112.75,154.5,128c-8.36,3-16.68,4.8-25.61,4.37-8.41-.4-16.85-.09-25.75-1.36l18.07-7.3c-1.64-4.58-3.13-8.77-5.06-14.18L61.89,128.67,48.29,114,315.64,17.45l8.95,17.82L160.14,93.84c1.77,5,3.25,9.25,5.15,14.65L421,17.7l43,122C455.91,134,447.53,131,437.06,132.63Zm46,182.28c0,10.13-1.93,12.13-11.8,12.15q-50.54.1-101.08,0c-9.73,0-11.63-2.1-11.7-12.24-.08-12.31-.06-24.63,0-36.94.05-11.43,1.6-13,12.83-13.07q39.86-.07,79.7,0c2.27,0,4.54.1,6.8,0,6.92-.4,9.25-2.64,9.7-9.39.16-2.25,0-4.53,0-6.8v-6.39c13.6-1.27,15.5.33,15.53,12.46Q483.19,284.79,483.1,314.91Z"/><path class="cls-1" d="M420.07,131.66H193.21v-1L366.49,69.12c9.37,12.42,21.36,19.15,37.81,18.06C409.48,101.78,414.63,116.31,420.07,131.66Z"/><path class="cls-2" d="M421,17.7,165.29,108.49c-1.9-5.4-3.38-9.63-5.15-14.65L324.59,35.27l-8.95-17.82L48.29,114l13.6,14.71,54.26-19.12c1.93,5.41,3.42,9.6,5.06,14.18L103.14,131c8.9,1.27,17.34,1,25.75,1.36,8.93.43,17.25-1.36,25.61-4.37,42.37-15.27,84.82-30.31,127.25-45.42Q323,67.93,364.19,53.32c8.64-3,10.61-2.33,14.54,4.33,7.13,12.12,13.16,14.94,27.23,12.76,6.47-1,8.55.13,11.24,6.32.77,1.78,1.32,3.66,2,5.49,5.84,16.47,11.69,32.94,17.89,50.41,10.47-1.62,18.85,1.34,26.88,7.11ZM135.32,119.15c-1.8-4.81-3.42-9.15-5.37-14.35l15.41-5.88c1.9,5.29,3.38,9.43,5.22,14.57Z"/><path d="M357.8,451.41H343.41V436.62H357.8Z"/><path d="M150.58,113.49l-15.26,5.66c-1.8-4.81-3.42-9.15-5.37-14.35l15.41-5.88C147.26,104.21,148.74,108.35,150.58,113.49Z"/><path d="M413,295.78a23.34,23.34,0,1,1-23.76-23.18A23.49,23.49,0,0,1,413,295.78Zm-23.72,7.81A7.65,7.65,0,1,0,382,295.1,7.9,7.9,0,0,0,389.27,303.59Z"/></g></g></svg>