<svg xmlns="http://www.w3.org/2000/svg" xmlns:xlink="http://www.w3.org/1999/xlink" viewBox="0 0 500 499.94"><defs><style>.cls-1{fill:url(#Degradado_sin_nombre_6);}.cls-2{fill:url(#Degradado_sin_nombre_64);}.cls-3{fill:#1d1d1b;}.cls-4{fill:#383838;}</style><linearGradient id="Degradado_sin_nombre_6" x1="230.01" y1="339.49" x2="745.53" y2="339.49" gradientUnits="userSpaceOnUse"><stop offset="0" stop-color="#d5b46d"/><stop offset="0" stop-color="#deb457"/><stop offset="0.07" stop-color="#ebd07e"/><stop offset="0.14" stop-color="#f6e9a0"/><stop offset="0.2" stop-color="#fdf8b5"/><stop offset="0.23" stop-color="#fffdbd"/><stop offset="0.41" stop-color="#d6ab47"/><stop offset="0.51" stop-color="#d4a945"/><stop offset="0.54" stop-color="#cea240"/><stop offset="0.56" stop-color="#c29736"/><stop offset="0.58" stop-color="#b28628"/><stop offset="0.59" stop-color="#ae8225"/><stop offset="0.77" stop-color="#cf9e25"/><stop offset="0.92" stop-color="#bd912a"/><stop offset="1" stop-color="#b48a2d"/></linearGradient><linearGradient id="Degradado_sin_nombre_64" x1="50.86" y1="158.04" x2="566.38" y2="158.04" gradientUnits="userSpaceOnUse"><stop offset="0" stop-color="#d8d8d8"/><stop offset="0.36" stop-color="#aaacae"/><stop offset="0.48" stop-color="#d1d2d3"/><stop offset="0.58" stop-color="#c4c4c4"/><stop offset="0.61" stop-color="#cccdcd"/><stop offset="0.65" stop-color="#e3e4e4"/><stop offset="0.66" stop-color="#e7e8e8"/><stop offset="0.9" stop-color="#353435"/><stop offset="0.93" stop-color="#6b6a6b"/><stop offset="0.98" stop-color="#b9b9b9"/><stop offset="1" stop-color="#d8d8d8"/></linearGradient></defs><g id="Capa_2" data-name="Capa 2"><g id="Capa_1-2" data-name="Capa 1"><circle class="cls-1" cx="339.49" cy="339.49" r="105.97"/><circle class="cls-2" cx="160.34" cy="158.04" r="105.97"/><path class="cls-3" d="M179.59,319.64c-52.19,4.87-97.1-10.3-133.33-46.87C14.07,240.27-1.57,200.18.12,154.13,3.18,71.21,69.65,4.62,151.32.26,200.62-2.37,243,14.79,276.85,50.58s47.37,79.29,42.81,129c5,0,9.14.2,13.26,0,25.71-1.48,50.08,4.05,73.53,14.17a101,101,0,0,1,13.58,7.5c3.61,2.29,4.52,6,2.84,9.14-2,3.82-5.5,5-9.76,3.18-1.78-.76-3.48-1.72-5.21-2.6a148,148,0,0,0-54.37-16c-50.14-4.58-91.35,13-124.49,49.94a135.46,135.46,0,0,0-33.45,72c-6,41.22,3.33,78.83,29,112.07a119.77,119.77,0,0,0,22.44,22.82,22.84,22.84,0,0,1,3.62,3.25c3.07,3.55,3.26,7.58.65,10.46-2.77,3.05-6.61,3.55-10.39.48a183.86,183.86,0,0,1-17.44-15.52c-21.19-22.34-34.74-48.83-41.4-78.82-3.11-14-2.79-28.35-2.52-42.62C179.63,326.35,179.59,323.77,179.59,319.64Zm13.58-46.92c-10.35,1.51-19.87,3.4-29.47,4.16-10.35.81-20.66-.92-30.69-3.55-39.76-10.43-67.18-34.94-82.1-73.19-5.81-14.88-7.22-30.46-6.48-46.44a108.89,108.89,0,0,1,5.86-31.27c9.37-26.68,26.24-47.34,50.4-62A108.05,108.05,0,0,1,145.15,45,145.46,145.46,0,0,1,175,45a96.22,96.22,0,0,1,37.67,11.62c3.76,2.08,5,5.57,3.62,8.89a8.06,8.06,0,0,1-9.69,4.45A20.55,20.55,0,0,1,204,68.59a98.67,98.67,0,0,0-63.25-8.05c-24.48,4.87-44.94,16.9-60.12,36.52C62.2,120.9,54.73,148,60.37,178.19c5.55,29.69,21.09,52.64,46.61,68.49,26.18,16.26,54.46,19.27,83.87,10.69,6.67-2,13.71-3.88,18.09-10.46,10.18-15.31,23.24-27.83,38.28-38.34a19.6,19.6,0,0,0,6.89-9.11c7.78-18.79,9.43-38,5.9-58a96.43,96.43,0,0,0-25.95-51c-1.57-1.64-3.4-3.13-4.6-5-3-4.77.58-11.4,6.23-11.05a11.6,11.6,0,0,1,6.6,3.32,111.27,111.27,0,0,1,24.54,35.81,113.12,113.12,0,0,1,10,49.91c-.34,9.83-2.62,19.58-4.08,29.74l31.54-10.63c5.74-43.66-4.59-82.58-32.93-116s-64.6-49.89-108.7-51.5c-78-2.85-157.36,65-146.8,162.86,8.46,78.41,83.6,139.93,166.89,125.81Q187.92,288.31,193.17,272.72Z"/><path class="cls-3" d="M222.77,339c2-65.53,51.68-116.14,117.46-115.86,62.21.26,115.45,47.5,115.57,116.36.13,66.55-51.43,116.78-116.52,116.29C269.06,455.29,224.08,400.7,222.77,339ZM339,238.07c-54.53-1.16-101.45,46.59-101.22,101.19.23,54.82,44.5,101.83,101.68,101.92,56.11.1,101.87-45.86,101.67-101.88C441,282.24,394,237.15,339,238.07Z"/><path class="cls-3" d="M458.4,119c-2.19-.21-4.41,0-7.52,0,0-10.17-.22-19,.07-27.73.25-7.92-1.45-15.47-4-22.77-9.05-25.74-33.65-41.82-57.66-41.44-17.89.29-35.79.47-53.66-.1-10.23-.33-19.87,9.52-21.31,16.81-2.31,11.63,2.1,21,12.19,26a26.29,26.29,0,0,0,12.22,2.46q23.91-.2,47.82,0c9.91.06,14.77,3.68,18.1,13,.22.61.61,1.17.78,1.79,1,3.67.23,26.91-1,31.95a38,38,0,0,1-4.77,0,11.13,11.13,0,0,0-12.07,6.42c-2.31,4.61-1.4,9.17,1.91,13.57,6.63,8.79,12.75,18,19.15,26.91,3.76,5.26,7.3,10.76,11.62,15.53,5,5.51,10.79,5.27,16.14.13a25.75,25.75,0,0,0,2.95-3.84c6.41-9,12.85-17.89,19.17-26.91a158.87,158.87,0,0,0,9.58-14.61C472.64,127.75,468.12,120,458.4,119Zm-30.3,49.21-24.47-34.89c3.38-.18,5.63-.15,7.84-.44,5.25-.68,8.19-3.52,8.27-8.94.18-13,.69-26-.25-39-.83-11.52-9.58-22.41-21.71-26-5.16-1.55-10.83-1.86-16.28-2-14.29-.25-28.59,0-42.88-.11-6.63,0-10.6-3-10.51-7.4.09-4.75,3.94-8.24,10.09-8.29,17.22-.15,34.49-.86,51.64.2,22.79,1.4,39,15.11,45,37.59.81,3.08.73,6.44.76,9.67.09,10.39.07,20.79.05,31.18,0,5.2,1.44,9.85,6.25,12.27,2.44,1.23,5.61,1,10.24,1.71C443.83,145.7,436.29,156.51,428.1,168.25Z"/><path class="cls-4" d="M452.09,133.84c-8.26,11.86-15.8,22.67-24,34.41l-24.47-34.89c3.38-.18,5.63-.15,7.84-.44,5.25-.68,8.19-3.52,8.27-8.94.18-13,.69-26-.25-39-.83-11.52-9.58-22.41-21.71-26-5.16-1.55-10.83-1.86-16.28-2-14.29-.25-28.59,0-42.88-.11-6.63,0-10.6-3-10.51-7.4.09-4.75,3.94-8.24,10.09-8.29,17.22-.15,34.49-.86,51.64.2,22.79,1.4,39,15.11,45,37.59.81,3.08.73,6.44.76,9.67.09,10.39.07,20.79.05,31.18,0,5.2,1.44,9.85,6.25,12.27C444.29,133.36,447.46,133.13,452.09,133.84Z"/><path class="cls-3" d="M176.31,431.69a26.29,26.29,0,0,0-14.7-4.18c-15.93.26-31.9-.44-47.8.27-12.41.55-19.66-9.56-19.79-19.28-.12-8.77,0-17.55,0-27.69,3.47,0,6.06.29,8.55-.09a14.3,14.3,0,0,0,6.17-2.27c5.4-4,6.46-10.4,2.42-16.3-9.14-13.36-18.53-26.56-27.92-39.74a34.43,34.43,0,0,0-5.34-5.66c-2.95-2.6-6.47-3.34-9.87-1.21a25.5,25.5,0,0,0-7.23,6.16C51.85,334,43.21,346.55,34.5,359a37.8,37.8,0,0,0-3,5c-4,8.12.19,15.69,9.35,16.75a76.7,76.7,0,0,0,8.08,0c0,9.72.12,18.46,0,27.19a64.34,64.34,0,0,0,9.2,34.17c10.33,17.7,25.86,28.55,46.05,30,20.39,1.49,41,.57,61.45.39,8.8-.08,17.89-7.83,19.82-16C187.75,446.61,184.24,436.63,176.31,431.69Zm-9.64,25.72a14.84,14.84,0,0,1-5.57,1.19c-16.89.08-33.85.95-50.66-.21-23.23-1.61-39.3-14.4-45.64-38-.74-2.76-.55-5.81-.57-8.72-.07-10.07,0-20.14-.08-30.21-.1-10.7-2.76-13.56-13.32-14.76a13.17,13.17,0,0,1-2.63-1.21c7.5-11.25,15.1-22.26,23.69-33.66l24.17,34.5c-3.47.25-5.87.28-8.22.64-4.7.71-7.7,3.58-7.76,8.38-.19,13.32-.61,26.67.2,39.94.74,12,13.27,24.72,24.1,26a173.56,173.56,0,0,0,17.31,1.54c12.34.23,24.69.06,37,.07,1.95,0,3.9,0,5.84.08,3.78.2,5.82,2.71,6.94,5.9C172.49,451.73,170.07,456,166.67,457.41Z"/><path class="cls-4" d="M166.67,457.41a14.84,14.84,0,0,1-5.57,1.19c-16.89.08-33.85.95-50.66-.21-23.23-1.61-39.3-14.4-45.64-38-.74-2.76-.55-5.81-.57-8.72-.07-10.07,0-20.14-.08-30.21-.1-10.7-2.76-13.56-13.32-14.76a13.17,13.17,0,0,1-2.63-1.21c7.5-11.25,15.1-22.26,23.69-33.66l24.17,34.5c-3.47.25-5.87.28-8.22.64-4.7.71-7.7,3.58-7.76,8.38-.19,13.32-.61,26.67.2,39.94.74,12,13.27,24.72,24.1,26a173.56,173.56,0,0,0,17.31,1.54c12.34.23,24.69.06,37,.07,1.95,0,3.9,0,5.84.08,3.78.2,5.82,2.71,6.94,5.9C172.49,451.73,170.07,456,166.67,457.41Z"/><path class="cls-3" d="M484.47,341.21c.71-32.26-8.11-59.84-25.56-84.6-5.38-7.64-12-14.45-18-21.59-1.47-1.73-3.39-3.11-4.69-4.94-1.79-2.52-1.32-7.19.56-9.06a6.89,6.89,0,0,1,8.87-1.06,36,36,0,0,1,6.76,5.48c18.16,19,31.82,40.61,39.85,65.8,6.38,20,9.09,40.48,7.18,61.24-3.38,36.86-17.6,69.15-43,96.35a158.7,158.7,0,0,1-86.72,48.23,146.48,146.48,0,0,1-50.2,1.32c-15.8-2.31-30.92-6.19-45.42-12.69a23.16,23.16,0,0,1-5.08-2.79c-2.37-1.87-4.2-4.19-2.95-7.55a7.47,7.47,0,0,1,8.55-4.85,41,41,0,0,1,8.14,3c24.62,11.41,50.78,13.1,77,10.23,25.16-2.75,47.89-13.11,68-28.43,25-19,41.69-43.9,51.11-73.81A118.45,118.45,0,0,0,484.47,341.21Z"/><path class="cls-3" d="M205.69,207.17H171.76c-.06,6.37-.11,12.11-.17,17.84a49.14,49.14,0,0,1-.17,7.78c-.82,4.75-3.91,7.46-7.71,7.32-4.26-.17-7.14-3.35-7.36-8.55-.18-4.55,0-9.1,0-13.65v-10.6h-15.9c-4.87,0-9.76.17-14.62-.08-4.66-.24-6.79-2.54-6.72-6.52a7.53,7.53,0,0,1,6.46-7.32,48.27,48.27,0,0,1,6.81-.14h23.58v-8.5a7,7,0,0,0-2.38-.92c-10.37-.07-20.74,0-30.82,0-1.18-1.65-2.18-2.6-2.64-3.76-2.51-6.36-.22-10,6.65-10.29,5.83-.22,11.69-.05,17.54-.06h9c-2-3.58-3.25-6.08-4.77-8.38q-12.78-19.46-25.69-38.83a42.59,42.59,0,0,1-2.78-4c-2-4-1-8.67,2.07-10.36a8.13,8.13,0,0,1,10.34,2.43c2.83,3.93,5.38,8.07,8.06,12.11l22.91,34.54c1.76-1.83,3.24-3,4.22-4.44,8.05-12.11,16-24.29,24-36.45,1.24-1.89,2.42-3.84,3.81-5.62,2.89-3.72,6.7-4.37,10.12-1.87s4.53,6.24,2,10.2c-7.92,12.22-16.1,24.25-24.13,36.39-2.8,4.25-5.44,8.59-9,14.27,8.28,0,15,0,21.76,0a40.64,40.64,0,0,1,6.81.22c3.13.52,5.92,4,5.89,6.84s-2.8,6.36-6,6.76a80.82,80.82,0,0,1-9.73.22c-6.78,0-13.56,0-20.91,0v8.62a5.82,5.82,0,0,0,1.81.78c8.44.08,16.89.23,25.33.06,4-.08,7,1.12,8.86,4.68S207.42,203.88,205.69,207.17Z"/><path class="cls-3" d="M331.74,397C321.31,394,311,392.85,304.69,383c.64-1.65,1-3.65,2.1-5.16,2.58-3.63,5.53-4.49,10.13-1.53,7.64,4.92,15.88,5.11,24.34,4.64,9.12-.51,16.12-7.12,17.75-16.48,1.48-8.5-2.71-15.06-11.78-18.78q-11.18-4.57-22.25-9.44c-11.19-4.95-17.19-13.3-16.63-25.89s7.44-21,18.37-26.42a51.32,51.32,0,0,1,5-1.87c0-3.12-.23-6.34.06-9.5.4-4.44,3.63-7.2,7.73-7s5.79,2.18,6.19,7.1c.14,1.62,0,3.25.07,4.87.08,1.26.34,2.5.57,4a82.66,82.66,0,0,1,9,3.49,42.61,42.61,0,0,1,8.86,5.78c3.32,3,3.37,5.53,1.15,8.55-2.43,3.28-5.74,4.25-9.39,2.64a19.69,19.69,0,0,1-2.38-1.67,25.32,25.32,0,0,0-15.75-3.68c-8.43.55-14.38,5.46-15.25,13.58-.56,5.29,2.21,9.49,6.95,11.78,7.26,3.5,14.79,6.42,22.07,9.88a72.45,72.45,0,0,1,11.6,6.74c13.77,10,12.5,34,2.64,44.6-5.64,6.08-8.7,8.49-19.51,13.06-.17,1.92-.41,4.11-.56,6.3-.11,1.62.08,3.28-.17,4.86-.51,3.16-3.64,6.07-6.5,6.29-3.16.25-6.71-2.84-7.27-6.53a32.78,32.78,0,0,1-.12-4.86C331.73,400.74,331.74,399.13,331.74,397Z"/></g></g></svg>