<svg xmlns="http://www.w3.org/2000/svg" xmlns:xlink="http://www.w3.org/1999/xlink" viewBox="0 0 490.7 498.8"><defs><style>.cls-1{fill:url(#Degradado_sin_nombre_6);}.cls-2{fill:url(#Degradado_sin_nombre_6-2);}</style><linearGradient id="Degradado_sin_nombre_6" x1="387.66" y1="437.23" x2="468.85" y2="437.23" gradientUnits="userSpaceOnUse"><stop offset="0" stop-color="#d5b46d"/><stop offset="0" stop-color="#deb457"/><stop offset="0.07" stop-color="#ebd07e"/><stop offset="0.14" stop-color="#f6e9a0"/><stop offset="0.2" stop-color="#fdf8b5"/><stop offset="0.23" stop-color="#fffdbd"/><stop offset="0.41" stop-color="#d6ab47"/><stop offset="0.51" stop-color="#d4a945"/><stop offset="0.54" stop-color="#cea240"/><stop offset="0.56" stop-color="#c29736"/><stop offset="0.58" stop-color="#b28628"/><stop offset="0.59" stop-color="#ae8225"/><stop offset="0.77" stop-color="#cf9e25"/><stop offset="0.92" stop-color="#bd912a"/><stop offset="1" stop-color="#b48a2d"/></linearGradient><linearGradient id="Degradado_sin_nombre_6-2" x1="208.03" y1="324.04" x2="407.24" y2="324.04" xlink:href="#Degradado_sin_nombre_6"/></defs><g id="Capa_2" data-name="Capa 2"><g id="Capa_1-2" data-name="Capa 1"><path d="M488.2,459.87a66.4,66.4,0,0,0-5.41-5.6q-33.75-33.75-67.48-67.5c-2-2-3.78-4.18-5.48-6.08l9.83-22.93,12.17-1V341.54l-9-1.7c3.14-19.54.3-37.92-5.92-56-1.23-3.56-1.22-7.66-1.24-11.51-.12-20.78-.06-41.56-.06-62.33V200h-16.5v50.28c-4.21-3.82-7.82-7.5-11.85-10.65s-5.08-6.94-5-11.87c.24-17.53.12-35.06.06-52.59,0-2.79-.42-5.58-.67-8.52H366c0,9.63,0,18.66,0,27.69-.07,9.19.32,18.4-.32,28.59L348.77,215V133.37h-16v76.81l-17-2.41v-57c-9.71-1.33-9.71-1.33-16.62.85v56.21l-16.75,2.34V183.51H266.18v31.87L249.09,223V175.39h-16v10.16c0,14.28.06,28.56-.06,42.85,0,2.5,0,5.71-1.39,7.37-4.42,5.16-9.52,9.74-15.88,16.06v-60.2H199.78V202.7c0,22.41.21,44.81-.14,67.2-.1,6.36-1.68,12.72-2.87,19-1.25,6.67-3.64,13.23-4.1,19.93-.71,10.24-.19,20.57-.19,31.89H84.15v16.64H196c12.59,37.58,36.75,63.81,73.78,76.68s72.16,6.7,106.44-15.4c2.42,3.26,4.25,6.44,6.75,9q31.21,31.46,62.64,62.71c1.83,1.83,3.58,3.79,5.56,5.44,4.56,3.8,7.94,4.16,12.09.24Q476,484,488,471.22C491.69,467.31,491.46,464,488.2,459.87ZM307.29,423.76c-62-.33-99.83-51.8-99.25-100,.66-54.91,45.2-99.63,100.08-99.4s99.26,45.11,99.11,100.24C408,373.09,369,424.09,307.29,423.76Zm149.59,54.3-69.22-69.18L399,396.41l69.87,69.91Z"/><path class="cls-1" d="M468.85,466.32l-12,11.74-69.22-69.18L399,396.41Z"/><path class="cls-2" d="M407.23,324.56c.15-55.13-44.21-100-99.11-100.24S208.7,268.81,208,323.72c-.58,48.24,37.29,99.71,99.25,100C369,424.09,408,373.09,407.23,324.56ZM306.78,407.33c-40.8-.46-82.54-32.73-82.15-83.82.38-51.44,43.45-83.54,83.47-82.27,40.07-.84,82.78,31.67,82.66,83.12C390.63,375.61,348.26,407.79,306.78,407.33Z"/><path d="M455,401.2l-11.79-10.44c5.35-7.84,6-16.15,6-24.69q-.07-125.11-.07-250.22A71.33,71.33,0,0,0,448,102.3a23.45,23.45,0,0,0-21-18.71c-2.9-.29-5.84-.22-8.76-.22H97c-1.3,0-2.61.09-3.9,0-13.28-1-26.31,8.94-26.58,26,0,.33,0,.65,0,1q0,130.47.06,260.93c0,17.66,10.3,27.71,28,27.78,31.15.14,62.31,0,93.47,0h11.2v15.3a15.33,15.33,0,0,1-3.62.93c-35.38,0-70.75.3-106.12-.14-18.28-.23-33.5-13-38-30.74a47.1,47.1,0,0,1-1.19-11.56c-.07-87.95.16-175.9-.2-263.85C50,86.81,67.64,66.22,93.52,66.32c49,.2,98,.05,147,.05q89.58,0,179.15,0c7.57,0,14.94.74,21.78,4.09,15,7.34,22.92,19.5,24,36.12.13,1.94.07,3.89.07,5.84q0,129,.06,258C465.63,381.8,463.45,392.18,455,401.2Z"/><path d="M35.43,332.31c-1.49,5.33-2.69,9.64-4.09,14.63-2.5-.59-4.72-.75-6.6-1.63C9.53,338.24,1.72,326,.14,309.52c-.24-2.58-.1-5.19-.1-7.79Q0,174.7.11,47.64a70,70,0,0,1,1.6-16.37C6.13,13.13,21.74.79,40.46.05c1.95-.07,3.9,0,5.84,0Q207.91,0,369.52,0a67.69,67.69,0,0,1,12.59.79A41.27,41.27,0,0,1,414.7,49.28H399.6c-.17-3-.28-5.88-.5-8.72C398,27.14,388.62,17.83,375.19,17c-2.91-.19-5.84-.11-8.76-.11H49.05a92.91,92.91,0,0,0-10.69.35A23.7,23.7,0,0,0,17.19,39.06c-.09,1-.14,1.94-.14,2.91q0,132.41,0,264.81c0,10.37,4.39,18.05,13.57,22.94Z"/><path d="M133.59,323.55V224.84c2.18-.24,3.74-.52,5.31-.56,3.19-.08,6.38,0,9.41,0,2,7.79,2.19,89.7.34,99.29Z"/><path d="M182.44,323.59H167.71c-1.83-7.32-2.32-59.13-.71-73.57h15.44Z"/><path d="M116.06,323.39H100.2V275.08h15.86Z"/><path d="M116.05,49.64H100.39V33.79h15.66Z"/><path d="M33.66,49.42V33.77h16V49.42Z"/><path d="M67,49.52V33.67H82.94V49.52Z"/><path d="M84,99.91H99v15.54c-4.59,2.23-9.53.69-15,1Z"/><path d="M132.29,116.2H117.45V100.08h14.84Z"/><path d="M150.36,115.79V100.16h15.07v15.63Z"/><path d="M308.1,241.24c-40-1.27-83.09,30.83-83.47,82.27-.39,51.09,41.35,83.36,82.15,83.82,41.48.46,83.85-31.72,84-83C390.88,272.91,348.17,240.4,308.1,241.24ZM310,390.36c-25.19.69-44.71-10.11-59.64-32.71h113C356.9,375.27,334.07,389.71,310,390.36Zm-66.1-50.07c-7.36-23.9,2.46-53.54,22.34-66.43v48.65c5.26,2.38,10.06,1.29,16.09,1.19.73-9.93.23-19.86.32-29.76s0-20.07,0-31.3l16.82-4.74v65.58h16.14V259.76c6.54-1.67,11.31,1,17.12,3.1v60.53h16.05V273.68c20.09,12.52,30.07,42.34,22.8,66.61Z"/></g></g></svg>