<svg xmlns="http://www.w3.org/2000/svg" xmlns:xlink="http://www.w3.org/1999/xlink" viewBox="0 0 422.47 496.58"><defs><style>.cls-1{fill:#fff;}.cls-2{fill:url(#Degradado_sin_nombre_6);}.cls-3{fill:url(#Degradado_sin_nombre_6-2);}.cls-4{fill:url(#Degradado_sin_nombre_6-3);}</style><linearGradient id="Degradado_sin_nombre_6" x1="-212.99" y1="216.63" x2="177.9" y2="216.63" gradientUnits="userSpaceOnUse"><stop offset="0" stop-color="#d5b46d"/><stop offset="0" stop-color="#deb457"/><stop offset="0.07" stop-color="#ebd07e"/><stop offset="0.14" stop-color="#f6e9a0"/><stop offset="0.2" stop-color="#fdf8b5"/><stop offset="0.23" stop-color="#fffdbd"/><stop offset="0.41" stop-color="#d6ab47"/><stop offset="0.51" stop-color="#d4a945"/><stop offset="0.54" stop-color="#cea240"/><stop offset="0.56" stop-color="#c29736"/><stop offset="0.58" stop-color="#b28628"/><stop offset="0.59" stop-color="#ae8225"/><stop offset="0.77" stop-color="#cf9e25"/><stop offset="0.92" stop-color="#bd912a"/><stop offset="1" stop-color="#b48a2d"/></linearGradient><linearGradient id="Degradado_sin_nombre_6-2" x1="-167.56" y1="198.15" x2="386.27" y2="198.15" xlink:href="#Degradado_sin_nombre_6"/><linearGradient id="Degradado_sin_nombre_6-3" x1="-116.6" y1="230.47" x2="323.66" y2="230.47" xlink:href="#Degradado_sin_nombre_6"/></defs><g id="Capa_2" data-name="Capa 2"><g id="Capa_1-2" data-name="Capa 1"><path class="cls-1" d="M422.2,149.77v-4.09q0-53.9,0-107.79A50.54,50.54,0,0,0,421.36,27C417.63,10.49,404.11.2,386.08.15c-19.1,0-39.75-.08-65-.08l-42.75,0H237.24q-5.43,0-10.86,0H226q-5.2,0-10.43,0c-5.51,0-10,.06-14.23.19-18.65.6-32.77,14.67-33.58,33.47-.13,2.94-.1,6-.08,9,0,1.23,0,2.47,0,3.7v57.24l-2.81.19c-12.18.81-20.09,6.35-25.63,18-.42.89-.9,1.68-1.39,2.5a17.33,17.33,0,0,0-1.32,2.42c-4.08,10.14-12.12,12.35-19.44,13.16-24.78,2.77-51.87,6.31-82.81,10.83C15,153.43,7.38,164.06,10.19,184.08c2.93,20.93,5.71,41.46,8.25,61,.92,7.12,1.68,14.32,2.42,21.28.34,3.22.69,6.44,1.05,9.68l.25,2.32-2.18.83C5.68,284.65-.48,294.64,0,311.63c.49,16.31.38,32.88.27,48.93,0,6.5-.09,13.86-.09,20.91q0,12.73,0,25.45c0,20.57,0,41.83,0,62.93,0,11.27,4.61,19.27,13.81,23.76a33.87,33.87,0,0,0,14.36,2.83c50.85.13,100.91.14,143.18.14h94.19c.9,0,2,0,3-.1a25,25,0,0,0,23.12-22.83c.24-2.42.38-4.88.53-7.53v-.25c.07-1.2.14-2.43.22-3.7l.18-2.81h2.82c9.13,0,18.29-.07,27.22-.13H323c8.65-.07,17.6-.13,26.34-.13,13.34,0,24.31.15,34.52.47.47,0,.94,0,1.41,0,10.38,0,19.5-3.63,26.36-10.52a38.31,38.31,0,0,0,10.86-27.49C422.14,331,422.17,238.88,422.2,149.77ZM149.78,128.93c4.05-7.17,7.39-12.24,13.44-12.24,3.48,0,7.37,1.79,12.53,4.69,37.93,21.32,78.05,44,119.24,67.37,11.91,6.75,13.37,11.84,6.79,23.64-3.78,6.78-7.67,13.55-11.42,20.09C283.73,244,276.87,256,270.58,268c-4.21,8-9.25,11.61-16.35,11.61a24.58,24.58,0,0,1-4-.35,35.65,35.65,0,0,0-5.21-.33c-1.12,0-2.33,0-3.68-.11l-4.84-.22,2.34-4.24c1.57-2.85,3.12-5.62,4.63-8.35,3.35-6,6.51-11.7,9.63-17.51,4.43-8.23,4.4-8.37-3.14-14.64-11.93-9.92-15.22-21.51-10.35-36.46,1.69-5.2,2.41-7.57,1.78-9.24s-2.75-2.94-7.46-5.68c-8.6-5-16.18-9.28-23.17-13.1-3.65-2-6.23-3.23-7.83-3.23s-3.13,1.33-7,5.91c-7.23,8.6-15.29,12.78-24.64,12.78a38.51,38.51,0,0,1-11.67-2c-3.86-1.23-6.72-2.1-8.51-2.1-2,0-3.14,1.32-7.1,8.32q-13.28,23.46-26.48,47l-1.66,3Q107.47,254,99,269c-1,1.81-2.09,3.57-3.22,5.43l-.14.24c-.53.86-1.07,1.75-1.62,2.68l-.88,1.46h-27l2.16-4.35c.61-1.23,1.17-2.41,1.71-3.53l.2-.4c1.14-2.39,2.33-4.86,3.62-7.16C100.59,216,125.42,172,149.78,128.93Zm89.84,113.13,1.74,1.62-19.91,35.56h-1.77c-2,0-4,0-5.9-.06s-3.6-.05-5.36-.05c-2.5,0-4.55.05-6.46.17-1,.07-2,.1-2.89.1-8.51,0-14.7-2.74-20.7-9.14a30.35,30.35,0,0,0-22.32-9.76,35.26,35.26,0,0,0-25.77,11.88c-3.4,3.73-6.63,6.81-11.76,6.81a15.47,15.47,0,0,1-6.13-1.4l-3.08-1.33,44.9-79.57H156l7.31,0c22.82,0,25-1.2,41.77-14.17l1.58-1.22,20.11,11.38-.45,2.15C222.24,214.58,226.59,230,239.62,242.06ZM37.74,162.72c18.07-2.52,35.84-4.78,54.66-7.17,7.77-1,15.62-2,23.6-3l5.82-.75L119,157c-.91,1.69-1.76,3.22-2.6,4.71-1.55,2.79-2.9,5.2-4,7.63-3,6.57-7.37,9.68-14.73,10.4-5.47.54-8.21.81-9.51,2.28s-1.59,4.66-2.07,10.93c-1.08,13.76-9,23.77-22.34,28.16-10.74,3.54-10.91,3.83-9.23,15.12.31,2.11.68,4.24,1,6.3a101.43,101.43,0,0,1,2,17.14A27.81,27.81,0,0,1,52.22,275c-1.8,2.47-5,3.23-8.34,4-1.45.35-3,.7-4.43,1.21L36,281.46,33.44,263c-1.39-10.05-2.7-19.54-3.95-28.93q-1.54-11.56-3-23.14L26.21,209c-1.11-8.54-2.21-17.08-3.36-25.62C20.9,168.89,24,164.64,37.74,162.72ZM279.21,471.29c-.11,7.29-4.74,12-12.38,12.55-1.41.1-2.76.12-3.79.12H32.85L31,484c-.66,0-1.33,0-2,0a30.79,30.79,0,0,1-3.4-.16c-8.1-.87-11.88-4.81-12.64-13.17a40,40,0,0,1-.09-4.49V466c0-.48,0-1,0-1.45v-39q0-57.27,0-114.55c0-15.94,3.2-19.17,19-19.17q57.08,0,114.14,0,57.48,0,115,0c15,0,18.3,3.32,18.37,18.63.05,8.69,0,17.41,0,26.63v.29c0,4.27,0,8.66,0,13.23v3H261.23c-7.42,0-14.83,0-22.25-.05h-.43c-7.55,0-15.1-.05-22.66-.05-13,0-23.66.08-33.5.26a34.1,34.1,0,0,0-6.16,67.47,56,56,0,0,0,11.46.8h.62q18.9.06,37.79,0h53.18v3q0,6.6,0,13v.77C279.33,450,279.36,460.54,279.21,471.29Zm8.64-61.82h-3q-14.52,0-28.86,0h-.87l-27.44,0c-17.43,0-31.57-.06-44.49-.19-12.23-.12-21.42-9.36-21.39-21.49s9.25-21.27,21.45-21.39c13-.12,27.07-.18,44.45-.18l27.36,0h1q14.34,0,28.84,0h3Zm4.13-57v-2.36c0-4.09,0-8.13-.08-12.2-.09-9.21-.18-17.91.21-26.79.56-13-3.19-21.91-12.18-28.75l-2.07-1.58,4-7.18c1.92-3.45,3.8-6.85,5.7-10.23q4.24-7.53,8.52-15.05l.1-.18c5.8-10.22,11.79-20.78,17.55-31.26,8.75-15.93,5-29.12-10.77-38.13-25.41-14.49-51.32-29.11-76.38-43.25l-.47-.27q-16.62-9.37-33.24-18.77c-2.28-1.28-4.55-2.59-6.95-4l-5.08-2.91V69.44h228v321H301.29v-3c0-2.35,0-4.66-.05-6.95-.05-5.24-.1-10.2.12-15.3.31-7.62-1.54-10.81-7.09-12.17Zm117.37,74.83c-1,11-9.26,19-19.62,19.16-12.17.17-25.52.25-42,.25q-12.93,0-25.92,0t-26.22,0h-3V431.44h3l4.35,0h.18l4.31,0c2.1,0,3.83,0,5.43-.06,9.47-.25,9.78-4.2,9.9-5.89s.45-5.86-9.95-6.74c-1-.08-1.94-.18-3.2-.3L301.8,418v-14H409.47v3c0,2.09,0,4.18.09,6.19v.24A120.66,120.66,0,0,1,409.35,427.27Zm.28-380.85v.23c0,1.86,0,3.8,0,5.85v3H180.49v-3c0-2.09-.05-4.23-.1-6.33a121.19,121.19,0,0,1,.25-14.49C181.58,22,189,14.46,199.16,13a28.75,28.75,0,0,1,4.21-.26l1.63,0H385.66c.85,0,1.56,0,2.22.06,13.15.86,21,9,21.67,22.2C409.72,38.68,409.68,42.43,409.63,46.42Z"/><path class="cls-2" d="M121.82,151.79,119,157c-.91,1.69-1.76,3.22-2.6,4.71-1.55,2.79-2.9,5.2-4,7.63-3,6.57-7.37,9.68-14.73,10.4-5.47.54-8.21.81-9.51,2.28s-1.59,4.66-2.07,10.93c-1.08,13.76-9,23.77-22.34,28.16-10.74,3.54-10.91,3.83-9.23,15.12.31,2.11.68,4.24,1,6.3a101.43,101.43,0,0,1,2,17.14A27.81,27.81,0,0,1,52.22,275c-1.8,2.47-5,3.23-8.34,4-1.45.35-3,.7-4.43,1.21L36,281.46,33.44,263c-1.39-10.05-2.7-19.54-3.95-28.93q-1.54-11.56-3-23.14L26.21,209c-1.11-8.54-2.21-17.08-3.36-25.62-2-14.48,1.11-18.73,14.89-20.65,18.07-2.52,35.84-4.78,54.66-7.17,7.77-1,15.62-2,23.6-3Z"/><path class="cls-3" d="M301.78,212.39c-3.78,6.78-7.67,13.55-11.42,20.09C283.73,244,276.87,256,270.58,268c-4.21,8-9.25,11.61-16.35,11.61a24.58,24.58,0,0,1-4-.35,35.65,35.65,0,0,0-5.21-.33c-1.12,0-2.33,0-3.68-.11l-4.84-.22,2.34-4.24c1.57-2.85,3.12-5.62,4.63-8.35,3.35-6,6.51-11.7,9.63-17.51,4.43-8.23,4.4-8.37-3.14-14.64-11.93-9.92-15.22-21.51-10.35-36.46,1.69-5.2,2.41-7.57,1.78-9.24s-2.75-2.94-7.46-5.68c-8.6-5-16.18-9.28-23.17-13.1-3.65-2-6.23-3.23-7.83-3.23s-3.13,1.33-7,5.91c-7.23,8.6-15.29,12.78-24.64,12.78a38.51,38.51,0,0,1-11.67-2c-3.86-1.23-6.72-2.1-8.51-2.1-2,0-3.14,1.32-7.1,8.32q-13.28,23.46-26.48,47l-1.66,3Q107.47,254,99,269c-1,1.81-2.09,3.57-3.22,5.43l-.14.24c-.53.86-1.07,1.75-1.62,2.68l-.88,1.46h-27l2.16-4.35c.61-1.23,1.17-2.41,1.71-3.53l.2-.4c1.14-2.39,2.33-4.86,3.62-7.16C100.59,216,125.42,172,149.78,128.93c4.05-7.17,7.39-12.24,13.44-12.24,3.48,0,7.37,1.79,12.53,4.69,37.93,21.32,78.05,44,119.24,67.37C306.9,195.5,308.36,200.59,301.78,212.39Z"/><path class="cls-4" d="M241.36,243.68l-19.91,35.56h-1.77c-2,0-4,0-5.9-.06s-3.6-.05-5.36-.05c-2.5,0-4.55.05-6.46.17-1,.07-2,.1-2.89.1-8.51,0-14.7-2.74-20.7-9.14a30.35,30.35,0,0,0-22.32-9.76,35.26,35.26,0,0,0-25.77,11.88c-3.4,3.73-6.63,6.81-11.76,6.81a15.47,15.47,0,0,1-6.13-1.4l-3.08-1.33,44.9-79.57H156l7.31,0c22.82,0,25-1.2,41.77-14.17l1.58-1.22,20.11,11.38-.45,2.15c-4.06,19.51.29,34.88,13.32,47Z"/><path class="cls-1" d="M305.55,42.72c-1.79,0-3.59,0-5.38,0s-3.53-.05-5.3-.05h-.12c-1.75,0-3.5,0-5.25.05s-3.49,0-5.23,0c-2.59,0-4.72-.05-6.7-.16-5.61-.31-9.12-3.22-9.38-7.79a7.53,7.53,0,0,1,1.9-5.69c1.69-1.84,4.33-2.86,7.64-2.95,5.6-.15,11.33-.22,17-.22s11.72.07,17.62.23c5.51.14,9.1,3.12,9.36,7.77a7.4,7.4,0,0,1-2.25,6,11.45,11.45,0,0,1-7.33,2.68C310.21,42.67,308.1,42.72,305.55,42.72Z"/><path class="cls-1" d="M305.55,41.71c-1.79,0-3.58,0-5.36-.05s-3.55,0-5.32,0h-.11c-1.76,0-3.52,0-5.28,0s-3.48,0-5.21,0c-2.57,0-4.68-.05-6.64-.16-5.13-.28-8.2-2.78-8.43-6.84a6.59,6.59,0,0,1,1.63-5c1.5-1.63,3.9-2.54,6.92-2.62,5.59-.15,11.32-.22,17-.22s11.7.08,17.59.23c5,.13,8.15,2.68,8.38,6.81a6.3,6.3,0,0,1-1.93,5.19,10.47,10.47,0,0,1-6.69,2.41C310.17,41.66,308.08,41.71,305.55,41.71Z"/><path class="cls-1" d="M305.55,40.71c-1.78,0-3.56,0-5.35-.05h-.11c-1.74,0-3.48,0-5.21,0h-.12c-1.76,0-3.53,0-5.29,0s-3.47,0-5.2,0c-2.56,0-4.65-.05-6.59-.16-2.68-.14-7.21-1.11-7.48-5.9a5.58,5.58,0,0,1,1.37-4.21c1.31-1.43,3.46-2.22,6.21-2.3,5.58-.15,11.29-.22,17-.22s11.69.08,17.56.23c4.51.12,7.21,2.26,7.41,5.87a5.29,5.29,0,0,1-1.62,4.4,9.44,9.44,0,0,1-6.06,2.14C310.14,40.66,308.07,40.71,305.55,40.71Z"/><path class="cls-1" d="M201.79,388a9.18,9.18,0,1,1-8.47-9.31A9.48,9.48,0,0,1,201.79,388Z"/><path class="cls-1" d="M192.57,396.11l-.58,0a8.58,8.58,0,0,1-7.55-8.3,8.45,8.45,0,0,1,8.21-8.08c.19,0,.39,0,.59,0a8.2,8.2,0,0,1-.67,16.38Z"/><path class="cls-1" d="M192.57,395.1l-.49,0a7.19,7.19,0,0,1,.57-14.36,4.18,4.18,0,0,1,.5,0,7.19,7.19,0,0,1-.58,14.36Z"/><path class="cls-1" d="M192.57,394.1l-.41,0a6.19,6.19,0,0,1,.49-12.36h.42a6.19,6.19,0,0,1-.5,12.37Z"/></g></g></svg>