<svg xmlns="http://www.w3.org/2000/svg" xmlns:xlink="http://www.w3.org/1999/xlink" viewBox="0 0 496 485.91"><defs><style>.cls-1{fill:url(#Degradado_sin_nombre_6);}.cls-2{fill:#fff;}</style><linearGradient id="Degradado_sin_nombre_6" x1="32.26" y1="-43.96" x2="469.47" y2="277.5" gradientUnits="userSpaceOnUse"><stop offset="0" stop-color="#d5b46d"/><stop offset="0" stop-color="#deb457"/><stop offset="0.07" stop-color="#ebd07e"/><stop offset="0.14" stop-color="#f6e9a0"/><stop offset="0.2" stop-color="#fdf8b5"/><stop offset="0.23" stop-color="#fffdbd"/><stop offset="0.41" stop-color="#d6ab47"/><stop offset="0.51" stop-color="#d4a945"/><stop offset="0.54" stop-color="#cea240"/><stop offset="0.56" stop-color="#c29736"/><stop offset="0.58" stop-color="#b28628"/><stop offset="0.59" stop-color="#ae8225"/><stop offset="0.77" stop-color="#cf9e25"/><stop offset="0.92" stop-color="#bd912a"/><stop offset="1" stop-color="#b48a2d"/></linearGradient></defs><g id="Capa_2" data-name="Capa 2"><g id="Capa_1-2" data-name="Capa 1"><circle class="cls-1" cx="224.54" cy="97.41" r="94.31"/><path class="cls-2" d="M346.94,485.91l-1.16,0c-2.84-.1-5.89-.15-9.59-.15-2.43,0-4.86,0-7.3,0s-4.84,0-7.27,0c-2,0-4.08,0-6.13-.06-10.33-.21-14.81-3.89-17.13-14.05-.86-3.76-1.58-7.64-2.28-11.39-.46-2.52-.95-5.12-1.47-7.67-.32-1.56-.76-3.05-1.23-4.62-.21-.7-.42-1.43-.63-2.18l-.43-1.55-1.6.09c-4,.21-7.91.44-11.82.66-9,.53-17.58,1-26.3,1.26-4.26.12-8.83.17-14.41.17-3.73,0-7.5,0-11.33-.05s-8-.05-12.12-.05h-1.6l-1.33,5.93c-.89,3.93-1.81,8-2.68,12.09-.22,1-.34,2-.47,3a27.9,27.9,0,0,1-.44,2.78c-2.61,11.69-7.22,15.48-19,15.63-6.21.07-11.26.11-15.86.11-5.18,0-9.86,0-14.33-.14-10.44-.21-14.93-3.89-17.15-14-2.85-13-5.51-26.77-7.91-41-1.13-6.69-4.22-11.13-10.34-14.84-33.33-20.24-54.88-49-64-85.34a167.19,167.19,0,0,1-5-42.94c0-.54.06-1.13.12-1.75.24-2.57.56-6.08-2.54-9.7l-1.62-1.89L43.27,284C34.43,295.83,24.2,302.58,12,304.68a24.76,24.76,0,0,1-4.24.39,16.68,16.68,0,0,1-2.81-.22A5.53,5.53,0,0,1,0,299.48c0-2.75,1.74-4.83,4.79-5.59a16,16,0,0,1,2.63-.34,20.68,20.68,0,0,0,3.13-.41c10.89-2.52,18.66-7.7,24.44-16.29l1.47-2.19L34,273.84l-3.23-1c-2.08-.66-3.87-1.23-5.61-1.89l-.74-.28a64.78,64.78,0,0,1-7.95-3.43C8,262.63,4.66,257.09,5.88,249.77c1.46-8.71,6.45-14.61,14.85-17.52a14.53,14.53,0,0,1,4.78-.83c3.65,0,7.4,1.4,11.79,4.41a29.36,29.36,0,0,1,11.47,16.08c.72,2.34,1.24,4.8,1.89,7.92.35,1.66.74,3.5,1.22,5.62l3.89,0c.41-1.69.77-3.14,1.1-4.42.59-2.38,1.05-4.25,1.44-6.13,7.89-38.26,28.89-68.43,62.43-89.7,3.91-2.48,6.73-3.68,8.63-3.68,1.09,0,2.29.31,3.69,2.6,1.51,2.48,2,4.79-6.27,10-22.5,14.07-39.07,32.74-49.24,55.49a134.16,134.16,0,0,0-11.5,48.79c-1.21,25.72,1.47,46.11,8.45,64.14,11,28.34,30,50.3,56.63,65.27,7.87,4.43,11.68,9.93,13.12,19,1.65,10.33,3.72,20.74,5.73,30.81.75,3.79,1.51,7.58,2.24,11.37a18.33,18.33,0,0,0,.89,2.89c.2.57.43,1.21.69,2l.45,1.34,1.41,0c5.23.12,10.79.18,17.52.18,5.16,0,10.4,0,15.77-.07l6.93,0,.33-1.59c.52-2.52,1-5,1.56-7.43,1.14-5.39,2.21-10.48,3.16-15.69,2.6-14.35,4.1-16.33,12.33-16.33,2,0,4.43.16,7.92.51,8,.8,16.24,1.21,24.61,1.21a313.09,313.09,0,0,0,43-3.14,29.7,29.7,0,0,1,4.14-.33c6.38,0,9.12,2.77,10.89,11,1.09,5,2,10.21,2.94,15.21.59,3.21,1.17,6.43,1.8,9.63a21.79,21.79,0,0,0,1.07,3.45c.2.54.42,1.1.62,1.71l.46,1.37h41.78l.33-1.6q.9-4.36,1.8-8.68c1.36-6.53,2.77-13.28,4.07-19.9.29-1.48.59-3,.88-4.43,1.29-6.42,2.62-13.05,3.46-19.67s3.86-11,10.06-14.36c19.92-10.71,35.32-23.34,47.07-38.62a138.81,138.81,0,0,0,9.53-13.84c3.35-5.63,8-9.2,14.68-11.25,3.93-1.2,7.88-2.52,11.71-3.79,5.26-1.75,10.69-3.55,16.08-5.08,8.74-2.48,13.21-8.4,13.31-17.59.1-9.35.16-19.37,0-29.35-.18-9-4.5-14.69-12.84-16.89-2.84-.75-5.7-1.74-8.46-2.71-2.36-.82-4.79-1.67-7.24-2.38-8.49-2.46-13.95-7.76-16.69-16.2A115.76,115.76,0,0,0,420.5,212c-.52-.65-1.06-1.24-1.74-2-.36-.4-.77-.84-1.23-1.37l-1.91-2.15-1.36,2.54c-.42.79-.81,1.5-1.18,2.15a35.68,35.68,0,0,0-1.88,3.68c-6.27,14.81-17.65,22-34.78,22H375c-27.84-.67-48.12-16.46-54.24-42.24-2.89-12.17-1.81-24.34.7-38.85l.32-1.84-14.61-3.57-32.69,32.31,3.12,1c1,.32,2,.64,3,1,2.31.71,4.69,1.44,7,2.36s3.82,2.18,4.43,3.64a4.44,4.44,0,0,1-.12,3.49c-1,2.42-2.36,3.45-4.55,3.45a11.12,11.12,0,0,1-3.4-.63c-19.16-6.21-39.15-9.23-61.12-9.23-4.79,0-9.74.15-14.72.45-13.26.79-27.06,3.37-43.43,8.14a19.77,19.77,0,0,1-5.36.92c-2.83,0-4.31-1.07-5-3.55-.59-2.25-.58-4.86,7.06-7.45l5.57-1.86,6.38-2.12-2.78-2.3c-1.42-1.18-2.82-2.3-4.2-3.4-2.84-2.28-5.52-4.43-8-6.77-29.65-27.86-39.25-61.21-28.53-99.11,10.83-38.31,37.29-62.18,76.52-69A107.75,107.75,0,0,1,224.88,0c33.32,0,62.26,16.58,81.5,46.7a37.5,37.5,0,0,1,3.82,7.36,5.23,5.23,0,0,1-2.68,6.64,5.1,5.1,0,0,1-2.26.6A5.19,5.19,0,0,1,301.33,59a29.67,29.67,0,0,1-2.5-3.9c-.48-.83-1-1.68-1.5-2.52-17.79-27.7-42.74-41.75-74.17-41.75q-1.83,0-3.69.06c-44.37,1.53-74.42,35.85-81.17,69-7.87,38.61,12,78.79,47.2,95.54a27.86,27.86,0,0,0,12.27,3,26,26,0,0,0,3.91-.3,144.45,144.45,0,0,1,21.32-1.6A141.54,141.54,0,0,1,243.85,178a31.74,31.74,0,0,0,4.5.34,28.32,28.32,0,0,0,13.58-3.54c26.4-14.08,42.12-35.75,46.73-64.42.2-1.2.37-2.41.53-3.62.33-2.37.64-4.62,1.15-6.84.54-2.38,2-3.5,4.58-3.5l.61,0c2,.13,4.42,1,4.53,4.14a48,48,0,0,1-.78,12.09c-1.25,5.72-2.8,11.34-4.43,17.28-.69,2.49-1.38,5-2.06,7.58l-.43,1.62,1.52.71a28,28,0,0,0,12,3,25.64,25.64,0,0,0,11.25-2.77c16.92-8.15,37.16-17,59-21l.11,0a46.87,46.87,0,0,1,6.36-.86l1.37,0c8.49,0,13.23,3.48,15.87,11.62,3.2,9.91,4.19,20.69,3,33-.66,6.92-1.63,14.24-3,23.05-.88,5.45.25,9.53,3.67,13.22A122.29,122.29,0,0,1,450,244.25c1.88,5.71,5.53,9.11,11.48,10.69,4.41,1.17,8.83,2.73,13.11,4.25l2.47.87c12.73,4.45,18.73,12.66,18.88,25.81.15,12,.15,22.52,0,32.15-.19,12.19-6.29,20.75-17.64,24.78-8.63,3.06-18,6.11-29.55,9.6a18.14,18.14,0,0,0-10.81,8.41c-12.72,20.93-31.07,38.38-54.54,51.84-6.79,3.9-9.95,8.41-10.9,15.58-1.4,10.43-3.51,21-5.56,31.16-.72,3.62-1.45,7.25-2.15,10.88C362.68,480.94,357,485.91,346.94,485.91ZM25.75,242.72a9.6,9.6,0,0,0-1.75.17c-5.84,1.09-6.95,6.39-7.49,8.94l-.23,1.1.82.77c6.81,6.39,9.55,7.53,19.55,8.12l1.68.1.38-1.64c1.21-5.14-1.63-8.92-3.91-11.95C32.84,245.72,30,242.72,25.75,242.72ZM407,129.22c-1.49.12-3,.18-4.38.23a42.32,42.32,0,0,0-8.88.94c-17.73,4.44-34.43,11.24-54,20.08-5,2.24-7.66,5.75-8,10.42-.16,2.51-.43,5.1-.68,7.6-.6,5.85-1.22,11.9-.7,17.85,1.95,22.68,18.82,38.52,42,39.42,1.32.05,2.58.08,3.73.08,15.6,0,21.78-4.64,27.55-20.66,7.07-19.6,9.79-40.84,8.1-63.12a38.48,38.48,0,0,0-1.58-7.47c-.35-1.22-.71-2.49-1-3.84l-.4-1.66Z"/><path class="cls-2" d="M226.3,147.78c-.56,0-1-.42-1.23-1.17-1.35-4.33-4.36-5.07-6.56-5.6a13,13,0,0,1-1.88-.55c-1.45-.62-2.95-1.19-4.41-1.74-4-1.51-7.76-2.95-10.84-5.24-2.31-1.72-3.48-3.33-3.47-4.8s1.37-3.5,4.06-5.63l2.9,1.64c3.89,2.2,7.92,4.47,12,6.59a4.63,4.63,0,0,0,2.19.48,13.56,13.56,0,0,0,1.44-.1c.4,0,.79-.08,1.13-.08h1.47l.44-1.41c.09-.3.2-.58.31-.85a7.46,7.46,0,0,0,.62-2.57c0-6.51,0-12.93,0-19.73V99.76l-1.15-.54-3.69-1.72c-2.66-1.23-5.17-2.39-7.69-3.63-8.48-4.18-12.19-11.12-11.34-21.21.73-8.68,5.23-14.23,14.15-17.46.71-.26,1.5-.44,2.33-.65,3-.73,7.2-1.74,8.45-7.32a2.58,2.58,0,0,1,.93-.18,1.7,1.7,0,0,1,.71.13c1.44,5.77,5.6,6.13,8.64,6.39a14.74,14.74,0,0,1,2.68.39,39,39,0,0,1,7.74,2.93c3.59,2,3.6,3.6,2.32,6.09-1.08,2.12-2.2,2.4-3.16,2.4a7,7,0,0,1-2.48-.55c-2.41-.92-4.9-1.76-7.53-2.64l-3.91-1.33L228.82,60v30l3.65,1.81c1.9.93,3.86,1.9,5.8,2.89,9.59,4.92,14.08,12.82,13.37,23.49-.74,11-6.21,18.18-16.25,21.34l-.12,0c-2.9.91-5.91,1.86-7.22,6.51C227.71,147.23,226.92,147.78,226.3,147.78Zm2-15,2.63-.86c7.91-2.6,11.53-7.23,11.4-14.56-.13-7.6-3.87-12.44-11.43-14.79l-2.6-.8Zm-6.45-71c-7.91,2.72-13.1,6-12.69,13,.38,6.46,4.25,10,12.93,11.78l2.41.5V60.82Z"/><path class="cls-2" d="M395,288.19c-13.83.08-24.6-10-24.58-22.13,0-4.88,2.22-8.09,6-8.77,3.53-.62,6.62,1.86,8.16,6.64a37.67,37.67,0,0,0,.89,3.77,9.35,9.35,0,0,0,8.19,6c3.55.26,7.15-2.55,8.69-6.55.58-1.51.74-3.19,1.37-4.68,1.71-4.06,4.87-5.88,8.3-4.95,3.62,1,5.64,3.84,5.7,8.07.14,10.23-9.15,20.79-19.69,22.35A29.87,29.87,0,0,1,395,288.19Z"/><path class="cls-2" d="M394.88,286.19a23.35,23.35,0,0,1-16.72-6.65,19,19,0,0,1-5.71-13.48c0-2.25.58-6.12,4.38-6.8a4.46,4.46,0,0,1,.72-.06c2.17,0,4.11,2,5.18,5.35a9.11,9.11,0,0,1,.29,1.37,10.74,10.74,0,0,0,.68,2.58,11.41,11.41,0,0,0,9.87,7.22c.21,0,.41,0,.61,0,4.17,0,8.32-3.22,10.09-7.84a19.43,19.43,0,0,0,.72-2.47,14.06,14.06,0,0,1,.63-2.15c1.08-2.56,2.76-4,4.73-4a4.71,4.71,0,0,1,1.21.17c2.75.74,4.17,2.82,4.22,6.16.13,9.24-8.44,18.94-18,20.35a21,21,0,0,1-2.37.18Z"/><path class="cls-2" d="M279.16,31.12s48.51,36.48,23.06,101.63l17.55-22.94S326.09,64.86,301.05,39"/></g></g></svg>