<svg xmlns="http://www.w3.org/2000/svg" viewBox="0 0 499.52 498.35"><defs><style>.cls-1{fill:#fff;}.cls-2{fill:#1d1d1b;}</style></defs><g id="Capa_2" data-name="Capa 2"><g id="Capa_1-2" data-name="Capa 1"><path class="cls-1" d="M499.15,55c-1.38-3.35-6.1-6.58-9.89-7.44-7.42-1.65-15.21-1.61-22.84-2.27l-1.6-2.22c4.09-3.52,8.28-6.93,12.23-10.6,4.11-3.8,9.12-8.23,3.78-13.86-4.78-5.05-8.85-1.83-12.5,1.77-.47.45-.93.92-1.38,1.37-4,4-8,7.89-13,12.89,0-.11,0-.23,0-.34-.7-8.76-.51-15.6-2.07-22C450.74,7.75,448,1.56,444.52.31a7.14,7.14,0,0,0-3.28-.22,19.91,19.91,0,0,0-10,4.77c-2.8,2.63-5.56,5.29-8.31,8a.52.52,0,0,0-.11.1c-11.54,11.27-22.75,22.92-34.35,34.15-.33.3-.63.61-1,.92-6.41,6.18-9.06,13.09-8,21.83.75,6.48.91,13,1.45,21l-.8-.58c-3.24-2.37-5.15-3.76-7-5.18-52.71-39.74-111.9-56.19-177-45.27C108.13,54.6,46.2,104.59,15.47,188Q1.24,226.65.11,263.55c0,.79,0,1.59-.06,2.38l0,2.45q0,2.26,0,4.5l0,2.41c1.18,50.64,20.62,98.47,56.74,142.8,1.11,1.35,2.18,3.19,3.45,4.17a3.44,3.44,0,0,0,1.22.62c3.07.77,7.21,1.23,9.52-.29,1.63-1.07,1.7-5.79,1.09-8.58-.49-2.27-3-4.1-4.68-6.09C27.27,360.11,10.12,304.85,17,243.1,27.09,151.7,90.82,85.15,168.42,61.15l.79-.24c60.38-18.43,129-11.15,187.36,30.14,7.78,5.5,15,11.84,21.15,16.75-11.54,11.56-22.23,22.29-33.23,33.32l-.2-.16c-1.22-1-3.14-2.42-5-4-54.35-44.35-128.35-51.41-189-18a169.9,169.9,0,0,0-73.82,80.78c0,.05,0,.1-.07.15a169.87,169.87,0,0,0-12.86,89.11c9.49,76.31,69.6,135.57,146,146.12l1.17.16c4,.52,8.14.92,12.25,1.17,79.61,4.89,153.18-49.42,172.84-127.68,1.34-5.4,4.57-12.6-3.53-14.9-5.45-1.55-7.57.92-8.78,4.33-.82,2.27-1.25,5-2,7.17-.21.61-.23,1.28-.4,1.91-16.81,64-74.12,109.43-137.43,114.6-.83.06-1.67.13-2.51.18a146.52,146.52,0,0,1-38.66-2.62c-84.34-17.14-139.39-98-123-180.7,8.74-43.93,34.28-79.57,68.68-101.53A153.36,153.36,0,0,1,209,114.65a158.94,158.94,0,0,1,53.81,1.45l1.93.39a147.18,147.18,0,0,1,67.44,33.81q1,.85,1.95,1.74c-11.24,11.22-21.94,21.93-32.75,32.71l-.12-.09c-51.51-41.43-116.38-27.87-150.75,11.69q-2.94,3.38-5.56,6.93l-.75,1c-30.08,41.77-27.07,99,8.54,136.82a108.56,108.56,0,0,0,73.67,34.22l1.77.07,1.41,0a106.24,106.24,0,0,0,68.17-22.79c21.62-17,35.24-39,40-66,5.94-33.56-2.94-63.57-23.08-88.27l8.2-8.47s0,0,.06-.05c8.13-8.39,16.19-16.7,24.79-25.55,6.34,9.43,13.43,18.71,19.21,28.74,12.57,21.79,18.4,45.63,19.38,70.69.21,5.33,1.37,10.39,7.91,9.82l.44-.05c6-.76,6.27-5.94,6.12-11-1.19-38-14-71.69-37.62-101.34-2.14-2.68-4.23-5.4-5.95-7.6,6.1-6.13,12-12,17.87-17.9,5-5.07,10.1-10.14,15.33-15.37,46.12,52.55,65.67,113.15,54.33,181.64-17,102.56-98.07,169.77-188.58,180.2l-1.39.16c-52,5.65-107-7.45-154.71-43.37-1.56-1.17-3.08-3.11-4.75-3.26q-.77-.06-1.56-.06a71.94,71.94,0,0,0-7.52.81l-.6.06a6,6,0,0,1,.06.74c.24,3.31-.09,6.92,1.29,9.66a7.69,7.69,0,0,0,2,2.41A36.19,36.19,0,0,0,92.91,452l1.51,1c41.29,29.72,86.31,45.05,135,45.29a246.41,246.41,0,0,0,35.42-2.4c173.1-24,256.79-229,150.54-368.09-2-2.66-3.94-5.4-6.83-9.39l-.3-.42c8.95.63,16.31,1.93,23.53,1.38a43.72,43.72,0,0,0,9.09-1.56,17.53,17.53,0,0,0,6.86-3.58C464.36,98.79,480.3,82.54,496,66.11,498.49,63.54,500.34,57.87,499.15,55Zm-196,154.2c23.26,21,35,78-1.11,119.43a92.92,92.92,0,0,1-22.94,19.09c-.34.22-.7.42-1.06.62a93,93,0,0,1-107.92-10.87c-38.84-34.38-42.44-93.74-8-132a93.49,93.49,0,0,1,25-19.68c33.27-18.07,75.58-15.12,104.17,10.68l-32.48,32.7-.79-.47c-12.8-7.56-27.35-11.22-41.47-4.75-.22.09-.42.19-.63.29a62.82,62.82,0,0,0-23.91,20.15c-12.5,18.37-7.53,43.62,9.28,58.18a46.64,46.64,0,0,0,33.72,11.19,45.62,45.62,0,0,0,24.75-9.24c19.5-14.88,23.37-38.14,10.87-63.22l32.19-31.77C302.86,209.43,303,209.31,303.1,209.19Zm-64.7,61.28h0a4.36,4.36,0,0,0,.55-.41c6.5-5.53,11.76-12.5,17.76-19.2l.19-.21c9.63,13.6,7.49,29.79-3.71,40.16a5.85,5.85,0,0,1-.47.4c-.22.22-.46.43-.69.63a31.78,31.78,0,0,1-47.39-41.19c7.69-12.24,21.22-17.16,37.51-12.29h0a57.5,57.5,0,0,1,7.72,3c-7.91,7-15,12.22-20.66,18.72-2.44,2.81-1.89,8.21-2.71,12.44C230.48,271.8,235.48,272.36,238.4,270.47ZM402.57,86.25c-.75.81-1.52,1.61-2.29,2.42s-1.55,1.61-2.32,2.4c-.07-.16-.14-.31-.22-.47a45.63,45.63,0,0,1-2.14-6l-.21-.83a38.5,38.5,0,0,1-1-5.76c0-.6-.08-1.19-.1-1.78a31.19,31.19,0,0,1,9.29-23.3c2.67-2.71,5.32-5.43,8-8.17,1.35-1.37,2.69-2.75,4-4.14l4.08-4.19,14.86-15.3,2.26-2.31c.79,3.47,1,4.39,1.2,5.3a44.86,44.86,0,0,1,1.62,14.13c0,.23,0,.46-.06.69,0,.47-.07.93-.13,1.38s-.08.69-.14,1-.11.67-.17,1a26,26,0,0,1-.63,2.78c-.07.25-.14.49-.22.74a31.73,31.73,0,0,1-1.4,3.78c-.13.3-.27.59-.43.89s-.36.77-.57,1.15-.35.66-.54,1-.43.74-.67,1.11a37.06,37.06,0,0,1-2.56,3.6l-.69.83-.74.85-.77.84c-.27.28-.53.56-.81.83s-.54.55-.84.82-.54.52-.82.78l-1,.85c-.3.26-.61.53-.93.79l-.69.57-1.28,1c-.53.4-1.05.82-1.58,1.24-.34.28-.69.56-1,.85-.17.14-.35.28-.5.42l0,0-.87.75c-.37.32-.73.65-1.1,1s-1,.88-1.46,1.34l-1.37,1.3-2,2-1.61,1.64c-1.65,1.71-3.27,3.46-4.9,5.22h0l-.09.09-2.77,3Zm35.22,16.21a0,0,0,0,1,0,0l-.48.37a9,9,0,0,1-1.22.77c-.23.12-.47.23-.7.33a13.52,13.52,0,0,1-2.92.83c-.28,0-.54.09-.81.12l-.14,0a4.93,4.93,0,0,1-.58.06.68.68,0,0,1-.2,0q-.47,0-.93.06h-.19l-.58,0c-6.11.14-13.57-1.49-19.8-1.49-.3-.7-.6-1.41-.93-2.12-.12-.29-.25-.58-.38-.87C415.3,93.42,422.63,86.19,430,79l.29-.3c2.29-2.21,4.58-4.42,6.87-6.6L439,70.38q4.38-4.16,8.78-8.25a5.24,5.24,0,0,1,1-.72l.06,0,.41-.23.44-.2.56-.22a1.61,1.61,0,0,1,.29-.09l.12,0,.22-.07a18.25,18.25,0,0,1,4-.66l.53,0,.54,0a2.91,2.91,0,0,1,.42,0c.4,0,.78,0,1.15,0,6.77.08,13.52,1,21.58,1.62l-.56.58c-1.59,1.63-3.16,3.28-4.71,4.93q-1.5,1.59-3,3.2c-3,3.19-5.92,6.37-8.86,9.51l0,0q-3.59,3.85-7.24,7.57-1.92,2-3.87,3.84t-3.94,3.71c-.44.41-.89.81-1.34,1.21,0,0,0,0,0,0l-1.9,1.66c-.56.49-1.13,1-1.72,1.45-.43.36-.85.72-1.29,1.07l-.87.7c-.65.52-1.29,1-1.94,1.52Z"/><path class="cls-2" d="M430,79c-6.22,6.23-12.53,12.37-18.72,18.63a30.66,30.66,0,0,0-3,3.81c-.12-.29-.25-.58-.38-.87C415.3,93.42,422.63,86.19,430,79Z"/><path class="cls-2" d="M431.65,104.89a17.87,17.87,0,0,0,6.13-2.42l-.48.37a9,9,0,0,1-1.22.77c-.23.12-.47.23-.7.33a13.52,13.52,0,0,1-2.92.83C432.18,104.82,431.92,104.86,431.65,104.89Z"/><path class="cls-2" d="M451.39,90.25,462,79.67q-3.59,3.85-7.24,7.57-1.92,2-3.87,3.84t-3.94,3.71L445.58,96C447.28,94.36,449.17,92.46,451.39,90.25Z"/><path class="cls-2" d="M479.11,61.42l-.56.58c-8.21-.69-14.32-1-20.38-1.81a16.47,16.47,0,0,0-9.35,1.19l.41-.23.44-.2.56-.22a2.46,2.46,0,0,1,.29-.09l.12,0,.22-.07a18.25,18.25,0,0,1,4-.66l.53,0,.54,0a2.91,2.91,0,0,1,.42,0c.39,0,.78,0,1.15,0C464.3,59.88,471.05,60.76,479.11,61.42Z"/><path class="cls-2" d="M397.74,90.6l9.33-9.21-2.77,3-1.73,1.86c-.75.81-1.52,1.61-2.29,2.42s-1.55,1.61-2.32,2.4C397.89,90.91,397.82,90.76,397.74,90.6Z"/><path class="cls-2" d="M420.53,68q7.13-7.11,14.18-14.28a37.06,37.06,0,0,1-2.56,3.6l-.69.83-.74.85-.77.84c-.53.55-1.07,1.11-1.65,1.65-.26.26-.54.52-.82.78l-1,.85c-.3.26-.61.53-.93.79l-.69.57-1.28,1c-.53.4-1.05.82-1.58,1.24-.34.28-.69.56-1,.85C420.86,67.75,420.68,67.89,420.53,68Z"/><path class="cls-2" d="M439.67,38.2c0,.23,0,.46-.06.69,0,.47-.07.93-.13,1.38s-.08.69-.14,1-.11.67-.17,1a26,26,0,0,1-.63,2.78c-.21-7.81-1-15.6-1.55-23.4l-2.4-.62,2.26-2.31c.79,3.47,1,4.39,1.2,5.3A44.86,44.86,0,0,1,439.67,38.2Z"/><path class="cls-2" d="M234.92,313.77a46.08,46.08,0,0,1-42.38-71.54c6.3-9.42,14.39-15.53,23.92-18.27-.22.09-.42.19-.63.29a62.82,62.82,0,0,0-23.91,20.15c-12.5,18.37-7.53,43.62,9.28,58.18A46.64,46.64,0,0,0,234.92,313.77Z"/><path class="cls-2" d="M291.2,196.48l-32.48,32.7-.79-.47,32.12-32.17C263.2,171.16,220.59,168,187,185.8,220.3,167.73,262.61,170.68,291.2,196.48Z"/><path class="cls-2" d="M302,328.62a92.92,92.92,0,0,1-22.94,19.09,93.89,93.89,0,0,0,18.79-15C330.51,299.14,333,242,302.73,209.54c.13-.11.25-.23.37-.35C326.36,230.18,338.15,287.19,302,328.62Z"/><path class="cls-1" d="M497.46,55.14c-1.24-3.18-6.42-5.9-10.32-6.74-7.29-1.59-14.91-1.67-22.38-2.38l-.9-2.21c4.55-4.13,9.12-8.23,13.61-12.41,3.62-3.36,6.25-7.44,2.24-11.77s-7.88-2.47-11.38.74c-.36.33-.72.67-1.09,1-4.11,4.11-8.35,8.11-13.34,12.89l-1.2,1.16c-.75-8.61-1.49-15.33-1.87-22.08C450.53,7.88,449.51,3,443.7.75a11.15,11.15,0,0,0-2.46-.66c-4.6-.66-7.91,2.31-11.15,5.57q-3.57,3.57-7.12,7.17a.52.52,0,0,0-.11.1c-11.37,11.46-22.69,23-34.35,34.15-.33.3-.63.61-1,.92l-.25.23c-7,6.68-9.73,14.1-8.45,23.54.8,5.94.89,12,1.32,18.53,0,.19,0,.39.05.59a20.85,20.85,0,0,1-3.32-1.25c-2.1-1.54-4.1-3.18-6.18-4.73-54.11-40.32-114.9-56-180.92-43.26C104.2,58.15,44,108.27,14.61,190.52q-13.33,37.39-14.5,73c0,.79,0,1.59-.06,2.38l0,2.45q0,2.26,0,4.5l0,2.41c1.07,50.54,20.3,98.16,56.09,142.33,1.28,1.6,2.51,3.83,4.1,4.64a4,4,0,0,0,.5.2c3,.9,7.65,1.78,9.42.22s1.51-6.35.69-9.31c-.73-2.56-3.55-4.51-5.4-6.77-42.68-52.38-59-112.21-46.65-178.43a214.83,214.83,0,0,1,149.62-167l.79-.24a217.58,217.58,0,0,1,121.58-.56,207.86,207.86,0,0,1,86,48.12L344.29,141l-.87.86c-.58-.45-2.14-1.57-3.62-2.79-38.94-32-83.27-44.79-133.32-38.16-58.52,7.75-106.9,47.34-130,98.92,0,.05,0,.1-.07.15a164.11,164.11,0,0,0-13,89.85c10.82,77.32,70.48,135.63,146.22,145.38l1.17.16c5,.6,10.09,1,15.23,1.18,79,2.73,150.8-51.88,169-128.45.52-2.2,1.53-4.76.88-6.65-.93-2.69-3.19-6.9-4.91-6.91-2.44,0-5.49,1.71-7.4,3.75a8.65,8.65,0,0,0-.76.9c-1.79,2.39-1.75,6.13-2.59,9.26-17.12,63.75-73.4,108.16-136.49,113.52-.83.06-1.67.13-2.51.18A151.22,151.22,0,0,1,198.53,419c-80-17.46-132.41-91.89-120.3-173.18,7.19-48.4,31-85.09,70-108.54a176.52,176.52,0,0,1,26.88-13.15A167.4,167.4,0,0,1,209,114.65a140,140,0,0,1,55.74,1.84c22.21,5.28,43.62,16,64.1,31.83a18.66,18.66,0,0,0,3.34,2c1,.48,1.89.87,2.51,1.19l-.56.55c-12.13,12.05-22.49,22.33-32.87,32.62l-.79.8C250.39,145,186.21,156.67,151.1,195.85c-2.17,2.41-4.19,4.89-6.11,7.43l-.75,1a107.55,107.55,0,0,0,82.21,171l1.77.07,1.41,0a106.24,106.24,0,0,0,63.42-19.91c22.24-15.92,36.71-37.28,42.63-64.11,7.78-35.23-1.17-66.54-21.82-92.4q4.59-4.62,9.06-9.09s0,0,.06-.05l23.92-24A148.78,148.78,0,0,1,382.07,236c2,9.81,2.63,19.91,3.61,29.9.46,4.45,2.17,7.89,6.8,7.93a8.59,8.59,0,0,0,2.23-.26c3.52-.88,5-4,4.93-8.2-.05-2.27,0-4.55-.11-6.82q-3.45-54-37.19-96.41c-2.17-2.71-4.27-5.46-6.08-7.79,6.41-6.34,12.63-12.48,18.87-18.63l14.7-14.53c1.39,1.6,3.28,3.75,5.12,5.95,42.47,51,59.43,109.74,49.07,175.09-16.09,101.45-97.42,168.89-187.81,180l-1.39.16c-52,6-107-6.62-154.15-42.22-2.07-1.56-4-3.9-6.33-4.37l-.54-.1c-2.51-.39-6.23-.27-7.52.81a1.28,1.28,0,0,0-.35.39c-.07.13-.13.27-.19.41-1.08,2.47-.51,6.22.37,9.07.36,1.18,1.6,2.12,2.92,3,.71.49,1.45.95,2.08,1.42s1.19.88,1.8,1.31c42,30.52,87.57,46.49,136.49,46.31a237.07,237.07,0,0,0,47.39-5c168-34.7,240.12-230.73,135.69-366.94-1.65-2.16-3.06-4.53-5.39-8l1.44.11c8.46.7,15.55,1.9,22.49,1.37a38.12,38.12,0,0,0,9.83-2,17.55,17.55,0,0,0,6-3.43C463.23,99.19,479,83.23,494.39,67,497,64.3,498.68,58.31,497.46,55.14ZM395.72,60.36c12.88-13.17,25.89-26.21,38.87-39.28l2.4.62c.56,7.8,1.34,15.59,1.55,23.4,0,.2,0,.41,0,.61a10.3,10.3,0,0,1-2.63,6.8l-1.21,1.24Q427.66,60.94,420.53,68l0,0c-4.41,4.42-8.87,8.83-13.31,13.22h0l-.09.09-9.33,9.21-.35.36c-.34.33-1.18.14-3,.29-.37-8.62-.88-17.22-1-25.82A8.09,8.09,0,0,1,395.72,60.36ZM209.13,291.21a32,32,0,0,1-4.4-41.66c6.94-10.19,22.78-17.34,37.44-11.2h0a30.15,30.15,0,0,1,4.88,2.58c-3.57,3.8-7,7.49-10.45,11.11-2.7,2.81-5.44,5.58-8.25,8.26-3.89,3.73-6.58,8.11-1.95,12.5,4.12,3.92,8.4,1.59,11.81-2.12l.19-.21h0c5.81-6.36,11.65-12.73,18.15-19.85l.16.24c10.59,14.6,4.93,31.9-4,40.35-.22.22-.46.43-.69.63s-.69.6-1,.87A32.06,32.06,0,0,1,209.13,291.21ZM278,348.33A93.05,93.05,0,0,1,165.8,334.61C129.39,299.13,128.13,240.69,163,204a93.19,93.19,0,0,1,24-18.18c33.56-17.77,76.17-14.64,103,10.74l-32.12,32.17-.52.53c-15.31-6.93-29.21-8.67-41-5.28-9.53,2.74-17.62,8.85-23.92,18.27a46.08,46.08,0,0,0,42.38,71.54,45.66,45.66,0,0,0,22.88-8.39c20.08-14.41,24.3-37.91,11-65.2,5.13-5.16,10.59-10.56,15.94-16.08s10.61-11.16,15.88-16.73c.71.71,1.42,1.43,2.08,2.17,30.26,32.48,27.78,89.6-4.89,123.21a93.89,93.89,0,0,1-18.79,15C278.71,347.92,278.36,348.13,278,348.33ZM462,79.64l0,0L451.39,90.25c-2.22,2.21-4.11,4.11-5.81,5.75,0,0,0,0,0,0a48.27,48.27,0,0,1-7.72,6.4l0,0a0,0,0,0,1,0,0,17.87,17.87,0,0,1-6.13,2.42l-.14,0c-4.29.8-9.73.43-18.8-.2-1.6-.11-3.16-.4-6.16-.79.67-.88,1.24-1.7,1.75-2.45a30.66,30.66,0,0,1,3-3.81C417.48,91.4,423.79,85.26,430,79l.29-.3c4.23-4.21,8.41-8.47,12.49-12.82a19.06,19.06,0,0,1,6-4.5l.06,0a16.47,16.47,0,0,1,9.35-1.19c6.06.8,12.17,1.12,20.38,1.81l1,.08Z"/><path class="cls-2" d="M478.55,62c-1.59,1.63-3.16,3.28-4.71,4.93q-1.51,1.59-3,3.2c-3,3.19-5.92,6.37-8.86,9.51l0,0L451.39,90.25c-2.22,2.21-4.11,4.11-5.81,5.75,0,0,0,0,0,0l-1.9,1.66c-.57.49-1.15,1-1.72,1.45s-.85.72-1.29,1.07l-.87.7c-.65.52-1.29,1-1.94,1.52l0,0a0,0,0,0,1,0,0,17.87,17.87,0,0,1-6.13,2.42l-.14,0a5.42,5.42,0,0,1-.58.06.68.68,0,0,1-.2,0q-.47,0-.93.06h-.19l-.58,0c-6.11.14-13.57-1.49-19.8-1.49-.3-.7-.6-1.41-.93-2.12a30.66,30.66,0,0,1,3-3.81C417.48,91.4,423.79,85.26,430,79l.29-.3c2.29-2.21,4.58-4.42,6.87-6.6L439,70.38q4.38-4.16,8.78-8.25a5.24,5.24,0,0,1,1-.72l.06,0a16.47,16.47,0,0,1,9.35-1.19C464.23,61,470.34,61.31,478.55,62Z"/><path class="cls-2" d="M438.54,45.1c-.07.25-.14.49-.22.74a31.73,31.73,0,0,1-1.4,3.78c-.13.3-.27.59-.43.89s-.36.77-.57,1.15-.35.66-.54,1-.43.74-.67,1.11Q427.66,60.94,420.53,68l0,0-.87.75c-.37.32-.73.65-1.1,1s-1,.88-1.46,1.34l-1.37,1.3-2,2-1.61,1.64c-1.65,1.71-3.27,3.46-4.9,5.22h0l-.09.09-9.33,9.21a45.63,45.63,0,0,1-2.14-6l-.21-.83a38.5,38.5,0,0,1-1-5.76c0-.6-.07-1.19-.1-1.78a31.19,31.19,0,0,1,9.29-23.3c2.67-2.71,5.32-5.43,8-8.17,1.35-1.37,2.69-2.75,4-4.14l4.08-4.19,14.86-15.3,2.4.62C437.55,29.5,438.33,37.29,438.54,45.1Z"/><path class="cls-2" d="M297.84,332.75a93.89,93.89,0,0,1-18.79,15c-.34.21-.69.42-1.06.62a93,93,0,0,1-107.92-10.87c-38.84-34.38-42.44-93.74-8-132a93.49,93.49,0,0,1,25-19.68c33.56-17.77,76.17-14.64,103,10.74l-32.12,32.17c-12.8-7.56-27.35-11.22-41.47-4.75-9.53,2.74-17.62,8.85-23.92,18.27a46.08,46.08,0,0,0,42.38,71.54,45.62,45.62,0,0,0,24.75-9.24c19.5-14.88,23.37-38.14,10.87-63.22l32.19-31.77C333,242,330.51,299.14,297.84,332.75Z"/></g></g></svg>