<svg xmlns="http://www.w3.org/2000/svg" xmlns:xlink="http://www.w3.org/1999/xlink" viewBox="0 0 248.52 500"><defs><style>.cls-1{fill:url(#Degradado_sin_nombre_6);}</style><linearGradient id="Degradado_sin_nombre_6" x1="-77.79" y1="62.15" x2="492.87" y2="193.41" gradientUnits="userSpaceOnUse"><stop offset="0" stop-color="#d5b46d"/><stop offset="0" stop-color="#deb457"/><stop offset="0.07" stop-color="#ebd07e"/><stop offset="0.14" stop-color="#f6e9a0"/><stop offset="0.2" stop-color="#fdf8b5"/><stop offset="0.23" stop-color="#fffdbd"/><stop offset="0.41" stop-color="#d6ab47"/><stop offset="0.51" stop-color="#d4a945"/><stop offset="0.54" stop-color="#cea240"/><stop offset="0.56" stop-color="#c29736"/><stop offset="0.58" stop-color="#b28628"/><stop offset="0.59" stop-color="#ae8225"/><stop offset="0.77" stop-color="#cf9e25"/><stop offset="0.92" stop-color="#bd912a"/><stop offset="1" stop-color="#b48a2d"/></linearGradient></defs><g id="Capa_2" data-name="Capa 2"><g id="Capa_1-2" data-name="Capa 1"><path d="M242,353.13a45.66,45.66,0,0,0-8-.3H133.08c-2.66-10.18-.71-16.85,8.14-21.18,5.06-2.47,9.26-6.65,14.16-9.54,6.46-3.81,9.13-8.83,8.78-16.53A57.61,57.61,0,0,1,176,266.94c12.9-16.88,37.67-25.12,56.37-18.78,1.45,27-15.53,50.2-41.49,56.61-2.6.64-5.27,1-7.86,1.68-4.53,1.16-7,4.06-6.25,8.81.69,4.34,3.85,6.14,8,6a41.28,41.28,0,0,0,8-1c39.19-8.78,57-43.16,55.7-78.05-.21-5.5-3.2-8.69-8.56-9.52-5-.77-10-1.55-15-1.92-32.35-2.44-61.92,16.64-71.92,47-2.58,7.85-3,16.41-4.62,24.61-.48,2.46-.84,5.59-2.48,7.06-3.76,3.37-8.27,5.91-13.39,9.41v-102c30.18-3.32,55.55-15.7,74.88-39C227,154.35,235.47,127.08,232,96.52,225.45,38.49,175.83.19,124.65,0,73.32-.19,23.58,37.84,16.46,95.63A104.15,104.15,0,0,0,32.75,166.7c19.41,30.05,47.7,46.16,83.13,50.28V299.9c-13.1-6.17-13.1-6.17-14.67-18.83-.12-1-.35-2-.46-3C96.28,234.56,57.8,205.88,10.4,216c-6.52,1.39-8.87,3.64-8.75,10.23.15,8,.34,16.23,2.19,24,6.78,28.23,24.13,46.51,52.77,53.3a35.48,35.48,0,0,0,9,1c3.84-.09,6.16-2.43,6.62-6.27s-.87-6.71-4.63-7.91c-2.86-.92-5.87-1.38-8.8-2.07-25.51-6-43.3-30.95-40.69-56.93,26-6.53,54.07,6.64,63.43,32.78a82.69,82.69,0,0,1,4.29,25.55c.18,7.29,2.45,12,8.54,15.63a196.62,196.62,0,0,1,17.35,12.05c2,1.49,4.34,3.92,4.45,6,.47,9.59.21,19.21.21,29.56H104.25c-31.21,0-62.42-.05-93.64.05-7.07,0-10.79,3.06-10.6,7.93.18,4.54,3.63,7.3,10.11,7.58,5.32.23,10.66,0,16.89,0,1,5.85,1.85,10.43,2.56,15,4.71,30.48,9.25,61,14.14,91.44,2.39,14.95,13.42,24.79,28.38,24.9q52.35.42,104.71,0c14.44-.13,25.61-9.93,27.93-24.24,4.42-27.13,8.43-54.33,12.45-81.52,1.22-8.24-.72-12.11-5.7-12.88-4.79-.74-7.9,2.58-9.19,10.68q-5.94,37.24-11.54,74.55c-2.24,15.06-5.5,18.15-21,18.17q-45.81.07-91.62,0c-14.77,0-18.2-3.27-20.33-17.74-3-20.24-6.23-40.43-9.29-60.65C46.71,394,45,381.86,43.06,368.44H55.12q88.6,0,177.22,0c3.34,0,7.08.59,9.91-.7,2.6-1.17,5.42-4.25,6-6.94C249.07,356.81,246.09,353.86,242,353.13ZM31.27,108.69a93,93,0,1,1,92.56,93A92.7,92.7,0,0,1,31.27,108.69Z"/><path d="M136.52,155.93c-1.16.65-2.35,1.25-3.9,2.08-1,5.09-.35,11.92-8.39,12.34-4.85.26-6.83-2.74-8.23-11.59-4.09-2.84-8.47-5.32-12.15-8.59a25,25,0,0,1-8.36-18.73c-.1-4.46,1.24-8.1,6.29-8.7,4.68-.55,7.66,1.59,8.55,6.4a28.39,28.39,0,0,0,1.49,5.8,13.33,13.33,0,0,0,15.5,8.12,14.21,14.21,0,0,0,10.56-13.15,13.6,13.6,0,0,0-10.59-13c-2.27-.56-4.64-.66-7-1.08-13.21-2.4-22.51-11.25-24.47-23.24C93.68,79.27,99,68.46,111.11,61.55c1.43-.82,3-1.46,4.51-2.23,1.44-5.29.55-12.6,8.68-12.52s7.17,7.35,8.56,12.66c8.2,3.29,14.79,8.3,17.89,16.65a38.53,38.53,0,0,1,2.09,10.72c.29,4.2-2,7.16-6.23,7.8s-7-1.61-8.26-5.64c-.58-1.91-.7-4-1.37-5.85-2.44-6.77-8.16-10.26-14.81-9.2a13.82,13.82,0,0,0-11.58,12.2c-.58,6.18,4,12.48,10.4,14.26a33.91,33.91,0,0,0,5,.59c13.72,1.69,24,10.36,26.47,22.39C155.28,137.15,149.67,148.62,136.52,155.93Z"/><path class="cls-1" d="M124.59,15.52a93.08,93.08,0,1,0,92.58,92.93A92.7,92.7,0,0,0,124.59,15.52Zm11.93,140.41c-1.16.65-2.35,1.25-3.9,2.08-1,5.09-.35,11.92-8.39,12.34-4.85.26-6.83-2.74-8.23-11.59-4.09-2.84-8.47-5.32-12.15-8.59a25,25,0,0,1-8.36-18.73c-.1-4.46,1.24-8.1,6.29-8.7,4.68-.55,7.66,1.59,8.55,6.4a28.39,28.39,0,0,0,1.49,5.8,13.33,13.33,0,0,0,15.5,8.12,14.21,14.21,0,0,0,10.56-13.15,13.6,13.6,0,0,0-10.59-13c-2.27-.56-4.64-.66-7-1.08-13.21-2.4-22.51-11.25-24.47-23.24C93.68,79.27,99,68.46,111.11,61.55c1.43-.82,3-1.46,4.51-2.23,1.44-5.29.55-12.6,8.68-12.52s7.17,7.35,8.56,12.66c8.2,3.29,14.79,8.3,17.89,16.65a38.53,38.53,0,0,1,2.09,10.72c.29,4.2-2,7.16-6.23,7.8s-7-1.61-8.26-5.64c-.58-1.91-.7-4-1.37-5.85-2.44-6.77-8.16-10.26-14.81-9.2a13.82,13.82,0,0,0-11.58,12.2c-.58,6.18,4,12.48,10.4,14.26a33.91,33.91,0,0,0,5,.59c13.72,1.69,24,10.36,26.47,22.39C155.28,137.15,149.67,148.62,136.52,155.93Z"/></g></g></svg>