<svg xmlns="http://www.w3.org/2000/svg" xmlns:xlink="http://www.w3.org/1999/xlink" viewBox="0 0 492.43 500"><defs><style>.cls-1{fill:#fff;}.cls-2{fill:url(#Degradado_sin_nombre_6);}.cls-3{fill:url(#Degradado_sin_nombre_6-2);}.cls-4{fill:url(#Degradado_sin_nombre_6-3);}</style><linearGradient id="Degradado_sin_nombre_6" x1="4.59" y1="377.59" x2="836.64" y2="377.59" gradientUnits="userSpaceOnUse"><stop offset="0" stop-color="#d5b46d"/><stop offset="0" stop-color="#deb457"/><stop offset="0.07" stop-color="#ebd07e"/><stop offset="0.14" stop-color="#f6e9a0"/><stop offset="0.2" stop-color="#fdf8b5"/><stop offset="0.23" stop-color="#fffdbd"/><stop offset="0.41" stop-color="#d6ab47"/><stop offset="0.51" stop-color="#d4a945"/><stop offset="0.54" stop-color="#cea240"/><stop offset="0.56" stop-color="#c29736"/><stop offset="0.58" stop-color="#b28628"/><stop offset="0.59" stop-color="#ae8225"/><stop offset="0.77" stop-color="#cf9e25"/><stop offset="0.92" stop-color="#bd912a"/><stop offset="1" stop-color="#b48a2d"/></linearGradient><linearGradient id="Degradado_sin_nombre_6-2" x1="262.1" y1="407.76" x2="497.52" y2="407.76" xlink:href="#Degradado_sin_nombre_6"/><linearGradient id="Degradado_sin_nombre_6-3" x1="200.59" y1="377.59" x2="581.25" y2="377.59" xlink:href="#Degradado_sin_nombre_6"/></defs><g id="Capa_2" data-name="Capa 2"><g id="Capa_1-2" data-name="Capa 1"><path class="cls-1" d="M484.79,335.22c-11.37-30.7-31.75-53.34-60.59-67.3C406.5,259.35,388.38,255,370.37,255c-21.61,0-43.83,6.25-66.06,18.59a2,2,0,0,1-3-1.77V222.87q0-52.81,0-105.65c0-9.86-.78-10.66-10.4-10.68q-16.61-.06-33.19-.05-16.37,0-32.72.05c-9.23,0-10.18,1-10.18,9.95,0,94.14,0,191.78,0,290.22,0,8.62,1.35,9.94,10.26,10.08,3,0,6.29.07,10.25.07l8.13,0,8.46,0a2,2,0,0,1,1.88,1.27C274,468.61,318.64,500,370.39,500a120.67,120.67,0,0,0,48.24-9.95A122.46,122.46,0,0,0,484.79,335.22ZM249.6,399.44a8,8,0,0,1-.11,2.54c-.05.36-.11.74-.15,1.18a2,2,0,0,1-2,1.83H229.89a2,2,0,0,1-1.32-.49c-.08-.06-.15-.13-.23-.18a5.75,5.75,0,0,1-.82-.78,3.48,3.48,0,0,1-.88-2l-.12-2.08c-.12-2.23-.26-4.54-.26-6.83,0-78.45,0-156.89,0-236V120.38a2,2,0,0,1,2-2h58.65a2,2,0,0,1,2,1.73c.09.67.21,1.33.34,2a26.37,26.37,0,0,1,.57,4.76q0,29.22,0,58.44c0,30.14,0,61.31.08,92a16.37,16.37,0,0,1-5.09,12.68C254.8,319.89,242.94,356.74,249.6,399.44ZM481,378.37c.21,28.77-11.15,56.17-32,77.15a111,111,0,0,1-79.2,33.25h-1.08c-52.59-.51-109.5-43.09-109.75-111A110.25,110.25,0,0,1,369.6,266.42h.74c30.52.19,58.74,12.1,79.47,33.52C470.36,321.19,481.72,349.8,481,378.37Z"/><path class="cls-2" d="M449.81,300c-20.73-21.42-48.95-33.33-79.47-33.52h-.74A110.25,110.25,0,0,0,258.94,377.77c.25,67.9,57.16,110.48,109.75,111h1.08A111,111,0,0,0,449,455.52c20.84-21,32.2-48.38,32-77.15C481.72,349.8,470.36,321.19,449.81,300ZM424,409.49c-.75,16.59-9.84,31.06-24.94,39.69-1.86,1.07-3.84,2.06-5.76,3l-2.88,1.45a2,2,0,0,0-1,1.29c-3.75,14.39-9.43,20.53-19,20.53h-.82c-9.67-.34-15.4-6.58-18.57-20.26a2,2,0,0,0-1.06-1.34l-2.53-1.25c-1.92-.94-3.9-1.91-5.81-3C329.7,443,321.76,433.49,318,421.41c-2.15-6.94-1.83-13.05.93-17.68s8.08-7.91,15.33-9.36c.8-.16,1.6-.3,2.52-.47l1.54-.27a2,2,0,0,0,.81-3.63c-16.18-11.58-24.68-29.13-22.73-46.93,2-18.41,14.39-33.76,33.95-42.1a2,2,0,0,0,1.21-1.65c.67-6.27,2.05-12.52,7.59-15.77a25.74,25.74,0,0,1,11.79-3.7h.48c9.14,0,15,6.52,17.44,19.38a2,2,0,0,0,1,1.41l2.38,1.26c1.84,1,3.81,2,5.76,3.08,11.71,6.36,19.43,15.23,23.58,27.11,2.8,8,2.46,14.85-1,19.85s-9.71,7.78-18.16,8a14.26,14.26,0,0,0-2.25.28c-.81-.65-1.63-1.28-2.44-1.92-4.06-3.13-7.89-6.09-9.71-11.16a19.28,19.28,0,0,0-18.31-12.91,19.93,19.93,0,0,0-11.84,3.92c-4.5,3.3-6.19,7.41-5.05,12.22,1.25,5.25,5,8.28,10.39,8.32,12.6.09,24.94,2.8,35.53,5.34l.82.82a23.89,23.89,0,0,0,3.07,2.73C416.77,377.46,424.73,393.12,424,409.49Z"/><path class="cls-1" d="M24.81,186.2c-3.95,0-6.2-1.63-6.7-4.74-.33-2.1-.09-4.75,4.84-6.65,2.59-1,5.28-2.18,8.24-3.59C66,154.66,86.9,125.87,95,83.2a2,2,0,0,0-.47-1.72A2,2,0,0,0,93,80.8h-.15l-7.16.52c-5,.36-9.52.68-14,1-.83.06-1.5.09-2.12.09-3.24,0-5-.89-6.13-3.08-1.34-2.65-.77-5,2.11-8.64q10.2-13,20.36-26C96.15,31.72,106.73,18.22,117.22,5c2.71-3.42,4.76-5,6.44-5s3.91,1.64,6.89,5.15c12.27,14.44,24.7,29.16,36.72,43.4l14.89,17.64c.18.22.35.43.54.63,2.62,2.8,3.33,5.18,2.32,7.72s-3.16,3.67-8,3.72q-3.47,0-6.93,0H151a2,2,0,0,0-1.95,1.48L148,83.61c-.75,2.66-1.47,5.19-2.16,7.72-6.07,22.1-14.87,39.86-26.88,54.28-19.06,22.9-44.23,36.26-74.8,39.7a158.73,158.73,0,0,1-17.72.89ZM97,69.42c4.94,0,7.41.51,8.54,1.76,1.46,1.63,1.39,5.46.81,11.13,0,.25,0,.5-.07.76a9.32,9.32,0,0,1-.1,1.05C101.83,109,93.14,129.48,79.65,146.7c-3.46,4.42-7.37,8.57-11.52,13-2,2.11-4,4.29-6.13,6.59a2,2,0,0,0,1.49,3.38,1.79,1.79,0,0,0,.51-.07c.9-.23,1.69-.42,2.43-.59a28.31,28.31,0,0,0,4-1.13c21.79-8.59,39-24,51.18-45.8C129,108.83,134.16,94,138,75.36c1.56-7.69,2.11-8.15,9.73-8.3,1.78,0,3.56,0,5.38,0h4.45l5,0a2,2,0,0,0,1.65-3.18c-11-15.71-34.38-42.47-40.39-46.18a2,2,0,0,0-2.65.47q-2.76,3.51-5.54,7c-4.18,5.27-8.49,10.72-12.63,16.18-1.87,2.47-3.79,4.85-5.82,7.37a174.1,174.1,0,0,0-13,17.67,2.06,2.06,0,0,0,0,2,2,2,0,0,0,1.77,1H91.7c.93,0,1.78,0,2.62,0S96.19,69.42,97,69.42Z"/><path class="cls-1" d="M115.24,416.84c-.89,0-1.56,0-2.17-.09-5.59-.58-6.89-1.88-7.31-7.36-.12-1.55-.1-3.11-.08-4.76,0-.66,0-1.32,0-2v-187c0-12.76,0-12.76,13.23-12.77h30q11.07,0,22.14,0c9.34,0,10.1.79,10.12,10,.05,23.33,0,47.05,0,70v54.54q0,33.68,0,67.35c0,11.18-.81,12-12.27,12q-10.19,0-20.37,0H115.24ZM140.8,214.38c-8,0-15.1,0-21.71.07a2,2,0,0,0-2,2V402.8a2,2,0,0,0,2,2H167a2,2,0,0,0,2-1.79c1.94-17.23,1.1-179.88-1-187.14a2,2,0,0,0-1.94-1.46h-1Q153,214.39,140.8,214.38Z"/><path class="cls-1" d="M33.85,416.9c-8.45,0-16.81,0-24.86-.15-7.64-.09-8.9-1.39-8.94-9.25C0,393.35,0,379,0,365q0-8.75,0-17.49Q0,339.29,0,331c0-13.28,0-27,0-40.5,0-9.77.81-10.56,10.5-10.61q12.5-.06,25-.07c8.34,0,15.91,0,23.14.09,8.15.07,9.7,1.61,9.72,9.7.12,40.57.11,80.25,0,117.94,0,7.46-1.68,9.09-9.32,9.17C50.47,416.85,42,416.9,33.85,416.9ZM23,291.22a29,29,0,0,0-10,1.46,2,2,0,0,0-1.35,1.9V403.44a2,2,0,0,0,2,2H26.55l7.62,0c4.71,0,9.42-.12,14.08-.19l6-.1a2,2,0,0,0,2-1.79c2-17.4,1.24-103.13-.92-110.53a2,2,0,0,0-1.94-1.45l-5.86,0c-2,0-4,0-6,0-3,0-5.43,0-7.72.13q-.82,0-1.65,0c-1.48,0-3-.07-4.5-.13S24.56,291.22,23,291.22Z"/><path class="cls-1" d="M402.69,367.61a23.89,23.89,0,0,1-3.07-2.73l-.82-.82c-10.59-2.54-22.93-5.25-35.53-5.34-5.35,0-9.14-3.07-10.39-8.32-1.14-4.81.55-8.92,5.05-12.22a19.93,19.93,0,0,1,11.84-3.92,19.28,19.28,0,0,1,18.31,12.91c1.82,5.07,5.65,8,9.71,11.16.81.64,1.63,1.27,2.44,1.92a14.26,14.26,0,0,1,2.25-.28c8.45-.25,14.73-3,18.16-8s3.78-11.87,1-19.85C417.47,320.21,409.75,311.34,398,305c-2-1.06-3.92-2.11-5.76-3.08l-2.38-1.26a2,2,0,0,1-1-1.41c-2.43-12.86-8.3-19.38-17.44-19.38H371a25.74,25.74,0,0,0-11.79,3.7c-5.54,3.25-6.92,9.5-7.59,15.77a2,2,0,0,1-1.21,1.65c-19.56,8.34-31.94,23.69-33.95,42.1-2,17.8,6.55,35.35,22.73,46.93a2,2,0,0,1-.81,3.63l-1.54.27c-.92.17-1.72.31-2.52.47-7.25,1.45-12.55,4.68-15.33,9.36s-3.08,10.74-.93,17.68c3.75,12.08,11.69,21.58,23.6,28.22,1.91,1.06,3.89,2,5.81,3l2.53,1.25a2,2,0,0,1,1.06,1.34c3.17,13.68,8.9,19.92,18.57,20.26h.82c9.55,0,15.23-6.14,19-20.53a2,2,0,0,1,1-1.29l2.88-1.45c1.92-.95,3.9-1.94,5.76-3,15.1-8.63,24.19-23.1,24.94-39.69C424.73,393.12,416.77,377.46,402.69,367.61Zm-12.86,73.76a38.79,38.79,0,0,1-6.77,2.51c-4.12,1-6,3.51-6.13,8.07,0,.48,0,1,0,1.49a10.28,10.28,0,0,1-.73,5.19c-1,2-3.35,4.42-6,5a3.2,3.2,0,0,1-.63.07c-2.42,0-4.88-3.13-5.63-4.33a9.76,9.76,0,0,1-1-6c.53-5.71-1.75-8.61-8.11-10.34a36.08,36.08,0,0,1-20.18-13.93,59.14,59.14,0,0,1-5.93-11.66c-1.16-2.8-1.29-5.35-.38-7.35a6.72,6.72,0,0,1,4.18-3.58,7.69,7.69,0,0,1,2.5-.45c4.84,0,6.27,5.15,6.81,7.09a24.58,24.58,0,0,0,11.22,14.55,33.22,33.22,0,0,0,17,4.62,34.38,34.38,0,0,0,14.4-3.12c9.56-4.44,15.6-13.85,14.69-22.88-1.12-11.06-8.13-18.33-19.76-20.46a91.88,91.88,0,0,0-13.41-1.09l-1.91-.07c-19.71-.7-33.28-12.58-36.3-31.77-1.91-12.19,2.05-22.87,11.79-31.74,3.25-3,7.14-6.14,11.44-7.33,9.87-2.72,13.39-7.09,12.53-15.56-.27-2.7,3.32-6,5.63-6.61a6.26,6.26,0,0,1,1.59-.21,5.59,5.59,0,0,1,4.21,1.87,6.67,6.67,0,0,1,1.61,5.13c-.82,8.13,2.41,12.19,11.91,15,8.39,2.45,15.33,8.44,20.07,17.33a33.9,33.9,0,0,1,2.94,7.78c1.28,5.26-.14,8.53-4.22,9.72a7.73,7.73,0,0,1-2.11.32c-3.92,0-5.5-3.45-6.66-6-5.5-12-16.61-19.46-29-19.46a31.35,31.35,0,0,0-18.51,6.18c-6.25,4.57-10,11.44-9.94,18.37.06,12.18,8.23,21.22,20.33,22.5,2.58.27,5.23.42,7.8.57a117.23,117.23,0,0,1,11.86,1.1c18.41,3,28.93,13.86,31.26,32.2C414.32,419.59,405.48,434.23,389.83,441.37Zm-43.42-45.85a2,2,0,0,1,1.7-.95l6.49.33c6.35.31,12.91.64,19.45,1a20.71,20.71,0,0,1,4.79,1l.42.12c4.78,1.43,7.68,4.55,8.37,9,.65,4.27-1.14,7.88-5.48,11a19.67,19.67,0,0,1-29.79-8.34,71.53,71.53,0,0,0-4.11-7.86c-.66-1.15-1.31-2.29-1.91-3.4A2,2,0,0,1,346.41,395.52Z"/><path class="cls-3" d="M382.15,417.15a19.67,19.67,0,0,1-29.79-8.34,71.53,71.53,0,0,0-4.11-7.86c-.66-1.15-1.31-2.29-1.91-3.4a2,2,0,0,1,1.77-3l6.49.33c6.35.31,12.91.64,19.45,1a20.71,20.71,0,0,1,4.79,1l.42.12c4.78,1.43,7.68,4.55,8.37,9C388.28,410.4,386.49,414,382.15,417.15Z"/><path class="cls-4" d="M389.83,441.37a38.79,38.79,0,0,1-6.77,2.51c-4.12,1-6,3.51-6.13,8.07,0,.48,0,1,0,1.49a10.28,10.28,0,0,1-.73,5.19c-1,2-3.35,4.42-6,5a3.2,3.2,0,0,1-.63.07c-2.42,0-4.88-3.13-5.63-4.33a9.76,9.76,0,0,1-1-6c.53-5.71-1.75-8.61-8.11-10.34a36.08,36.08,0,0,1-20.18-13.93,59.14,59.14,0,0,1-5.93-11.66c-1.16-2.8-1.29-5.35-.38-7.35a6.72,6.72,0,0,1,4.18-3.58,7.69,7.69,0,0,1,2.5-.45c4.84,0,6.27,5.15,6.81,7.09a24.58,24.58,0,0,0,11.22,14.55,33.22,33.22,0,0,0,17,4.62,34.38,34.38,0,0,0,14.4-3.12c9.56-4.44,15.6-13.85,14.69-22.88-1.12-11.06-8.13-18.33-19.76-20.46a91.88,91.88,0,0,0-13.41-1.09l-1.91-.07c-19.71-.7-33.28-12.58-36.3-31.77-1.91-12.19,2.05-22.87,11.79-31.74,3.25-3,7.14-6.14,11.44-7.33,9.87-2.72,13.39-7.09,12.53-15.56-.27-2.7,3.32-6,5.63-6.61a6.26,6.26,0,0,1,1.59-.21,5.59,5.59,0,0,1,4.21,1.87,6.67,6.67,0,0,1,1.61,5.13c-.82,8.13,2.41,12.19,11.91,15,8.39,2.45,15.33,8.44,20.07,17.33a33.9,33.9,0,0,1,2.94,7.78c1.28,5.26-.14,8.53-4.22,9.72a7.73,7.73,0,0,1-2.11.32c-3.92,0-5.5-3.45-6.66-6-5.5-12-16.61-19.46-29-19.46a31.35,31.35,0,0,0-18.51,6.18c-6.25,4.57-10,11.44-9.94,18.37.06,12.18,8.23,21.22,20.33,22.5,2.58.27,5.23.42,7.8.57a117.23,117.23,0,0,1,11.86,1.1c18.41,3,28.93,13.86,31.26,32.2C414.32,419.59,405.48,434.23,389.83,441.37Z"/></g></g></svg>