<?xml version="1.0" encoding="utf-8"?>
<!-- Generator: Adobe Illustrator 26.0.0, SVG Export Plug-In . SVG Version: 6.00 Build 0)  -->
<svg version="1.1" id="Capa_1" xmlns="http://www.w3.org/2000/svg" xmlns:xlink="http://www.w3.org/1999/xlink" x="0px" y="0px"
	 viewBox="0 0 452.8 500.4" style="enable-background:new 0 0 452.8 500.4;" xml:space="preserve">
<style type="text/css">
	.st0{fill:url(#SVGID_1_);}
	.st1{fill:url(#SVGID_00000119817404838000671650000003252815815790309273_);}
	.st2{fill:url(#SVGID_00000068652224543763582830000004375799020973605017_);}
	.st3{fill:url(#SVGID_00000065048619168486681700000010029407778864717210_);}
	.st4{fill:url(#SVGID_00000012442600811920690480000011726891739662000536_);}
	.st5{fill:url(#SVGID_00000045587688427360680080000009100446501608373678_);}
	.st6{fill:url(#SVGID_00000165237002218402326430000010612989655208522408_);}
	.st7{fill:url(#SVGID_00000176019980042659785530000009571906740471444365_);}
	.st8{fill:url(#SVGID_00000162339651119462802170000014629577106449590938_);}
	.st9{fill:url(#SVGID_00000008861775272365945730000014258077328267085724_);}
	.st10{fill:url(#SVGID_00000048500693498354042520000015464818796288886183_);}
	.st11{fill:url(#SVGID_00000155125071750178918890000015242419678095041973_);}
</style>
<linearGradient id="SVGID_1_" gradientUnits="userSpaceOnUse" x1="140.79" y1="36.58" x2="301.91" y2="36.58" gradientTransform="matrix(1 0 0 -1 0 502)">
	<stop  offset="0" style="stop-color:#D5B46D"/>
	<stop  offset="0" style="stop-color:#DEB457"/>
	<stop  offset="7.000000e-02" style="stop-color:#EBD07E"/>
	<stop  offset="0.14" style="stop-color:#F6E9A0"/>
	<stop  offset="0.2" style="stop-color:#FDF8B5"/>
	<stop  offset="0.23" style="stop-color:#FFFDBD"/>
	<stop  offset="0.41" style="stop-color:#D6AB47"/>
	<stop  offset="0.51" style="stop-color:#D4A945"/>
	<stop  offset="0.54" style="stop-color:#CEA240"/>
	<stop  offset="0.56" style="stop-color:#C29736"/>
	<stop  offset="0.58" style="stop-color:#B28628"/>
	<stop  offset="0.59" style="stop-color:#AE8225"/>
	<stop  offset="0.77" style="stop-color:#CF9E25"/>
	<stop  offset="0.92" style="stop-color:#BD912A"/>
	<stop  offset="1" style="stop-color:#B48A2D"/>
</linearGradient>
<rect x="140.8" y="430.7" class="st0" width="161.1" height="69.5"/>
<linearGradient id="SVGID_00000013188719221743824920000006887373825654452660_" gradientUnits="userSpaceOnUse" x1="33.8757" y1="431.799" x2="429.8757" y2="27.799">
	<stop  offset="0" style="stop-color:#D8D8D8"/>
	<stop  offset="3.135936e-02" style="stop-color:#333233"/>
	<stop  offset="0.49" style="stop-color:#3B3A3C"/>
	<stop  offset="0.54" style="stop-color:#525153"/>
	<stop  offset="0.61" style="stop-color:#767678"/>
	<stop  offset="0.68" style="stop-color:#9E9FA2"/>
	<stop  offset="0.71" style="stop-color:#9E9FA1"/>
	<stop  offset="0.76" style="stop-color:#929395"/>
	<stop  offset="0.83" style="stop-color:#76787A"/>
	<stop  offset="0.91" style="stop-color:#A7A8AA"/>
	<stop  offset="0.96" style="stop-color:#C6C7C9"/>
</linearGradient>
<path style="fill:url(#SVGID_00000013188719221743824920000006887373825654452660_);" d="M256.5,249.6l-6.2-4.4
	c-7.8,8.8-17,15.2-29.4,13.9s-20.9-8.3-26.5-19.9c-18.2,9.3-33.4,5.5-45.8-11.8c-10.8,7-22.3,7.6-35.2,2.1c0,6.7-0.1,12.5,0,18.2
	c0.1,4.8-1.5,8.4-6.8,9c-4.7,0.5-7.5-2.7-7.6-9.1c-0.1-28-0.4-56,0.1-84c0.4-20.7,20-34.1,39.9-28.1c2.1,0.6,4.1,1.6,6.2,2.4
	c11.6-24.5,25.5-30.5,48.8-20.7c10.7-17.9,25.6-24.8,46.3-15.2c1.6-2.6,2.9-5,4.5-7.3c7.3-11.4,21.1-16.6,34.1-12.9
	c12.7,3.3,21.8,14.6,22.2,27.7c0.5,10.4,0.2,20.8,0.2,31.3c0,3.2,0,6.4,0,10c3.5,0.5,6,0.9,8.5,1.1c16.6,0.9,28.8,9.3,34.9,24.2
	c4.5,10.8,7.3,22.2,8.4,33.8c2.9,35.3-1.9,70.2-9.2,104.7c-1.5,6.3-3.5,12.5-6.1,18.5c-2.6,6.5-6.6,8.7-10.9,6.4
	c-5.3-2.7-4.3-6.9-2.8-11.7c13.1-40,17.7-82.3,13.5-124.2c-0.8-7.6-3.4-15.3-6.6-22.3c-4.3-9.7-12.6-15-23.3-15.1
	c-25.7-0.2-51.5-0.2-77.2,0c-6.5,0-8.5,2.9-7.6,9.5c1.6,11.5,10,20.6,22,23.3c15.9,3.5,31.8,6.7,47.7,10.1c10.2,2.2,11,4.6,9.3,15.1
	c-2.6,15.7-8.9,25.9-25.5,32.4c-24,9.3-40.9,28.4-52.1,51.9c-1.1,2.3-1.9,5.3-3.7,6.7s-5.9,2.9-7.6,2c-2.2-1.2-4.2-4.7-4.5-7.5
	s1.5-5.5,2.8-8.2c9.2-19.6,23.3-36.4,41-48.8C253.6,252.1,254.5,251.3,256.5,249.6z M160.3,178.8c0,11.4-0.3,22.7,0.1,34.1
	c0.4,9.9,6.9,16.1,15.9,16.2s16.2-6,16.3-15.8c0.4-23.4,0.2-46.8,0.1-70.1c0-5.7-3-10.9-8-13.7c-10.7-6.4-23.6,0.9-24.2,14.2
	C159.9,155.4,160.3,167.1,160.3,178.8L160.3,178.8z M113.3,184.6c0,5.5-0.2,11.1,0,16.6c0.4,10.3,6.8,17.3,15.9,17.6
	s16.2-6.6,16.5-16.8c0.4-12,0.4-24.1,0-36.1c-0.3-10.1-7.4-17.2-16.3-17.1s-15.7,7.2-16.1,17.4C113.1,172.2,113.3,178.4,113.3,184.6
	L113.3,184.6z M286.9,151.1c0-13.6,0.2-26-0.1-38.3c-0.2-10.5-6.6-17.2-15.9-17.3s-16,6.3-16.4,16.8c-0.4,10.1-0.2,20.2-0.1,30.2
	c0,2.8,0.4,5.6,0.7,8.5H286.9z M207.3,180.8c0,15.3-0.2,30.5,0.1,45.8c0.2,11.1,6.9,17.9,16.5,17.8s15.7-7,16-18.2
	c0.1-4.2,0-8.4,0-13C222.7,208.4,213.2,196.4,207.3,180.8z M239.8,151.3c0-8.5,0.3-15.7-0.1-22.8c-0.6-9.8-7.3-16-16.3-15.9
	c-8.6,0.1-15.4,5.9-15.9,15.2c-0.6,12.4-0.1,24.8-0.1,37.2C213.8,150.6,226.7,151.6,239.8,151.3L239.8,151.3z M255.5,216.4
	c-1.4,12,2.8,18.9,11.9,21c8.7,2,15.6-2.9,19.1-14.4L255.5,216.4z"/>
<linearGradient id="SVGID_00000064334779450377066990000001856881677592696510_" gradientUnits="userSpaceOnUse" x1="97.0709" y1="493.7428" x2="493.071" y2="89.7428">
	<stop  offset="0" style="stop-color:#D8D8D8"/>
	<stop  offset="0.45" style="stop-color:#333233"/>
	<stop  offset="0.49" style="stop-color:#3B3A3C"/>
	<stop  offset="0.54" style="stop-color:#525153"/>
	<stop  offset="0.61" style="stop-color:#767678"/>
	<stop  offset="0.68" style="stop-color:#9E9FA2"/>
	<stop  offset="0.71" style="stop-color:#9E9FA1"/>
	<stop  offset="0.76" style="stop-color:#929395"/>
	<stop  offset="0.83" style="stop-color:#76787A"/>
	<stop  offset="0.91" style="stop-color:#A7A8AA"/>
	<stop  offset="0.96" style="stop-color:#C6C7C9"/>
</linearGradient>
<path style="fill:url(#SVGID_00000064334779450377066990000001856881677592696510_);" d="M147.9,438.3V485c3.9,0.2,7.3,0.5,10.7,0.5
	c8.1,0.1,16.3,0,24.4,0.3c4.6,0.2,7.3,3,7,7.7c-0.2,4.1-2.9,6.7-7,6.7c-14.3,0.1-28.6,0.2-43,0c-5.1-0.1-7.4-3.6-7.4-8.5
	c0-20.2-0.1-40.4,0.1-60.6c0-2.3,1.4-5.9,3.1-6.6c5.7-2.3,5.2-6.7,5.1-11.3s-0.1-9.1,0-13.7c0.2-9.9-3.1-19.5-9.4-27.1
	c-21.3-26.7-30.3-57.8-32.5-91.3c-0.1-1-0.1-2-0.1-2.9c0-6.5,2.3-9.9,6.6-10.2s6.8,3,7.8,9.2c2.4,14.4,4.2,29,7.7,43.1
	c3.8,15.2,10.9,29.4,20.9,41.5c9.6,11.3,14.6,25.8,14,40.5c-0.2,6.1,0,12.3,0,19.3h130.9c0-7.1,0.2-14.1,0-21.2
	c-0.5-10.5,3.1-20.8,10-28.8c4.2-5,7.9-10.4,11.8-15.5c2.8-3.7,6-6.1,10.8-3.3c3.9,2.4,4.4,6.7,1,11.9c-3.2,4.9-6.7,9.6-10.6,14.1
	c-6.1,6.5-9.2,15.2-8.6,24.1c0.2,4.5-0.3,9.1,0.2,13.6c0.2,2.2,1.5,5.3,3.2,6.2c5,2.6,5.6,6.7,5.5,11.5c0,18.2,0.1,36.5-0.1,54.7
	c-0.1,8.9-2.2,11.1-10.9,11.2c-28,0.1-56,0-84,0c-1.6,0-3.8,0.4-4.7-0.5c-2.1-2.1-4.8-4.7-5-7.3c-0.2-1.9,2.7-5,5-6.1
	c2.4-1.2,5.7-0.8,8.6-0.8c21.5-0.1,43-0.1,64.5,0h11v-47.3L147.9,438.3z"/>
<linearGradient id="SVGID_00000055676994420023022920000010316264482265615275_" gradientUnits="userSpaceOnUse" x1="-71.419" y1="328.5893" x2="324.581" y2="-75.4107">
	<stop  offset="0" style="stop-color:#D8D8D8"/>
	<stop  offset="0.4401" style="stop-color:#4B4A4C"/>
	<stop  offset="0.49" style="stop-color:#3B3A3C"/>
	<stop  offset="0.61" style="stop-color:#767678"/>
	<stop  offset="0.68" style="stop-color:#9E9FA2"/>
	<stop  offset="0.71" style="stop-color:#9E9FA1"/>
	<stop  offset="0.76" style="stop-color:#929395"/>
	<stop  offset="0.83" style="stop-color:#76787A"/>
	<stop  offset="0.91" style="stop-color:#A7A8AA"/>
	<stop  offset="0.96" style="stop-color:#C6C7C9"/>
</linearGradient>
<path style="fill:url(#SVGID_00000055676994420023022920000010316264482265615275_);" d="M29,218.9c6.5,0,12.9,0,19.4,0
	c4.8,0,8.3,2,8.9,7c0.6,4.4-3,7.7-9,7.9c-13,0.3-25.9,0.2-38.8,0c-6.2-0.1-9.5-3.1-9.5-7.5s3.5-7.1,9.6-7.3
	C16.1,218.8,22.5,218.9,29,218.9z"/>
<linearGradient id="SVGID_00000016757152539980225870000013426213369515879348_" gradientUnits="userSpaceOnUse" x1="130.1544" y1="526.1711" x2="526.1544" y2="122.1712">
	<stop  offset="0" style="stop-color:#D8D8D8"/>
	<stop  offset="0.45" style="stop-color:#333233"/>
	<stop  offset="0.49" style="stop-color:#3B3A3C"/>
	<stop  offset="0.54" style="stop-color:#525153"/>
	<stop  offset="0.61" style="stop-color:#767678"/>
	<stop  offset="0.68" style="stop-color:#9E9FA2"/>
	<stop  offset="0.71" style="stop-color:#9E9FA1"/>
	<stop  offset="0.76" style="stop-color:#929395"/>
	<stop  offset="0.83" style="stop-color:#76787A"/>
	<stop  offset="0.91" style="stop-color:#A7A8AA"/>
	<stop  offset="0.96" style="stop-color:#C6C7C9"/>
</linearGradient>
<path style="fill:url(#SVGID_00000016757152539980225870000013426213369515879348_);" d="M424.1,218.9c6.5,0,13-0.2,19.4,0.1
	c6,0.2,9.6,3.3,9.2,7.6c-0.5,5.1-4.1,7.1-8.8,7.1c-13.3,0.1-26.5,0.1-39.8,0c-4.7,0-8.3-2.1-8.7-7.3c-0.4-4.5,3-7.3,9.3-7.5
	C411.2,218.8,417.7,218.9,424.1,218.9z"/>
<linearGradient id="SVGID_00000142879391442454596980000017110005316655612560_" gradientUnits="userSpaceOnUse" x1="-69.4652" y1="330.5044" x2="326.5348" y2="-73.4956">
	<stop  offset="0" style="stop-color:#D8D8D8"/>
	<stop  offset="0.45" style="stop-color:#333233"/>
	<stop  offset="0.49" style="stop-color:#3B3A3C"/>
	<stop  offset="0.54" style="stop-color:#525153"/>
	<stop  offset="0.61" style="stop-color:#767678"/>
	<stop  offset="0.68" style="stop-color:#9E9FA2"/>
	<stop  offset="0.71" style="stop-color:#9E9FA1"/>
	<stop  offset="0.76" style="stop-color:#929395"/>
	<stop  offset="0.83" style="stop-color:#76787A"/>
	<stop  offset="0.91" style="stop-color:#A7A8AA"/>
	<stop  offset="0.96" style="stop-color:#C6C7C9"/>
</linearGradient>
<path style="fill:url(#SVGID_00000142879391442454596980000017110005316655612560_);" d="M218.9,28.6c0-6.5-0.1-13,0-19.5
	c0.1-4.7,1.8-8.4,7-9c4.5-0.5,7.8,3,7.9,9c0.3,13,0.3,26.1,0,39.1c-0.1,6.2-3.2,9.4-7.9,8.9c-5.3-0.5-6.9-4.3-7-8.9
	C218.9,41.7,218.9,35.1,218.9,28.6z"/>
<linearGradient id="SVGID_00000131354645464141731940000001047196521380751275_" gradientUnits="userSpaceOnUse" x1="-111.6768" y1="289.1287" x2="284.3232" y2="-114.8713">
	<stop  offset="0" style="stop-color:#D8D8D8"/>
	<stop  offset="0.45" style="stop-color:#333233"/>
	<stop  offset="0.49" style="stop-color:#3B3A3C"/>
	<stop  offset="0.54" style="stop-color:#525153"/>
	<stop  offset="0.61" style="stop-color:#767678"/>
	<stop  offset="0.68" style="stop-color:#9E9FA2"/>
	<stop  offset="0.71" style="stop-color:#9E9FA1"/>
	<stop  offset="0.76" style="stop-color:#929395"/>
	<stop  offset="0.83" style="stop-color:#76787A"/>
	<stop  offset="0.91" style="stop-color:#A7A8AA"/>
	<stop  offset="0.96" style="stop-color:#C6C7C9"/>
</linearGradient>
<path style="fill:url(#SVGID_00000131354645464141731940000001047196521380751275_);" d="M71.1,63.3c2.8,1.6,5,2.4,6.5,3.9
	c9.5,9.3,18.8,18.7,28.2,28.1c3.3,3.3,4.8,7,1.3,11.1c-3.1,3.7-7.2,3.6-11.8-0.8c-9.6-9.2-19-18.6-28.1-28.3
	c-1.9-2.4-2.7-5.5-2.2-8.6C65.6,66.7,68.9,65.2,71.1,63.3z"/>
<linearGradient id="SVGID_00000011028260623538465290000015034838217503233686_" gradientUnits="userSpaceOnUse" x1="30.7853" y1="428.7697" x2="426.7853" y2="24.7697">
	<stop  offset="0" style="stop-color:#D8D8D8"/>
	<stop  offset="0.45" style="stop-color:#333233"/>
	<stop  offset="0.49" style="stop-color:#3B3A3C"/>
	<stop  offset="0.54" style="stop-color:#525153"/>
	<stop  offset="0.61" style="stop-color:#767678"/>
	<stop  offset="0.68" style="stop-color:#9E9FA2"/>
	<stop  offset="0.71" style="stop-color:#9E9FA1"/>
	<stop  offset="0.76" style="stop-color:#929395"/>
	<stop  offset="0.83" style="stop-color:#76787A"/>
	<stop  offset="0.91" style="stop-color:#A7A8AA"/>
	<stop  offset="0.96" style="stop-color:#C6C7C9"/>
</linearGradient>
<path style="fill:url(#SVGID_00000011028260623538465290000015034838217503233686_);" d="M351.8,109.1c-6-0.2-9.6-6-7.1-10.6
	c1.4-2.5,3.7-4.5,5.7-6.5c8.2-8.3,16.4-16.5,24.7-24.7c3.4-3.4,7.3-4.5,11.1-0.9s2.8,7.7-0.5,11.1c-9.5,9.7-19.2,19.3-28.9,28.8
	C355.3,107.7,353,108.4,351.8,109.1z"/>
<linearGradient id="SVGID_00000126323470534562178270000010888731834000412588_" gradientUnits="userSpaceOnUse" x1="-22.2003" y1="376.8334" x2="373.7997" y2="-27.1666">
	<stop  offset="0" style="stop-color:#D8D8D8"/>
	<stop  offset="4.897010e-02" style="stop-color:#333233"/>
	<stop  offset="0.49" style="stop-color:#3B3A3C"/>
	<stop  offset="0.54" style="stop-color:#525153"/>
	<stop  offset="0.61" style="stop-color:#767678"/>
	<stop  offset="0.68" style="stop-color:#9E9FA2"/>
	<stop  offset="0.71" style="stop-color:#9E9FA1"/>
	<stop  offset="0.76" style="stop-color:#929395"/>
	<stop  offset="0.83" style="stop-color:#76787A"/>
	<stop  offset="0.91" style="stop-color:#A7A8AA"/>
	<stop  offset="0.96" style="stop-color:#C6C7C9"/>
</linearGradient>
<path style="fill:url(#SVGID_00000126323470534562178270000010888731834000412588_);" d="M295.6,39.8c5.3,0.3,9.3,4.2,8.2,8
	c-1.9,6.5-4.5,12.8-7.8,18.8c-1,1.8-6.2,2.8-8.3,1.8s-4.3-5.4-3.8-7.7c1.6-6,3.8-11.7,6.8-17.1C291.6,41.6,294.5,40.5,295.6,39.8z"
	/>
<linearGradient id="SVGID_00000106827075778962313790000015379803074314840476_" gradientUnits="userSpaceOnUse" x1="-90.7644" y1="309.627" x2="305.2357" y2="-94.373">
	<stop  offset="0" style="stop-color:#D8D8D8"/>
	<stop  offset="0.45" style="stop-color:#333233"/>
	<stop  offset="0.49" style="stop-color:#3B3A3C"/>
	<stop  offset="0.54" style="stop-color:#525153"/>
	<stop  offset="0.61" style="stop-color:#767678"/>
	<stop  offset="0.68" style="stop-color:#9E9FA2"/>
	<stop  offset="0.71" style="stop-color:#9E9FA1"/>
	<stop  offset="0.76" style="stop-color:#929395"/>
	<stop  offset="0.83" style="stop-color:#76787A"/>
	<stop  offset="0.91" style="stop-color:#A7A8AA"/>
	<stop  offset="0.96" style="stop-color:#C6C7C9"/>
</linearGradient>
<path style="fill:url(#SVGID_00000106827075778962313790000015379803074314840476_);" d="M157.4,39.8c1.3,1,4.1,2.4,5.3,4.6
	c2.4,5,4.5,10.1,6.2,15.3c1.4,4-0.2,7-3.8,8.9c-3.9,2-7.3,0.8-9.1-2.8c-2.7-5.5-5-11.3-6.8-17.2C147.9,44.1,151.5,40,157.4,39.8z"/>
<linearGradient id="SVGID_00000026852003018707243110000004878958918051204516_" gradientUnits="userSpaceOnUse" x1="-91.6679" y1="308.7414" x2="304.3321" y2="-95.2586">
	<stop  offset="0" style="stop-color:#D8D8D8"/>
	<stop  offset="0.45" style="stop-color:#333233"/>
	<stop  offset="0.49" style="stop-color:#3B3A3C"/>
	<stop  offset="0.54" style="stop-color:#525153"/>
	<stop  offset="0.61" style="stop-color:#767678"/>
	<stop  offset="0.68" style="stop-color:#9E9FA2"/>
	<stop  offset="0.71" style="stop-color:#9E9FA1"/>
	<stop  offset="0.76" style="stop-color:#929395"/>
	<stop  offset="0.83" style="stop-color:#76787A"/>
	<stop  offset="0.91" style="stop-color:#A7A8AA"/>
	<stop  offset="0.96" style="stop-color:#C6C7C9"/>
</linearGradient>
<path style="fill:url(#SVGID_00000026852003018707243110000004878958918051204516_);" d="M47.3,148c7.3,3.1,13.8,5.4,19.6,8.9
	c1.7,1,2.6,6.2,1.5,8.3s-5.4,4.1-7.8,3.6c-5.7-1.3-11.2-3.5-16.2-6.4c-2.1-1.2-3.8-5.6-3.3-8S45.1,150.1,47.3,148z"/>
<linearGradient id="SVGID_00000167357138253337195210000015235641990140894080_" gradientUnits="userSpaceOnUse" x1="83.2185" y1="480.1647" x2="479.2185" y2="76.1647">
	<stop  offset="0" style="stop-color:#D8D8D8"/>
	<stop  offset="0.45" style="stop-color:#333233"/>
	<stop  offset="0.49" style="stop-color:#3B3A3C"/>
	<stop  offset="0.54" style="stop-color:#525153"/>
	<stop  offset="0.61" style="stop-color:#767678"/>
	<stop  offset="0.68" style="stop-color:#9E9FA2"/>
	<stop  offset="0.71" style="stop-color:#9E9FA1"/>
	<stop  offset="0.76" style="stop-color:#929395"/>
	<stop  offset="0.83" style="stop-color:#76787A"/>
	<stop  offset="0.91" style="stop-color:#A7A8AA"/>
	<stop  offset="0.96" style="stop-color:#C6C7C9"/>
</linearGradient>
<path style="fill:url(#SVGID_00000167357138253337195210000015235641990140894080_);" d="M390.1,170.4c-2.3-2.1-5.3-3.6-6-5.9
	s0.2-6.7,1.8-7.6c6-3.2,12.3-5.8,18.8-7.6c1.8-0.5,5.8,2,6.7,4.1s0.2,6.8-1.3,7.7C404,164.6,397.3,167.1,390.1,170.4z"/>
</svg>
