<svg xmlns="http://www.w3.org/2000/svg" xmlns:xlink="http://www.w3.org/1999/xlink" viewBox="0 0 428.37 494.51"><defs><style>.cls-1{fill:url(#Degradado_sin_nombre_6);}.cls-2{fill:#fff;}.cls-3{fill:#1d1d1b;}</style><linearGradient id="Degradado_sin_nombre_6" x1="118.27" y1="130.67" x2="577.07" y2="130.67" gradientUnits="userSpaceOnUse"><stop offset="0" stop-color="#d5b46d"/><stop offset="0" stop-color="#deb457"/><stop offset="0.07" stop-color="#ebd07e"/><stop offset="0.14" stop-color="#f6e9a0"/><stop offset="0.2" stop-color="#fdf8b5"/><stop offset="0.23" stop-color="#fffdbd"/><stop offset="0.41" stop-color="#d6ab47"/><stop offset="0.51" stop-color="#d4a945"/><stop offset="0.54" stop-color="#cea240"/><stop offset="0.56" stop-color="#c29736"/><stop offset="0.58" stop-color="#b28628"/><stop offset="0.59" stop-color="#ae8225"/><stop offset="0.77" stop-color="#cf9e25"/><stop offset="0.92" stop-color="#bd912a"/><stop offset="1" stop-color="#b48a2d"/></linearGradient></defs><g id="Capa_2" data-name="Capa 2"><g id="Capa_1-2" data-name="Capa 1"><circle class="cls-1" cx="215.7" cy="130.67" r="94.31"/><path class="cls-2" d="M215.13,262.13c-35.76-.26-68.86-14.24-93.21-39.36-24.19-25-37.61-58.57-36.81-92.21-.46-33.6,13.18-66.92,37.42-91.5A130.26,130.26,0,0,1,215.94,0h1.22a129.22,129.22,0,0,1,93.32,40.57C334,65.31,347.26,98.65,347,132.06c-.26,33-13.7,65.79-36.89,90.09a128.61,128.61,0,0,1-94,40ZM213.52,11c-30,0-59.87,12.49-82.07,34.29a119.12,119.12,0,0,0-36,85.69c0,66.47,54.09,120.55,120.54,120.55h.23c57.65-.11,119.93-46.12,120-120.26,0-32.46-12.3-62.7-34.75-85.17-22.29-22.32-52.63-35.12-83.25-35.12-.92,0-1.84,0-2.76,0C214.91,11,214.21,11,213.52,11Z"/><path class="cls-2" d="M321.89,494.5c-1.32,0-2.4,0-3.4-.1-4.66-.33-6.21-1.9-6.63-6.69a36,36,0,0,1-.06-3.91c0-.59,0-1.17,0-1.75V469.87q0-42.09,0-84.19c0-.57,0-1.15,0-1.72a28.21,28.21,0,0,1,.28-5.67,5.29,5.29,0,0,1,5.26-4.49h.29c2.65.14,4.27,1.58,4.95,4.41a21.8,21.8,0,0,1,.33,5.51c0,.59,0,1.18,0,1.77q0,34,0,68V483h44.78l.05-2c0-1,.08-2.09.11-3.15.09-2.32.18-4.71.18-7.1q0-65.55,0-131.08v-33c0-1.1,0-2.2,0-3.29,0-4.73.08-7.47,1.11-8.8s3.76-2.23,8.47-3.63l3.12-.94L345.36,252.9,327.9,271.38,310.26,290l3,1c9.6,3.14,9.6,3.14,9.64,12.53.05,14.87,0,29.65,0,40.87v.8a20.72,20.72,0,0,1-.44,5.41c-.74,2.67-2.4,4-5.09,4a4.8,4.8,0,0,1-5.13-4.08,23.77,23.77,0,0,1-.4-5.83v-1.43c0-9,0-18.07,0-27.49v-12.2l-6-.11c-2.83,0-5.43-.09-8-.16-3.8-.1-5.91-1.21-7-3.72s-.08-4.27,2.71-7.25q7.62-8.12,15.22-16.25c10.05-10.75,20.44-21.86,30.73-32.7,2.57-2.7,4.36-3.91,5.81-3.91s3.25,1.21,5.84,3.92c11,11.46,22.05,23.21,32.76,34.57l12.73,13.49.56.58a12.74,12.74,0,0,1,1.24,1.38c1.78,2.43,2.33,4.75,1.54,6.52s-2.95,3-6,3.29a39.2,39.2,0,0,1-4.19.19c-1.17,0-2.38,0-3.65-.06-1.45,0-3-.07-4.63-.07h-1.93l-.07,1.93c0,1.31-.09,2.56-.14,3.76-.11,2.48-.21,4.82-.21,7.15q0,65.49,0,131v31.59c0,.71,0,1.43,0,2.14,0,1.51,0,3.08,0,4.59-.33,7.72-1.61,9-9.09,9q-8.78.06-17.56.06l-12.84,0H327.11c-.89,0-1.77,0-2.65,0Z"/><path class="cls-2" d="M220.11,494.45H195.78c-6.29,0-10.21-.07-11.59-1.4s-1.42-5.09-1.42-11.15q0-28.54,0-57.09v-34.2q0-14.7,0-29.39c0-2-.13-3.85-.28-6.05-.07-1.06-.14-2.19-.21-3.41l-.1-1.89H168.22c-3.36,0-5.32-1-6.35-3.09-1.27-2.64-.76-5,1.61-7.54q7.68-8.12,15.33-16.24c10.51-11.15,21.38-22.67,32.17-33.91,2.07-2.16,3.64-3.16,5-3.16s3,1.1,5.3,3.45c9.63,10.12,19.34,20.5,28.72,30.54q8.94,9.56,17.9,19.1c2.82,3,3.48,5,2.42,7.36s-3.13,3.36-7.17,3.46c-1.36,0-2.73.05-4.17.05h-3.35l-4.36,0h-2V480.28c0,1.34,0,2.67,0,4-.11,9.62-.6,10.09-10.64,10.15-2.34,0-4.68,0-7,0ZM180.75,336.7l3,1c9.08,2.9,9.08,2.9,9.23,10.45,0,1.32,0,2.65,0,4v26.77q0,45.93,0,91.85c0,2.38.11,4.78.21,7.1.05,1.08.1,2.16.14,3.24l.07,1.93h44.33l.08-1.92c0-1.28.1-2.5.16-3.7.12-2.5.23-4.86.24-7.24q0-19.89,0-39.76c0-25.57,0-52,.07-78v-.71c0-3.37,0-7.19,1.4-9.65.74-1.32,2.73-2.33,4.84-3.39,1.1-.57,2.25-1.15,3.33-1.83l2.12-1.33-1.77-1.78c-4-4-7.85-8.25-11.59-12.37-6.17-6.8-12.55-13.84-19.88-20.13l-1.45-1.25Z"/><path class="cls-2" d="M86.61,494.51c-8.27,0-16.78,0-25.29-.1-7-.05-8.29-1.41-8.43-8.54-.11-6.32-.08-12.75,0-19,0-1.77,0-5.69,0-5.69a17.65,17.65,0,0,1,.29-4c.64-2.72,2.76-4.77,4.94-4.77a3.11,3.11,0,0,1,.43,0,5.3,5.3,0,0,1,5,4.47,40.51,40.51,0,0,1,.4,6.8c0,.53,0,1.06,0,1.58,0,3.56,0,7.09,0,10.83,0,1.6,0,6.89,0,6.89h44.5l.11-1.87c0-.83.12-1.66.19-2.51.15-1.9.3-3.87.31-5.86q0-16.41,0-32.81,0-20.58,0-41.17c0-8,0-8.18,9.64-10.29l3.43-.75L86.44,349.5,51.92,386.4l2.39,1.2c1.07.54,2.19,1,3.26,1.39,2,.78,3.9,1.52,4.63,2.6,1.45,2.14,1.57,5.77,1.67,9,.27,8.47.18,17,.05,24.31-.15,8.65-4,8.86-5.27,8.93H58.3c-4.34,0-5.34-5-5.41-9.21-.08-5.05-.06-10.11,0-15.46,0-2.45,0-5,0-7.55v-2H37.38c-3,0-4.74-1.12-5.69-3.63-.72-1.9-.21-3.36,2-5.81l1-1.13c3.53-3.86,7.19-7.85,10.82-11.73l7.33-7.81c8.94-9.54,18.18-19.4,27.38-29,2.67-2.79,4.6-4,6.24-4s3.55,1.26,6.22,4.1Q108.42,357.25,124,374l12.61,13.46c.29.31.58.61.88.91a20.57,20.57,0,0,1,1.64,1.8c1.93,2.52,2.75,3.92,1.91,6-1,2.42-2.83,3.51-5.9,3.52H121l-.15,1.84c-.1,1.1-.2,2.15-.3,3.14-.21,2.05-.41,4-.42,5.93q-.06,26.2,0,52.42v16.69q0,1.05,0,2.1c0,1.59,0,3.09-.06,4.58-.45,6.67-1.82,8-8.13,8.08C103.63,494.47,95.12,494.51,86.61,494.51Z"/><path class="cls-2" d="M39,138.78c-2.13,0-4.27,0-6.41,0s-4.25,0-6.37,0h0c-2.11,0-4.14,0-6.17,0s-4,0-6.06,0c-3.1,0-5.63,0-8-.13-4.84-.19-5.88-1.91-6-4.61a5.07,5.07,0,0,1,1.24-3.82A6.55,6.55,0,0,1,6,128.5c6.81-.11,13.69-.16,20.45-.16,7,0,14.1.06,21.06.17,3.65.06,5.35,1.68,5.36,5.12,0,2.86-.93,4.81-5.5,5C44.93,138.73,42.26,138.78,39,138.78Z"/><path class="cls-2" d="M413.86,138.77l-6.39,0c-1.47,0-3,0-4.42,0v-.13h-2c-2.14,0-4.28,0-6.42.06s-4.24.06-6.36.06c-3.24,0-5.89-.07-8.35-.23a4.8,4.8,0,0,1-3.92-2.12,5.39,5.39,0,0,1-.17-4.92c.86-2.08,2.42-3,5.08-3l10.87,0,12.42,0c7.11,0,12.91,0,18.25.12a6.31,6.31,0,0,1,4.68,1.74,5.12,5.12,0,0,1,1.23,3.89c-.13,2.27-.7,4.32-6.11,4.51C419.77,138.73,417.11,138.77,413.86,138.77Z"/><path class="cls-2" d="M58.91,74.23c-.45,0-.93,0-1.43,0-1.07-.46-2.26-1-3.52-1.47-3.88-1.6-8.27-3.41-12.53-5.63a3.71,3.71,0,0,1-1.66-5c.48-1.15,1.84-3.84,4-3.84a3.56,3.56,0,0,1,.93.14,122.23,122.23,0,0,1,18.45,7c2.12,1,2.83,3.24,1.81,5.69C64.16,73.08,62.9,74.23,58.91,74.23Z"/><path class="cls-2" d="M370,74.29c-4.57,0-6-1.35-6.74-3.53s-.09-4.24,1.58-5.05a132.57,132.57,0,0,1,18.37-7.29,3.73,3.73,0,0,1,1.11-.18c2.23,0,3.64,2.45,4.13,3.51a4,4,0,0,1-1.84,5.64A135.19,135.19,0,0,1,374,72.83l-3.64,1.45Z"/><path class="cls-2" d="M45.33,209.54c-3.11-.66-4.72-2-5.53-4.42-.7-2.15,0-4.23,1.75-5.06a130.65,130.65,0,0,1,18.38-7.24,3.7,3.7,0,0,1,1-.17c2.1,0,3.4,2.28,4,3.64,1,2.19.48,4.17-1.19,5-4.33,2.27-9,4.21-13.45,6.09C48.66,208.12,47,208.82,45.33,209.54Z"/><path class="cls-2" d="M382,208.69c-.29,0-.58,0-.89,0-1.12-.46-2.35-.95-3.66-1.47A134.82,134.82,0,0,1,365,201.69c-2.11-1.1-2.65-3.24-1.45-5.72.74-1.52,2-3.33,4.06-3.33a4.27,4.27,0,0,1,1.27.21,128.4,128.4,0,0,1,17.53,6.87c2.17,1.06,2.95,3.26,2,5.74C387.83,207.1,386.85,208.69,382,208.69Z"/><path class="cls-3" d="M214.15,194.44c-4.29,0-5.28-4.16-5.5-6.63a48,48,0,0,1-.06-5.12c0-.88,0-1.8,0-2.75v-1.36l-1.27-.5c-1-.38-1.95-.73-2.88-1.07a48.58,48.58,0,0,1-5.27-2.14,26,26,0,0,1-13.12-14.32c-1-2.79-.22-5.56,2-6.73a5.35,5.35,0,0,1,2.46-.59,5.73,5.73,0,0,1,4.56,2.19,11.52,11.52,0,0,1,1,1.86,15.83,15.83,0,0,0,1.3,2.31c3.51,4.91,10.43,8.09,17.64,8.09a18.75,18.75,0,0,0,10.53-2.93A15,15,0,0,0,232,151.28a13.89,13.89,0,0,0-7.59-11.76c-3.3-1.63-7-2.29-10.55-2.93l-2.06-.38c-8.13-1.56-13.5-4.32-17.39-9a23.89,23.89,0,0,1-5.19-18.71,24.32,24.32,0,0,1,10.35-16.84,46.67,46.67,0,0,1,5-2.79c.89-.46,1.81-.93,2.74-1.43l1-.54.05-1.13c.05-1,.07-2,.09-2.95a51.63,51.63,0,0,1,.41-6.37c.45-3.09,2.3-4.84,5.21-4.91h.17c2.79,0,4.69,1.66,5.34,4.66a13.28,13.28,0,0,1,.17,2.82c0,.56,0,1.13,0,1.69.05,1.09.1,2.18.17,3.34l.15,2.84,1,.53c1,.56,2.08,1,3.1,1.53a22.54,22.54,0,0,1,5.68,3.35,37.85,37.85,0,0,1,7.77,10c1,2,.18,4.25-2.21,5.67a5.32,5.32,0,0,1-2.66.85,5.17,5.17,0,0,1-3.64-1.88,25.41,25.41,0,0,1-1.65-2,19,19,0,0,0-3-3.27,15.75,15.75,0,0,0-10-3.67,17.75,17.75,0,0,0-7.64,1.85c-4.46,2.13-6.74,6.28-6.76,12.33,0,6.32,2.82,10.27,8.7,12.07a51.61,51.61,0,0,0,6.78,1.45c1.64.28,3.19.54,4.72.91,11.59,2.81,18.12,7.9,21.17,16.5,4.58,12.9-1.18,26.59-13.71,32.53-1.29.62-2.67,1.17-4.12,1.75l-2.26.91-1.17.49-.07,1.26c0,.83-.07,1.65-.09,2.47-.06,1.77-.12,3.44-.31,5.09-.53,4.5-2.37,6.79-5.47,6.79Z"/></g></g></svg>