<svg xmlns="http://www.w3.org/2000/svg" viewBox="0 0 500 499.99"><defs><style>.cls-1{fill:#fff;}.cls-2{fill:#1d1d1b;}</style></defs><g id="Capa_2" data-name="Capa 2"><g id="Capa_1-2" data-name="Capa 1"><path class="cls-1" d="M497.27,485.37Q436.8,380.91,376.32,276.46c-2.41-4.17-5.3-6.46-8.12-6.46s-5.79,2.28-8.35,6.43q-9.66,15.66-19.31,31.34-7,11.34-14,22.67c-.6,1-1.23,1.94-1.91,3-.33.49-.67,1-1,1.54l-1.56,2.39-1.73-2.25c-.28-.36-.5-.63-.67-.86a10,10,0,0,1-.79-1.06L311,320.4c-16.87-27.37-34.31-55.67-51.38-83.56a13.93,13.93,0,0,1-1.76-7c-.09-34.82-.07-70.23-.06-104.47v-4.79c0-1,.08-2,.17-3.07,0-.48.09-1,.12-1.49l.13-1.88H405.69a20.13,20.13,0,0,0,2.25-.1,8,8,0,0,0,6.48-4.25,7.92,7.92,0,0,0-.46-7.65,26.85,26.85,0,0,0-2.31-3.18l-.43-.54-25-31.29-8-10,2.66-3.37,3.37-4.24,10.34-12.92q9.12-11.4,18.25-22.81c2.67-3.34,3.17-6.19,1.63-9.23S410.38,0,406.54,0h-.37l-1.06,0H254.54c-10.41,0-12.37,1.93-12.37,12.15V47.22c0,59.48,0,121-.11,181.49a19.42,19.42,0,0,1-2.72,9.7c-15.51,25.45-31.41,51.25-46.78,76.19L183,330.17c-.63,1-1.28,2-2,3.11-.37.54-.75,1.11-1.17,1.74l-1.69,2.55L176.39,335c-.41-.64-.8-1.22-1.17-1.78-.74-1.12-1.4-2.11-2-3.12q-6.31-10.25-12.62-20.49-10.46-17-20.91-33.93c-2.36-3.81-4.67-5.66-7.07-5.66a6.15,6.15,0,0,0-2.44.56,14.88,14.88,0,0,0-6.35,5.85c-14.43,24.66-29,49.81-43,74.13Q71.7,366.23,62.62,381.9q-22,37.88-44,75.73L0,489.75V500H494.48C501,495.36,501.48,492.65,497.27,485.37ZM258,16H390.84l-5,6.33c-1.73,2.2-3.37,4.27-5,6.34q-3.22,4.05-6.47,8.09Q369,43.43,363.62,50.16c-4.4,5.55-4.41,8.24-.05,13.73,5.64,7.1,11.31,14.18,17.14,21.46L390.86,98H258ZM85.28,484.22c-13.29.1-26.53.11-38.85.11h-25L132.05,293.21l8.23,13.35c9.16,14.87,17.82,28.91,26.47,43.19a7.44,7.44,0,0,1-.11,6.81c-23,37.59-47.3,77.09-76.46,124.31C89.35,482.21,87.36,484.2,85.28,484.22Zm21.41-.15L250,251.17l143.32,232.9Zm352,.27H436.92c-8.05,0-14.24,0-20.06.08h-.14a7.89,7.89,0,0,1-7.45-4.19q-18.72-30.56-37.5-61.08-19-31-38.08-62c-.94-1.54-2-4.74-.75-6.78,8.87-14.71,17.73-29.09,27.11-44.31l7.88-12.81L478.58,484.34Z"/><path class="cls-2" d="M390.86,98H258V16H390.84l-5,6.33c-1.73,2.2-3.37,4.27-5,6.34q-3.22,4.05-6.47,8.09Q369,43.43,363.62,50.16c-4.4,5.55-4.41,8.24-.05,13.73,5.64,7.1,11.31,14.18,17.14,21.46Z"/><path class="cls-1" d="M336.85,460.69a7.51,7.51,0,0,1-5-2.33,20.92,20.92,0,0,1-3.22-4.26q-27.56-44.72-55.06-89.46l-6.27-10.2-.4-.64a24.34,24.34,0,0,1-1.24-2.14c-2.06-4.29-1-8.63,2.57-10.79a7.59,7.59,0,0,1,3.92-1.15c2.48,0,4.89,1.39,6.79,3.91.5.66.95,1.4,1.42,2.17l11.13,18.08c16.49,26.78,33.54,54.47,50.25,81.74a42.58,42.58,0,0,1,2.61,5.47c.33.8.69,1.64,1.08,2.54-.46.54-.9,1.09-1.33,1.62a21.16,21.16,0,0,1-4.4,4.53A5.15,5.15,0,0,1,336.85,460.69Z"/><path class="cls-1" d="M259.76,315.14a9.77,9.77,0,1,1-9.6-9.94A10.06,10.06,0,0,1,259.76,315.14Z"/><path class="cls-1" d="M249.87,322.72a7.75,7.75,0,0,1,.12-15.5h.13a7.83,7.83,0,0,1,5.37,2.46,7.68,7.68,0,0,1,2.25,5.42,8.1,8.1,0,0,1-7.73,7.62Z"/></g></g></svg>