<?xml version="1.0" encoding="utf-8"?>
<!-- Generator: Adobe Illustrator 26.0.0, SVG Export Plug-In . SVG Version: 6.00 Build 0)  -->
<svg version="1.1" id="Capa_1" xmlns="http://www.w3.org/2000/svg" xmlns:xlink="http://www.w3.org/1999/xlink" x="0px" y="0px"
	 viewBox="0 0 214.7 171" style="enable-background:new 0 0 214.7 171;" xml:space="preserve">
<style type="text/css">
	.st0{opacity:0.18;fill:url(#SVGID_1_);}
	.st1{opacity:0.18;fill:url(#SVGID_00000119820342304029419750000004910016298266399104_);}
	.st2{opacity:0.18;fill:url(#SVGID_00000119088692782194018110000014335977812630645179_);}
	.st3{opacity:0.18;fill:url(#SVGID_00000012466987656137942760000015002320786947660195_);}
	.st4{opacity:0.18;fill:url(#SVGID_00000168082707090454967470000017349110875624081071_);}
	.st5{opacity:0.18;fill:url(#SVGID_00000152962779245249222010000018149766743007156097_);}
	.st6{opacity:0.18;fill:url(#SVGID_00000034792992358524196240000006299333745410840450_);}
	.st7{opacity:0.18;fill:url(#SVGID_00000137093603411862881270000002937090862553994389_);}
	.st8{opacity:0.18;fill:url(#SVGID_00000146487367314955381530000002286144565586034070_);}
	.st9{opacity:0.18;fill:none;stroke:#FFFFFF;stroke-width:0.14;stroke-miterlimit:10;}
</style>
<radialGradient id="SVGID_1_" cx="102.71" cy="-434.75" r="97.23" gradientTransform="matrix(1 0 0 -1 0 -348)" gradientUnits="userSpaceOnUse">
	<stop  offset="0" style="stop-color:#7E8082"/>
	<stop  offset="0.38" style="stop-color:#201E1E"/>
	<stop  offset="0.83" style="stop-color:#201E1E"/>
	<stop  offset="0.88" style="stop-color:#6B6A6A"/>
	<stop  offset="0.93" style="stop-color:#B9B9B9"/>
	<stop  offset="0.96" style="stop-color:#D8D8D8"/>
</radialGradient>
<path class="st0" d="M94.3,121.8c0,0,11.2,7.8,25.3,0s22.9-32.3,22.9-32.3s4.7-10.2,4.8-11.2s2.8-18.5,2.6-19.1s-8.7-3.8-8.7-3.8
	s-20,7.7-21,7.8s-23.9-3.8-26.3-5S73.8,52.8,73.4,53s-8.4,1-8,2.5s0.8,14.2,1.1,17.2s0.7,14,1.7,14.9s6.2,3.7,7.6,6.1
	s9.3,20.4,9.7,21.6"/>
<linearGradient id="SVGID_00000125572550401708201640000000299447723985435526_" gradientUnits="userSpaceOnUse" x1="78.1858" y1="-312.2457" x2="86.9158" y2="-456.8757" gradientTransform="matrix(1 0 0 -1 0 -348)">
	<stop  offset="0" style="stop-color:#D8D8D8"/>
	<stop  offset="7.000000e-02" style="stop-color:#D3D3D3"/>
	<stop  offset="0.15" style="stop-color:#C5C5C5"/>
	<stop  offset="0.23" style="stop-color:#ADADAD"/>
	<stop  offset="0.32" style="stop-color:#8C8C8C"/>
	<stop  offset="0.41" style="stop-color:#626262"/>
	<stop  offset="0.45" style="stop-color:#4D4D4D"/>
	<stop  offset="0.69" style="stop-color:#454545"/>
	<stop  offset="0.84" style="stop-color:#3D3C3C"/>
</linearGradient>
<path style="opacity:0.18;fill:url(#SVGID_00000125572550401708201640000000299447723985435526_);" d="M66.8,64.4
	c-0.2,5.1,0.1,10.2,0.8,15.2c-1.6,1.5-2.4,3.7-2.2,5.8c3.6,1.9,4.5,4.7,5.2,8.2s-0.2,9.7-1.2,13.4s-1.4,4.7-1.2,6.9
	s1.8,5.1,8.1,16.3c6,10.7,16.9,21.2,17.8,22.1l0.1,0.2l1.6,4v0.9c-5.7-5.1-11.1-10.5-16.3-16.2c-5-5.6-9.2-11.9-12.5-18.7
	c-2.3-4.6-2.2-7.1-1.4-9.4s1.6-5.9,1.6-5.9c3.5-17.9-5-20.3-5-20.3c-0.6-4.6,2.4-6.2,2.4-6.2c-0.8-7.1-1-14.3-0.6-21.5
	c0.3-6.4,1.4-12.8,3.1-19C69.2,33.1,73,26.5,78,21c5.4-5.9,13.1-8.9,17.9-11.2c2.9-1.3,5.5-3,8-5V4.3l0.4,4.7v0.1
	c-1.4,1.5-7.4,4.5-9.5,5.6s-12,4.3-19.3,15.2S67.1,56,66.8,64.4z"/>
<linearGradient id="SVGID_00000129187269466666711580000012263572954540642736_" gradientUnits="userSpaceOnUse" x1="88.8399" y1="-404.6859" x2="122.2299" y2="-404.9859" gradientTransform="matrix(1 0 0 -1 0 -348)">
	<stop  offset="0" style="stop-color:#D8D8D8"/>
	<stop  offset="0.54" style="stop-color:#767677"/>
	<stop  offset="0.56" style="stop-color:#7E7E7F"/>
	<stop  offset="0.57" style="stop-color:#8C8C8D"/>
	<stop  offset="0.59" style="stop-color:#9E9E9F"/>
	<stop  offset="0.63" style="stop-color:#BDBDBE"/>
	<stop  offset="0.66" style="stop-color:#D4D4D4"/>
	<stop  offset="0.7" style="stop-color:#E1E1E1"/>
	<stop  offset="0.73" style="stop-color:#E6E6E6"/>
	<stop  offset="1" style="stop-color:#4D4D4D"/>
	<stop  offset="1" style="stop-color:#6A6A6A"/>
	<stop  offset="1" style="stop-color:#B9B9B9"/>
	<stop  offset="1" style="stop-color:#D8D8D8"/>
</linearGradient>
<path style="opacity:0.18;fill:url(#SVGID_00000129187269466666711580000012263572954540642736_);" d="M116.3,103
	c0,0-7.5,10.1-7.6,10.7h-1.6V0c1.1,1.6,2.3,3.1,3.6,4.5v0.6c0,0.5-0.1,2-0.3,4.5v0.1l0,0c-0.6,12.4-1.8,47.3,3.2,79l0,0
	C113.9,91.8,114.9,99,116.3,103z"/>
<linearGradient id="SVGID_00000125571131321141940530000006044621298106443680_" gradientUnits="userSpaceOnUse" x1="96.35" y1="-404.85" x2="114.61" y2="-404.85" gradientTransform="matrix(1 0 0 -1 0 -348)">
	<stop  offset="0" style="stop-color:#D8D8D8"/>
	<stop  offset="0.2" style="stop-color:#4D4D4D"/>
	<stop  offset="0.26" style="stop-color:#515151"/>
	<stop  offset="0.31" style="stop-color:#5C5C5C"/>
	<stop  offset="0.36" style="stop-color:#707070"/>
	<stop  offset="0.41" style="stop-color:#8B8B8B"/>
	<stop  offset="0.47" style="stop-color:#AEAEAE"/>
	<stop  offset="0.52" style="stop-color:#D8D8D8"/>
	<stop  offset="0.53" style="stop-color:#FFFFFF"/>
	<stop  offset="0.55" style="stop-color:#D8D8D8"/>
	<stop  offset="0.84" style="stop-color:#4D4D4D"/>
	<stop  offset="0.87" style="stop-color:#6A6A6A"/>
	<stop  offset="0.96" style="stop-color:#B9B9B9"/>
	<stop  offset="1" style="stop-color:#D8D8D8"/>
</linearGradient>
<path style="opacity:0.18;fill:url(#SVGID_00000125571131321141940530000006044621298106443680_);" d="M107.2,0v113.7h-0.6
	c0,0-5.6-8.5-7.7-10.7l0,0c1-5.3,1.9-10.7,2.6-15.9c3.4-25.9,4.4-52,2.8-78l0,0V9c-0.2-2.7-0.3-4.3-0.3-4.7V4.2
	C105.5,3.2,107.2,0,107.2,0z"/>
<linearGradient id="SVGID_00000139270680806372065500000002534161741415960725_" gradientUnits="userSpaceOnUse" x1="28.49" y1="-428.8" x2="108.68" y2="-428.8" gradientTransform="matrix(1 0 0 -1 0 -348)">
	<stop  offset="0" style="stop-color:#D8D8D8"/>
	<stop  offset="0.45" style="stop-color:#333233"/>
	<stop  offset="0.49" style="stop-color:#3B3A3C"/>
	<stop  offset="0.54" style="stop-color:#525153"/>
	<stop  offset="0.61" style="stop-color:#767678"/>
	<stop  offset="0.68" style="stop-color:#9E9FA2"/>
	<stop  offset="0.71" style="stop-color:#9E9FA1"/>
	<stop  offset="0.76" style="stop-color:#929395"/>
	<stop  offset="0.83" style="stop-color:#76787A"/>
	<stop  offset="0.91" style="stop-color:#A7A8AA"/>
	<stop  offset="0.96" style="stop-color:#C6C7C9"/>
</linearGradient>
<path style="opacity:0.18;fill:url(#SVGID_00000139270680806372065500000002534161741415960725_);" d="M101.5,87.1v-1.3
	c-0.3-8.6-3.6-8.5-3.9-8.6c-4.8-1.6-9.4-3.7-13.7-6.3C77.5,66.8,70,61,70,61l0.6,19.5c0,0,18.4,13,21.4,14.4c0,0-0.7,40.1,2.3,57.6
	l-0.1-0.2c-0.9-0.9-11.8-11.4-17.8-22.1c-6.3-11.2-8-14.1-8.1-16.3s0.2-3.2,1.2-6.9s1.9-9.8,1.2-13.4s-1.6-6.3-5.2-8.2
	c-0.3-2.2,0.5-4.3,2.2-5.8c-0.7-5-0.9-10.1-0.8-15.2c0.3-8.4,1.4-23.6,8.7-34.6s17.2-14.2,19.3-15.2s8.1-4,9.5-5.5
	C105.9,35.1,105,61.2,101.5,87.1z"/>
<linearGradient id="SVGID_00000151523644950761812880000014237261852704614307_" gradientUnits="userSpaceOnUse" x1="89.1304" y1="-541.3399" x2="84.3504" y2="-371.67" gradientTransform="matrix(1 0 0 -1 0 -348)">
	<stop  offset="0" style="stop-color:#4D4D4D"/>
	<stop  offset="0.26" style="stop-color:#D8D8D8"/>
	<stop  offset="0.6" style="stop-color:#D8D8D8"/>
	<stop  offset="0.61" style="stop-color:#C6C6C6"/>
	<stop  offset="0.64" style="stop-color:#9F9F9F"/>
	<stop  offset="0.66" style="stop-color:#878787"/>
	<stop  offset="0.68" style="stop-color:#7E7E7E"/>
	<stop  offset="0.69" style="stop-color:#727272"/>
	<stop  offset="0.72" style="stop-color:#5E5E5E"/>
	<stop  offset="0.74" style="stop-color:#515151"/>
	<stop  offset="0.77" style="stop-color:#4D4D4D"/>
</linearGradient>
<path style="opacity:0.18;fill:url(#SVGID_00000151523644950761812880000014237261852704614307_);" d="M98.9,103
	c2.9-19.5,0.5-22.2-0.2-23.3s-3.1-1.6-3.1-1.6c-8.8-2-22.8-12.5-22.8-12.5v13.9L95.1,94c0,0-0.4,22-0.3,27.2
	c0,1.8,0.7,22.9,0.7,22.9l0.4,7.6l0.4,5.7l-0.4-0.9l-1.6-4c-3-17.5-2.2-57.6-2.2-57.6c-3-1.4-21.3-14.4-21.3-14.4L70,61
	c0,0,7.5,5.8,13.9,9.8c4.3,2.6,8.9,4.7,13.7,6.3c0.3,0.1,3.6,0,3.9,8.6V87C100.8,92.3,99.9,97.7,98.9,103z"/>
<linearGradient id="SVGID_00000151543224480737333320000013478543908077594769_" gradientUnits="userSpaceOnUse" x1="110.0198" y1="-482.6059" x2="147.3598" y2="-393.526" gradientTransform="matrix(1 0 0 -1 0 -348)">
	<stop  offset="0" style="stop-color:#4D4D4D"/>
	<stop  offset="6.000000e-02" style="stop-color:#515151"/>
	<stop  offset="0.12" style="stop-color:#5D5D5D"/>
	<stop  offset="0.18" style="stop-color:#707070"/>
	<stop  offset="0.24" style="stop-color:#8C8C8C"/>
	<stop  offset="0.3" style="stop-color:#AFAFAF"/>
	<stop  offset="0.35" style="stop-color:#D8D8D8"/>
	<stop  offset="0.46" style="stop-color:#D8D8D8"/>
	<stop  offset="0.48" style="stop-color:#C6C6C6"/>
	<stop  offset="0.52" style="stop-color:#9F9F9F"/>
	<stop  offset="0.54" style="stop-color:#878787"/>
	<stop  offset="0.56" style="stop-color:#7E7E7E"/>
	<stop  offset="0.58" style="stop-color:#727272"/>
	<stop  offset="0.62" style="stop-color:#5E5E5E"/>
	<stop  offset="0.66" style="stop-color:#515151"/>
	<stop  offset="0.7" style="stop-color:#4D4D4D"/>
</linearGradient>
<path style="opacity:0.18;fill:url(#SVGID_00000151543224480737333320000013478543908077594769_);" d="M143.9,81l-21.4,14.9
	c1.2,15.8-2.1,56.7-2.1,56.7l-1.8,4.8c0.6-2.8,1.5-35.9,1.5-35.9c0.8-6.9-0.2-27.9-0.2-27.9l21.8-13.7l-0.2-13.8c0,0-5.6,3.8-10,6.7
	c-4.2,2.6-8.8,4.6-13.6,5.9c-2.3,0.4-2.5,3.1-2.5,3.1c-1.6,5.1,1.1,21.2,1.1,21.2c-1.4-4-2.4-11.2-2.7-14.4l0,0
	c0-0.4-0.1-0.8-0.1-1.2c-0.2-2.6,0.2-5.3,1.2-7.7c1.1-2.2,3.4-2.5,6.4-3.6s5.8-2.7,10.6-5.5s12.7-9.2,12.7-9.2
	C144.5,63,143.9,81,143.9,81z"/>
<linearGradient id="SVGID_00000092432041620842707730000007609918416653693056_" gradientUnits="userSpaceOnUse" x1="66.91" y1="-429.1" x2="168.38" y2="-429.1" gradientTransform="matrix(1 0 0 -1 0 -348)">
	<stop  offset="0" style="stop-color:#D8D8D8"/>
	<stop  offset="0.36" style="stop-color:#AAACAE"/>
	<stop  offset="0.48" style="stop-color:#D1D2D3"/>
	<stop  offset="0.58" style="stop-color:#C4C4C4"/>
	<stop  offset="0.61" style="stop-color:#CCCDCD"/>
	<stop  offset="0.65" style="stop-color:#E3E4E4"/>
	<stop  offset="0.66" style="stop-color:#E7E8E8"/>
	<stop  offset="0.9" style="stop-color:#353435"/>
	<stop  offset="0.93" style="stop-color:#6B6A6B"/>
	<stop  offset="0.98" style="stop-color:#B9B9B9"/>
	<stop  offset="1" style="stop-color:#D8D8D8"/>
</linearGradient>
<path style="opacity:0.18;fill:url(#SVGID_00000092432041620842707730000007609918416653693056_);" d="M148.8,85.3
	c0,0-4.2,1.5-5.2,7.8s1.8,15.1,2.4,17.5s0.1,2.9,0.1,2.9c-5.5,19.1-25.8,39-25.8,39s3.3-40.9,2.1-56.7L143.9,81c0,0,0.6-18,0.4-19.5
	c-4.1,3.3-8.3,6.4-12.7,9.2c-4.7,2.8-7.5,4.4-10.6,5.5s-5.3,1.3-6.4,3.6c-1,2.4-1.4,5.1-1.2,7.7c0,0.3,0.1,0.7,0.1,1.2
	c-4.9-31.7-3.8-66.6-3.2-79c0.4,1,10.4,5.6,15,7.8c3.1,1.7,6,3.8,8.6,6.2c8.6,8.6,11.1,21.4,12.7,30.4s-0.1,25.4-0.1,25.4
	C149.7,82.4,148.8,85.3,148.8,85.3z"/>
<linearGradient id="SVGID_00000168113295074166768590000009196562383456750761_" gradientUnits="userSpaceOnUse" x1="53.14" y1="-429.15" x2="240.96" y2="-429.15" gradientTransform="matrix(1 0 0 -1 0 -348)">
	<stop  offset="0" style="stop-color:#747474"/>
	<stop  offset="0.19" style="stop-color:#4D4D4D"/>
	<stop  offset="0.41" style="stop-color:#D8D8D8"/>
	<stop  offset="0.5" style="stop-color:#D8D8D8"/>
	<stop  offset="0.56" style="stop-color:#B5B5B5"/>
	<stop  offset="0.63" style="stop-color:#909090"/>
	<stop  offset="0.7" style="stop-color:#737373"/>
	<stop  offset="0.76" style="stop-color:#5E5E5E"/>
	<stop  offset="0.83" style="stop-color:#515151"/>
	<stop  offset="0.9" style="stop-color:#4D4D4D"/>
</linearGradient>
<path style="opacity:0.18;fill:url(#SVGID_00000168113295074166768590000009196562383456750761_);" d="M152,86.8
	c0,0-6.6,3.1-5.8,13.2s3,14.9,3,14.9c0.2,0.9,0.1,1.9-0.2,2.7c-2.4,7.1-6.1,13.6-10.8,19.4c-7.3,8.9-14.4,16.4-19.7,20.4l1.8-4.8
	c0,0,20.2-19.9,25.8-39c0,0,0.5-0.6-0.1-3s-3.4-11.1-2.4-17.5s5.2-7.8,5.2-7.8s0.9-2.9-2.2-5.9c0,0,1.7-16.4,0.1-25.4
	s-4-21.8-12.7-30.4c-2.6-2.5-5.5-4.6-8.6-6.3c-4.5-2.2-14.5-6.8-15-7.8l0,0l0.3-4.5V4.9c3.2,2.6,6.9,4.8,10.7,6.3
	c6.4,2.6,16.1,7.6,22.3,20.3s6.5,27.6,6.5,27.6s0.5,15.8-0.5,21.3C151.5,82.1,152.3,84.5,152,86.8z"/>
<path class="st9" d="M113.6,88.7L113.6,88.7"/>
</svg>
