<?xml version="1.0" encoding="utf-8"?>
<!-- Generator: Adobe Illustrator 26.0.0, SVG Export Plug-In . SVG Version: 6.00 Build 0)  -->
<svg version="1.1" id="Capa_1" xmlns="http://www.w3.org/2000/svg" xmlns:xlink="http://www.w3.org/1999/xlink" x="0px" y="0px"
	 viewBox="0 0 214.7 246.5" style="enable-background:new 0 0 214.7 246.5;" xml:space="preserve">
<style type="text/css">
	.st0{fill:url(#SVGID_1_);}
	.st1{fill:url(#SVGID_00000003083821089026415280000003399774478555917988_);}
	.st2{fill:url(#SVGID_00000102512156345187127210000000722576885062725277_);}
	.st3{fill:url(#SVGID_00000068679570730358235050000007275003875700671643_);}
	.st4{fill:url(#SVGID_00000073693341751662479590000015830553273536191677_);}
	.st5{fill:url(#SVGID_00000178188943403435640190000003568749393689948054_);}
	.st6{fill:url(#SVGID_00000041293138457828020410000006021941253442881181_);}
	.st7{fill:url(#SVGID_00000013176455908259504270000003552662156858161565_);}
	.st8{fill:url(#SVGID_00000035531663948667787540000004744903481608979853_);}
	.st9{fill:none;stroke:#FFFFFF;stroke-width:0.14;stroke-miterlimit:10;}
	.st10{fill:#FFFFFF;}
</style>
<g id="Capa_2_00000047763674486132350550000009382771009047702409_">
	<g id="Capa_1-2">
		
			<radialGradient id="SVGID_1_" cx="102.71" cy="161.25" r="97.23" gradientTransform="matrix(1 0 0 -1 0 248)" gradientUnits="userSpaceOnUse">
			<stop  offset="0" style="stop-color:#7E8082"/>
			<stop  offset="0.38" style="stop-color:#201E1E"/>
			<stop  offset="0.83" style="stop-color:#201E1E"/>
			<stop  offset="0.88" style="stop-color:#6B6A6A"/>
			<stop  offset="0.93" style="stop-color:#B9B9B9"/>
			<stop  offset="0.96" style="stop-color:#D8D8D8"/>
		</radialGradient>
		<path class="st0" d="M94.3,121.8c0,0,11.2,7.8,25.3,0s22.9-32.3,22.9-32.3s4.7-10.2,4.8-11.2s2.8-18.5,2.6-19.1s-8.7-3.8-8.7-3.8
			s-20,7.7-21,7.8s-23.9-3.8-26.3-5S73.8,52.8,73.4,53s-8.4,1-8,2.5s0.8,14.2,1.1,17.2s0.7,14,1.7,14.9s6.2,3.7,7.6,6.1
			s9.3,20.4,9.7,21.6"/>
		
			<linearGradient id="SVGID_00000141425427652472500740000000575092153408377479_" gradientUnits="userSpaceOnUse" x1="78.2798" y1="283.7576" x2="87.0099" y2="139.1276" gradientTransform="matrix(1 0 0 -1 0 248)">
			<stop  offset="0" style="stop-color:#D8D8D8"/>
			<stop  offset="7.000000e-02" style="stop-color:#D3D3D3"/>
			<stop  offset="0.15" style="stop-color:#C5C5C5"/>
			<stop  offset="0.23" style="stop-color:#ADADAD"/>
			<stop  offset="0.32" style="stop-color:#8C8C8C"/>
			<stop  offset="0.41" style="stop-color:#626262"/>
			<stop  offset="0.45" style="stop-color:#4D4D4D"/>
			<stop  offset="0.69" style="stop-color:#454545"/>
			<stop  offset="0.84" style="stop-color:#3D3C3C"/>
		</linearGradient>
		<path style="fill:url(#SVGID_00000141425427652472500740000000575092153408377479_);" d="M66.8,64.4c-0.2,5.1,0.1,10.2,0.8,15.2
			c-1.6,1.5-2.4,3.7-2.2,5.8c3.6,1.9,4.5,4.7,5.2,8.2s-0.2,9.7-1.2,13.4s-1.4,4.7-1.2,6.9s1.8,5.1,8.1,16.3
			c6,10.7,16.9,21.2,17.8,22.1l0.1,0.2l1.6,4v0.9c-5.7-5.1-11.1-10.5-16.3-16.2c-5-5.6-9.2-11.9-12.5-18.7c-2.3-4.6-2.2-7.1-1.4-9.4
			s1.6-5.9,1.6-5.9c3.5-17.9-5-20.3-5-20.3c-0.6-4.6,2.4-6.2,2.4-6.2c-0.8-7.1-1-14.3-0.6-21.5c0.3-6.4,1.4-12.8,3.1-19
			c2.1-7.1,5.9-13.7,10.9-19.2c5.4-5.9,13.1-8.9,17.9-11.2c2.9-1.3,5.5-3,8-5V4.3l0.4,4.7v0.1c-1.4,1.5-7.4,4.5-9.5,5.6
			s-12,4.3-19.3,15.2S67.1,56,66.8,64.4z"/>
		
			<linearGradient id="SVGID_00000064352850319233307780000006214810498216460715_" gradientUnits="userSpaceOnUse" x1="88.84" y1="191.3197" x2="122.23" y2="191.0197" gradientTransform="matrix(1 0 0 -1 0 248)">
			<stop  offset="0" style="stop-color:#D8D8D8"/>
			<stop  offset="0.54" style="stop-color:#767677"/>
			<stop  offset="0.56" style="stop-color:#7E7E7F"/>
			<stop  offset="0.57" style="stop-color:#8C8C8D"/>
			<stop  offset="0.59" style="stop-color:#9E9E9F"/>
			<stop  offset="0.63" style="stop-color:#BDBDBE"/>
			<stop  offset="0.66" style="stop-color:#D4D4D4"/>
			<stop  offset="0.7" style="stop-color:#E1E1E1"/>
			<stop  offset="0.73" style="stop-color:#E6E6E6"/>
			<stop  offset="1" style="stop-color:#4D4D4D"/>
			<stop  offset="1" style="stop-color:#6A6A6A"/>
			<stop  offset="1" style="stop-color:#B9B9B9"/>
			<stop  offset="1" style="stop-color:#D8D8D8"/>
		</linearGradient>
		<path style="fill:url(#SVGID_00000064352850319233307780000006214810498216460715_);" d="M116.3,103c0,0-7.5,10.1-7.6,10.7h-1.6V0
			c1.1,1.6,2.3,3.1,3.6,4.5v0.6c0,0.5-0.1,2-0.3,4.5v0.1l0,0c-0.6,12.4-1.8,47.3,3.2,79l0,0C113.9,91.8,114.9,99,116.3,103z"/>
		
			<linearGradient id="SVGID_00000120544241415770131370000010936339445723244466_" gradientUnits="userSpaceOnUse" x1="96.35" y1="191.155" x2="114.61" y2="191.155" gradientTransform="matrix(1 0 0 -1 0 248)">
			<stop  offset="0" style="stop-color:#D8D8D8"/>
			<stop  offset="0.2" style="stop-color:#4D4D4D"/>
			<stop  offset="0.26" style="stop-color:#515151"/>
			<stop  offset="0.31" style="stop-color:#5C5C5C"/>
			<stop  offset="0.36" style="stop-color:#707070"/>
			<stop  offset="0.41" style="stop-color:#8B8B8B"/>
			<stop  offset="0.47" style="stop-color:#AEAEAE"/>
			<stop  offset="0.52" style="stop-color:#D8D8D8"/>
			<stop  offset="0.53" style="stop-color:#FFFFFF"/>
			<stop  offset="0.55" style="stop-color:#D8D8D8"/>
			<stop  offset="0.84" style="stop-color:#4D4D4D"/>
			<stop  offset="0.87" style="stop-color:#6A6A6A"/>
			<stop  offset="0.96" style="stop-color:#B9B9B9"/>
			<stop  offset="1" style="stop-color:#D8D8D8"/>
		</linearGradient>
		<path style="fill:url(#SVGID_00000120544241415770131370000010936339445723244466_);" d="M107.2,0v113.7h-0.6
			c0,0-5.6-8.5-7.7-10.7l0,0c1-5.3,1.9-10.7,2.6-15.9c3.4-25.9,4.4-52,2.8-78l0,0V9c-0.2-2.7-0.3-4.3-0.3-4.7V4.2
			C105.5,3.2,107.2,0,107.2,0z"/>
		
			<linearGradient id="SVGID_00000037653976882457493370000000014279849522228153_" gradientUnits="userSpaceOnUse" x1="28.49" y1="167.225" x2="108.68" y2="167.225" gradientTransform="matrix(1 0 0 -1 0 248)">
			<stop  offset="0" style="stop-color:#D8D8D8"/>
			<stop  offset="0.45" style="stop-color:#333233"/>
			<stop  offset="0.49" style="stop-color:#3B3A3C"/>
			<stop  offset="0.54" style="stop-color:#525153"/>
			<stop  offset="0.61" style="stop-color:#767678"/>
			<stop  offset="0.68" style="stop-color:#9E9FA2"/>
			<stop  offset="0.71" style="stop-color:#9E9FA1"/>
			<stop  offset="0.76" style="stop-color:#929395"/>
			<stop  offset="0.83" style="stop-color:#76787A"/>
			<stop  offset="0.91" style="stop-color:#A7A8AA"/>
			<stop  offset="0.96" style="stop-color:#C6C7C9"/>
		</linearGradient>
		<path style="fill:url(#SVGID_00000037653976882457493370000000014279849522228153_);" d="M101.5,87.1c0-0.4,0-0.9,0-1.3
			c-0.3-8.6-3.6-8.5-3.9-8.6c-4.8-1.6-9.4-3.7-13.7-6.3C77.5,66.8,70,61,70,61l0.6,19.5c0,0,18.4,13,21.4,14.4
			c0,0-0.7,40.1,2.3,57.6l-0.1-0.2c-0.9-0.9-11.8-11.4-17.8-22.1c-6.3-11.2-8-14.1-8.1-16.3s0.2-3.2,1.2-6.9s1.9-9.8,1.2-13.4
			s-1.6-6.3-5.2-8.2c-0.3-2.2,0.5-4.4,2.2-5.8c-0.7-5-0.9-10.1-0.8-15.2c0.3-8.4,1.4-23.6,8.7-34.6s17.2-14.2,19.3-15.2
			s8.1-4,9.5-5.5C105.9,35.1,105,61.2,101.5,87.1z"/>
		
			<linearGradient id="SVGID_00000016785407639075861590000016758252342786985886_" gradientUnits="userSpaceOnUse" x1="89.1348" y1="54.6599" x2="84.3548" y2="224.3299" gradientTransform="matrix(1 0 0 -1 0 248)">
			<stop  offset="0" style="stop-color:#4D4D4D"/>
			<stop  offset="0.26" style="stop-color:#D8D8D8"/>
			<stop  offset="0.6" style="stop-color:#D8D8D8"/>
			<stop  offset="0.61" style="stop-color:#C6C6C6"/>
			<stop  offset="0.64" style="stop-color:#9F9F9F"/>
			<stop  offset="0.66" style="stop-color:#878787"/>
			<stop  offset="0.68" style="stop-color:#7E7E7E"/>
			<stop  offset="0.69" style="stop-color:#727272"/>
			<stop  offset="0.72" style="stop-color:#5E5E5E"/>
			<stop  offset="0.74" style="stop-color:#515151"/>
			<stop  offset="0.77" style="stop-color:#4D4D4D"/>
		</linearGradient>
		<path style="fill:url(#SVGID_00000016785407639075861590000016758252342786985886_);" d="M98.9,103c2.9-19.5,0.5-22.2-0.2-23.3
			s-3.1-1.6-3.1-1.6c-8.8-2-22.8-12.5-22.8-12.5v13.9L95.1,94c0,0-0.4,22-0.3,27.2c0,1.8,0.7,22.9,0.7,22.9l0.4,7.6l0.4,5.7
			l-0.4-0.9l-1.6-4c-3-17.5-2.2-57.6-2.2-57.6c-3-1.4-21.3-14.4-21.3-14.4L70,61c0,0,7.5,5.8,13.9,9.8c4.3,2.6,8.9,4.7,13.7,6.3
			c0.3,0.1,3.6,0,3.9,8.6c0,0.4,0,0.9,0,1.3C100.8,92.3,99.9,97.7,98.9,103z"/>
		
			<linearGradient id="SVGID_00000021102098501187199450000003651481134893884053_" gradientUnits="userSpaceOnUse" x1="109.9098" y1="113.4417" x2="147.2498" y2="202.5217" gradientTransform="matrix(1 0 0 -1 0 248)">
			<stop  offset="0" style="stop-color:#4D4D4D"/>
			<stop  offset="6.000000e-02" style="stop-color:#515151"/>
			<stop  offset="0.12" style="stop-color:#5D5D5D"/>
			<stop  offset="0.18" style="stop-color:#707070"/>
			<stop  offset="0.24" style="stop-color:#8C8C8C"/>
			<stop  offset="0.3" style="stop-color:#AFAFAF"/>
			<stop  offset="0.35" style="stop-color:#D8D8D8"/>
			<stop  offset="0.46" style="stop-color:#D8D8D8"/>
			<stop  offset="0.48" style="stop-color:#C6C6C6"/>
			<stop  offset="0.52" style="stop-color:#9F9F9F"/>
			<stop  offset="0.54" style="stop-color:#878787"/>
			<stop  offset="0.56" style="stop-color:#7E7E7E"/>
			<stop  offset="0.58" style="stop-color:#727272"/>
			<stop  offset="0.62" style="stop-color:#5E5E5E"/>
			<stop  offset="0.66" style="stop-color:#515151"/>
			<stop  offset="0.7" style="stop-color:#4D4D4D"/>
		</linearGradient>
		<path style="fill:url(#SVGID_00000021102098501187199450000003651481134893884053_);" d="M143.9,81l-21.4,14.9
			c1.2,15.8-2.1,56.7-2.1,56.7l-1.8,4.8c0.6-2.8,1.5-35.9,1.5-35.9c0.8-6.9-0.2-27.9-0.2-27.9l21.8-13.7l-0.2-13.8
			c0,0-5.6,3.8-10,6.7c-4.2,2.6-8.8,4.6-13.6,5.9c-2.3,0.4-2.5,3.1-2.5,3.1c-1.6,5.1,1.1,21.2,1.1,21.2c-1.4-3.9-2.4-11.2-2.7-14.3
			l0,0c0-0.5-0.1-0.9-0.1-1.2c-0.2-2.6,0.2-5.3,1.2-7.7c1.1-2.2,3.4-2.5,6.4-3.6s5.8-2.7,10.5-5.5s12.7-9.2,12.7-9.2
			C144.5,63,143.9,81,143.9,81z"/>
		
			<linearGradient id="SVGID_00000081626372368565891090000008811261775264717489_" gradientUnits="userSpaceOnUse" x1="66.91" y1="166.875" x2="168.38" y2="166.875" gradientTransform="matrix(1 0 0 -1 0 248)">
			<stop  offset="0" style="stop-color:#D8D8D8"/>
			<stop  offset="0.36" style="stop-color:#AAACAE"/>
			<stop  offset="0.48" style="stop-color:#D1D2D3"/>
			<stop  offset="0.58" style="stop-color:#C4C4C4"/>
			<stop  offset="0.61" style="stop-color:#CCCDCD"/>
			<stop  offset="0.65" style="stop-color:#E3E4E4"/>
			<stop  offset="0.66" style="stop-color:#E7E8E8"/>
			<stop  offset="0.9" style="stop-color:#353435"/>
			<stop  offset="0.93" style="stop-color:#6B6A6B"/>
			<stop  offset="0.98" style="stop-color:#B9B9B9"/>
			<stop  offset="1" style="stop-color:#D8D8D8"/>
		</linearGradient>
		<path style="fill:url(#SVGID_00000081626372368565891090000008811261775264717489_);" d="M148.8,85.3c0,0-4.2,1.5-5.2,7.8
			s1.8,15.1,2.4,17.5s0.1,2.9,0.1,2.9c-5.5,19.1-25.8,39-25.8,39s3.3-40.9,2.1-56.7L143.9,81c0,0,0.6-18,0.4-19.5
			c0,0-8,6.4-12.7,9.2s-7.5,4.4-10.6,5.5s-5.3,1.3-6.4,3.6c-1,2.4-1.4,5.1-1.2,7.7c0,0.3,0.1,0.7,0.1,1.2c-4.9-31.7-3.8-66.6-3.2-79
			c0.4,1,10.4,5.6,15,7.8c3.1,1.7,6,3.8,8.6,6.2c8.6,8.6,11.1,21.4,12.7,30.4s-0.1,25.4-0.1,25.4C149.7,82.4,148.8,85.3,148.8,85.3z
			"/>
		
			<linearGradient id="SVGID_00000163790988755711166050000003385515210199791005_" gradientUnits="userSpaceOnUse" x1="53.14" y1="166.875" x2="240.96" y2="166.875" gradientTransform="matrix(1 0 0 -1 0 248)">
			<stop  offset="0" style="stop-color:#747474"/>
			<stop  offset="0.19" style="stop-color:#4D4D4D"/>
			<stop  offset="0.41" style="stop-color:#D8D8D8"/>
			<stop  offset="0.5" style="stop-color:#D8D8D8"/>
			<stop  offset="0.56" style="stop-color:#B5B5B5"/>
			<stop  offset="0.63" style="stop-color:#909090"/>
			<stop  offset="0.7" style="stop-color:#737373"/>
			<stop  offset="0.76" style="stop-color:#5E5E5E"/>
			<stop  offset="0.83" style="stop-color:#515151"/>
			<stop  offset="0.9" style="stop-color:#4D4D4D"/>
		</linearGradient>
		<path style="fill:url(#SVGID_00000163790988755711166050000003385515210199791005_);" d="M152,86.8c0,0-6.6,3.1-5.8,13.2
			s3,14.9,3,14.9c0.2,0.9,0.1,1.9-0.2,2.7c-2.4,7.1-6.1,13.6-10.8,19.4c-7.3,8.9-14.4,16.4-19.7,20.4l1.8-4.8c0,0,20.2-19.9,25.8-39
			c0,0,0.5-0.6-0.1-2.9s-3.4-11.1-2.4-17.5s5.2-7.8,5.2-7.8s0.9-2.9-2.2-5.9c0,0,1.7-16.4,0.1-25.4s-4-21.8-12.7-30.4
			c-2.6-2.5-5.5-4.6-8.6-6.3c-4.5-2.2-14.5-6.8-15-7.8l0,0v0l0.3-4.5V4.9c3.2,2.6,6.9,4.8,10.7,6.3c6.4,2.6,16.1,7.6,22.3,20.3
			s6.5,27.6,6.5,27.6s0.5,15.8-0.5,21.3C151.5,82.1,152.3,84.5,152,86.8z"/>
		<path class="st9" d="M113.6,88.7L113.6,88.7"/>
		<path class="st10" d="M41.1,173.2h0.2v0.1c0,0.7-0.8,2.2-2.4,4.8c-0.1,0.9-0.4,1.8-1,2.5c0.1,0.3,0.1,0.6,0.1,0.9v0.3
			c-0.3,0.7-0.7,1.3-1.2,1.9l-0.7,1.8h0.1l0.3-0.2H37v0.2c-2,3.7-3.4,6.3-4,7.8c-0.1,0.2-0.1,0.4-0.1,0.6c0.1,0.2,0.2,0.5,0.3,0.7
			c-0.9,2.1-1.9,4.2-3.1,6.2c-0.7,1.2-1.2,2.6-1.4,4c-0.2,0.8-0.6,1.6-1.1,2.2c-0.1,0.8-0.5,1.5-1,2c-0.5,2.4-1.1,3.6-1.8,3.6
			c-0.6,0.5-1.2,1-1.7,1.6c-1,0.5-1.9,1.1-2.6,2c-0.5,0.4-1.1,0.7-1.7,0.9v0.3c0,0.3-0.1,0.4-0.3,0.5s-0.4-0.4-0.5-1.2l-0.2-0.1
			h-0.3c0,0.4-0.4,0.9-1.3,1.2l-0.1-0.4v-0.2c0.1-0.2,0.1-0.4,0.2-0.6c-0.1,0-0.1,0-0.1-0.1c-0.2,0-0.5,0.4-1.1,1.2s-1.2,1-1.5,1
			l-0.1-0.2v-0.2c0.9-0.9,1.7-2.8,2.6-5.7c0-0.9,0.2-1.8,0.5-2.6v-0.5c0-0.2-0.1-0.4-0.2-0.6l-0.6,0.1h-0.1
			c-0.3-1.6-0.6-3.2-0.7-4.8v-0.6c0-0.5-0.2-0.7-0.7-0.7l-5.1,9.5c-1,1.1-2.3,1.7-3.8,1.7H5.2c-2.2,0-3.8-1.2-4.6-3.5
			c-0.1-0.6-0.2-1.3-0.2-1.9V204c-0.3-1.9-0.4-3.1-0.4-3.6s0.1-2,0.2-4.7C0.1,194.5,0,193.3,0,192c0-1.1,1-3.3,3-6.6
			c0.8-2.6,1.7-4,2.8-4c0.3,0.1,0.6,0.2,0.9,0.2c0.2-0.2,0.3-0.5,0.3-0.8c-0.1-0.5-0.3-1-0.4-1.5c0-0.1,0.1-0.2,0.2-0.2h0.3l1,1.6
			h0.2v-0.6c-0.3-0.7-0.6-1.5-0.8-2.3c0.1-0.4,0.2-0.6,0.3-0.6H8c0.2,0,0.4,0.4,0.7,1.3c0.8,0.7,1.3,1.7,1.4,2.8
			c-0.2,1.3-0.4,3.2-0.6,5.7c0.1,0.3,0.2,0.6,0.2,0.9v0.2c-0.1,2-0.4,4-0.9,6c-0.8,1.2-1.2,2.7-1.2,4.2c-0.2,0.5-0.3,1-0.3,1.5
			c0.2,1.8,0.3,2.8,0.3,3h0.2v-0.1c0-1.8,0.6-3.5,1.9-4.8c0.7-1,1.2-2,1.6-3.1c0.6-0.8,1.4-1.5,2.3-2v-0.2c-0.2-1-0.3-1.5-0.3-1.6
			s0.3-0.5,0.9-1.1c0.1-0.4,0.5-0.8,1.3-1.3c0-0.6,0.6-1.2,1.6-1.8h0.4l1.1,0.1c0-0.4,0.4-0.9,1.1-1.3c0.3-0.8,0.8-1.6,1.5-2.1
			c0.4-0.8,0.7-1.2,1-1.3h0.2v0.1c-0.1,0.6-0.4,1.2-0.9,1.7c0.1,0.5,0.1,0.7,0.1,0.8c0,0.3,0,0.9-0.1,1.8c0.2,1.2,0.4,2.4,0.8,3.6
			v0.4c-0.2,1.1-0.6,2.1-1.1,3.1v0.4l0.4,2.3v0.3c-0.4,0-0.6,0.3-0.7,1v0.1c0.4,1,0.7,2.1,0.6,3.2v0.2h0.1c0-0.3,0.4-0.6,1.3-0.8
			c0.4-0.7,0.6-1.4,0.7-2.2c0.7-1.1,1.1-2.3,1.3-3.6c1-1.2,1.7-2.6,2.3-4c1.6-1.5,2.4-2.3,2.4-2.5c0.4-0.8,0.7-1.7,0.9-2.5
			c-0.1-0.3-0.2-0.5-0.2-0.8c0.6-1.1,1.4-2.1,2.2-3c0-0.5,0.6-1,1.8-1.4c0.7-0.9,1.4-1.8,2-2.8l0.5-0.3h0.1v0.7l-0.1,0.4h0.5
			c1-1.6,2.1-3.1,3.3-4.6C40.7,173.4,40.9,173.2,41.1,173.2z M4.7,177.9c0.5,0,0.8,0.3,0.8,0.9c-0.2,0.1-0.5,0.2-0.8,0.2H4.4
			c-0.4-0.2-0.6-0.4-0.6-0.6v-0.2C3.8,178.1,4.1,178,4.7,177.9z M6.5,175.9h0.6l0.1,0.4l-0.4,0.2H6.4c0-0.1-0.1-0.2-0.2-0.3
			C6.3,176.1,6.4,176,6.5,175.9L6.5,175.9z M8.5,193.6v0.2h0.1v-0.2H8.5z M13.4,219.7h0.4c0.1,0,0.2,0.1,0.3,0.2v0.3l-0.6,0.1h-0.3
			c0-0.1-0.1-0.2-0.1-0.2C13.3,220,13.3,219.9,13.4,219.7L13.4,219.7z M17.1,218.6h0.2c0.6,0,0.9,0.3,0.9,1
			c-0.2,0.2-0.4,0.3-0.7,0.4c-0.4,0-0.8-0.2-1-0.5v-0.3C16.9,218.9,17,218.7,17.1,218.6L17.1,218.6z M17.2,184.3h1l0.2,0.6v0.3
			c-0.2,0.3-0.5,0.4-0.9,0.4h-0.1c-0.4-0.4-0.5-0.6-0.5-0.8v-0.2C16.8,184.5,16.9,184.4,17.2,184.3L17.2,184.3z M20.6,182.9h0.3
			c0.1,0,0.2,0.1,0.2,0.2v0.4l-0.5,0.1h-0.2c0-0.1,0-0.2-0.1-0.3C20.3,183,20.4,182.9,20.6,182.9L20.6,182.9z M36.4,177.8v0.2h0.2
			v-0.2L36.4,177.8z M36.4,185.6L36.4,185.6l0.2,0.1v-0.1H36.4z"/>
		<path class="st10" d="M56,172.6L56,172.6c0.3,0,0.4,0.8,0.5,2.5c0.3,0,0.5,0.1,0.5,0.4v0.1c0,0.1-0.2,0.2-0.5,0.2v0.2
			c-0.1,0.4,0.2,0.8,0.5,1l0,0c-0.2,0.7-0.3,1-0.3,1.1c0.3,1.2,0.5,2.3,0.5,3.5v0.2c-0.1,1.1-0.4,2.2-1,3.1c-0.2,1-0.3,2-0.4,2.9
			c0.2,0.6,0.4,1.3,0.5,2v0.1c0,0.4-0.4,0.9-1.1,1.5l-0.1,0.4l0.4,1.9v1.2c0,0.2,0,0.5-0.1,0.7l0.2,1.1c-0.4,1.3-0.6,2.6-0.7,3.9
			c1.3,0.4,2,0.8,2,1.2v0.5c0.8,0,1.2,0.2,1.2,0.5v0.1c-0.3,0-0.4,0.1-0.4,0.2s0.4,0.2,1.3,0.2h0.9l0.5,0.1v0.3
			c-1,0.1-1.9,0.3-2.9,0.6c-1.3,0.1-2.6,0.3-3.8,0.6c-0.1,0-0.2,0.1-0.2,0.4v0.9c0.3,0.4,0.4,0.9,0.5,1.4c0,0.2-0.3,1.6-1,4.1
			c-0.9,0.6-1.4,1.6-1.4,2.7c-0.1,0.8-0.4,1.1-0.7,1.1s-0.3-0.3-0.3-0.9h-0.2c-0.5,0.8-0.8,1.7-0.9,2.7c-0.6,1-1.1,2-1.5,3.2h-0.3
			v-0.1c0.1-1.5,0.5-2.9,1-4.3c-0.2-0.4-0.2-0.9-0.2-1.3c0.1-0.4,0.2-0.9,0.2-1.4c-0.2-0.5-0.4-0.9-0.7-1.3c0.2-0.7,0.4-1.4,0.4-2.1
			c0-0.5-0.1-1.1-0.2-1.6l-0.5,0.3h-0.1l-0.1-0.4c0-0.4,0.2-1.7,0.5-3.9c-0.3,0-0.5-0.1-0.8-0.1c-1.8,0.2-2.8,0.3-3.1,0.3v-0.1
			c-0.3-0.3-0.7-0.5-1.2-0.4h-0.1c-1.3,0.2-2,0.4-2,0.7c-0.5,0.5-0.8,1.2-1.1,1.8c-1.4,0.7-2.2,1.4-2.4,2.1c0,0.4-0.3,0.8-1,1.1
			c-0.1,0-0.2-0.1-0.2-0.1v-0.4l0.1-0.4H36c-0.8,1.4-1.9,2.6-3.2,3.6c-0.4,0.7-0.8,1-1,1.1h-0.1l-0.1-0.4c0.4-0.5,0.7-1.1,1-1.6
			c1-0.7,1.6-1.8,1.7-3c0.3-0.4,0.6-0.8,0.7-1.3c-0.1-0.3-0.2-0.5-0.4-0.8c0.4-0.6,0.7-1.3,0.9-2c-0.7-0.1-1.5-0.3-2.2-0.5h-0.1
			c-1.8,0.2-2.7,0.5-2.7,0.9l-1.2,0.1h-2c-0.5-0.1-1.1-0.3-1.6-0.6h-2.5l-0.1-0.4c0.3,0,0.6-0.2,0.7-0.4l-0.9-0.1l-1,0.1l-0.8-0.1
			c-0.7,0.1-1.5,0.1-2.3,0.1h-1.7v-0.1c0-0.3,1.8-0.5,5.3-0.8c1.8-0.4,2.8-0.7,2.9-0.9s1-0.3,3-0.4l0.3-0.2l-0.2-0.2v-0.2
			c3.8-0.2,6.5-0.4,7.9-0.6c0.5-0.2,1-0.9,1.4-1.9c0.5-0.5,0.8-1.1,1.1-1.8c0-0.3-0.1-0.6-0.2-0.9c0.7-1.3,2-3.5,4-6.5
			c0.4-0.8,0.7-1.6,0.8-2.4c0.5-0.4,0.9-1,1-1.7c0.8-0.8,1.2-1.8,1.4-2.9c0.6-0.5,1.3-1,2.1-1.3c0-0.3,0.5-0.5,1.3-0.8
			c0-0.5,0.5-1.2,1.4-2.1c0.7-1.8,1.3-2.7,1.9-2.7c0.3,0.1,0.6,0.1,0.9,0.1c0.5-0.1,0.7-0.6,0.7-1.5l0.4-0.1
			c0.3,0.3,0.4,0.7,0.5,1.1c0.3,0,0.5-0.8,0.8-2.4L56,172.6z M23.6,204.4v0.1h0.1v-0.1H23.6z M29,201.3L29,201.3l0.2,0.1v-0.1H29z
			 M36.6,209.8v0.1h0.1L36.6,209.8L36.6,209.8z M48.4,191.6c-0.9,2.4-1.5,3.9-1.9,4.5c-0.8,0.8-1.5,1.8-2,2.9
			c-0.3,0.3-0.6,0.6-0.8,0.9h0.4c1.3-0.3,2.6-0.4,3.8-0.4l-0.1-0.4V198c0.1-1.3,0.3-2.7,0.6-4v-2.2l0.1-0.1H48.4z M47.8,208.4
			L47.8,208.4l0.2,0.1v-0.1H47.8z M52.6,172.5c0.5,0,0.7,0.2,0.7,0.5v0.3l-0.1,0.4h-0.8c-0.4-0.3-0.6-0.5-0.6-0.6
			C51.8,172.7,52.1,172.5,52.6,172.5L52.6,172.5z M55.4,171.1c0.2,0.1,0.4,0.2,0.5,0.3c-0.1,0.2-0.2,0.3-0.4,0.4H55l-0.1-0.4v-0.2
			L55.4,171.1z M56.5,183.2v0.3h0.1c0.1-0.2,0.1-0.3,0.1-0.3H56.5z M58.8,201h0.9c0.1,0.2,0.2,0.4,0.2,0.6v0.2
			c-0.3,0.1-0.6,0.1-0.9,0.1h-0.5l-0.1-0.5v-0.1C58.7,201.2,58.8,201.1,58.8,201z M61.5,202.8h0.6l0.1,0.4v0.2h-0.6
			c-0.1,0-0.2-0.1-0.2-0.2L61.5,202.8z"/>
		<path class="st10" d="M50.6,196.3h0.2c0.2,0,0.2,0.1,0.2,0.2v0.2c0,0.1-0.1,0.2-0.2,0.2h-0.3l-0.1-0.4
			C50.4,196.3,50.5,196.3,50.6,196.3z M72.1,179.7c0.9,0.1,2.5,0.2,4.8,0.2c2.2,0.4,4.3,1,6.4,1.8c2.5,1.3,3.9,2.2,4.1,2.8
			c0.2,0,0.5,0.2,0.9,0.6c0.7,0.3,1.3,0.9,1.5,1.7c0.3,0.8,0.6,1.6,0.7,2.5c0,1.6-1.6,3.8-4.7,6.8l-5,3.2c-0.6,0.4-1.3,0.7-2.1,0.9
			c0,0.2-1,0.6-2.9,1.1c-0.2,0.1-0.3,0.2-0.3,0.2c1.5,0.7,2.9,1.5,4.3,2.4c0.4,0,0.7,0.2,0.9,0.5c0.2,0,0.7,0.5,1.4,1.4
			c0.5,0.3,0.9,0.7,1.3,1.2c0.7,0.1,1.4,0.3,2.1,0.6c0.8-0.1,1.6,0.3,2,1c0.5,0.4,1,0.8,1.6,1.1c0.1,0.4,0.1,0.6,0.1,0.6
			c-0.1,0.1-0.2,0.1-0.3,0.1v0.1c0.6,0.6,1.3,1.1,2.1,1.5v0.2c0,0.1-0.4,0.2-1.1,0.2c0,0.4,0.5,0.7,1.3,1.1c0,0.2,0.5,0.6,1.6,1.2
			c0.2,0.4,0.5,0.8,0.8,1.1c0.5,0.1,1,0.4,1.3,0.8h-0.6c-0.8-0.6-1.6-1.2-2.5-1.5c-1.7-1.5-3.3-2.2-4.7-2.2c0-0.1-0.1-0.1-0.2-0.1
			v-0.1c0.3,0,0.5-0.1,0.5-0.2c-0.9,0-1.8-0.3-2.6-0.8c-0.5-0.3-1-0.5-1.6-0.6c0-0.2-0.1-0.2-0.2-0.2h-0.1l-0.1,0.3h-0.3
			c-1.4-1.2-3-2.2-4.8-3c-0.8-0.6-1.7-0.8-2.7-0.7c-1-0.3-1.9-0.8-2.7-1.5c-0.5-0.2-1-0.4-1.4-0.6c-1.1-0.5-2.1-1.1-3.1-1.7
			c-0.7-0.4-1.4-0.6-2.2-0.6h-0.3c-0.3,0.1-0.8,0.6-1.4,1.7c-0.3,0-0.5,0.4-0.5,1.3v0.6l0.3,0.8v0.1c0,0.5-0.7,1.7-2,3.4
			c-0.2,0-0.5-0.1-0.7-0.2c-0.8,1.6-1.2,2.5-1.4,2.5c-0.3-0.3-0.6-0.5-0.7-0.5c-0.4,0-0.6,0.1-0.6,0.4s-0.8,1.4-2.3,3
			c-0.5,1.1-0.8,1.6-0.9,1.6l-0.1-0.3c0.7-1.5,1.5-3,2.3-4.4l0.2-0.8c-0.2-0.4-0.2-0.9-0.2-1.3h0.2c-0.2-0.3-0.3-0.6-0.3-0.9
			c0-0.3,0.2-1.4,0.5-3.3l-0.2,0.1H57v-0.2c0.5-1.6,1.2-3.2,2.1-4.8l0.2-1.1c-0.7-0.2-1.4-0.5-2-1l0.1-0.6v-0.6l0.1-0.2
			c-0.9-0.1-1.7-0.3-2.5-0.6c0.1,0,0.2,0,0.3-0.1c0.7,0,1.2,0.1,1.6,0.1h0.5c0.2,0,0.3-0.1,0.4-0.2c-1.7-0.3-3.3-0.9-4.8-1.6h0.4
			c1.4,0.4,2.9,0.5,4.4,0.5v-0.1c0-0.1,0-0.2,0.1-0.2l-0.1-0.4v-0.3c0-0.4,0.4-0.8,1.2-1l0.3-0.3v-0.1c-0.2-0.2-0.4-0.4-0.5-0.7
			c0-0.1,0.1-0.2,0.2-0.2c0,0.2,0.4,0.4,1.2,0.6v-0.4c-0.2-0.8-0.5-1.4-1.1-2v-0.3h0.3c1,1.4,1.8,2.1,2.5,2.1c0.5-1,0.7-2.1,0.7-3.2
			c0-0.2,0.2-0.5,0.6-0.9v-0.5c0-0.5,0.2-1,0.6-1.3c0-0.2-0.1-0.3-0.2-0.5c0.7-1,2-1.8,4.1-2.3c1.2,0,1.8-0.2,1.8-0.4v-0.1
			c-0.2,0-0.5,0-0.7-0.1l-1.5,0.2c-0.8-0.1-1.5-0.2-2.2-0.4v-0.2l0.2-0.2h-0.7c-1.3,0.3-2.6,0.4-3.8,0.4c-0.3-0.1-0.5-0.1-0.8-0.1
			v-0.2c0.3,0,0.5-0.1,0.7-0.3c-0.3-0.2-0.5-0.3-0.5-0.4c-1.8,0.2-3.6,0.7-5.4,1.3c-0.5,0.4-1,0.6-1.6,0.6c-0.2,0-0.3,0-0.5-0.1
			c-0.7,0.3-1.4,0.6-2.2,0.8v-0.2c5.6-2.3,9.1-3.4,10.5-3.4l-0.1-0.2c0.1,0,1.1-0.3,3-0.9H64c0,0.1-0.3,0.2-0.8,0.3v0.1l0.6,0.1
			c1.2-0.6,2.6-0.9,3.9-0.8c1.6-0.2,3.2-0.4,4.8-0.4V180c-0.2,0-0.3,0-0.3-0.2L72.1,179.7z M52.6,198.5c0.4,0,0.8,0.2,1,0.5v0.2
			c-0.3,0.2-0.7,0.3-1,0.3h-0.2c-0.1,0-0.2-0.1-0.3-0.2v-0.6L52.6,198.5z M56.2,192.5c0.5,0.2,0.8,0.4,0.8,0.7v0.2l-0.8,0.1h-0.5
			c-0.2-0.2-0.3-0.5-0.3-0.7C55.6,192.7,55.9,192.6,56.2,192.5L56.2,192.5z M57,190h0.3c0.2,0,0.2,0.1,0.2,0.2v0.2
			c0,0.1-0.1,0.2-0.2,0.2h-0.2c-0.2,0-0.2-0.1-0.2-0.2L57,190z M57,210.8L57,210.8l0.1,0.3H57V210.8z M64.3,185h0.3l0.1,0.4v0.1
			l-0.6,0.1l-0.1-0.4C64.1,185.1,64.2,185,64.3,185L64.3,185z M65.5,182.3L65.5,182.3l0.6,0.1v-0.1H65.5z M75.4,184.1l-0.7-0.1
			c-1.1,0.1-1.6,0.2-1.6,0.4v0.6c0.2,0.6,0.4,1.2,0.3,1.9c0,1-0.3,1.5-0.9,1.5c-0.1,0.4-0.3,0.6-0.6,0.6v0.4c-0.5,0.9-1,1.7-1.6,2.4
			v0.2c0,0,0,0.4,0.1,1.1c-0.4,0.7-1,1.4-1.6,2c-0.2,0.3-0.3,0.7-0.2,1.1c0.6,0.2,1.2,0.2,1.9,0.2c1.9-0.2,3.8-0.6,5.7-1.1
			c0-0.3,0.4-0.6,1.2-1c0.8-0.2,1.6-0.6,2.3-1c0.9,0,1.8-0.6,2.2-1.4c0.6-0.7,1-1.4,1.4-2.3l-0.1-0.2c0.1-0.2,0.1-0.4,0.1-0.6
			c-0.7-2-2.3-3.7-4.3-4.5c-0.4-0.1-0.6-0.1-0.6-0.2l0.1-0.2c-0.4,0-0.7-0.1-1.1-0.2C76.7,184,76,184.1,75.4,184.1L75.4,184.1z
			 M72.7,185.3c0.1,0.1,0.1,0.1,0.1,0.2h0.1v-0.2H72.7z M79.2,193.7v0.2c0.1,0,0.2-0.1,0.3-0.1v-0.1H79.2z M84,196.7v0.2h0.1v-0.2
			H84z M84.9,196.2l-0.1,0.2v0.1h0.1C84.9,196.3,85,196.2,84.9,196.2L84.9,196.2z"/>
		<path class="st10" d="M81.6,196.3h0.2c0.2,0,0.2,0.1,0.2,0.2v0.2c0,0.1-0.1,0.2-0.2,0.2h-0.3l-0.1-0.4
			C81.3,196.3,81.4,196.3,81.6,196.3z M103.1,179.7c0.9,0.1,2.5,0.2,4.8,0.2c2.2,0.4,4.3,1,6.4,1.8c2.5,1.3,3.9,2.2,4.1,2.8
			c0.2,0,0.5,0.2,0.9,0.6c0.7,0.3,1.3,0.9,1.5,1.7c0.3,0.8,0.6,1.6,0.7,2.5c0,1.5-1.6,3.8-4.7,6.8l-5,3.2c-0.6,0.4-1.4,0.7-2.1,0.9
			c0,0.2-1,0.6-2.9,1.1c-0.2,0.1-0.3,0.2-0.3,0.2c1.5,0.7,2.9,1.5,4.3,2.4c0.4,0,0.7,0.2,0.9,0.5c0.2,0,0.7,0.5,1.4,1.4
			c0.5,0.3,0.9,0.7,1.3,1.2c0.7,0.1,1.4,0.3,2.1,0.6c0.8-0.1,1.6,0.3,2,1c0.5,0.4,1,0.8,1.6,1.1c0.1,0.4,0.1,0.6,0.1,0.6
			c-0.1,0-0.2,0.1-0.3,0.1v0.1c0.6,0.6,1.3,1.1,2.1,1.5v0.2c0,0.1-0.4,0.2-1.1,0.2c0,0.4,0.5,0.7,1.3,1.1c0,0.2,0.5,0.6,1.6,1.2
			c0.2,0.4,0.5,0.8,0.8,1.1c0.5,0.1,1,0.4,1.3,0.8h-0.6c-0.8-0.6-1.6-1.2-2.5-1.5c-1.7-1.5-3.3-2.2-4.7-2.2c0-0.1-0.1-0.1-0.2-0.1
			v-0.1c0.3,0,0.5-0.1,0.5-0.2c-0.9,0-1.8-0.3-2.6-0.8c-0.5-0.3-1-0.5-1.6-0.6c0-0.2-0.1-0.2-0.2-0.2h-0.1l-0.1,0.3h-0.3
			c-1.4-1.2-3-2.2-4.8-3c-0.8-0.6-1.7-0.8-2.7-0.7c-1-0.3-1.9-0.8-2.7-1.5c-0.5-0.2-1-0.4-1.4-0.6c-1.1-0.5-2.1-1.1-3.1-1.7
			c-0.7-0.4-1.4-0.6-2.2-0.6h-0.3c-0.3,0.1-0.8,0.6-1.4,1.7c-0.3,0-0.5,0.4-0.5,1.3v0.6l0.3,0.8v0.1c0,0.5-0.7,1.7-2,3.4
			c-0.2,0-0.5-0.1-0.7-0.2c-0.8,1.6-1.2,2.5-1.4,2.5c-0.3-0.3-0.6-0.5-0.7-0.5c-0.4,0-0.6,0.1-0.6,0.4s-0.8,1.4-2.3,3
			c-0.5,1.1-0.8,1.6-0.9,1.6l-0.1-0.3c0.7-1.5,1.5-2.9,2.3-4.4l0.2-0.8c-0.2-0.4-0.2-0.9-0.2-1.3h0.2c-0.2-0.3-0.3-0.6-0.3-0.9
			c0-0.3,0.2-1.4,0.5-3.3l-0.2,0.1H88v-0.2c0.5-1.7,1.2-3.3,2-4.8l0.2-1.1c-0.7-0.2-1.4-0.5-2-1l0.1-0.6v-0.6l0.1-0.2
			c-0.9-0.1-1.7-0.3-2.5-0.6c0.1,0,0.2,0,0.3-0.1c0.7,0,1.2,0.1,1.6,0.1h0.4c0.1,0,0.2-0.1,0.4-0.2c-1.6-0.3-3.2-0.9-4.7-1.6h0.4
			c1.4,0.4,2.9,0.5,4.4,0.5v-0.1c0-0.1,0-0.2,0.1-0.2l-0.1-0.4v-0.3c0-0.4,0.4-0.8,1.2-1l0.3-0.3v-0.1c-0.2-0.2-0.4-0.4-0.5-0.7
			c0-0.1,0.1-0.2,0.2-0.2c0,0.2,0.4,0.4,1.2,0.6v-0.4c-0.2-0.8-0.5-1.4-1.1-2v-0.3h0.3c1,1.4,1.8,2.1,2.4,2.1c0.5-1,0.7-2.1,0.7-3.2
			c0-0.2,0.2-0.5,0.6-0.9v-0.5c0-0.5,0.2-1,0.6-1.3c0-0.2-0.1-0.3-0.2-0.5c0.7-1,2-1.8,4.1-2.3c1.2,0,1.8-0.2,1.8-0.4v-0.1
			c-0.2,0-0.5,0-0.7-0.1l-1.5,0.2c-0.8-0.1-1.5-0.2-2.2-0.4v-0.2l0.2-0.2h-0.7c-1.3,0.3-2.6,0.4-3.8,0.4c-0.3-0.1-0.5-0.1-0.8-0.1
			v-0.2c0.3,0,0.5-0.1,0.7-0.3c-0.3-0.2-0.5-0.3-0.5-0.4c-1.8,0.2-3.6,0.7-5.4,1.3c-0.5,0.4-1,0.6-1.6,0.6c-0.2,0-0.3,0-0.5-0.1
			c-0.7,0.3-1.4,0.6-2.2,0.8v-0.2c5.6-2.3,9.1-3.4,10.5-3.4l-0.1-0.2c0.1,0,1.1-0.3,3-0.9h0.1c0,0.1-0.3,0.2-0.8,0.3v0.1l0.6,0.1
			c1.2-0.6,2.6-0.9,4-0.8c1.6-0.2,3.2-0.4,4.8-0.4V180c-0.2,0-0.3,0-0.3-0.2L103.1,179.7z M83.6,198.5c0.4,0,0.8,0.2,1,0.5v0.2
			c-0.3,0.2-0.7,0.3-1,0.3h-0.2c-0.1,0-0.2-0.1-0.3-0.2v-0.6L83.6,198.5z M87.2,192.5c0.5,0.2,0.8,0.4,0.8,0.7v0.2l-0.8,0.1h-0.5
			c-0.2-0.2-0.3-0.5-0.3-0.7C86.6,192.7,86.9,192.6,87.2,192.5L87.2,192.5z M88,190h0.3c0.2,0,0.2,0.1,0.2,0.2v0.2
			c0,0.1-0.1,0.2-0.2,0.2h-0.2c-0.2,0-0.2-0.1-0.2-0.2L88,190z M88,210.8L88,210.8l0.1,0.3H88L88,210.8z M95.3,185h0.3l0.1,0.4v0.1
			l-0.6,0.1l-0.1-0.4C95.1,185.1,95.2,185,95.3,185L95.3,185z M96.5,182.3L96.5,182.3l0.5,0.1v-0.1H96.5z M106.3,184.1l-0.7-0.1
			c-1.1,0.1-1.6,0.2-1.6,0.4v0.6c0.2,0.6,0.4,1.2,0.3,1.9c0,1-0.3,1.5-0.9,1.5c-0.1,0.4-0.3,0.6-0.6,0.6v0.4c-0.5,0.9-1,1.7-1.6,2.4
			v0.2c0,0,0,0.4,0.1,1.1c-0.4,0.7-1,1.4-1.6,2c-0.2,0.3-0.3,0.7-0.2,1.1c0.6,0.2,1.2,0.2,1.9,0.2c1.9-0.2,3.8-0.6,5.7-1.1
			c0-0.3,0.4-0.6,1.2-1c0.8-0.2,1.6-0.6,2.3-1c0.9-0.1,1.8-0.6,2.2-1.5c0.6-0.7,1-1.4,1.4-2.3l-0.1-0.2c0.1-0.2,0.1-0.4,0.1-0.6
			c-0.7-2-2.3-3.7-4.3-4.5c-0.4-0.1-0.6-0.1-0.6-0.2l0.1-0.2c-0.4,0-0.7-0.1-1.1-0.2C107.7,184,107,184.1,106.3,184.1L106.3,184.1z
			 M103.7,185.3c0.1,0.1,0.1,0.1,0.1,0.2h0.1v-0.2H103.7z M110.2,193.7v0.2c0.1,0,0.2-0.1,0.3-0.1v-0.1H110.2z M114.9,196.7v0.2h0.1
			v-0.2H114.9z M115.9,196.2l-0.1,0.2v0.1h0.1C115.9,196.3,115.9,196.2,115.9,196.2L115.9,196.2z"/>
		<path class="st10" d="M131.8,177.6h0.1c0,0.6-0.1,1.1-0.2,1.7c0,0.1,0.2,0.4,0.6,0.9c-0.1,0.8-0.1,1.2-0.1,1.3
			c0.3,1.9,0.5,3.8,0.4,5.7c-0.7,1.6-1.5,3.1-2.5,4.5c-0.3,1-0.4,2.1-0.4,3.1c-0.8,0.4-1.2,0.9-1.2,1.4c0.1,0.3,0.1,0.5,0.1,0.8
			c-0.4,1-0.7,2.1-0.8,3.2c-0.7,1.2-1.3,2.4-1.5,3.8c-0.2,0.5-0.4,1-0.6,1.5v0.5c-0.3,0.3-0.6,0.6-0.9,1c0.2,0.2,0.3,0.4,0.3,0.6
			c-0.6,2.3-1.1,3.5-1.6,3.5c-0.9,0.4-1.5,1.3-1.5,2.2c-0.2,0.3-0.4,0.6-0.8,0.7c-0.2,0-0.2-0.3-0.3-0.8c-0.1,0-0.2,0-0.3-0.1
			c0,0.3-0.8,1.7-2.4,4c0,0.4-0.3,0.8-0.7,1h-0.2V218c0.3-1.5,0.8-2.9,1.5-4.2v-0.3c0-0.1,0-0.2-0.1-0.3c0.3-0.5,0.4-1.1,0.5-1.7
			c-0.2-0.6-0.4-1-0.4-1c0.4-0.9,0.6-1.8,0.7-2.8l-0.2,0.1h-0.4v-0.3c0.4-1.3,0.8-2.6,1-4c0.4-0.9,0.7-1.9,0.8-2.9
			c-0.1,0-0.3-0.1-0.4-0.3v-0.1c0.2-1,0.4-1.9,0.8-2.8c-0.3,0-0.4-0.1-0.4-0.4v0c0.3-0.9,0.5-1.8,0.5-2.7v-0.5
			c0-0.5-0.1-1.1-0.2-1.6c0.4-1,1-1.9,1.6-2.8c0.2-0.3,0.4-0.7,0.4-1.1c-0.2-0.3-0.3-0.5-0.3-0.5c0.1-0.3,0.2-0.7,0.2-1l-0.3-0.6
			c0.1-0.7,0.4-1.4,0.7-2c0-0.4-0.1-0.9-0.2-1.2c0-0.3,0.5-0.8,1.6-1.4c0.8-0.8,1.7-1.5,2.6-2h1l0.8,0.1c0.2-0.5,0.5-0.7,0.9-0.7
			c0.2,0.2,0.3,0.3,0.3,0.6h0.1c0.2-1.1,0.5-1.6,0.9-1.6c0.2,0,0.3-0.1,0.3-0.3C131.5,177.7,131.6,177.6,131.8,177.6z M127.4,177.2
			h1l0.2,0.6v0.3c-0.2,0.3-0.5,0.4-0.9,0.4c-0.2,0-0.4-0.2-0.8-0.6C127.1,177.4,127.2,177.2,127.4,177.2z M130.9,175.9h0.6l0.1,0.4
			v0.2l-0.6,0.1h-0.3l-0.1-0.3C130.6,176,130.8,175.9,130.9,175.9z"/>
		<path class="st10" d="M147.3,179.5h0.4c0.4,0.3,1,0.5,1.5,0.5h1.1c1.1,0.2,2.1,0.7,3,1.4h0.1c0.3-0.1,0.7-0.1,1-0.2
			c0.3,0,0.7,0.1,0.9,0.4c-0.2,0.4-0.4,0.7-0.7,1c1,1.1,1.5,1.8,1.5,2.3v0.1l-0.6,0.1h-0.2c-0.3,0-0.6,0-0.9-0.2
			c-0.4,0.1-0.5,0.2-0.5,0.5c0.5,0.4,1.2,0.7,1.9,0.8c0-0.2,0.1-0.3,0.3-0.3h0.6c0.7,0.1,1,0.3,1,0.6c0,0.1-0.2,0.3-0.7,0.7
			c1.5,0.8,2.3,2.5,2.3,5c0.5,0.5,0.8,0.9,0.8,1.2c-0.4,1.2-0.7,2.5-0.9,3.7c-0.3,0.6-0.6,1.3-0.6,2l0.6-0.4h0.1v0.1
			c0,1.4-1.6,3.6-4.8,6.6c-1.9,1.6-4.1,2.9-6.4,3.7c-2.8,1.1-4.4,1.7-5,1.8c-0.3,0-0.7,0-1,0.1c-2.3-0.1-4.5-0.7-6.5-1.6
			c-3.4-1.7-5.4-5.2-5.3-8.9v-0.4c0-0.4,0-0.7,0.1-1.1v-0.1h-0.1c-0.4,1.1-0.7,1.6-0.9,1.6l-0.2-0.2v-0.6l0.9-3.2
			c0.1-1.3,0.3-1.9,0.4-1.9v-0.4c-0.2-0.2-0.4-0.5-0.7-0.6c0.4-0.9,0.7-1.7,1-2.6h-0.5c-0.1,0-0.2,0-0.2-0.1v-0.1
			c0.9-1.5,2.1-2.9,3.4-4c0.9-0.5,1.4-0.9,1.4-1.3l-0.1-0.3c1-1,2.2-1.8,3.5-2.4c0.5-0.5,1.9-1,4.3-1.6c0.8-0.7,2.2-1,4.4-1v-0.4
			c0-0.1,0.1-0.2,0.3-0.2v-0.1L147.3,179.5z M153.1,186.3l-0.1,0.2l1.1,0.8v0.3l-0.4,0.1v0.1c0.3,0.2,0.4,0.5,0.4,0.8v0.4h-0.4
			c-0.7-0.7-1.5-1.4-2.3-2.1c-0.9,0.1-1.5,0.2-1.9,0.2c-0.6-0.1-1.1-0.3-1.6-0.6c0,0.4-1,1.5-2.8,3.2c-0.9,1.2-2.1,2.2-3.4,3
			c-1.5,1.6-2.3,3.1-2.3,4.4c-0.1,2.1-0.4,3.1-0.9,3.1l-0.5,0.6c0.2,0.5,0.3,1.1,0.3,1.7c0.8,1.5,1.7,2.2,2.7,2.2
			c0.7,0.3,1.4,0.4,2.2,0.4c1.2-0.2,2.4-0.5,3.6-0.9c0.9,0.1,1.8-0.2,2.4-0.9c0.9-0.6,1.7-1.4,2.3-2.4c0-1,0.3-2,0.9-2.8
			c1.2-1.6,1.8-2.9,1.8-3.7c0.3-0.5,0.7-0.9,1.2-1.1c0.3-0.4,0.4-0.9,0.4-1.4c0-0.9-0.1-1.7-0.3-2.6c0.1-0.1,0.1-0.2,0.1-0.3h0.3
			c0.3,0.2,0.6,0.4,0.9,0.6h0.1c0.1,0,0.2,0,0.2-0.2c-0.7-1.3-1.8-2.4-3.2-3C153.6,186.5,153.3,186.5,153.1,186.3L153.1,186.3z
			 M143.2,191v0.2c0.1,0,0.2-0.1,0.2-0.2H143.2z M158.7,199.9v0.1h0.1v-0.2L158.7,199.9z"/>
		<path class="st10" d="M150.6,196.3h0.2c0.1,0,0.2,0.1,0.2,0.2v0.2c0,0.1-0.1,0.2-0.2,0.2h-0.4l-0.1-0.4
			C150.4,196.3,150.4,196.3,150.6,196.3z M172.1,179.7c0.9,0.1,2.4,0.2,4.8,0.2c2.2,0.4,4.3,1,6.4,1.8c2.5,1.3,3.9,2.2,4.1,2.8
			c0.2,0,0.5,0.2,0.9,0.6c0.7,0.3,1.3,0.9,1.5,1.7c0.3,0.8,0.6,1.6,0.7,2.5c0,1.5-1.6,3.8-4.7,6.8l-5,3.2c-0.6,0.4-1.4,0.7-2.1,0.9
			c-0.1,0.2-1,0.6-2.9,1.1c-0.2,0.1-0.4,0.2-0.4,0.2c1.5,0.7,2.9,1.5,4.3,2.4c0.4,0,0.7,0.2,0.9,0.5c0.2,0,0.7,0.5,1.4,1.4
			c0.5,0.3,0.9,0.7,1.3,1.2c0.7,0.1,1.4,0.3,2.1,0.6c0.8-0.1,1.6,0.3,2,1c0.5,0.4,1,0.8,1.6,1.1c0.1,0.4,0.1,0.6,0.1,0.6
			c-0.1,0-0.2,0.1-0.3,0.1v0.1c0.6,0.6,1.3,1.1,2.1,1.5v0.2c0,0.1-0.4,0.2-1.1,0.2c0,0.4,0.5,0.7,1.3,1.1c0,0.2,0.6,0.6,1.6,1.2
			c0.2,0.4,0.5,0.8,0.8,1.1c0.3,0,0.8,0.3,1.3,0.8h-0.6c-0.8-0.6-1.6-1.1-2.5-1.5c-1.7-1.4-3.3-2.2-4.7-2.2c0-0.1-0.1-0.1-0.2-0.1
			v-0.1c0.3,0,0.5-0.1,0.5-0.2c-0.9,0-1.8-0.3-2.6-0.8c-0.5-0.3-1-0.5-1.6-0.6c0-0.2-0.1-0.2-0.2-0.2h-0.1l-0.1,0.3h-0.4
			c-1.4-1.2-3-2.2-4.8-3c-0.8-0.6-1.7-0.8-2.7-0.7c-1-0.3-1.9-0.8-2.7-1.5c-0.5-0.2-1-0.4-1.4-0.6c-1.1-0.5-2.1-1.1-3.1-1.7
			c-0.7-0.4-1.4-0.6-2.2-0.6h-0.4c-0.3,0.1-0.8,0.6-1.4,1.7c-0.3,0-0.5,0.4-0.5,1.3v0.6l0.3,0.8v0.1c0,0.5-0.7,1.7-2,3.4
			c-0.2,0-0.5-0.1-0.7-0.2c-0.8,1.6-1.2,2.5-1.4,2.5c-0.4-0.3-0.6-0.5-0.7-0.5c-0.4,0-0.6,0.1-0.6,0.4s-0.8,1.4-2.3,3
			c-0.5,1.1-0.8,1.6-0.9,1.6l-0.1-0.3c0.7-1.5,1.5-3,2.3-4.4l0.2-0.8c-0.2-0.4-0.2-0.9-0.2-1.3h0.2c-0.2-0.3-0.3-0.6-0.3-0.9
			c0-0.3,0.1-1.4,0.5-3.3l-0.2,0.1H157v-0.2c0.6-1.6,1.2-3.2,2.1-4.8l0.2-1.1c-0.7-0.2-1.4-0.5-2-1l0.1-0.6v-0.6l0.1-0.2
			c-0.9-0.1-1.7-0.3-2.6-0.6c0.1,0,0.2,0,0.4-0.1c0.7,0,1.2,0.1,1.6,0.1h0.4c0.2,0,0.3-0.1,0.4-0.2c-1.7-0.3-3.3-0.9-4.8-1.7h0.4
			c1.4,0.4,2.9,0.5,4.4,0.5v-0.1c0-0.1,0-0.2,0.1-0.2l-0.1-0.4v-0.3c0-0.4,0.4-0.8,1.2-1l0.4-0.3v-0.1c-0.2-0.2-0.4-0.4-0.5-0.7
			c0-0.1,0.1-0.2,0.2-0.2c0,0.2,0.4,0.4,1.2,0.6v-0.4c-0.2-0.8-0.5-1.5-1.1-2v-0.3h0.4c1,1.4,1.8,2.1,2.4,2.1c0.5-1,0.7-2.1,0.7-3.2
			c0-0.2,0.2-0.5,0.6-0.9v-0.5c0-0.5,0.2-1,0.6-1.3c0-0.2-0.1-0.3-0.2-0.5c1-1.2,2.5-2.1,4.1-2.3c1.2,0,1.8-0.2,1.8-0.4v-0.1
			c-0.2,0-0.5,0-0.7-0.1l-1.5,0.2c-0.8-0.1-1.5-0.2-2.2-0.4v-0.2l0.2-0.2h-0.7c-1.3,0.3-2.6,0.4-3.9,0.4c-0.3-0.1-0.5-0.1-0.8-0.1
			v-0.2c0.3,0,0.6-0.1,0.7-0.3c-0.3-0.2-0.5-0.3-0.5-0.4c-1.8,0.2-3.6,0.7-5.4,1.3c-0.5,0.4-1,0.6-1.6,0.6c-0.2,0-0.3,0-0.5-0.1
			c-0.7,0.3-1.4,0.6-2.2,0.8v-0.2c5.6-2.3,9.1-3.4,10.5-3.4l-0.1-0.2c0.1,0,1.1-0.3,3-0.9h0.1c0,0.1-0.3,0.2-0.8,0.3v0.1l0.6,0.1
			c1.2-0.6,2.6-0.9,4-0.8c1.6-0.2,3.2-0.4,4.8-0.4V180c-0.2,0-0.4,0-0.4-0.2L172.1,179.7z M152.6,198.5c0.4,0,0.7,0.2,1,0.5v0.2
			c-0.3,0.2-0.7,0.3-1,0.3h-0.2c-0.1,0-0.2-0.1-0.3-0.2v-0.6L152.6,198.5z M156.2,192.5c0.6,0.1,0.8,0.4,0.8,0.7v0.2l-0.8,0.1h-0.5
			c-0.2-0.2-0.3-0.5-0.3-0.7C155.6,192.7,155.9,192.6,156.2,192.5L156.2,192.5z M157,190h0.3c0.1,0,0.2,0.1,0.2,0.2v0.2
			c0,0.1-0.1,0.2-0.2,0.2h-0.2c-0.1,0-0.2-0.1-0.2-0.2L157,190z M157,210.8h0.1v0.3H157L157,210.8z M164.3,185h0.3l0.1,0.4v0.1
			l-0.6,0.1l-0.1-0.4C164.1,185.1,164.2,185,164.3,185L164.3,185z M165.5,182.3L165.5,182.3l0.5,0.1v-0.1H165.5z M175.3,184.1
			l-0.7-0.1c-1.1,0.1-1.6,0.2-1.6,0.4v0.6c0.2,0.6,0.4,1.2,0.3,1.9c0,1-0.3,1.5-0.9,1.5c-0.1,0.4-0.3,0.6-0.6,0.6v0.4
			c-0.5,0.8-1,1.7-1.6,2.4v0.2c0,0,0,0.4,0.1,1.1c-0.4,0.7-1,1.4-1.6,2c-0.2,0.3-0.3,0.7-0.2,1.1c0.6,0.2,1.2,0.2,1.9,0.2
			c1.9-0.2,3.8-0.6,5.7-1.1c0-0.3,0.4-0.6,1.2-1c0.8-0.2,1.6-0.6,2.3-1c0.9-0.1,1.8-0.6,2.2-1.5c0.6-0.7,1-1.4,1.4-2.3l-0.1-0.2
			c0.1-0.2,0.1-0.4,0.1-0.6c-0.7-2-2.3-3.7-4.3-4.5c-0.4-0.1-0.6-0.1-0.6-0.2l0.1-0.2c-0.4,0-0.7-0.1-1.1-0.2
			C176.7,184,176,184.1,175.3,184.1L175.3,184.1z M172.7,185.3c0.1,0.1,0.1,0.1,0.1,0.2h0.1v-0.2H172.7z M179.2,193.7v0.2
			c0.1,0,0.2-0.1,0.3-0.1v-0.1H179.2z M183.9,196.7v0.2h0.1v-0.2H183.9z M184.9,196.2l-0.1,0.2v0.1h0.1c0-0.1,0-0.2,0.1-0.2
			L184.9,196.2z"/>
		<path class="st10" d="M204.4,180.3h0.8c2.5,0.2,3.8,0.4,3.8,0.6c0.7,0.3,1.4,0.6,2.1,0.8c0.8,0.7,1.8,1.2,2.7,1.7
			c0.4,0.3,0.7,0.8,0.7,1.4c0,0.6,0.1,1.1,0.1,1.7l-0.4,2.3c-0.2,0.5-0.6,0.8-1.1,0.8h-0.7c-0.1,0-0.3,0.3-0.6,0.8h-0.1
			c-0.2,0-0.3-0.2-0.4-0.5h-0.1c-0.2,0-0.5,0.5-0.7,1.5c-0.2,0.2-0.3,0.3-0.5,0.4h-0.1l-0.1-0.4c0-0.4,0-0.8,0.1-1.1l-0.4-0.1
			c0-0.2,0.2-0.4,0.5-0.6c-0.2-1-0.5-1.5-0.8-1.5c-0.4-0.6-0.8-1.2-1.3-1.8c0-0.3-0.2-0.6-0.5-0.7c-1.4,0-2.8,0.2-4.1,0.6
			c-1.1,0.4-2.1,1-3,1.8c-0.5,0.5-0.8,1.1-1,1.8v0.1c0.1,0.2,0.2,0.4,0.2,0.6c-0.1,0.3-0.2,0.7-0.2,1.1c0.3,0,0.4,0.3,0.4,1
			c0.6,0.4,1.1,1,1.4,1.8c0.6,0.2,0.8,0.4,0.8,0.4v0.1l-0.1,0.5c0.8,0.5,1.7,1,2.6,1.4c3.4,3.3,5.2,5.1,5.2,5.5
			c0.9,1.4,1.4,3,1.5,4.6c0,1.5-0.9,2.8-2.3,3.2c-0.6,0.6-1.2,1.3-1.6,2.1c-1.2,1.1-2.8,1.7-4.4,1.7c-0.5,0.3-1.1,0.5-1.7,0.5
			c-0.6-0.1-1.1-0.1-1.5-0.1h-0.9l-2,0.4h-0.1c-0.4-0.3-0.9-0.5-1.4-0.5l-1.5,0.2c-2.4-0.1-3.6-0.5-3.6-1.1c0-0.2-0.7-0.5-2.2-0.9
			h-0.3c-0.1,0-0.3,0-0.4,0.1c-1-0.3-1.8-0.9-2.4-1.8l0.1-0.5v-0.1c-0.1-0.5-0.3-0.9-0.5-1.4v-0.2h0.4c0,0.2,0.1,0.3,0.3,0.3
			c0,0,0,0,0,0l0.2-0.1c-0.1-1.2-0.3-2.5-0.7-3.7c0-0.1,0.1-0.2,0.1-0.2h0.2c0.1,0,0.3,0.4,0.6,1.1h0.1l-0.1-0.4v-0.6h0.2
			c0.6,0.9,0.9,1.4,1.1,1.4v-0.1c-0.2-0.8-0.3-1.6-0.4-2.4c0.2-1.8,0.7-3.6,1.6-5.3h0.3l0.2,0.1c-0.3,1.3-0.6,2.5-1,3.7
			c-0.1,0.4-0.1,0.8-0.1,1.1c0,0.8,0.7,2.1,2.2,3.8c0.6,0.3,1.2,0.5,1.8,0.7c0.2,0.4,0.6,0.6,1.1,0.6h0.5v0.4l-0.1,0.2
			c0.7,0.4,1.5,0.5,2.4,0.5h0.1v-0.1c-0.4,0-0.8-0.3-1.1-0.6v-0.1c0-0.1,0.1-0.2,0.2-0.2c0.5,0.2,1.1,0.4,1.7,0.5
			c0.8,0.1,1.5,0.2,2.3,0.2l0.2-0.1c0.1,0,0.1,0,0.1,0.1c2.1,0,3.3-0.2,3.6-0.8c0.6-0.3,1-0.9,1-1.5v-0.6c0-0.6-0.1-1.1-0.3-1.7
			c0.1-0.4,0.3-0.6,0.4-0.6c-0.3-0.8-1.6-2-3.8-3.6c-0.2,0-0.3,0-0.3-0.1c-0.3,0-0.6,0.4-1,1.1h-0.1c-0.2-0.3-0.4-0.5-0.5-0.5h-0.1
			c-0.2,0.6-0.3,1.3-0.4,1.9h-0.4c-0.2-0.8-0.4-1.6-0.4-2.4c-0.8-0.4-1.1-0.8-1.1-1.1l0.6-0.4c0-0.2-0.5-0.7-1.6-1.4
			c-0.8-1.8-1.4-2.8-2-2.8c-0.3-0.3-0.5-0.7-0.5-1.1c0.1,0,0.2-0.1,0.2-0.1v-0.1c-0.2-0.5-0.6-1-1-1.5c-0.2-0.6-0.4-1.2-0.4-1.8
			c0.3-2,0.6-3,1.1-3c0.3-0.4,0.5-0.8,0.5-1.3c0.3-0.3,0.5-0.8,0.4-1.2v-0.5c1.5-1.4,2.7-2.1,3.4-2.1c0.7-0.2,1.4-0.4,2.1-0.8
			c0.4,0,0.5,0,0.5,0.1v0.3c-0.1,0-0.3,0.1-0.3,0.2c0,0.1,0.1,0.1,0.2,0.1h0.3C200.2,181.1,202.3,180.4,204.4,180.3z M185.6,205.6
			v0.1h0.1v-0.1H185.6z M185.6,206.4v0.2c0.5,1.3,1.1,2,1.7,2v-0.1c-0.7-0.5-1.3-1.3-1.6-2.1L185.6,206.4z M194.3,197.7L194.3,197.7
			l0.2,0.1v-0.1H194.3z M197.4,203.6c0.3,0.1,0.4,0.1,0.4,0.2v0.3h-0.7v-0.4C197.2,203.7,197.3,203.6,197.4,203.6L197.4,203.6z
			 M199.4,201.6c0.4-0.1,0.9,0.2,0.9,0.7c0,0,0,0.1,0,0.1c-0.2,0.1-0.5,0.2-0.7,0.2h-0.2c-0.2,0-0.3-0.2-0.4-0.7
			C199,201.9,199.1,201.8,199.4,201.6L199.4,201.6z M201.5,186.4l-0.2,0.2h0.1L201.5,186.4L201.5,186.4z M210.2,192.4h0.2
			c0.1,0,0.2,0.1,0.3,0.2s-0.1,0.2-0.4,0.3h-0.1c-0.1,0-0.2-0.1-0.3-0.2v-0.1C209.9,192.6,210,192.5,210.2,192.4L210.2,192.4z
			 M212.8,190.6c0.6,0.1,0.8,0.4,0.8,0.7c-0.1,0.2-0.2,0.3-0.4,0.4h-0.7l-0.1-0.4V191C212.4,190.9,212.5,190.8,212.8,190.6
			L212.8,190.6z"/>
		<path class="st10" d="M154.5,246.3c-0.9,0.2-1.7,0.2-2.6,0.2c-3.4-0.2-5.5-2.2-6.3-6c-0.5-3.2-0.5-6.5,0.2-9.7
			c-0.8,0.1-1.6,0.1-2.4,0.1c-2.8-0.1-4.5-1.2-4.9-3.3c0-0.2,0-0.5,0-0.7c0-1.3,0.4-2.7,1.1-3.8c1.2-2,2.8-3.7,4.7-5
			c1.7-1.2,3.6-2.1,5.7-2.6c1-0.2,1.9-0.3,2.9-0.3c0.2,0,0.4-0.1,0.5-0.3c2.4-3.1,5-5.1,7.8-6c1.7-0.4,3.4,0.6,4,2.2
			c0.8,3.7-0.3,7.2-3.3,10.7c-3.3,3.9-7.7,6.8-12.6,8.2c-0.2,0-0.3,0.2-0.3,0.4c-0.5,3.2-0.5,6.4,0.1,9.5c0.9,4.3,2.9,6.1,6,5.5
			c2.2-0.4,4.6-2.5,7.2-6.1c1.4-2,2.7-4.2,3.7-6.5c0.3-0.8,0.7-1.5,1.1-2.3c0.1,0,0.2,0,0.3,0c0.1,0.4-0.4,1.7-1.5,4
			c-1.6,3.3-3.7,6.3-6.2,8.8C158.2,244.8,156.4,245.8,154.5,246.3z M145.5,230.4c0.2-0.1,0.3-0.3,0.4-0.8c0.2-1,0.5-2.1,0.9-3.1
			c1.3-3.9,3.2-7.6,5.7-10.9c0.1-0.1,0.1-0.2,0.1-0.3c-0.1-0.1-0.2-0.1-0.3-0.1c-3.1,0-6.1,1.1-8.5,3.1c-1.7,1.4-3,3.1-4,5
			c-0.7,1.2-0.9,2.6-0.7,3.9C139.7,229.6,141.8,230.6,145.5,230.4L145.5,230.4z M149,229.8c2.1-0.5,4.1-1.4,5.9-2.6
			c2.4-1.5,4.6-3.5,6.4-5.7c1.3-1.5,2.3-3.3,2.8-5.2c0.4-1.4,0.5-2.8,0.3-4.2c-0.1-0.8-0.4-1.5-1-2c-0.7-0.6-1.7-0.9-2.7-0.7
			c-0.9,0.2-2.1,1.2-3.7,2.9c-1.6,1.8-2.3,2.8-2.3,3c0.1,0,0.1,0,0.2,0l0.3,0.2c0.1,0.1,0.3,0.1,0.4,0.2l-0.2,0.1
			c-0.1,0-0.1,0-0.2-0.1c-0.2-0.1-0.4-0.2-0.7-0.2c-0.1,0.1-0.2,0.2-0.2,0.3c-1.3,2-2.4,4.1-3.3,6.3
			C150.1,224.6,149.4,227.1,149,229.8L149,229.8z"/>
		<path class="st10" d="M172,238.1l-0.3,0.1c-0.6,0.1-1.3,0.1-1.9,0.1c-1.4-0.2-2.4-1.5-2.9-3.8c-0.2-0.9-0.3-1.7-0.3-2.6
			c-0.3-3.6,0.1-7.2,1.1-10.7c1.8-5.5,3.7-9.4,5.7-11.6c1.5-1.6,2.6-2.5,3.5-2.7c0.5-0.1,1,0.1,1.2,0.5c0.2,0.2,0.3,0.5,0.4,0.8
			c0.1,0.6,0.1,1.2-0.1,1.8c-1,3.2-2.6,6.2-4.6,8.9c-0.7,1.2-1.6,2.3-2.6,3.2l-0.7,0.7c-0.4,0.6-0.8,2.5-1,5.9
			c-0.2,1.9-0.2,3.9,0.1,5.8c0.1,0.6,0.3,1.2,0.6,1.8c0.3,0.5,0.9,0.7,1.9,0.5c0.4-0.1,0.7-0.3,0.9-0.5c0.5-0.5,1-1,1.3-1.6
			c1.1-1.6,2-3.1,2.9-4.6c0.5-0.9,0.9-1.4,1-1.4c0.1,0,0.2,0,0.2,0c0,0,0.1,0.1,0.1,0.1c0,0,0.1,0,0.1,0.1l-3.1,5.4
			C174.3,236.6,173.1,237.8,172,238.1z M170.5,222.4c1.3-1.4,2.4-2.9,3.5-4.5c1.3-1.8,2.3-3.7,3.1-5.8c0.4-0.9,0.5-1.9,0.4-2.9
			c-0.1-0.8-0.4-1.2-0.8-1.3c-0.1,0.1-0.2,0.1-0.3,0.2c-1.2,1.2-2.1,2.7-2.7,4.3c-0.8,1.9-1.5,3.8-2.1,5.8c-0.4,1.4-0.8,2.7-1.1,4.1
			L170.5,222.4z"/>
		<path class="st10" d="M179.9,236.6c-0.5,0.1-0.9,0.1-1.4,0.1c-0.7-0.1-1.2-0.7-1.4-1.7c-0.2-2.1,0-4.2,0.8-6.2
			c0.5-1.7,1.2-3.4,2-4.9c0.4-0.5,0.9-0.8,1.5-1c0.3-0.1,0.5,0.1,0.6,0.3c0,0,0,0.1,0,0.1c-0.1,1.9-0.4,3.8-1,5.6
			c-0.6,1.9-0.9,3.8-1.1,5.7v0.4c0.1,0.4,0.2,0.6,0.5,0.6c0.4-0.4,0.8-0.8,1.2-1.3c0.8-0.9,1.4-2,1.8-3.2c0.1-1.5,0.4-2.9,1-4.2
			c1.1-2.8,1.9-4.3,2.4-4.6c0.3-0.2,0.6-0.4,1-0.5c0.3-0.1,0.5,0.2,0.6,0.7c0.1,0.4,0.1,0.7,0,1.1c-0.5,2.4-1,4.1-1.3,5.2
			c-0.5,1.6-0.7,3.2-0.8,4.9c0,0.1,0.2,0.1,0.4,0.1c1.5-1.3,3.2-3.9,5.1-7.7c0.1-0.2,0.2-0.3,0.4-0.3c0.4-0.1,0.6,0,0.6,0.1
			c0,0.1,0,0.3-0.1,0.4c-1,2.2-2.1,4.3-3.5,6.3c-0.7,1-1.8,1.8-3,2.2l-0.9,0.2c-0.6,0-1.1-0.1-1.3-0.4c-0.3-0.5-0.5-1.1-0.6-1.7
			c-0.5,0.8-1,1.6-1.6,2.4C181.4,236,180.7,236.4,179.9,236.6z"/>
		<path class="st10" d="M192.5,236.3c-0.2,0.1-0.4,0-0.4-0.2c0-0.2-0.1-0.4-0.2-0.6c-0.1-0.2-0.1-0.4-0.2-0.6
			c-0.3-1.4-0.4-2.8-0.3-4.2c0-3.4,0.4-6.8,1.2-10.1c0-0.1,0-0.2,0.1-0.3c0.9-3.9,2.1-7.8,3.6-11.6c1.3-3.7,3.5-6.9,6.6-9.3
			c0.5-0.3,1-0.6,1.6-0.7c1.3-0.4,2.7,0.3,3.1,1.6c0,0.1,0.1,0.3,0.1,0.4c0.6,2.6,0.3,5.3-0.9,7.7c-1.1,2.3-2.7,4.3-4.6,6
			c-3.1,2.6-5.2,4-6.3,4.2c-0.3,0.1-0.6,0.4-0.6,0.7c-0.1,0.4-0.1,0.7-0.2,1.1c-0.3,1.4-0.6,2.8-0.6,4.2c-0.1,1.4-0.2,2.6-0.3,3.3
			c-0.1,0.3-0.1,0.7-0.1,1c0,0,0.1,0,0.1,0.1c2.4-5.9,4.7-9.1,7-9.6c0.8-0.3,1.6,0.1,1.9,0.9c0,0.1,0.1,0.2,0.1,0.3
			c0.1,0.6,0,1.1-0.2,1.6c-0.3,2.1-1.1,4.1-2.1,6c0.2,0.1,0.6,0.1,1.2,0c1.3-0.3,2.6-1.7,4.1-4.2c0.4-0.9,0.7-1.4,1-1.5
			c0,0,0.1,0,0.1,0.1c-0.1,0.7-0.3,1.3-0.6,1.9c-0.6,1.1-1.2,2.1-2,3c-0.7,0.8-1.6,1.4-2.7,1.6c-0.5,0.1-1,0.1-1.5,0.1
			c-0.1,0.1-0.2,0.2-0.2,0.3c-0.6,0.9-1.3,1.6-2.2,2.2c-0.8,0.6-1.7,1-2.6,1.2c-0.3,0.1-0.5,0.1-0.8,0c-0.3,0.1-0.5,0.9-0.7,2.4
			C193.5,235.8,193,236.3,192.5,236.3z M195.9,231.8c0.5-0.1,1-0.4,1.4-0.8c0.4-0.5,0.8-1.1,1.1-1.7c-0.1-0.1-0.3-0.1-0.5-0.1
			c-2.7,0.6-3.9,1.3-3.7,2.3C194.3,231.9,194.9,232,195.9,231.8L195.9,231.8z M194.7,229.6c0.2-0.1,0.4-0.2,0.6-0.3
			c0.5-0.3,1.1-0.6,1.7-0.7l1.6-0.2c0.6-0.1,1.1-1.2,1.5-3.2c0.3-1.3,0.4-2.6,0.4-3.9c-0.1-0.6-0.4-0.9-0.7-0.8s-1.1,0.7-1.9,1.9
			c-0.7,1-1.3,2.1-1.9,3.2C195.5,226.9,195,228.2,194.7,229.6L194.7,229.6z M195.4,218.4c1.5-0.3,3.4-1.5,5.8-3.6
			c2.2-1.8,3.9-4.2,4.8-6.9c0.8-2,1-4.2,0.7-6.4c-0.1-1.1-0.9-1.9-2-2c-0.3,0-0.5,0-0.8,0c-2.2,0.5-4.4,4-6.5,10.6
			c-0.5,1.3-1,2.6-1.3,4c-0.2,0.8-0.5,2.3-0.9,4.3L195.4,218.4z"/>
	</g>
</g>
</svg>
