<svg xmlns="http://www.w3.org/2000/svg" xmlns:xlink="http://www.w3.org/1999/xlink" viewBox="0 0 214.69 246.49"><defs><style>.cls-1{fill:url(#Degradado_sin_nombre_30);}.cls-2{fill:url(#Degradado_sin_nombre_15);}.cls-3{fill:url(#Degradado_sin_nombre_77);}.cls-4{fill:url(#Degradado_sin_nombre_21);}.cls-5{fill:url(#Degradado_sin_nombre_38);}.cls-6{fill:url(#Degradado_sin_nombre_17);}.cls-7{fill:url(#Degradado_sin_nombre_65);}.cls-8{fill:url(#Degradado_sin_nombre_64);}.cls-9{fill:url(#Degradado_sin_nombre_2);}.cls-10{fill:none;stroke:#fff;stroke-miterlimit:10;stroke-width:0.14px;}.cls-11{fill:#191919;}</style><radialGradient id="Degradado_sin_nombre_30" cx="102.71" cy="86.75" r="97.23" gradientUnits="userSpaceOnUse"><stop offset="0" stop-color="#7e8082"/><stop offset="0.38" stop-color="#201e1e"/><stop offset="0.83" stop-color="#201e1e"/><stop offset="0.88" stop-color="#6b6a6a"/><stop offset="0.93" stop-color="#b9b9b9"/><stop offset="0.96" stop-color="#d8d8d8"/></radialGradient><linearGradient id="Degradado_sin_nombre_15" x1="78.32" y1="-35.76" x2="87.05" y2="108.87" gradientUnits="userSpaceOnUse"><stop offset="0" stop-color="#d8d8d8"/><stop offset="0.07" stop-color="#d3d3d3"/><stop offset="0.15" stop-color="#c5c5c5"/><stop offset="0.23" stop-color="#adadad"/><stop offset="0.32" stop-color="#8c8c8c"/><stop offset="0.41" stop-color="#626262"/><stop offset="0.45" stop-color="#4d4d4d"/><stop offset="0.69" stop-color="#454545"/><stop offset="0.84" stop-color="#3d3c3c"/></linearGradient><linearGradient id="Degradado_sin_nombre_77" x1="88.84" y1="56.68" x2="122.23" y2="56.98" gradientUnits="userSpaceOnUse"><stop offset="0" stop-color="#d8d8d8"/><stop offset="0.54" stop-color="#767677"/><stop offset="0.56" stop-color="#7e7e7f"/><stop offset="0.57" stop-color="#8c8c8d"/><stop offset="0.59" stop-color="#9e9e9f"/><stop offset="0.63" stop-color="#bdbdbe"/><stop offset="0.66" stop-color="#d4d4d4"/><stop offset="0.7" stop-color="#e1e1e1"/><stop offset="0.73" stop-color="#e6e6e6"/><stop offset="1" stop-color="#4d4d4d"/><stop offset="1" stop-color="#6a6a6a"/><stop offset="1" stop-color="#b9b9b9"/><stop offset="1" stop-color="#d8d8d8"/></linearGradient><linearGradient id="Degradado_sin_nombre_21" x1="96.35" y1="56.85" x2="114.61" y2="56.85" gradientUnits="userSpaceOnUse"><stop offset="0" stop-color="#d8d8d8"/><stop offset="0.2" stop-color="#4d4d4d"/><stop offset="0.26" stop-color="#515151"/><stop offset="0.31" stop-color="#5c5c5c"/><stop offset="0.36" stop-color="#707070"/><stop offset="0.41" stop-color="#8b8b8b"/><stop offset="0.47" stop-color="#aeaeae"/><stop offset="0.52" stop-color="#d8d8d8"/><stop offset="0.53" stop-color="#fff"/><stop offset="0.55" stop-color="#d8d8d8"/><stop offset="0.84" stop-color="#4d4d4d"/><stop offset="0.87" stop-color="#6a6a6a"/><stop offset="0.96" stop-color="#b9b9b9"/><stop offset="1" stop-color="#d8d8d8"/></linearGradient><linearGradient id="Degradado_sin_nombre_38" x1="28.49" y1="80.77" x2="108.68" y2="80.77" gradientUnits="userSpaceOnUse"><stop offset="0" stop-color="#d8d8d8"/><stop offset="0.45" stop-color="#333233"/><stop offset="0.49" stop-color="#3b3a3c"/><stop offset="0.54" stop-color="#525153"/><stop offset="0.61" stop-color="#767678"/><stop offset="0.68" stop-color="#9e9fa2"/><stop offset="0.71" stop-color="#9e9fa1"/><stop offset="0.76" stop-color="#929395"/><stop offset="0.83" stop-color="#76787a"/><stop offset="0.91" stop-color="#a7a8aa"/><stop offset="0.96" stop-color="#c6c7c9"/></linearGradient><linearGradient id="Degradado_sin_nombre_17" x1="89.14" y1="193.34" x2="84.36" y2="23.67" gradientUnits="userSpaceOnUse"><stop offset="0" stop-color="#4d4d4d"/><stop offset="0.26" stop-color="#d8d8d8"/><stop offset="0.6" stop-color="#d8d8d8"/><stop offset="0.61" stop-color="#c6c6c6"/><stop offset="0.64" stop-color="#9f9f9f"/><stop offset="0.66" stop-color="#878787"/><stop offset="0.68" stop-color="#7e7e7e"/><stop offset="0.69" stop-color="#727272"/><stop offset="0.72" stop-color="#5e5e5e"/><stop offset="0.74" stop-color="#515151"/><stop offset="0.77" stop-color="#4d4d4d"/></linearGradient><linearGradient id="Degradado_sin_nombre_65" x1="109.89" y1="134.55" x2="147.23" y2="45.47" gradientUnits="userSpaceOnUse"><stop offset="0" stop-color="#4d4d4d"/><stop offset="0.06" stop-color="#515151"/><stop offset="0.12" stop-color="#5d5d5d"/><stop offset="0.18" stop-color="#707070"/><stop offset="0.24" stop-color="#8c8c8c"/><stop offset="0.3" stop-color="#afafaf"/><stop offset="0.35" stop-color="#d8d8d8"/><stop offset="0.46" stop-color="#d8d8d8"/><stop offset="0.48" stop-color="#c6c6c6"/><stop offset="0.52" stop-color="#9f9f9f"/><stop offset="0.54" stop-color="#878787"/><stop offset="0.56" stop-color="#7e7e7e"/><stop offset="0.58" stop-color="#727272"/><stop offset="0.62" stop-color="#5e5e5e"/><stop offset="0.66" stop-color="#515151"/><stop offset="0.7" stop-color="#4d4d4d"/></linearGradient><linearGradient id="Degradado_sin_nombre_64" x1="66.91" y1="81.07" x2="168.38" y2="81.07" gradientUnits="userSpaceOnUse"><stop offset="0" stop-color="#d8d8d8"/><stop offset="0.36" stop-color="#aaacae"/><stop offset="0.48" stop-color="#d1d2d3"/><stop offset="0.58" stop-color="#c4c4c4"/><stop offset="0.61" stop-color="#cccdcd"/><stop offset="0.65" stop-color="#e3e4e4"/><stop offset="0.66" stop-color="#e7e8e8"/><stop offset="0.9" stop-color="#353435"/><stop offset="0.93" stop-color="#6b6a6b"/><stop offset="0.98" stop-color="#b9b9b9"/><stop offset="1" stop-color="#d8d8d8"/></linearGradient><linearGradient id="Degradado_sin_nombre_2" x1="53.14" y1="81.13" x2="240.96" y2="81.13" gradientUnits="userSpaceOnUse"><stop offset="0" stop-color="#747474"/><stop offset="0.19" stop-color="#4d4d4d"/><stop offset="0.41" stop-color="#d8d8d8"/><stop offset="0.5" stop-color="#d8d8d8"/><stop offset="0.56" stop-color="#b5b5b5"/><stop offset="0.63" stop-color="#909090"/><stop offset="0.7" stop-color="#737373"/><stop offset="0.76" stop-color="#5e5e5e"/><stop offset="0.83" stop-color="#515151"/><stop offset="0.9" stop-color="#4d4d4d"/></linearGradient></defs><g id="Capa_2" data-name="Capa 2"><g id="Capa_1-2" data-name="Capa 1"><path class="cls-1" d="M94.35,121.78s11.19,7.78,25.27,0,22.87-32.26,22.87-32.26,4.69-10.23,4.79-11.19,2.78-18.55,2.56-19.09-8.74-3.83-8.74-3.83-20,7.67-21,7.78-23.89-3.84-26.34-5S73.82,52.85,73.4,53s-8.43,1-8,2.46.85,14.18,1.07,17.16.74,14,1.7,14.93,6.19,3.73,7.57,6.08,9.28,20.36,9.7,21.64"/><path class="cls-2" d="M66.82,64.45a91.1,91.1,0,0,0,.78,15.18,6.8,6.8,0,0,0-2.17,5.83c3.59,1.88,4.48,4.65,5.19,8.2s-.23,9.65-1.22,13.36-1.38,4.66-1.22,6.88S70,119,76.31,130.18c6,10.72,16.9,21.21,17.81,22.08l.09.22,1.63,4,0,.85a213.41,213.41,0,0,1-16.27-16.25,80.18,80.18,0,0,1-12.47-18.66c-2.28-4.58-2.24-7.14-1.42-9.42s1.63-5.93,1.63-5.93c3.52-17.86-5-20.34-5-20.34-.61-4.56,2.4-6.21,2.4-6.21a131.12,131.12,0,0,1-.64-21.5,84,84,0,0,1,3.13-19A49.23,49.23,0,0,1,78.12,20.84C83.52,14.91,91.23,11.92,96,9.69a38.36,38.36,0,0,0,8-5v-.4L104.37,9v.05C103,10.56,97,13.54,94.91,14.61s-12,4.26-19.35,15.24S67.09,56,66.82,64.45Z"/><path class="cls-3" d="M116.34,103s-7.46,10.08-7.57,10.69h-1.6V0a38.42,38.42,0,0,0,3.56,4.46v.61c0,.48-.14,2-.26,4.47V9.6h0c-.62,12.4-1.75,47.29,3.15,79h0C113.94,91.82,114.93,99,116.34,103Z"/><path class="cls-4" d="M107.17,0V113.69h-.6s-5.63-8.47-7.66-10.71h0c1-5.34,1.89-10.66,2.62-15.9a409.43,409.43,0,0,0,2.84-78h0V9c-.17-2.69-.31-4.33-.35-4.71V4.22C105.48,3.24,107.17,0,107.17,0Z"/><path class="cls-5" d="M101.53,87.09c0-.45,0-.9,0-1.35-.29-8.57-3.63-8.49-3.91-8.6a68.47,68.47,0,0,1-13.69-6.33C77.48,66.8,70,61,70,61l.6,19.51S89,93.49,92,94.91c0,0-.74,40.15,2.26,57.57l-.09-.22c-.91-.87-11.79-11.36-17.81-22.08-6.29-11.19-8-14.07-8.13-16.28s.24-3.18,1.22-6.88,1.93-9.8,1.22-13.36-1.6-6.32-5.19-8.2a6.8,6.8,0,0,1,2.17-5.83,91.1,91.1,0,0,1-.78-15.18c.27-8.42,1.38-23.61,8.74-34.6S92.83,15.67,94.91,14.61s8.07-4,9.46-5.54A409.43,409.43,0,0,1,101.53,87.09Z"/><path class="cls-6" d="M98.91,103c2.93-19.51.46-22.18-.21-23.29s-3.09-1.57-3.09-1.57c-8.8-2-22.82-12.53-22.82-12.53V79.49L95.05,94s-.45,22-.31,27.24c0,1.8.74,22.9.74,22.9l.43,7.55.36,5.71-.43-.85-1.63-4C91.21,135.06,92,94.91,92,94.91c-3-1.42-21.33-14.43-21.33-14.43L70,61s7.46,5.83,13.89,9.84A68.47,68.47,0,0,0,97.6,77.14c.28.11,3.62,0,3.91,8.6,0,.45,0,.9,0,1.35C100.8,92.33,99.94,97.65,98.91,103Z"/><path class="cls-7" d="M143.9,81,122.47,95.9c1.18,15.78-2.1,56.65-2.1,56.65l-1.84,4.81c.57-2.83,1.52-35.87,1.52-35.87.77-6.93-.17-27.9-.17-27.9l21.75-13.68-.25-13.82s-5.61,3.8-10,6.68a50.72,50.72,0,0,1-13.61,5.91c-2.28.4-2.49,3.08-2.49,3.08-1.64,5.12,1.08,21.23,1.08,21.23-1.41-3.95-2.4-11.17-2.74-14.35h0c0-.52-.09-.93-.11-1.2a17.66,17.66,0,0,1,1.2-7.7c1.09-2.24,3.36-2.51,6.37-3.58s5.79-2.71,10.55-5.48,12.72-9.2,12.72-9.2C144.49,63,143.9,81,143.9,81Z"/><path class="cls-8" d="M148.81,85.35s-4.23,1.46-5.23,7.82,1.75,15.14,2.42,17.48.14,2.95.14,2.95c-5.54,19.09-25.77,39-25.77,39s3.28-40.87,2.1-56.65L143.9,81s.59-18,.43-19.51c0,0-8,6.43-12.72,9.2s-7.54,4.42-10.55,5.48-5.28,1.34-6.37,3.58a17.66,17.66,0,0,0-1.2,7.7c0,.27.06.68.11,1.2-4.9-31.74-3.77-66.63-3.15-79,.44,1,10.43,5.65,15,7.83A37.41,37.41,0,0,1,134,23.72c8.64,8.59,11.09,21.43,12.69,30.39s-.09,25.38-.09,25.38C149.73,82.43,148.81,85.35,148.81,85.35Z"/><path class="cls-9" d="M152,86.81S145.4,89.9,146.25,100s3,14.86,3,14.86a4.48,4.48,0,0,1-.25,2.73A62.24,62.24,0,0,1,138.2,137c-7.3,8.85-14.45,16.45-19.67,20.35l1.84-4.81s20.23-19.86,25.77-39c0,0,.54-.6-.14-2.95s-3.41-11.12-2.42-17.48,5.23-7.82,5.23-7.82.92-2.92-2.17-5.86c0,0,1.69-16.43.09-25.38s-4-21.8-12.69-30.39a37.41,37.41,0,0,0-8.63-6.29c-4.53-2.18-14.52-6.83-15-7.83h0V9.54l.26-4.47V4.9a42.75,42.75,0,0,0,10.73,6.35c6.4,2.61,16.1,7.57,22.34,20.31s6.5,27.63,6.5,27.63.5,15.78-.5,21.33A7.08,7.08,0,0,1,152,86.81Z"/><path class="cls-10" d="M113.61,88.67v0"/><path class="cls-11" d="M41.14,173.19h.22v.07q0,1-2.4,4.75a4.71,4.71,0,0,1-1,2.46,4.53,4.53,0,0,1,.1.86v.33a14.57,14.57,0,0,1-1.18,1.88l-.67,1.75h.12l.32-.16H37v.16c-2,3.72-3.39,6.34-4,7.83a3.82,3.82,0,0,0-.1.63,2.26,2.26,0,0,0,.32.7,50.25,50.25,0,0,1-3.13,6.19,12.49,12.49,0,0,0-1.43,4,5.07,5.07,0,0,1-1.09,2.21,3.71,3.71,0,0,1-1,2c-.51,2.43-1.09,3.65-1.75,3.65a9.16,9.16,0,0,0-1.73,1.58,7.55,7.55,0,0,0-2.61,2,3.94,3.94,0,0,1-1.73.86v.33c0,.27-.11.43-.32.46s-.35-.39-.45-1.18l-.22-.07h-.32c0,.43-.43.85-1.31,1.25l-.1-.39v-.24a4.7,4.7,0,0,1,.23-.62c-.09,0-.13,0-.13-.08-.18,0-.54.4-1.08,1.19s-1.18,1-1.51,1l-.12-.16v-.23q1.31-1.32,2.61-5.7a8.58,8.58,0,0,1,.55-2.6v-.49a1.09,1.09,0,0,0-.22-.63l-.55.09h-.1a33.22,33.22,0,0,1-.66-4.83v-.56c0-.47-.25-.7-.74-.7l-5.11,9.49A5.29,5.29,0,0,1,5.43,214H5.21C3,214,1.46,212.83.64,210.52a8.67,8.67,0,0,1-.22-1.9V204c-.28-1.94-.42-3.12-.42-3.55s.07-2,.22-4.68A33.12,33.12,0,0,1,0,192q0-1.66,3-6.56c.79-2.64,1.72-3.95,2.81-3.95a2.6,2.6,0,0,0,.89.16,1,1,0,0,0,.32-.79,13.53,13.53,0,0,0-.45-1.51c0-.11.09-.17.23-.17h.32l1,1.59h.23v-.56a10.82,10.82,0,0,1-.77-2.28c.05-.37.16-.56.32-.56H8c.16,0,.39.44.67,1.26a4.16,4.16,0,0,1,1.4,2.77q-.31,2-.64,5.69a1.71,1.71,0,0,1,.2.88v.24a40.18,40.18,0,0,1-.86,6,7.06,7.06,0,0,0-1.19,4.19,3.55,3.55,0,0,0-.32,1.51c.21,1.76.32,2.76.32,3h.22v-.07A7,7,0,0,1,9.65,198a15.3,15.3,0,0,0,1.63-3.07,8.06,8.06,0,0,1,2.29-2v-.23c-.21-1-.32-1.52-.32-1.58s.29-.52.87-1.05c.06-.35.5-.8,1.3-1.33,0-.57.55-1.18,1.63-1.83h.42l1.09.09c.05-.45.41-.88,1.08-1.28a4.51,4.51,0,0,1,1.53-2.12c.36-.79.68-1.21,1-1.27h.22v.09a3.28,3.28,0,0,1-.87,1.72c.07.47.1.73.1.79,0,.26,0,.87-.1,1.84a25.52,25.52,0,0,0,.77,3.63v.39a11.68,11.68,0,0,1-1.09,3.09v.4l.42,2.28v.33c-.39,0-.64.31-.74,1V198a7.29,7.29,0,0,1,.64,3.17v.25h.1c0-.3.44-.57,1.31-.79a4.91,4.91,0,0,0,.67-2.23,9.19,9.19,0,0,0,1.28-3.56,14.5,14.5,0,0,0,2.29-4c1.6-1.47,2.4-2.32,2.4-2.53a13.54,13.54,0,0,0,.86-2.54,3.91,3.91,0,0,1-.22-.79,20.44,20.44,0,0,1,2.17-3c0-.51.62-1,1.85-1.42a20.65,20.65,0,0,0,1.95-2.77l.54-.32h.1v.72l-.1.4h.45A48.75,48.75,0,0,1,40.49,174C40.72,173.46,40.94,173.19,41.14,173.19ZM4.66,177.94c.51,0,.77.31.77.95a1.68,1.68,0,0,1-.77.23H4.44c-.43-.16-.64-.37-.64-.63v-.25C3.8,178.09,4.09,178,4.66,177.94Zm1.85-2h.55l.1.39-.42.24H6.39c0-.09-.06-.19-.2-.32C6.29,176.06,6.4,176,6.51,176Zm2,17.63v.16h.1v-.16Zm4.89,26.17h.44c.1,0,.21.08.33.25v.31l-.55.09h-.32a.46.46,0,0,0-.12-.25A.7.7,0,0,0,13.35,219.76Zm3.7-1.19h.2c.59,0,.89.32.89,1a1.11,1.11,0,0,1-.67.39,1.2,1.2,0,0,1-1-.46v-.33C16.87,218.86,17.05,218.67,17.05,218.57Zm.1-34.24h1l.19.56v.33a1,1,0,0,1-.86.39h-.1c-.36-.38-.54-.65-.54-.79v-.25C16.83,184.5,16.94,184.42,17.15,184.33Zm3.36-1.42h.34c.13,0,.2.07.2.17v.39l-.54.07h-.2a.41.41,0,0,0-.12-.3C20.3,183,20.41,182.91,20.51,182.91Zm15.86-5.06V178h.23v-.16Zm0,7.76v.07h.23v-.07Z"/><path class="cls-11" d="M56,172.65h.09c.22,0,.35.84.4,2.52.33,0,.49.12.49.36v.07c0,.11-.16.18-.49.22V176A1,1,0,0,0,57,177V177c-.19.67-.29,1-.29,1.08a15.78,15.78,0,0,1,.49,3.52v.21a6.18,6.18,0,0,1-1,3.1,27.14,27.14,0,0,0-.39,2.94,9.46,9.46,0,0,1,.49,2v.14c0,.36-.36.86-1.08,1.51l-.1.43.39,1.94v1.23a2.64,2.64,0,0,1-.1.71l.2,1.15a17.94,17.94,0,0,0-.69,3.89c1.32.36,2,.76,2,1.22v.5c.79,0,1.19.17,1.19.51v.07c-.26,0-.4.09-.4.21s.43.22,1.29.22h.89l.49.07V204a11,11,0,0,0-2.86.64,34.86,34.86,0,0,0-3.85.58c-.12,0-.18.12-.2.36v.93a3.78,3.78,0,0,1,.49,1.44c0,.21-.33,1.57-1,4.1a3.34,3.34,0,0,0-1.39,2.73c-.14.77-.37,1.15-.69,1.15s-.29-.31-.29-.93h-.2a5.68,5.68,0,0,0-.89,2.66A13.75,13.75,0,0,0,48,220.82h-.3v-.14a15.33,15.33,0,0,1,1-4.32,3.24,3.24,0,0,1-.2-1.29,7.89,7.89,0,0,0,.2-1.37,4.41,4.41,0,0,0-.69-1.29,8.78,8.78,0,0,0,.4-2.09,6.91,6.91,0,0,0-.2-1.58l-.5.29h-.09l-.1-.36c0-.41.16-1.72.49-3.95a6.64,6.64,0,0,0-.79-.08c-1.78.2-2.8.29-3.06.29v-.07a1.42,1.42,0,0,0-1.18-.43h-.1q-2,.28-2,.72A4.7,4.7,0,0,0,39.83,207c-1.38.67-2.17,1.36-2.37,2.08,0,.4-.33.78-1,1.15-.13,0-.2-.05-.2-.14v-.43l.1-.36H36a14.06,14.06,0,0,1-3.16,3.59q-.65,1-1,1.08h-.1l-.09-.36a10.32,10.32,0,0,0,1-1.65,4.08,4.08,0,0,0,1.68-3,3,3,0,0,0,.69-1.3,4,4,0,0,0-.39-.79,7.72,7.72,0,0,0,.89-2,15.55,15.55,0,0,1-2.18-.5h-.1c-1.77.24-2.66.52-2.66.86l-1.18.07h-2a10.38,10.38,0,0,1-1.58-.57H23.34l-.09-.36a.74.74,0,0,0,.69-.43l-.89-.08-1,.08-.79-.08A16.22,16.22,0,0,1,19,204H17.32v-.15c0-.27,1.78-.54,5.33-.79,1.83-.39,2.78-.7,2.87-.93s1-.3,3-.43l.29-.22-.19-.21v-.22q5.74-.36,7.89-.57.77-.31,1.38-1.95a6.23,6.23,0,0,0,1.09-1.79,3.84,3.84,0,0,0-.2-.94q1.07-2,3.95-6.47a7,7,0,0,0,.79-2.44,2.7,2.7,0,0,0,1-1.66,5.12,5.12,0,0,0,1.38-2.87,7.66,7.66,0,0,1,2.07-1.3c0-.26.46-.52,1.29-.79,0-.5.46-1.19,1.38-2.08.69-1.78,1.31-2.66,1.87-2.66a9,9,0,0,0,.89.14c.46-.12.69-.62.69-1.51l.4-.07a2.6,2.6,0,0,1,.49,1.15c.26,0,.53-.81.79-2.44ZM23.64,204.43v.14h.1v-.14ZM29,201.27v.07h.2v-.07Zm7.6,8.48v.14h.1v-.14Zm11.85-18.12c-.93,2.39-1.55,3.9-1.88,4.53a9.18,9.18,0,0,0-2,2.88,6.33,6.33,0,0,0-.79.93h.39a16.89,16.89,0,0,1,3.85-.43l-.1-.36V198a20.72,20.72,0,0,1,.59-4v-2.22l.1-.15Zm-.6,16.75v.08H48v-.08Zm4.74-35.87c.46,0,.69.17.69.5v.29l-.1.36h-.79c-.39-.26-.59-.46-.59-.58C51.82,172.7,52.08,172.51,52.56,172.51Zm2.77-1.44a1.1,1.1,0,0,1,.49.29.7.7,0,0,1-.4.36H55l-.1-.36v-.22Zm1.18,12.08v.29h.1c.06-.17.1-.27.1-.29ZM58.78,201h.89a2.14,2.14,0,0,1,.2.65v.21A4.51,4.51,0,0,1,59,202h-.5l-.09-.5v-.07C58.65,201.22,58.78,201.07,58.78,201Zm2.76,1.8h.6l.09.36v.21h-.59a.18.18,0,0,1-.2-.21Z"/><path class="cls-11" d="M50.59,196.27h.24c.15,0,.23.08.23.16v.25c0,.11-.08.16-.23.16h-.34l-.13-.41C50.38,196.32,50.46,196.27,50.59,196.27ZM72.1,179.72c.86.1,2.46.18,4.79.23a30.79,30.79,0,0,1,6.39,1.78c2.54,1.33,3.89,2.25,4.07,2.75.23,0,.54.21.92.65a2.72,2.72,0,0,1,1.53,1.7,10.74,10.74,0,0,1,.69,2.5c0,1.55-1.56,3.81-4.66,6.78l-5,3.23a6.12,6.12,0,0,1-2.1.9c0,.25-1,.63-2.91,1.13-.23.12-.34.2-.34.24A42,42,0,0,1,79.78,204a1.15,1.15,0,0,1,.94.49c.21,0,.68.48,1.4,1.46a6,6,0,0,1,1.26,1.2,7.84,7.84,0,0,1,2.1.57,2.06,2.06,0,0,1,2,1,9.1,9.1,0,0,0,1.63,1.13c.08.38.13.59.13.63a1,1,0,0,1-.35.09v.07a8.83,8.83,0,0,0,2.1,1.54v.17c0,.09-.36.17-1.06.23,0,.37.47.72,1.28,1.06,0,.2.54.6,1.63,1.2a3.42,3.42,0,0,0,.81,1.06,2.16,2.16,0,0,1,1.29.81h-.6a10.37,10.37,0,0,0-2.54-1.54Q89.18,213,87.11,213c0-.06-.08-.09-.22-.09v-.07c.31,0,.46-.05.46-.16a4.22,4.22,0,0,1-2.56-.81,3.48,3.48,0,0,0-1.63-.57c0-.16-.07-.24-.22-.24h-.13l-.12.33h-.34a19.17,19.17,0,0,0-4.77-3,3.8,3.8,0,0,0-2.69-.74,6.54,6.54,0,0,1-2.66-1.52,5.7,5.7,0,0,1-1.41-.65,21.88,21.88,0,0,1-3.13-1.71,6.11,6.11,0,0,0-2.2-.64h-.34c-.3.06-.77.62-1.41,1.7-.31,0-.47.43-.47,1.3v.64l.35.81v.07c0,.54-.66,1.68-2,3.4a1.72,1.72,0,0,1-.69-.16c-.76,1.64-1.22,2.47-1.41,2.5-.34-.33-.57-.49-.69-.49-.39,0-.59.14-.59.42s-.77,1.42-2.32,3c-.49,1.08-.8,1.62-.91,1.62l-.12-.33a43.69,43.69,0,0,1,2.32-4.36l.22-.81a3.3,3.3,0,0,1-.22-1.3h.22a2.87,2.87,0,0,1-.35-.88c0-.26.16-1.36.47-3.3l-.22.07H57v-.16a29.2,29.2,0,0,1,2.08-4.77l.24-1.13a5.77,5.77,0,0,1-2-1l.1-.58v-.55l.12-.17a12.67,12.67,0,0,1-2.54-.57,1.46,1.46,0,0,0,.34-.07c.66,0,1.21.07,1.63.07h.45a.53.53,0,0,0,.37-.24A18,18,0,0,1,53,196.2h.37a16.86,16.86,0,0,0,4.42.48v-.09c0-.1,0-.16.1-.16l-.1-.39v-.33c0-.43.38-.75,1.16-1l.34-.32v-.07a1.19,1.19,0,0,1-.47-.74.22.22,0,0,1,.23-.16c0,.24.39.43,1.18.57v-.41a4,4,0,0,0-1.06-2v-.33h.34c1,1.4,1.84,2.11,2.45,2.11a7.55,7.55,0,0,0,.71-3.17c0-.23.19-.52.57-.88v-.48a1.84,1.84,0,0,1,.59-1.3,1.07,1.07,0,0,0-.24-.48c.69-1,2-1.8,4.07-2.34,1.17,0,1.75-.17,1.75-.41v-.07a1.69,1.69,0,0,1-.69-.09l-1.53.16c-.76-.11-1.49-.24-2.2-.4v-.16l.22-.25h-.69a21.69,21.69,0,0,1-3.85.41,4,4,0,0,0-.81-.09v-.23a.86.86,0,0,0,.72-.33c-.32-.2-.47-.34-.47-.41a24.63,24.63,0,0,0-5.36,1.3,3.31,3.31,0,0,1-1.63.64,1.49,1.49,0,0,1-.47-.07,12.35,12.35,0,0,1-2.19.81v-.25q8.35-3.4,10.46-3.4l-.12-.16c.08,0,1.09-.29,3-.88H64c0,.11-.27.21-.81.32v.07l.59.09a7.26,7.26,0,0,1,3.95-.81,39.18,39.18,0,0,1,4.76-.41V180c-.23,0-.35,0-.35-.16ZM52.59,198.53a1.37,1.37,0,0,1,1,.49v.25a3.24,3.24,0,0,1-1,.32h-.25c-.12,0-.23-.08-.35-.25v-.64Zm3.6-6q.81.23.81.72v.25l-.81.07h-.47a2.27,2.27,0,0,1-.35-.72A2.94,2.94,0,0,1,56.19,192.57Zm.81-2.52h.35c.15,0,.22.08.22.16v.25c0,.11-.07.17-.22.17H57.1c-.15,0-.22-.06-.22-.17Zm0,20.76h.1v.32H57Zm7.33-25.76h.35l.1.4v.09l-.57.07-.13-.39A.24.24,0,0,1,64.33,185.05Zm1.16-2.75v.08h.57v-.08Zm9.87,1.86-.69-.08c-1.08.08-1.63.21-1.63.4v.57a4.41,4.41,0,0,1,.35,1.86c0,1-.31,1.52-.94,1.52-.1.43-.29.65-.57.65v.41a18.12,18.12,0,0,1-1.63,2.43v.23s0,.39.13,1.06a9,9,0,0,1-1.63,2,2.08,2.08,0,0,0-.25,1.13,6.39,6.39,0,0,0,1.88.23,39,39,0,0,0,5.7-1.13c0-.29.38-.63,1.16-1a9.71,9.71,0,0,0,2.32-1A2.61,2.61,0,0,0,81.75,192a9.49,9.49,0,0,0,1.41-2.26l-.12-.16a1.57,1.57,0,0,0,.12-.56,7.81,7.81,0,0,0-4.29-4.53c-.4-.07-.6-.15-.6-.23l.13-.17a5.05,5.05,0,0,1-1.06-.25A12.58,12.58,0,0,1,75.36,184.16Zm-2.66,1.22a.39.39,0,0,1,.12.23h.1v-.23Zm6.51,8.39v.16a1.52,1.52,0,0,1,.35-.07v-.09Zm4.76,3v.17h.13v-.17Zm.94-.55-.12.16v.07h.12a.5.5,0,0,1,.1-.23Z"/><path class="cls-11" d="M81.56,196.27h.24c.15,0,.22.08.22.16v.25c0,.11-.07.16-.22.16h-.34l-.13-.41C81.35,196.32,81.42,196.27,81.56,196.27Zm21.51-16.55c.86.1,2.46.18,4.79.23a30.79,30.79,0,0,1,6.39,1.78c2.54,1.33,3.89,2.25,4.07,2.75.23,0,.54.21.92.65a2.72,2.72,0,0,1,1.53,1.7,10.74,10.74,0,0,1,.69,2.5q0,2.32-4.67,6.78l-5,3.23a6.23,6.23,0,0,1-2.1.9c0,.25-1,.63-2.91,1.13-.23.12-.35.2-.35.24a40.87,40.87,0,0,1,4.3,2.42,1.15,1.15,0,0,1,.94.49c.21,0,.68.48,1.4,1.46a6,6,0,0,1,1.26,1.2,7.84,7.84,0,0,1,2.1.57,2.06,2.06,0,0,1,2,1,9.1,9.1,0,0,0,1.63,1.13q.12.57.12.63a1,1,0,0,1-.34.09v.07a8.83,8.83,0,0,0,2.1,1.54v.17c0,.09-.36.17-1.06.23,0,.37.47.72,1.28,1.06,0,.2.54.6,1.63,1.2a3.42,3.42,0,0,0,.81,1.06,2.16,2.16,0,0,1,1.29.81h-.6a10.37,10.37,0,0,0-2.54-1.54q-2.59-2.18-4.66-2.18c0-.06-.08-.09-.22-.09v-.07c.31,0,.46-.05.46-.16a4.22,4.22,0,0,1-2.56-.81,3.48,3.48,0,0,0-1.63-.57c0-.16-.07-.24-.22-.24h-.13l-.12.33h-.35a19.06,19.06,0,0,0-4.76-3,3.8,3.8,0,0,0-2.69-.74,6.54,6.54,0,0,1-2.66-1.52,5.7,5.7,0,0,1-1.41-.65,21.88,21.88,0,0,1-3.13-1.71,6.11,6.11,0,0,0-2.2-.64h-.34c-.3.06-.77.62-1.41,1.7-.31,0-.47.43-.47,1.3v.64l.35.81v.07c0,.54-.66,1.68-2,3.4a1.72,1.72,0,0,1-.69-.16c-.76,1.64-1.23,2.47-1.41,2.5-.34-.33-.57-.49-.69-.49-.39,0-.59.14-.59.42s-.77,1.42-2.32,3c-.49,1.08-.8,1.62-.91,1.62l-.13-.33a46.52,46.52,0,0,1,2.32-4.36l.23-.81a3.29,3.29,0,0,1-.23-1.3h.23a2.87,2.87,0,0,1-.35-.88c0-.26.16-1.36.47-3.3l-.22.07H88v-.16A29.87,29.87,0,0,1,90,202.09l.25-1.13a5.77,5.77,0,0,1-2-1l.1-.58v-.55l.12-.17a12.67,12.67,0,0,1-2.54-.57,1.46,1.46,0,0,0,.34-.07c.66,0,1.2.07,1.63.07h.45c.11,0,.23-.08.37-.24A18,18,0,0,1,84,196.2h.37a16.86,16.86,0,0,0,4.42.48v-.09c0-.1,0-.16.1-.16l-.1-.39v-.33c0-.43.38-.75,1.16-1l.34-.32v-.07a1.19,1.19,0,0,1-.47-.74.21.21,0,0,1,.22-.16c0,.24.4.43,1.19.57v-.41a4,4,0,0,0-1.06-2v-.33h.34c1,1.4,1.84,2.11,2.45,2.11a7.55,7.55,0,0,0,.71-3.17c0-.23.19-.52.57-.88v-.48a1.84,1.84,0,0,1,.59-1.3,1.07,1.07,0,0,0-.24-.48c.69-1,2-1.8,4.07-2.34,1.16,0,1.75-.17,1.75-.41v-.07a1.69,1.69,0,0,1-.69-.09l-1.53.16c-.76-.11-1.49-.24-2.2-.4v-.16l.22-.25h-.69a21.69,21.69,0,0,1-3.85.41,4,4,0,0,0-.81-.09v-.23a.83.83,0,0,0,.71-.33c-.31-.2-.46-.34-.46-.41a24.63,24.63,0,0,0-5.36,1.3,3.31,3.31,0,0,1-1.63.64,1.49,1.49,0,0,1-.47-.07,12.35,12.35,0,0,1-2.19.81v-.25q8.36-3.4,10.46-3.4l-.12-.16c.08,0,1.09-.29,3-.88h.1c0,.11-.27.21-.81.32v.07l.59.09a7.23,7.23,0,0,1,4-.81,39.18,39.18,0,0,1,4.76-.41V180c-.23,0-.35,0-.35-.16ZM83.56,198.53a1.37,1.37,0,0,1,1,.49v.25a3.24,3.24,0,0,1-1,.32h-.25c-.12,0-.23-.08-.35-.25v-.64Zm3.6-6q.81.23.81.72v.25l-.81.07h-.47a2.27,2.27,0,0,1-.35-.72A2.94,2.94,0,0,1,87.16,192.57Zm.81-2.52h.35c.15,0,.22.08.22.16v.25c0,.11-.07.17-.22.17h-.25c-.15,0-.22-.06-.22-.17Zm0,20.76h.1v.32H88Zm7.33-25.76h.35l.1.4v.09l-.57.07-.13-.39A.24.24,0,0,1,95.3,185.05Zm1.16-2.75v.08H97v-.08Zm9.87,1.86-.69-.08c-1.09.08-1.63.21-1.63.4v.57a4.41,4.41,0,0,1,.35,1.86c0,1-.32,1.52-.94,1.52-.1.43-.29.65-.57.65v.41a18.12,18.12,0,0,1-1.63,2.43v.23s0,.39.13,1.06a9,9,0,0,1-1.63,2,2.08,2.08,0,0,0-.25,1.13,6.39,6.39,0,0,0,1.88.23,39,39,0,0,0,5.7-1.13c0-.29.38-.63,1.16-1a9.88,9.88,0,0,0,2.32-1,2.61,2.61,0,0,0,2.19-1.46,9.49,9.49,0,0,0,1.41-2.26l-.12-.16a1.57,1.57,0,0,0,.12-.56,7.81,7.81,0,0,0-4.29-4.53c-.4-.07-.6-.15-.6-.23l.13-.17a4.92,4.92,0,0,1-1.06-.25A12.58,12.58,0,0,1,106.33,184.16Zm-2.66,1.22a.39.39,0,0,1,.12.23h.1v-.23Zm6.51,8.39v.16a1.52,1.52,0,0,1,.35-.07v-.09Zm4.76,3v.17h.13v-.17Zm.94-.55-.12.16v.07h.12a.5.5,0,0,1,.1-.23Z"/><path class="cls-11" d="M131.75,177.61h.1a12.08,12.08,0,0,1-.23,1.67c0,.15.19.44.55.87-.07.76-.1,1.18-.1,1.26a31.09,31.09,0,0,1,.44,5.69,24.76,24.76,0,0,1-2.51,4.51,13.55,13.55,0,0,0-.42,3.1c-.81.4-1.21.88-1.21,1.42a7.91,7.91,0,0,1,.12.79,9.58,9.58,0,0,0-.76,3.23,11.44,11.44,0,0,0-1.53,3.79,9.72,9.72,0,0,0-.55,1.51v.47a4.52,4.52,0,0,0-.86,1,1.22,1.22,0,0,1,.32.63c-.59,2.32-1.13,3.47-1.63,3.47a2.6,2.6,0,0,0-1.5,2.23,1.52,1.52,0,0,1-.77.7c-.15,0-.25-.26-.32-.79a.93.93,0,0,1-.32-.07c0,.33-.8,1.68-2.39,4a1.13,1.13,0,0,1-.67,1h-.2v-.07a13.33,13.33,0,0,1,1.51-4.19v-.32a.46.46,0,0,0-.1-.31,6.3,6.3,0,0,0,.54-1.67c-.23-.64-.38-1-.44-1a9,9,0,0,0,.66-2.77l-.22.09h-.44v-.33a32.28,32.28,0,0,0,1-4,9.21,9.21,0,0,0,.76-2.86c-.12,0-.26-.1-.44-.3v-.09a14.85,14.85,0,0,1,.76-2.84c-.3,0-.44-.14-.44-.4V197a8.83,8.83,0,0,0,.54-2.68v-.48a5.81,5.81,0,0,0-.22-1.59,12.72,12.72,0,0,1,1.63-2.76,3.11,3.11,0,0,0,.44-1.1c-.15-.32-.26-.49-.32-.49a2.89,2.89,0,0,0,.22-1l-.34-.56a9.57,9.57,0,0,1,.66-2,3.46,3.46,0,0,0-.22-1.25c0-.33.54-.78,1.63-1.35a12,12,0,0,1,2.61-2h1l.76.07q.3-.72.87-.72a1.26,1.26,0,0,1,.32.56h.12c.2-1.05.48-1.58.86-1.58.17,0,.27-.1.32-.31A1.1,1.1,0,0,1,131.75,177.61Zm-4.34-.39h1l.22.55v.33a1,1,0,0,1-.86.39c-.15,0-.41-.21-.77-.64Q127.16,177.22,127.41,177.22Zm3.47-1.35h.55l.1.4v.16l-.55.09h-.32l-.12-.33C130.65,176,130.77,175.87,130.88,175.87Z"/><path class="cls-11" d="M147.32,179.48h.44a2.87,2.87,0,0,0,1.51.54h1.08a7.4,7.4,0,0,1,3,1.44h.12a4.77,4.77,0,0,1,1-.16,1.08,1.08,0,0,1,.88.39,3.38,3.38,0,0,1-.66,1c1,1.05,1.53,1.82,1.53,2.3v.14l-.55.09h-.22a2.2,2.2,0,0,1-.86-.16c-.36.08-.54.24-.54.47a3.84,3.84,0,0,0,1.85.79c0-.21.14-.31.32-.31h.64q1,.11,1,.63c0,.1-.23.34-.67.72q2.3,1.2,2.29,5c.51.51.77.91.77,1.19a18.55,18.55,0,0,0-.89,3.72,5.18,5.18,0,0,0-.64,2l.64-.39h.12V199q0,2.07-4.78,6.65a21,21,0,0,1-6.39,3.72q-4.16,1.62-5,1.82a2.93,2.93,0,0,0-1,.07,16.88,16.88,0,0,1-6.51-1.65,9.73,9.73,0,0,1-5.33-8.94v-.39a7.62,7.62,0,0,1,.1-1.12v-.07h-.1c-.43,1.1-.72,1.65-.86,1.65l-.23-.23v-.63l.87-3.25c.13-1.26.28-1.89.44-1.89v-.39a3.37,3.37,0,0,0-.66-.63,25.93,25.93,0,0,0,1-2.63h-.54c-.15,0-.22,0-.22-.14v-.09a16.74,16.74,0,0,1,3.38-4c.94-.49,1.4-.91,1.4-1.27l-.12-.31a11.52,11.52,0,0,1,3.48-2.37c.49-.48,1.94-1,4.34-1.58.78-.69,2.22-1,4.35-1v-.39c0-.11.1-.16.32-.16v-.09Zm5.75,6.87-.1.16,1.09.79v.32l-.45.08v.09a.94.94,0,0,1,.45.79V189h-.45a28.2,28.2,0,0,0-2.27-2.06c-.9.1-1.52.16-1.85.16a7.72,7.72,0,0,1-1.63-.56c0,.38-1,1.47-2.81,3.25a10.92,10.92,0,0,1-3.38,3c-1.52,1.61-2.27,3.08-2.27,4.43q-.18,3.09-.87,3.09l-.54.55a6.94,6.94,0,0,1,.32,1.66c.81,1.47,1.71,2.21,2.72,2.21a6.51,6.51,0,0,0,2.17.39,33.26,33.26,0,0,0,3.58-.86,2.91,2.91,0,0,0,2.39-.88,6.57,6.57,0,0,0,2.27-2.37,5,5,0,0,1,.86-2.77c1.17-1.65,1.76-2.89,1.76-3.7a2.78,2.78,0,0,1,1.18-1.12,2.41,2.41,0,0,0,.44-1.42,16.64,16.64,0,0,0-.32-2.6.56.56,0,0,0,.1-.33h.32a3.25,3.25,0,0,1,.87.63h.12c.15,0,.22,0,.22-.16a7.21,7.21,0,0,0-3.16-3A2.2,2.2,0,0,1,153.07,186.35ZM143.2,191v.16c.15,0,.22-.05.22-.16Zm15.52,8.86V200h.1v-.16Z"/><path class="cls-11" d="M150.55,196.27h.25c.15,0,.22.08.22.16v.25c0,.11-.07.16-.22.16h-.35l-.12-.41C150.35,196.32,150.42,196.27,150.55,196.27Zm21.52-16.55c.85.1,2.45.18,4.79.23a31.15,31.15,0,0,1,6.39,1.78q3.8,2,4.07,2.75c.23,0,.53.21.91.65a2.67,2.67,0,0,1,1.53,1.7,10.74,10.74,0,0,1,.69,2.5q0,2.32-4.66,6.78l-5,3.23a6.35,6.35,0,0,1-2.1.9c-.05.25-1,.63-2.91,1.13-.23.12-.35.2-.35.24a42,42,0,0,1,4.29,2.42,1.14,1.14,0,0,1,.94.49c.22,0,.68.48,1.41,1.46a6,6,0,0,1,1.26,1.2,7.71,7.71,0,0,1,2.09.57,2.06,2.06,0,0,1,2,1,8.73,8.73,0,0,0,1.63,1.13q.12.57.12.63a1,1,0,0,1-.34.09v.07a8.38,8.38,0,0,0,2.09,1.54v.17c0,.09-.35.17-1.06.23,0,.37.48.72,1.28,1.06,0,.2.55.6,1.63,1.2a3.26,3.26,0,0,0,.82,1.06c.33,0,.75.27,1.28.81h-.59a10.64,10.64,0,0,0-2.54-1.54c-1.73-1.45-3.28-2.18-4.67-2.18,0-.06-.07-.09-.22-.09v-.07c.31,0,.47-.05.47-.16a4.25,4.25,0,0,1-2.57-.81,3.41,3.41,0,0,0-1.63-.57c0-.16-.07-.24-.22-.24h-.12l-.12.33h-.35a19.06,19.06,0,0,0-4.76-3,3.81,3.81,0,0,0-2.69-.74,6.64,6.64,0,0,1-2.67-1.52,5.72,5.72,0,0,1-1.4-.65,21.63,21.63,0,0,1-3.14-1.71,6.07,6.07,0,0,0-2.19-.64h-.35c-.3.06-.76.62-1.41,1.7-.31,0-.46.43-.46,1.3v.64l.34.81v.07c0,.54-.66,1.68-2,3.4a1.65,1.65,0,0,1-.69-.16c-.76,1.64-1.23,2.47-1.41,2.5-.35-.33-.58-.49-.69-.49-.4,0-.59.14-.59.42s-.78,1.42-2.32,3c-.5,1.08-.8,1.62-.92,1.62l-.12-.33a43.69,43.69,0,0,1,2.32-4.36l.22-.81a3.3,3.3,0,0,1-.22-1.3h.22a2.74,2.74,0,0,1-.34-.88c0-.26.15-1.36.47-3.3l-.23.07H157v-.16a29.87,29.87,0,0,1,2.07-4.77l.25-1.13a5.91,5.91,0,0,1-2-1l.1-.58v-.55l.13-.17a12.68,12.68,0,0,1-2.55-.57,1.52,1.52,0,0,0,.35-.07c.66,0,1.2.07,1.63.07h.44a.52.52,0,0,0,.37-.24A18.15,18.15,0,0,1,153,196.2h.37a17,17,0,0,0,4.42.48v-.09c0-.1,0-.16.1-.16l-.1-.39v-.33c0-.43.39-.75,1.16-1l.35-.32v-.07a1.15,1.15,0,0,1-.47-.74.21.21,0,0,1,.22-.16c0,.24.4.43,1.19.57v-.41a4,4,0,0,0-1.07-2v-.33h.35c1,1.4,1.83,2.11,2.44,2.11a7.35,7.35,0,0,0,.72-3.17c0-.23.19-.52.57-.88v-.48a1.8,1.8,0,0,1,.59-1.3,1,1,0,0,0-.25-.48,6.87,6.87,0,0,1,4.07-2.34c1.17,0,1.75-.17,1.75-.41v-.07a1.76,1.76,0,0,1-.69-.09l-1.53.16c-.75-.11-1.49-.24-2.19-.4v-.16l.22-.25h-.69a21.8,21.8,0,0,1-3.85.41,4.19,4.19,0,0,0-.82-.09v-.23a.83.83,0,0,0,.72-.33c-.31-.2-.47-.34-.47-.41a24.5,24.5,0,0,0-5.35,1.3,3.35,3.35,0,0,1-1.63.64,1.45,1.45,0,0,1-.47-.07,12.29,12.29,0,0,1-2.2.81v-.25q8.37-3.4,10.47-3.4l-.13-.16c.08,0,1.1-.29,3-.88h.1c0,.11-.28.21-.82.32v.07l.59.09a7.26,7.26,0,0,1,4-.81,39.36,39.36,0,0,1,4.77-.41V180c-.24,0-.35,0-.35-.16Zm-19.52,18.81a1.39,1.39,0,0,1,1,.49v.25a3.27,3.27,0,0,1-1,.32h-.25c-.11,0-.23-.08-.34-.25v-.64Zm3.6-6c.55.15.82.39.82.72v.25l-.82.07h-.47a2.15,2.15,0,0,1-.34-.72A2.82,2.82,0,0,1,156.15,192.57Zm.82-2.52h.34c.15,0,.23.08.23.16v.25c0,.11-.08.17-.23.17h-.24c-.15,0-.23-.06-.23-.17Zm0,20.76h.1v.32H157Zm7.33-25.76h.34l.1.4v.09l-.57.07-.12-.39A.23.23,0,0,1,164.3,185.05Zm1.16-2.75v.08H166v-.08Zm9.87,1.86-.69-.08c-1.09.08-1.63.21-1.63.4v.57a4.42,4.42,0,0,1,.34,1.86c0,1-.31,1.52-.93,1.52-.1.43-.29.65-.57.65v.41a19.43,19.43,0,0,1-1.63,2.43v.23s0,.39.12,1.06a8.65,8.65,0,0,1-1.63,2,2.18,2.18,0,0,0-.24,1.13,6.32,6.32,0,0,0,1.87.23,39,39,0,0,0,5.7-1.13c0-.29.39-.63,1.16-1a9.71,9.71,0,0,0,2.32-1,2.61,2.61,0,0,0,2.2-1.46,9.94,9.94,0,0,0,1.4-2.26l-.12-.16a1.57,1.57,0,0,0,.12-.56,7.75,7.75,0,0,0-4.29-4.53c-.39-.07-.59-.15-.59-.23l.12-.17a5.05,5.05,0,0,1-1.06-.25A12.71,12.71,0,0,1,175.33,184.16Zm-2.67,1.22a.42.42,0,0,1,.13.23h.09v-.23Zm6.52,8.39v.16a1.46,1.46,0,0,1,.34-.07v-.09Zm4.76,3v.17h.12v-.17Zm.94-.55-.13.16v.07h.13a.5.5,0,0,1,.1-.23Z"/><path class="cls-11" d="M204.37,180.31h.84c2.53.17,3.8.37,3.8.61a10.17,10.17,0,0,0,2.07.76,11.58,11.58,0,0,0,2.74,1.67,1.91,1.91,0,0,1,.74,1.36,15.71,15.71,0,0,0,.13,1.69l-.45,2.28a1.13,1.13,0,0,1-1.13.76h-.74c-.07,0-.28.26-.64.77h-.1q-.3,0-.42-.54h-.13c-.23,0-.47.51-.71,1.53a2.14,2.14,0,0,1-.52.38h-.12l-.1-.38a8.85,8.85,0,0,1,.1-1.15l-.42-.07c0-.2.18-.41.54-.61-.2-1-.48-1.46-.84-1.46a14,14,0,0,0-1.28-1.81.72.72,0,0,0-.52-.69,14.91,14.91,0,0,0-4.12.61,9.33,9.33,0,0,0-3,1.75,4,4,0,0,0-1,1.83v.07a3.69,3.69,0,0,1,.22.6,5,5,0,0,0-.22,1.07q.42,0,.42,1a3.83,3.83,0,0,1,1.38,1.76q.84.33.84.45v.08l-.12.54a18,18,0,0,0,2.64,1.43q5.16,4.95,5.16,5.48a9,9,0,0,1,1.48,4.64,3.25,3.25,0,0,1-2.32,3.22,7.64,7.64,0,0,0-1.58,2.12,6.23,6.23,0,0,1-4.42,1.67,3.63,3.63,0,0,1-1.68.47c-.61-.05-1.1-.07-1.48-.07h-.94l-2,.37h-.1A2.51,2.51,0,0,0,195,214l-1.48.23c-2.4-.13-3.6-.51-3.6-1.13,0-.22-.73-.5-2.2-.85h-.32a1,1,0,0,0-.39.08,5.31,5.31,0,0,1-2.42-1.75l.07-.54v-.14a11.61,11.61,0,0,0-.51-1.37v-.23h.44a.28.28,0,0,0,.3.29l.22-.06a14.53,14.53,0,0,0-.74-3.66.67.67,0,0,0,.1-.24h.19c.09,0,.3.39.65,1.15h.12l-.12-.37v-.62h.19c.6.92.95,1.37,1.07,1.37v-.09a17.83,17.83,0,0,1-.42-2.43,13.87,13.87,0,0,1,1.57-5.26H188l.19.09a37.29,37.29,0,0,1-1,3.74,4.29,4.29,0,0,0-.1,1.15c0,.79.73,2.05,2.19,3.79a10.07,10.07,0,0,0,1.81.68,1.24,1.24,0,0,0,1.06.61h.49v.38l-.1.16a5.42,5.42,0,0,0,2.35.54H195v-.09a1.54,1.54,0,0,1-1.06-.61v-.07c0-.11.09-.16.23-.16a8.84,8.84,0,0,0,1.67.46,16.3,16.3,0,0,0,2.32.24l.2-.09q.12,0,.12.09c2.08,0,3.26-.25,3.56-.76A1.66,1.66,0,0,0,203,207v-.61a10.28,10.28,0,0,0-.29-1.69c.13-.38.27-.58.42-.61-.3-.76-1.56-2-3.78-3.57-.21,0-.32,0-.32-.06-.31,0-.63.35-1,1.06h-.1c-.23-.31-.4-.47-.52-.47h-.1a11.54,11.54,0,0,0-.44,1.91h-.42a9.49,9.49,0,0,1-.42-2.37c-.76-.43-1.13-.79-1.13-1.06l.61-.38c0-.23-.52-.68-1.58-1.37-.75-1.83-1.42-2.75-2-2.75a1.61,1.61,0,0,1-.51-1.06c.13,0,.19,0,.19-.14v-.07a4.93,4.93,0,0,0-1-1.46,5.9,5.9,0,0,1-.45-1.76c.28-2,.64-3,1.06-3a2.47,2.47,0,0,0,.52-1.27,1.84,1.84,0,0,0,.45-1.24v-.53q2.26-2.13,3.45-2.13a12.89,12.89,0,0,0,2.1-.76c.36,0,.54,0,.54.05v.26a.4.4,0,0,0-.32.23c0,.08.09.13.22.13h.32A11.82,11.82,0,0,1,204.37,180.31Zm-18.78,25.27v.14h.13v-.14Zm0,.84v.22c.5,1.32,1.06,2,1.71,2v-.06a4.22,4.22,0,0,1-1.58-2.14Zm8.76-8.68v.07h.2v-.07Zm3.06,5.86c.27.07.4.15.4.24v.28h-.72v-.45A1.09,1.09,0,0,0,197.41,203.6Zm2-2a.82.82,0,0,1,.94.84,1.6,1.6,0,0,1-.74.22h-.2q-.3,0-.42-.69C199,201.93,199.13,201.81,199.41,201.63Zm2.1-15.16-.22.22h.12l.2-.22Zm8.73,5.94h.23c.1,0,.19.07.29.23s-.13.18-.39.3h-.13a.49.49,0,0,1-.32-.21v-.09C209.92,192.57,210,192.49,210.24,192.41Zm2.55-1.75c.56.15.83.37.83.68a.77.77,0,0,1-.41.4h-.74l-.1-.4V191C212.37,190.91,212.51,190.81,212.79,190.66Z"/><path class="cls-11" d="M154.47,246.26a11.64,11.64,0,0,1-2.62.22q-5.1-.33-6.3-6a25.54,25.54,0,0,1,.23-9.67,12.72,12.72,0,0,1-2.39.07c-2.83-.09-4.46-1.2-4.91-3.33a2.33,2.33,0,0,1,0-.69,7.25,7.25,0,0,1,1.05-3.83,17.08,17.08,0,0,1,4.66-5,15.15,15.15,0,0,1,5.7-2.57,14.11,14.11,0,0,1,2.92-.29.72.72,0,0,0,.49-.32q3.65-4.68,7.83-6a3.44,3.44,0,0,1,4,2.23q1.15,5.52-3.26,10.69A26.53,26.53,0,0,1,149.27,230a.41.41,0,0,0-.32.4,26.84,26.84,0,0,0,.15,9.54q1.35,6.43,6,5.46,3.24-.67,7.19-6.08a40.21,40.21,0,0,0,3.72-6.48,16.86,16.86,0,0,1,1.11-2.27.41.41,0,0,1,.27,0c.08.38-.41,1.7-1.48,4a33.29,33.29,0,0,1-6.25,8.84A10.28,10.28,0,0,1,154.47,246.26Zm-9-15.82c.2-.05.34-.31.43-.79a25.18,25.18,0,0,1,.92-3.05,35.75,35.75,0,0,1,5.68-10.87.52.52,0,0,0,.14-.3.34.34,0,0,0-.26-.05,13.68,13.68,0,0,0-8.49,3.07,15.71,15.71,0,0,0-4,5,6,6,0,0,0-.66,3.95Q139.92,230.69,145.51,230.44Zm3.55-.69a19.56,19.56,0,0,0,5.9-2.58,27.73,27.73,0,0,0,6.44-5.66,13.34,13.34,0,0,0,2.78-5.18,9.57,9.57,0,0,0,.27-4.22,3.31,3.31,0,0,0-1-2,3.22,3.22,0,0,0-2.67-.73q-1.32.27-3.66,2.94c-1.56,1.78-2.32,2.79-2.27,3a.41.41,0,0,1,.17,0l.34.17a1.27,1.27,0,0,1,.36.25l-.24.1a.31.31,0,0,1-.21-.06,1.49,1.49,0,0,0-.66-.19.65.65,0,0,0-.25.27,31.37,31.37,0,0,0-3.28,6.28A32.58,32.58,0,0,0,149.06,229.75Z"/><path class="cls-11" d="M172,238.07l-.29.06a11,11,0,0,1-1.92.13c-1.45-.23-2.42-1.48-2.89-3.75a21.33,21.33,0,0,1-.34-2.62,29.51,29.51,0,0,1,1.15-10.67q2.67-8.25,5.68-11.57,2.22-2.4,3.49-2.67a1.24,1.24,0,0,1,1.24.49,1.74,1.74,0,0,1,.36.79,3.86,3.86,0,0,1-.13,1.8,30.8,30.8,0,0,1-4.6,8.92,16.75,16.75,0,0,1-2.65,3.25l-.72.74q-.65.84-1,5.92a23.64,23.64,0,0,0,.1,5.84,6.05,6.05,0,0,0,.65,1.75c.3.54.92.72,1.87.52a1.83,1.83,0,0,0,.92-.52,6.88,6.88,0,0,0,1.31-1.62q1.61-2.33,2.93-4.59c.53-.9.88-1.37,1-1.4a.26.26,0,0,1,.22,0,.24.24,0,0,0,.12.09.09.09,0,0,1,.06.06l-3.07,5.43Q173.72,237.71,172,238.07Zm-1.49-15.72a38.11,38.11,0,0,0,3.48-4.46,28.18,28.18,0,0,0,3.09-5.79,5.51,5.51,0,0,0,.41-2.94c-.15-.75-.43-1.18-.83-1.28a.72.72,0,0,0-.26.22,13.4,13.4,0,0,0-2.74,4.31,52.52,52.52,0,0,0-2.15,5.78,42.47,42.47,0,0,0-1.11,4.13Z"/><path class="cls-11" d="M179.89,236.58a5.66,5.66,0,0,1-1.42.08q-1.11-.15-1.44-1.74a12.92,12.92,0,0,1,.81-6.2,23.9,23.9,0,0,1,2-4.93,3.39,3.39,0,0,1,1.49-1,.5.5,0,0,1,.66.45,21.57,21.57,0,0,1-1,5.65,26.7,26.7,0,0,0-1.07,5.71l0,.42c.09.41.25.6.48.55a6.12,6.12,0,0,0,1.17-1.27,8.5,8.5,0,0,0,1.75-3.16,12.47,12.47,0,0,1,1-4.25c1.12-2.78,1.93-4.33,2.41-4.65a3.92,3.92,0,0,1,1-.53c.3-.06.5.18.62.73a2.85,2.85,0,0,1,0,1.08q-.79,3.56-1.32,5.23a17.39,17.39,0,0,0-.77,4.89c0,.1.16.13.43.07,1.5-1.31,3.2-3.88,5.11-7.68a.57.57,0,0,1,.4-.3c.36-.08.56,0,.59.14a.69.69,0,0,1-.12.4,39.48,39.48,0,0,1-3.5,6.33,5.79,5.79,0,0,1-3,2.19l-.87.23c-.64,0-1.07-.1-1.26-.38a4.86,4.86,0,0,1-.55-1.66,15,15,0,0,1-1.61,2.38A3.56,3.56,0,0,1,179.89,236.58Z"/><path class="cls-11" d="M192.46,236.31c-.23.05-.37,0-.4-.18a3.52,3.52,0,0,0-.17-.56,3.86,3.86,0,0,1-.17-.56,16.33,16.33,0,0,1-.32-4.23,48.27,48.27,0,0,1,1.16-10.14.66.66,0,0,1,.09-.29,90.28,90.28,0,0,1,3.57-11.62,20.34,20.34,0,0,1,6.58-9.28,4.74,4.74,0,0,1,1.59-.71,2.45,2.45,0,0,1,3.18,2,11.6,11.6,0,0,1-.9,7.67,18.7,18.7,0,0,1-4.59,6q-4.58,3.87-6.3,4.23a.91.91,0,0,0-.64.72,9.72,9.72,0,0,1-.22,1.07,25.22,25.22,0,0,0-.65,4.23c-.11,1.45-.21,2.57-.33,3.34a8.28,8.28,0,0,0-.1,1s.06,0,.06.05q3.54-8.86,7-9.59a1.46,1.46,0,0,1,1.94,1.21,3.32,3.32,0,0,1-.17,1.65,18.23,18.23,0,0,1-2.12,6c.16.11.57.09,1.22,0q1.88-.39,4.09-4.25c.42-.95.74-1.45,1-1.49,0,0,.07,0,.12.08a4.49,4.49,0,0,1-.64,1.85,17.06,17.06,0,0,1-2,3,4.76,4.76,0,0,1-2.68,1.56,11.75,11.75,0,0,1-1.52.1.94.94,0,0,0-.25.27,8.12,8.12,0,0,1-2.23,2.22,7.35,7.35,0,0,1-2.59,1.21,1.9,1.9,0,0,1-.82,0c-.26.06-.5.86-.73,2.41A1.13,1.13,0,0,1,192.46,236.31Zm3.46-4.54a2.31,2.31,0,0,0,1.36-.83,17.12,17.12,0,0,0,1.14-1.69.63.63,0,0,0-.49-.11c-2.69.56-3.93,1.33-3.73,2.29C194.3,231.87,194.87,232,195.92,231.77Zm-1.24-2.22a1.89,1.89,0,0,0,.56-.28,4.45,4.45,0,0,1,1.71-.68l1.65-.18c.62-.13,1.12-1.19,1.49-3.16a13,13,0,0,0,.36-3.95c-.13-.62-.36-.9-.69-.83s-1.08.73-1.86,1.9a24.3,24.3,0,0,0-1.89,3.25A28.48,28.48,0,0,0,194.68,229.55Zm.74-11.18c1.47-.31,3.4-1.5,5.77-3.57a16,16,0,0,0,4.82-6.88,12.38,12.38,0,0,0,.71-6.39,2.23,2.23,0,0,0-2-2,2.83,2.83,0,0,0-.76,0q-3.34.7-6.46,10.56a39.2,39.2,0,0,0-1.32,4c-.2.84-.5,2.26-.9,4.28Z"/></g></g></svg>