<svg xmlns="http://www.w3.org/2000/svg" xmlns:xlink="http://www.w3.org/1999/xlink" viewBox="0 0 266.61 345.29"><defs><style>.cls-1{fill:url(#Degradado_sin_nombre_101);}.cls-2{fill:url(#Degradado_sin_nombre_90);}.cls-3{fill:url(#Degradado_sin_nombre_109);}.cls-4{fill:url(#Degradado_sin_nombre_108);}.cls-5{fill:url(#Degradado_sin_nombre_89);}.cls-6{fill:url(#Degradado_sin_nombre_106);}.cls-7{fill:url(#Degradado_sin_nombre_104);}.cls-8{fill:url(#Degradado_sin_nombre_86);}.cls-9{fill:url(#linear-gradient);}.cls-10{fill:none;stroke:#fff;stroke-miterlimit:10;stroke-width:0.19px;}.cls-11{fill:#fff;}</style><radialGradient id="Degradado_sin_nombre_101" cx="123.2" cy="123.98" r="114.36" gradientUnits="userSpaceOnUse"><stop offset="0" stop-color="#d5b46d"/><stop offset="0" stop-color="#fefbba"/><stop offset="0.4" stop-color="#997028"/></radialGradient><linearGradient id="Degradado_sin_nombre_90" x1="86.78" y1="-117.04" x2="99.15" y2="87.69" gradientUnits="userSpaceOnUse"><stop offset="0" stop-color="#d5b46d"/><stop offset="0" stop-color="#deb457"/><stop offset="0.07" stop-color="#ebd07e"/><stop offset="0.14" stop-color="#f6e9a0"/><stop offset="0.2" stop-color="#fdf8b5"/><stop offset="0.23" stop-color="#fffdbd"/><stop offset="0.41" stop-color="#d6ab47"/><stop offset="0.51" stop-color="#d4a945"/><stop offset="0.54" stop-color="#cea240"/><stop offset="0.56" stop-color="#c29736"/><stop offset="0.58" stop-color="#b28628"/><stop offset="0.59" stop-color="#ae8225"/><stop offset="0.77" stop-color="#cf9e25"/><stop offset="1" stop-color="#916e29"/></linearGradient><linearGradient id="Degradado_sin_nombre_109" x1="143.25" y1="80.55" x2="115" y2="80.35" gradientUnits="userSpaceOnUse"><stop offset="0" stop-color="#d5b46d"/><stop offset="0" stop-color="#deb457"/><stop offset="0.19" stop-color="#fffdbd"/><stop offset="0.27" stop-color="#fefcbb"/><stop offset="0.3" stop-color="#fcf7b4"/><stop offset="0.32" stop-color="#f8efa9"/><stop offset="0.33" stop-color="#f2e398"/><stop offset="0.35" stop-color="#ead482"/><stop offset="0.36" stop-color="#e1c167"/><stop offset="0.37" stop-color="#d6ab48"/><stop offset="0.37" stop-color="#d6ab47"/><stop offset="0.59" stop-color="#ae8225"/><stop offset="0.77" stop-color="#cf9e25"/><stop offset="1" stop-color="#b48a2d"/></linearGradient><linearGradient id="Degradado_sin_nombre_108" x1="139.05" y1="80.66" x2="113.21" y2="80.04" gradientUnits="userSpaceOnUse"><stop offset="0" stop-color="#d5b46d"/><stop offset="0" stop-color="#deb457"/><stop offset="0.29" stop-color="#fffdbd"/><stop offset="0.31" stop-color="#f5e9a0"/><stop offset="0.32" stop-color="#ead380"/><stop offset="0.34" stop-color="#e1c167"/><stop offset="0.36" stop-color="#dbb555"/><stop offset="0.38" stop-color="#d7ad4a"/><stop offset="0.4" stop-color="#d6ab47"/><stop offset="0.66" stop-color="#ae8225"/><stop offset="0.77" stop-color="#cf9e25"/><stop offset="1" stop-color="#b48a2d"/></linearGradient><linearGradient id="Degradado_sin_nombre_89" x1="72.21" y1="114.34" x2="173.52" y2="114.34" gradientUnits="userSpaceOnUse"><stop offset="0" stop-color="#d5b46d"/><stop offset="0" stop-color="#a07725"/><stop offset="0.04" stop-color="#a37b29"/><stop offset="0.09" stop-color="#ab8636"/><stop offset="0.13" stop-color="#b8994c"/><stop offset="0.18" stop-color="#cbb46a"/><stop offset="0.23" stop-color="#e3d690"/><stop offset="0.27" stop-color="#fffdbd"/><stop offset="0.44" stop-color="#d6ab47"/><stop offset="0.63" stop-color="#fdfab9"/><stop offset="0.77" stop-color="#cf9e25"/><stop offset="1" stop-color="#b48a2d"/></linearGradient><linearGradient id="Degradado_sin_nombre_106" x1="115.77" y1="209.73" x2="96.18" y2="79.73" gradientUnits="userSpaceOnUse"><stop offset="0" stop-color="#d5b46d"/><stop offset="0.27" stop-color="#fffdbd"/><stop offset="0.61" stop-color="#fdfab9"/><stop offset="0.71" stop-color="#d1c07e"/><stop offset="0.8" stop-color="#af9350"/><stop offset="0.86" stop-color="#9b7734"/><stop offset="0.9" stop-color="#936d2a"/></linearGradient><linearGradient id="Degradado_sin_nombre_104" x1="135.49" y1="190.47" x2="175.45" y2="95.11" gradientUnits="userSpaceOnUse"><stop offset="0" stop-color="#d5b46d"/><stop offset="0" stop-color="#a07725"/><stop offset="0.12" stop-color="#a47b28"/><stop offset="0.24" stop-color="#b18830"/><stop offset="0.37" stop-color="#c79c3d"/><stop offset="0.44" stop-color="#d6ab47"/><stop offset="0.63" stop-color="#fdfab9"/><stop offset="0.77" stop-color="#cf9e25"/><stop offset="1" stop-color="#936d2a"/></linearGradient><linearGradient id="Degradado_sin_nombre_86" x1="137.09" y1="114.76" x2="240.58" y2="114.76" gradientUnits="userSpaceOnUse"><stop offset="0" stop-color="#d5b46d"/><stop offset="0" stop-color="#deb457"/><stop offset="0.07" stop-color="#ebd07e"/><stop offset="0.14" stop-color="#f6e9a0"/><stop offset="0.2" stop-color="#fdf8b5"/><stop offset="0.23" stop-color="#fffdbd"/><stop offset="0.41" stop-color="#d6ab47"/><stop offset="0.51" stop-color="#d4a945"/><stop offset="0.54" stop-color="#cea240"/><stop offset="0.56" stop-color="#c29736"/><stop offset="0.58" stop-color="#b28628"/><stop offset="0.59" stop-color="#ae8225"/><stop offset="0.77" stop-color="#cf9e25"/><stop offset="1" stop-color="#b48a2d"/></linearGradient><linearGradient id="linear-gradient" x1="135.87" y1="74.39" x2="255" y2="312.07" gradientUnits="userSpaceOnUse"><stop offset="0" stop-color="#d5b46d"/><stop offset="0" stop-color="#deb457"/><stop offset="0.23" stop-color="#fffdbd"/><stop offset="0.41" stop-color="#d6ab47"/><stop offset="0.59" stop-color="#ae8225"/><stop offset="0.77" stop-color="#cf9e25"/><stop offset="1" stop-color="#b48a2d"/></linearGradient></defs><g id="Capa_2" data-name="Capa 2"><g id="Capa_1-2" data-name="Capa 1"><path class="cls-1" d="M113.48,172.38s15.85,11,35.77,0,32.38-45.65,32.38-45.65,6.64-14.49,6.79-15.85,3.92-26.26,3.62-27-12.38-5.43-12.38-5.43-28.37,10.87-29.73,11-33.8-5.44-37.28-7.1S84.43,74.81,83.83,75,71.9,76.32,72.51,78.43,73.72,98.5,74,102.73s1,19.77,2.41,21.13,8.76,5.28,10.72,8.6,13.13,28.83,13.73,30.64"/><path class="cls-2" d="M74.52,91.23a129.45,129.45,0,0,0,1.1,21.49A9.65,9.65,0,0,0,72.55,121c5.09,2.66,6.34,6.59,7.35,11.62s-.33,13.66-1.72,18.9-2,6.6-1.74,9.73S79,168.43,88,184.28c8.53,15.18,23.92,30,25.21,31.25l.13.32,2.3,5.7.06,1.2a300.33,300.33,0,0,1-23-23A113.74,113.74,0,0,1,75,173.34c-3.22-6.49-3.17-10.12-2-13.33s2.31-8.41,2.31-8.41c5-25.28-7-28.78-7-28.78-.86-6.46,3.4-8.8,3.4-8.8a185.06,185.06,0,0,1-.91-30.43,118.82,118.82,0,0,1,4.43-26.87A69.61,69.61,0,0,1,90.51,29.51c7.65-8.4,18.57-12.63,25.36-15.8a54.37,54.37,0,0,0,11.3-7V6.1l.49,6.67s0,0,0,.06c-2,2.12-10.45,6.34-13.4,7.85s-17,6-27.39,21.58S74.89,79.31,74.52,91.23Z"/><path class="cls-3" d="M144.62,145.79s-10.56,14.27-10.72,15.13l-2.26,0V0s3.93,5.56,5,6.31v.86c0,.69-.2,2.89-.37,6.33v.08h0c-.88,17.56-2.48,67,4.46,111.87v0C141.22,130,142.61,140.19,144.62,145.79Z"/><path class="cls-4" d="M131.64,0V160.94h-.85s-8-12-10.85-15.15h0c1.44-7.56,2.67-15.09,3.7-22.51,6.84-49.34,5.07-93.87,4-110.45h0v-.06c-.24-3.82-.44-6.13-.49-6.67V6C129.25,4.58,131.64,0,131.64,0Z"/><path class="cls-5" d="M123.65,123.28c0-.63,0-1.27,0-1.91-.4-12.13-5.13-12-5.54-12.18a97,97,0,0,1-19.37-9C89.61,94.56,79,86.3,79,86.3l.86,27.62s26,18.42,30.18,20.43c0,0-1,56.84,3.21,81.5l-.13-.32c-1.29-1.23-16.68-16.07-25.21-31.25C79,168.43,76.67,164.36,76.44,161.22s.34-4.48,1.74-9.73,2.73-13.87,1.72-18.9-2.26-9-7.35-11.62a9.65,9.65,0,0,1,3.07-8.25,129.45,129.45,0,0,1-1.1-21.49c.37-11.92,2-33.43,12.37-49s24.45-20.07,27.39-21.58,11.43-5.73,13.4-7.85C128.72,29.41,130.49,73.94,123.65,123.28Z"/><path class="cls-6" d="M120,145.79c4.14-27.62.64-31.4-.31-33s-4.37-2.22-4.37-2.22C102.82,107.7,83,92.86,83,92.86v19.66L114.47,133s-.63,31.16-.42,38.56c0,2.55,1,32.43,1,32.43l.6,10.68.52,8.08-.62-1.2-2.3-5.7c-4.25-24.66-3.21-81.5-3.21-81.5-4.17-2-30.18-20.43-30.18-20.43L79,86.3s10.57,8.26,19.67,13.94a97,97,0,0,0,19.37,9c.41.15,5.14,0,5.54,12.18,0,.64,0,1.28,0,1.91C122.62,130.7,121.39,138.23,120,145.79Z"/><path class="cls-7" d="M183.63,114.63,153.3,135.76c1.66,22.33-3,80.18-3,80.18l-2.61,6.81c.81-4,2.15-50.77,2.15-50.77,1.1-9.81-.23-39.49-.23-39.49l30.79-19.37-.36-19.57s-7.95,5.38-14.18,9.46-16,7.79-19.27,8.37-3.52,4.35-3.52,4.35c-2.32,7.25,1.53,30.06,1.53,30.06-2-5.6-3.4-15.81-3.88-20.31v0c-.08-.74-.13-1.32-.16-1.7-.18-2.72.16-7.74,1.7-10.91s4.76-3.54,9-5,8.19-3.84,14.93-7.76,18-13,18-13C184.47,89.2,183.63,114.63,183.63,114.63Z"/><path class="cls-8" d="M190.58,120.82s-6,2.06-7.4,11.06,2.47,21.43,3.42,24.76.21,4.17.21,4.17c-7.85,27-36.49,55.13-36.49,55.13s4.64-57.85,3-80.18l30.33-21.13s.84-25.43.61-27.62c0,0-11.27,9.1-18,13s-10.67,6.25-14.93,7.76-7.47,1.88-9,5-1.88,8.19-1.7,10.91c0,.38.08,1,.16,1.7-6.94-44.92-5.34-94.31-4.46-111.87.62,1.41,14.76,8,21.17,11.09a52.81,52.81,0,0,1,12.22,8.9c12.23,12.15,15.7,30.34,18,43s-.12,35.93-.12,35.93C191.89,116.69,190.58,120.82,190.58,120.82Z"/><path class="cls-9" d="M195.16,122.88s-9.41,4.37-8.2,18.66,4.22,21,4.22,21a6.36,6.36,0,0,1-.35,3.88,87.88,87.88,0,0,1-15.27,27.49c-10.34,12.53-20.45,23.29-27.85,28.81l2.61-6.81s28.64-28.11,36.49-55.13c0,0,.75-.85-.21-4.17s-4.83-15.75-3.42-24.76,7.4-11.06,7.4-11.06,1.31-4.13-3.07-8.3c0,0,2.39-23.25.12-35.93s-5.73-30.86-18-43a52.81,52.81,0,0,0-12.22-8.9C151,21.58,136.9,15,136.28,13.59h0V13.5l.37-6.33V6.94a61.09,61.09,0,0,0,15.19,9c9.06,3.7,22.8,10.72,31.62,28.75s9.21,39.12,9.21,39.12.7,22.34-.7,30.18A10.08,10.08,0,0,1,195.16,122.88Z"/><path class="cls-10" d="M140.75,125.51v0"/><path class="cls-11" d="M51.08,249.12h.28v.09c0,.8-1,2.77-3,5.89a5.81,5.81,0,0,1-1.2,3.06,6.25,6.25,0,0,1,.13,1.07v.4A17.35,17.35,0,0,1,45.84,262L45,264.14h.15l.4-.2H46v.2q-3.81,6.94-5,9.73a4.07,4.07,0,0,0-.12.79,2.66,2.66,0,0,0,.4.87,65,65,0,0,1-3.89,7.67q-1.78,3.74-1.78,5A6.35,6.35,0,0,1,34.23,291,4.63,4.63,0,0,1,33,293.41c-.64,3-1.36,4.53-2.18,4.53a11.3,11.3,0,0,0-2.15,2,9.27,9.27,0,0,0-3.24,2.55,5,5,0,0,1-2.15,1.07v.4c0,.34-.13.53-.4.58s-.43-.49-.55-1.47l-.28-.09H21.7c0,.53-.54,1.05-1.63,1.56L20,304v-.29a4.42,4.42,0,0,1,.28-.78c-.11,0-.16,0-.16-.09q-.33,0-1.35,1.47c-.83.85-1.46,1.27-1.87,1.27l-.15-.2v-.29C17.78,304,18.87,301.66,20,298a10.52,10.52,0,0,1,.67-3.24v-.6a1.32,1.32,0,0,0-.27-.78l-.68.11h-.12a41.76,41.76,0,0,1-.83-6v-.69c0-.58-.3-.87-.92-.87l-6.34,11.79a6.58,6.58,0,0,1-4.72,2.05H6.47q-4.14,0-5.67-4.31a10.59,10.59,0,0,1-.28-2.36v-5.7C.17,285,0,283.54,0,283s.09-2.5.28-5.8A40.41,40.41,0,0,1,0,272.49q0-2.07,3.77-8.15,1.47-4.9,3.49-4.91a3,3,0,0,0,1.11.2,1.24,1.24,0,0,0,.39-1,16.9,16.9,0,0,0-.55-1.87c0-.14.12-.2.28-.2h.4l1.22,2h.28v-.69a12.71,12.71,0,0,1-1-2.84c.06-.46.19-.69.4-.69H10c.2,0,.48.55.83,1.56a5.18,5.18,0,0,1,1.74,3.44c-.26,1.67-.53,4-.79,7.08a2.1,2.1,0,0,1,.24,1.09v.29a49.87,49.87,0,0,1-1.07,7.46,8.75,8.75,0,0,0-1.47,5.2,4.27,4.27,0,0,0-.4,1.87c.27,2.19.4,3.43.4,3.73h.27V286A8.68,8.68,0,0,1,12,280a18.86,18.86,0,0,0,2-3.82,10.13,10.13,0,0,1,2.85-2.46v-.29c-.26-1.23-.39-1.89-.39-2s.35-.64,1.07-1.3q.12-.66,1.62-1.65c0-.71.68-1.47,2-2.27h.52l1.34.11a2.37,2.37,0,0,1,1.35-1.59,5.6,5.6,0,0,1,1.9-2.63q.67-1.47,1.2-1.59h.27v.12a4.08,4.08,0,0,1-1.07,2.14c.08.58.12.91.12,1q0,.47-.12,2.28a31.56,31.56,0,0,0,.95,4.51V271a15,15,0,0,1-1.35,3.84v.49l.52,2.83v.4c-.49,0-.79.4-.92,1.19V280a8.88,8.88,0,0,1,.8,3.92v.32h.12c0-.38.55-.7,1.63-1a6.13,6.13,0,0,0,.83-2.76A11.37,11.37,0,0,0,30.86,276a18.08,18.08,0,0,0,2.85-5q3-2.75,3-3.15a16.76,16.76,0,0,0,1.07-3.15,5.35,5.35,0,0,1-.27-1,25.57,25.57,0,0,1,2.7-3.73c0-.64.76-1.22,2.29-1.76a25.57,25.57,0,0,0,2.43-3.44l.67-.4h.12v.89l-.12.49h.55a59.21,59.21,0,0,1,4.17-5.69C50.57,249.45,50.84,249.12,51.08,249.12ZM5.79,255c.63,0,1,.4,1,1.19a2,2,0,0,1-1,.29H5.52c-.54-.21-.8-.47-.8-.78v-.32C4.72,255.2,5.08,255.07,5.79,255Zm2.3-2.45h.67l.13.49-.52.29H7.94a.65.65,0,0,0-.25-.4C7.81,252.68,8,252.56,8.09,252.56Zm2.42,21.9v.2h.12v-.2ZM16.58,307h.55c.12,0,.26.11.4.32v.38l-.68.11h-.39a.53.53,0,0,0-.16-.31A.88.88,0,0,0,16.58,307Zm4.6-1.47h.24c.74,0,1.1.39,1.1,1.18a1.31,1.31,0,0,1-.82.49,1.51,1.51,0,0,1-1.2-.58v-.4C21,305.83,21.18,305.6,21.18,305.48ZM21.3,263h1.22l.25.69v.4a1.2,1.2,0,0,1-1.07.49h-.13c-.45-.47-.67-.8-.67-1v-.31C20.9,263.16,21,263.06,21.3,263Zm4.17-1.76h.42c.17,0,.25.08.25.2v.49l-.67.09h-.25a.52.52,0,0,0-.15-.38C25.21,261.33,25.34,261.2,25.47,261.2Zm19.7-6.3v.2h.28v-.2Zm0,9.64v.09h.28v-.09Z"/><path class="cls-11" d="M69.56,248.45h.13c.26,0,.43,1,.49,3.13.4,0,.61.15.61.44v.09c0,.14-.21.23-.61.27v.27a1.18,1.18,0,0,0,.61,1.16v.09c-.25.83-.37,1.28-.37,1.34a19.77,19.77,0,0,1,.62,4.37v.27a7.64,7.64,0,0,1-1.23,3.84,33.62,33.62,0,0,0-.49,3.66,11.66,11.66,0,0,1,.61,2.5v.18c0,.44-.45,1.07-1.35,1.87l-.12.54.49,2.41v1.52a3.58,3.58,0,0,1-.12.89l.24,1.43a21.79,21.79,0,0,0-.85,4.82c1.63.45,2.45.95,2.45,1.52v.62q1.47,0,1.47.63v.09c-.33,0-.49.12-.49.26s.53.27,1.59.27h1.1L75,287v.36a14,14,0,0,0-3.56.8,40.83,40.83,0,0,0-4.78.72c-.14,0-.22.14-.24.44v1.16a4.72,4.72,0,0,1,.61,1.79q0,.38-1.23,5.09a4.18,4.18,0,0,0-1.71,3.39c-.19,1-.47,1.43-.86,1.43s-.37-.39-.37-1.16h-.24q-.61.58-1.11,3.3a17.17,17.17,0,0,0-1.84,3.93h-.36v-.18a19.21,19.21,0,0,1,1.22-5.35,4.16,4.16,0,0,1-.24-1.61,11.16,11.16,0,0,0,.24-1.7,5.22,5.22,0,0,0-.86-1.61,10.5,10.5,0,0,0,.49-2.58,8.68,8.68,0,0,0-.24-2l-.61.36h-.13l-.12-.45c0-.5.21-2.14.61-4.91a8.08,8.08,0,0,0-1-.09c-2.2.24-3.47.36-3.8.36v-.09a1.76,1.76,0,0,0-1.47-.54h-.12c-1.63.24-2.45.54-2.45.9a5.9,5.9,0,0,0-1.35,2.32c-1.72.83-2.7,1.7-2.94,2.59,0,.49-.41,1-1.23,1.43q-.24,0-.24-.18v-.54l.12-.44h-.49a17.5,17.5,0,0,1-3.92,4.46c-.53.83-.94,1.28-1.23,1.34h-.12l-.12-.45a12.46,12.46,0,0,0,1.22-2,5.09,5.09,0,0,0,2.09-3.75,3.64,3.64,0,0,0,.85-1.61,4.12,4.12,0,0,0-.49-1,9.51,9.51,0,0,0,1.11-2.5,19,19,0,0,1-2.7-.62h-.12c-2.21.29-3.31.65-3.31,1.07l-1.47.09H34a12.24,12.24,0,0,1-2-.72H29l-.12-.44a.91.91,0,0,0,.86-.54l-1.11-.09-1.22.09-1-.09a20.9,20.9,0,0,1-2.82.18H21.51v-.18q0-.51,6.62-1c2.27-.49,3.45-.88,3.56-1.16s1.22-.37,3.67-.54l.37-.27-.24-.26v-.27q7.14-.45,9.8-.72c.64-.25,1.21-1.05,1.72-2.41a7.89,7.89,0,0,0,1.35-2.23,4.38,4.38,0,0,0-.25-1.16q1.32-2.52,4.91-8a9,9,0,0,0,1-3,3.35,3.35,0,0,0,1.22-2.05c.68-.48,1.25-1.67,1.72-3.58a9.76,9.76,0,0,1,2.57-1.6c0-.33.57-.66,1.6-1,0-.63.57-1.49,1.71-2.59.86-2.21,1.64-3.31,2.33-3.31a9.34,9.34,0,0,0,1.1.18c.58-.15.86-.77.86-1.87l.49-.09a3.15,3.15,0,0,1,.62,1.43c.32,0,.65-1,1-3Zm-40.2,39.46v.18h.12v-.18ZM36,284v.09h.24V284Zm9.44,10.53v.18h.12v-.18ZM60.12,272q-1.71,4.44-2.32,5.63a11.32,11.32,0,0,0-2.46,3.57,8.77,8.77,0,0,0-1,1.16h.49a21.4,21.4,0,0,1,4.78-.54l-.12-.44V280a25.29,25.29,0,0,1,.74-5V272.2l.12-.18Zm-.73,20.81v.08h.24v-.08Zm5.88-44.56c.58,0,.86.21.86.63v.35l-.12.45H65c-.49-.33-.74-.56-.74-.71C64.35,248.51,64.68,248.27,65.27,248.27Zm3.44-1.78a1.35,1.35,0,0,1,.61.35.84.84,0,0,1-.49.45h-.49l-.12-.45v-.26Zm1.47,15v.35h.12a1.91,1.91,0,0,0,.12-.35ZM73,283.63h1.1a2.61,2.61,0,0,1,.24.8v.27a5.9,5.9,0,0,1-1.1.18h-.61l-.12-.63v-.09C72.83,283.93,73,283.75,73,283.63Zm3.43,2.23h.73l.13.45v.27h-.74q-.24,0-.24-.27Z"/><path class="cls-11" d="M62.82,277.78h.31c.18,0,.27.1.27.2v.31q0,.21-.27.21H62.7l-.15-.52C62.57,277.85,62.66,277.78,62.82,277.78Zm26.72-20.56c1.07.14,3,.23,5.95.29a38.86,38.86,0,0,1,7.94,2.21c3.14,1.65,4.83,2.79,5,3.42.29,0,.67.27,1.14.8a3.39,3.39,0,0,1,1.9,2.12,13.47,13.47,0,0,1,.86,3.1q0,2.88-5.8,8.42l-6.19,4a7.81,7.81,0,0,1-2.6,1.11c-.06.32-1.27.79-3.62,1.41-.28.15-.43.25-.43.29a52.81,52.81,0,0,1,5.34,3,1.4,1.4,0,0,1,1.16.61c.26,0,.85.6,1.75,1.8a7.61,7.61,0,0,1,1.56,1.5,9.68,9.68,0,0,1,2.6.71,2.58,2.58,0,0,1,2.46,1.21,10.26,10.26,0,0,0,2,1.41q.15.7.15.78a1.28,1.28,0,0,1-.43.11v.09a10.86,10.86,0,0,0,2.61,1.92v.2c0,.12-.44.21-1.32.29q.09.69,1.59,1.32c0,.25.68.75,2,1.49a4.16,4.16,0,0,0,1,1.32,2.63,2.63,0,0,1,1.59,1h-.74q0-.24-3.15-1.92-3.23-2.7-5.79-2.7c0-.07-.1-.11-.28-.11v-.09c.39,0,.58-.07.58-.2a5.32,5.32,0,0,1-3.18-1,4.28,4.28,0,0,0-2-.72c0-.19-.09-.29-.27-.29h-.16l-.15.4h-.43a24,24,0,0,0-5.91-3.7,4.71,4.71,0,0,0-3.34-.92A8.14,8.14,0,0,1,89.7,290a6.82,6.82,0,0,1-1.75-.81,27.81,27.81,0,0,1-3.89-2.12,7.72,7.72,0,0,0-2.73-.8H80.9c-.36.07-1,.78-1.74,2.12-.39,0-.59.53-.59,1.61v.8l.43,1v.09c0,.67-.81,2.08-2.45,4.22a2.27,2.27,0,0,1-.86-.2c-.94,2-1.52,3.07-1.74,3.1-.43-.4-.72-.6-.86-.6-.49,0-.74.17-.74.51,0,.54-1,1.77-2.88,3.71-.61,1.34-1,2-1.13,2l-.16-.4a54.89,54.89,0,0,1,2.89-5.43l.27-1a4.2,4.2,0,0,1-.27-1.61h.27a3.79,3.79,0,0,1-.43-1.09c0-.33.2-1.7.59-4.11l-.28.09h-.43v-.2A37.77,37.77,0,0,1,73.36,285l.31-1.4a7.46,7.46,0,0,1-2.45-1.3l.12-.71v-.69l.16-.2a15.12,15.12,0,0,1-3.16-.72,1.56,1.56,0,0,0,.43-.09c.81.06,1.49.09,2,.09h.55a.67.67,0,0,0,.46-.29,22.11,22.11,0,0,1-5.94-2h.46a20.77,20.77,0,0,0,5.48.6v-.11c0-.13,0-.2.12-.2l-.12-.49v-.4c0-.54.48-.94,1.44-1.21l.43-.4v-.09a1.41,1.41,0,0,1-.58-.91.25.25,0,0,1,.27-.2c0,.29.49.53,1.47.71v-.51a4.92,4.92,0,0,0-1.31-2.5v-.4H74q1.89,2.61,3,2.61a9.19,9.19,0,0,0,.89-3.93c0-.28.23-.65.7-1.1v-.6a2.23,2.23,0,0,1,.74-1.6,1.34,1.34,0,0,0-.31-.61q1.29-1.89,5.06-2.9c1.45,0,2.18-.21,2.18-.51v-.09a2.24,2.24,0,0,1-.86-.11l-1.9.2c-.94-.14-1.85-.3-2.73-.49v-.2l.28-.32h-.86a26.59,26.59,0,0,1-4.78.52,4.84,4.84,0,0,0-1-.12V262a1,1,0,0,0,.88-.4c-.38-.25-.58-.42-.58-.51A31.41,31.41,0,0,0,68,262.74a4.18,4.18,0,0,1-2,.8,1.85,1.85,0,0,1-.58-.09,16,16,0,0,1-2.73,1v-.32c6.92-2.81,11.26-4.22,13-4.22l-.15-.2c.1,0,1.36-.36,3.77-1.09h.12c0,.13-.34.27-1,.4v.09l.74.11c1-.67,2.61-1,4.9-1a47.75,47.75,0,0,1,5.91-.52v-.08c-.28,0-.43-.07-.43-.21ZM65.3,280.59a1.69,1.69,0,0,1,1.29.61v.31a4.1,4.1,0,0,1-1.29.4H65a.57.57,0,0,1-.43-.31v-.81Zm4.48-7.41c.67.2,1,.49,1,.9v.31l-1,.09H69.2a2.78,2.78,0,0,1-.43-.9A4.18,4.18,0,0,1,69.78,273.18Zm1-3.12h.43c.18,0,.28.09.28.2v.31c0,.14-.1.2-.28.2h-.31c-.18,0-.27-.06-.27-.2Zm0,25.78h.12v.4h-.12Zm9.1-32h.43l.12.49v.12l-.7.08-.16-.49A.3.3,0,0,1,79.89,263.85Zm1.44-3.41v.09H82v-.09Zm12.26,2.3-.86-.09c-1.35.09-2,.25-2,.49v.71a5.37,5.37,0,0,1,.43,2.3c0,1.27-.39,1.9-1.17,1.9-.12.53-.35.8-.7.8v.52a25.3,25.3,0,0,1-2,3v.29s0,.48.15,1.32a11.25,11.25,0,0,1-2,2.5,2.57,2.57,0,0,0-.31,1.4,7.83,7.83,0,0,0,2.33.29,49.66,49.66,0,0,0,7.08-1.4c0-.36.48-.79,1.44-1.3a11.52,11.52,0,0,0,2.88-1.2,3.26,3.26,0,0,0,2.73-1.81,12.39,12.39,0,0,0,1.74-2.81l-.15-.2a2,2,0,0,0,.15-.7c-1.28-2.91-3.06-4.79-5.33-5.62-.49-.09-.73-.19-.73-.29l.15-.2a6.85,6.85,0,0,1-1.32-.32A16.11,16.11,0,0,1,93.59,262.74Zm-3.31,1.51a.53.53,0,0,1,.15.29h.13v-.29Zm8.09,10.43v.2a1.49,1.49,0,0,1,.43-.09v-.11Zm5.92,3.7v.2h.15v-.2Zm1.16-.69-.15.2V278h.15a.72.72,0,0,1,.12-.29Z"/><path class="cls-11" d="M101.28,277.78h.31c.18,0,.27.1.27.2v.31q0,.21-.27.21h-.43L101,278C101,277.85,101.12,277.78,101.28,277.78ZM128,257.22c1.07.14,3.05.23,5.95.29a38.86,38.86,0,0,1,7.94,2.21c3.14,1.65,4.83,2.79,5.05,3.42.29,0,.67.27,1.14.8a3.39,3.39,0,0,1,1.9,2.12,13.23,13.23,0,0,1,.85,3.1q0,2.88-5.79,8.42l-6.19,4a7.81,7.81,0,0,1-2.6,1.11c-.06.32-1.27.79-3.62,1.41-.28.15-.43.25-.43.29a52.81,52.81,0,0,1,5.34,3,1.4,1.4,0,0,1,1.16.61c.26,0,.85.6,1.75,1.8a7.61,7.61,0,0,1,1.56,1.5,9.68,9.68,0,0,1,2.6.71,2.58,2.58,0,0,1,2.46,1.21,10.26,10.26,0,0,0,2,1.41q.15.7.15.78a1.28,1.28,0,0,1-.43.11v.09a10.86,10.86,0,0,0,2.61,1.92v.2c0,.12-.44.21-1.32.29q.09.69,1.59,1.32c0,.25.68.75,2,1.49a4.16,4.16,0,0,0,1,1.32,2.63,2.63,0,0,1,1.59,1h-.74q0-.24-3.15-1.92-3.23-2.7-5.79-2.7c0-.07-.1-.11-.28-.11v-.09c.39,0,.58-.07.58-.2a5.32,5.32,0,0,1-3.18-1,4.28,4.28,0,0,0-2-.72c0-.19-.09-.29-.27-.29h-.16l-.15.4h-.43a24,24,0,0,0-5.91-3.7,4.71,4.71,0,0,0-3.34-.92,8.14,8.14,0,0,1-3.31-1.89,6.82,6.82,0,0,1-1.75-.81,27.81,27.81,0,0,1-3.89-2.12,7.72,7.72,0,0,0-2.73-.8h-.43c-.36.07-1,.78-1.74,2.12-.39,0-.59.53-.59,1.61v.8l.43,1v.09c0,.67-.81,2.08-2.45,4.22a2.27,2.27,0,0,1-.86-.2c-.94,2-1.52,3.07-1.74,3.1-.43-.4-.72-.6-.86-.6-.49,0-.74.17-.74.51,0,.54-1,1.77-2.88,3.71-.61,1.34-1,2-1.13,2l-.16-.4a54.89,54.89,0,0,1,2.89-5.43l.27-1a4.2,4.2,0,0,1-.27-1.61h.27a3.79,3.79,0,0,1-.43-1.09c0-.33.2-1.7.59-4.11l-.28.09h-.43v-.2a37.77,37.77,0,0,1,2.57-5.92l.31-1.4a7.46,7.46,0,0,1-2.45-1.3l.12-.71v-.69l.16-.2a15.12,15.12,0,0,1-3.16-.72,1.56,1.56,0,0,0,.43-.09c.81.06,1.49.09,2,.09h.55a.67.67,0,0,0,.46-.29,22.11,22.11,0,0,1-5.94-2h.46a20.77,20.77,0,0,0,5.48.6v-.11c0-.13,0-.2.12-.2l-.12-.49v-.4c0-.54.48-.94,1.44-1.21l.43-.4v-.09a1.41,1.41,0,0,1-.58-.91.25.25,0,0,1,.27-.2c0,.29.49.53,1.47.71v-.51A4.92,4.92,0,0,0,112,272v-.4h.43q1.89,2.61,3,2.61a9.19,9.19,0,0,0,.89-3.93c0-.28.23-.65.7-1.1v-.6a2.23,2.23,0,0,1,.74-1.6,1.34,1.34,0,0,0-.31-.61q1.29-1.89,5.06-2.9c1.45,0,2.18-.21,2.18-.51v-.09a2.24,2.24,0,0,1-.86-.11l-1.9.2c-.94-.14-1.85-.3-2.73-.49v-.2l.28-.32h-.86a26.59,26.59,0,0,1-4.78.52,4.85,4.85,0,0,0-1-.12V262a1,1,0,0,0,.89-.4c-.38-.25-.58-.42-.58-.51a31.41,31.41,0,0,0-6.65,1.61,4.18,4.18,0,0,1-2,.8,1.85,1.85,0,0,1-.58-.09,16,16,0,0,1-2.73,1v-.32c6.92-2.81,11.26-4.22,13-4.22l-.15-.2c.1,0,1.36-.36,3.77-1.09h.12c0,.13-.34.27-1,.4v.09l.74.11c1-.67,2.61-1,4.9-1a47.75,47.75,0,0,1,5.91-.52v-.08c-.28,0-.43-.07-.43-.21Zm-24.24,23.37a1.69,1.69,0,0,1,1.29.61v.31a4.1,4.1,0,0,1-1.29.4h-.3a.57.57,0,0,1-.43-.31v-.81Zm4.48-7.41c.67.2,1,.49,1,.9v.31l-1,.09h-.58a2.78,2.78,0,0,1-.43-.9A4.18,4.18,0,0,1,108.24,273.18Zm1-3.12h.43c.18,0,.28.09.28.2v.31c0,.14-.1.2-.28.2h-.31c-.18,0-.27-.06-.27-.2Zm0,25.78h.12v.4h-.12Zm9.1-32h.43l.12.49v.12l-.7.08-.16-.49A.3.3,0,0,1,118.35,263.85Zm1.44-3.41v.09h.71v-.09Zm12.26,2.3-.86-.09c-1.35.09-2,.25-2,.49v.71a5.37,5.37,0,0,1,.43,2.3c0,1.27-.39,1.9-1.17,1.9-.12.53-.35.8-.7.8v.52a25.3,25.3,0,0,1-2,3v.29s.05.48.15,1.32a11.25,11.25,0,0,1-2,2.5,2.57,2.57,0,0,0-.31,1.4,7.83,7.83,0,0,0,2.33.29,49.66,49.66,0,0,0,7.08-1.4c0-.36.48-.79,1.44-1.3a11.52,11.52,0,0,0,2.88-1.2,3.26,3.26,0,0,0,2.73-1.81,12.39,12.39,0,0,0,1.74-2.81l-.15-.2a2,2,0,0,0,.15-.7c-1.28-2.91-3.06-4.79-5.33-5.62-.49-.09-.73-.19-.73-.29l.15-.2a6.85,6.85,0,0,1-1.32-.32A16.11,16.11,0,0,1,132.05,262.74Zm-3.31,1.51a.53.53,0,0,1,.15.29H129v-.29Zm8.09,10.43v.2a1.49,1.49,0,0,1,.43-.09v-.11Zm5.92,3.7v.2h.15v-.2Zm1.16-.69-.15.2V278h.15a.72.72,0,0,1,.12-.29Z"/><path class="cls-11" d="M163.61,254.61h.13a14.47,14.47,0,0,1-.28,2.08c0,.18.23.53.68,1.07-.09.95-.13,1.47-.13,1.56a37.79,37.79,0,0,1,.55,7.08,32,32,0,0,1-3.12,5.6,17.23,17.23,0,0,0-.52,3.84c-1,.51-1.5,1.09-1.5,1.76s.15.9.15,1a12,12,0,0,0-.95,4q-1.91,3.6-1.9,4.71a12.44,12.44,0,0,0-.68,1.88v.58a5.54,5.54,0,0,0-1.07,1.29,1.42,1.42,0,0,1,.4.78c-.73,2.87-1.41,4.31-2,4.31a3.22,3.22,0,0,0-1.87,2.77,1.89,1.89,0,0,1-.95.87c-.18,0-.32-.33-.4-1a1.28,1.28,0,0,1-.4-.09q0,.61-3,5a1.39,1.39,0,0,1-.83,1.27h-.24v-.09c0-.83.62-2.57,1.87-5.2v-.4a.55.55,0,0,0-.13-.38,8,8,0,0,0,.68-2.08c-.29-.79-.47-1.18-.55-1.18a11,11,0,0,0,.82-3.44l-.27.11h-.55v-.4a39.09,39.09,0,0,0,1.22-5,10.86,10.86,0,0,0,.95-3.55c-.14,0-.32-.12-.55-.38v-.11a19.2,19.2,0,0,1,.95-3.52c-.37,0-.55-.17-.55-.5v-.2a10.83,10.83,0,0,0,.67-3.32v-.6a7.42,7.42,0,0,0-.27-2,16.19,16.19,0,0,1,2-3.44,3.42,3.42,0,0,0,.55-1.36c-.18-.4-.32-.6-.4-.6a3.43,3.43,0,0,0,.28-1.27l-.43-.7a11.86,11.86,0,0,1,.83-2.45,4.27,4.27,0,0,0-.28-1.56c0-.4.68-1,2-1.68,0-.2,1.11-1.05,3.25-2.54H159l.95.09c.24-.6.6-.89,1.07-.89a1.4,1.4,0,0,1,.4.69h.15c.25-1.31.6-2,1.08-2,.2,0,.33-.12.39-.38A1.42,1.42,0,0,1,163.61,254.61Zm-5.39-.49h1.2l.27.69v.4a1.2,1.2,0,0,1-1.07.5c-.18,0-.5-.27-1-.81C157.83,254.38,158,254.12,158.22,254.12Zm4.32-1.67h.68l.12.49v.2l-.67.11h-.4l-.16-.4C162.26,252.58,162.4,252.45,162.54,252.45Z"/><path class="cls-11" d="M183,256.93h.55a3.55,3.55,0,0,0,1.87.67h1.35c.7,0,1.95.6,3.77,1.79h.15a5.83,5.83,0,0,1,1.2-.2,1.32,1.32,0,0,1,1.1.49,4,4,0,0,1-.82,1.27c1.26,1.31,1.89,2.26,1.89,2.86V264l-.67.11h-.27a2.92,2.92,0,0,1-1.08-.2c-.45.1-.67.3-.67.58a4.75,4.75,0,0,0,2.3,1c0-.25.17-.38.39-.38h.8q1.23.14,1.23.78c0,.12-.28.42-.83.89q2.85,1.5,2.85,6.19c.63.64.95,1.13.95,1.47a22.37,22.37,0,0,0-1.1,4.62,6.4,6.4,0,0,0-.8,2.55l.8-.5h.15v.09q0,2.56-5.94,8.26-5,3.84-7.94,4.62c-3.43,1.34-5.51,2.09-6.22,2.26a3.62,3.62,0,0,0-1.2.09,21,21,0,0,1-8.09-2.06q-6.61-3.76-6.62-11.09v-.49a10.4,10.4,0,0,1,.12-1.39v-.08h-.12c-.53,1.36-.89,2-1.07,2l-.28-.29v-.78l1.08-4c.16-1.57.34-2.35.55-2.35v-.49a4.4,4.4,0,0,0-.83-.78,30.54,30.54,0,0,0,1.23-3.26h-.68q-.27,0-.27-.18v-.11a21,21,0,0,1,4.19-5c1.17-.61,1.75-1.14,1.75-1.58l-.15-.38a14.2,14.2,0,0,1,4.32-3c.61-.59,2.41-1.25,5.39-2q1.44-1.28,5.4-1.27v-.5c0-.13.13-.2.4-.2v-.11Zm7.14,8.53-.12.2,1.35,1v.4l-.55.09v.12a1.18,1.18,0,0,1,.55,1v.49h-.55a34.56,34.56,0,0,0-2.82-2.57,21.77,21.77,0,0,1-2.3.2,9.08,9.08,0,0,1-2-.69c0,.48-1.19,1.82-3.5,4a13.71,13.71,0,0,1-4.2,3.73c-1.88,2-2.81,3.82-2.81,5.49q-.23,3.84-1.08,3.84l-.67.69a9.32,9.32,0,0,1,.4,2.05q1.5,2.75,3.37,2.75a8,8,0,0,0,2.69.49,44.27,44.27,0,0,0,4.45-1.07,3.64,3.64,0,0,0,3-1.09,8.28,8.28,0,0,0,2.82-2.95,6.28,6.28,0,0,1,1.07-3.44q2.18-3.07,2.18-4.6a3.41,3.41,0,0,1,1.47-1.38,3,3,0,0,0,.55-1.76,21.25,21.25,0,0,0-.4-3.24.71.71,0,0,0,.13-.4h.39a4.06,4.06,0,0,1,1.08.78h.15c.18,0,.27-.07.27-.2a9,9,0,0,0-3.92-3.73A3,3,0,0,1,190.09,265.46Zm-12.26,5.8v.2c.19,0,.28-.06.28-.2Zm19.28,11v.2h.12v-.2Z"/><path class="cls-11" d="M187,277.78h.3c.19,0,.28.1.28.2v.31c0,.14-.09.21-.28.21h-.43l-.15-.52C186.71,277.85,186.8,277.78,187,277.78Zm26.72-20.56c1.06.14,3,.23,5.94.29a38.68,38.68,0,0,1,7.94,2.21c3.15,1.65,4.83,2.79,5.06,3.42.28,0,.66.27,1.13.8a3.39,3.39,0,0,1,1.9,2.12,13.47,13.47,0,0,1,.86,3.1q0,2.88-5.79,8.42l-6.19,4a7.92,7.92,0,0,1-2.61,1.11c-.06.32-1.26.79-3.61,1.41-.29.15-.43.25-.43.29a52.85,52.85,0,0,1,5.33,3,1.38,1.38,0,0,1,1.16.61c.27,0,.85.6,1.75,1.8a7.61,7.61,0,0,1,1.56,1.5,9.81,9.81,0,0,1,2.61.71,2.57,2.57,0,0,1,2.45,1.21,10.58,10.58,0,0,0,2,1.41,7.54,7.54,0,0,1,.16.78,1.41,1.41,0,0,1-.43.11v.09a10.92,10.92,0,0,0,2.6,1.92v.2c0,.12-.44.21-1.32.29.07.46.6.9,1.6,1.32,0,.25.67.75,2,1.49a4.48,4.48,0,0,0,1,1.32c.41,0,.94.33,1.6,1h-.74c0-.16-1.05-.8-3.16-1.92q-3.21-2.7-5.79-2.7c0-.07-.09-.11-.27-.11v-.09c.38,0,.58-.07.58-.2a5.33,5.33,0,0,1-3.19-1,4.28,4.28,0,0,0-2-.72c0-.19-.09-.29-.28-.29H227l-.15.4h-.43a24.33,24.33,0,0,0-5.92-3.7,4.7,4.7,0,0,0-3.34-.92,8.14,8.14,0,0,1-3.31-1.89,7,7,0,0,1-1.74-.81,26.93,26.93,0,0,1-3.9-2.12,7.62,7.62,0,0,0-2.72-.8h-.43c-.37.07-1,.78-1.75,2.12-.39,0-.58.53-.58,1.61v.8l.43,1v.09q0,1-2.45,4.22a2.19,2.19,0,0,1-.86-.2c-.94,2-1.52,3.07-1.75,3.1-.43-.4-.71-.6-.86-.6-.49,0-.73.17-.73.51,0,.54-1,1.77-2.88,3.71-.62,1.34-1,2-1.14,2l-.15-.4a53.22,53.22,0,0,1,2.88-5.43l.28-1a4,4,0,0,1-.28-1.61h.28a3.49,3.49,0,0,1-.43-1.09c0-.33.19-1.7.58-4.11l-.28.09h-.43v-.2a37.07,37.07,0,0,1,2.58-5.92l.31-1.4a7.5,7.5,0,0,1-2.46-1.3l.13-.71v-.69l.15-.2a15.36,15.36,0,0,1-3.16-.72,1.49,1.49,0,0,0,.43-.09c.82.06,1.49.09,2,.09h.56a.69.69,0,0,0,.46-.29,22.07,22.07,0,0,1-5.95-2h.46a20.86,20.86,0,0,0,5.49.6v-.11c0-.13,0-.2.12-.2l-.12-.49v-.4c0-.54.48-.94,1.44-1.21l.43-.4v-.09a1.43,1.43,0,0,1-.59-.91.26.26,0,0,1,.28-.2c0,.29.49.53,1.47.71v-.51a5,5,0,0,0-1.32-2.5v-.4h.43q1.91,2.61,3,2.61a9.19,9.19,0,0,0,.89-3.93c0-.28.24-.65.71-1.1v-.6a2.22,2.22,0,0,1,.73-1.6,1.39,1.39,0,0,0-.3-.61c.85-1.26,2.54-2.23,5-2.9,1.45,0,2.18-.21,2.18-.51v-.09a2.24,2.24,0,0,1-.86-.11l-1.9.2c-.94-.14-1.85-.3-2.73-.49v-.2l.28-.32h-.86a26.48,26.48,0,0,1-4.78.52,4.77,4.77,0,0,0-1-.12V262a1.05,1.05,0,0,0,.89-.4c-.39-.25-.58-.42-.58-.51a31.24,31.24,0,0,0-6.65,1.61,4.18,4.18,0,0,1-2,.8,1.85,1.85,0,0,1-.58-.09,15.36,15.36,0,0,1-2.73,1v-.32q10.4-4.22,13-4.22l-.16-.2c.11,0,1.36-.36,3.77-1.09h.13c0,.13-.34.27-1,.4v.09l.73.11c1-.67,2.62-1,4.9-1a47.93,47.93,0,0,1,5.92-.52v-.08c-.29,0-.43-.07-.43-.21Zm-24.24,23.37a1.69,1.69,0,0,1,1.29.61v.31a4.26,4.26,0,0,1-1.29.4h-.31c-.14,0-.28-.1-.43-.31v-.81Zm4.47-7.41c.68.2,1,.49,1,.9v.31l-1,.09h-.58a2.78,2.78,0,0,1-.43-.9A4.18,4.18,0,0,1,193.92,273.18Zm1-3.12h.43c.19,0,.28.09.28.2v.31c0,.14-.09.2-.28.2h-.3c-.19,0-.28-.06-.28-.2Zm0,25.78h.13v.4h-.13Zm9.11-32h.42l.13.49v.12l-.71.08-.15-.49A.28.28,0,0,1,204,263.85Zm1.44-3.41v.09h.7v-.09Zm12.25,2.3-.85-.09c-1.35.09-2,.25-2,.49v.71a5.37,5.37,0,0,1,.43,2.3c0,1.27-.39,1.9-1.16,1.9-.12.53-.36.8-.71.8v.52a23.83,23.83,0,0,1-2,3v.29s.05.48.15,1.32a10.93,10.93,0,0,1-2,2.5,2.66,2.66,0,0,0-.31,1.4,7.88,7.88,0,0,0,2.33.29,49.66,49.66,0,0,0,7.08-1.4c0-.36.48-.79,1.44-1.3a11.52,11.52,0,0,0,2.88-1.2,3.24,3.24,0,0,0,2.73-1.81,12.29,12.29,0,0,0,1.75-2.81l-.16-.2a1.8,1.8,0,0,0,.16-.7c-1.29-2.91-3.07-4.79-5.33-5.62-.49-.09-.74-.19-.74-.29l.15-.2a6.65,6.65,0,0,1-1.31-.32A16.16,16.16,0,0,1,217.73,262.74Zm-3.31,1.51a.5.5,0,0,1,.16.29h.12v-.29Zm8.09,10.43v.2a1.56,1.56,0,0,1,.43-.09v-.11Zm5.92,3.7v.2h.15v-.2Zm1.16-.69-.15.2V278h.15a.65.65,0,0,1,.13-.29Z"/><path class="cls-11" d="M253.8,258h1c3.15.21,4.72.46,4.72.76a12.33,12.33,0,0,0,2.58.94,14.16,14.16,0,0,0,3.4,2.07,2.45,2.45,0,0,1,.92,1.7q0,.66.15,2.1l-.55,2.83a1.41,1.41,0,0,1-1.41.94h-.92c-.08,0-.35.32-.79,1h-.13c-.24,0-.42-.22-.52-.67h-.15c-.29,0-.58.63-.89,1.9a2.65,2.65,0,0,1-.64.47h-.16l-.12-.47a12.09,12.09,0,0,1,.12-1.43l-.52-.09c0-.25.23-.51.68-.76-.25-1.21-.6-1.81-1.05-1.81a17.41,17.41,0,0,0-1.59-2.25.86.86,0,0,0-.64-.85,18.21,18.21,0,0,0-5.12.76,11.32,11.32,0,0,0-3.77,2.16,4.94,4.94,0,0,0-1.19,2.28v.09a5.35,5.35,0,0,1,.27.74,6.59,6.59,0,0,0-.27,1.33c.34,0,.52.41.52,1.23a4.81,4.81,0,0,1,1.71,2.19c.7.27,1,.45,1,.56v.09l-.15.67a22.78,22.78,0,0,0,3.28,1.78q6.41,6.13,6.4,6.81a11,11,0,0,1,1.84,5.76,4,4,0,0,1-2.88,4,9.75,9.75,0,0,0-2,2.64,7.7,7.7,0,0,1-5.48,2.07,4.47,4.47,0,0,1-2.09.58c-.75,0-1.37-.08-1.84-.08h-1.16l-2.51.46h-.13a3.15,3.15,0,0,0-1.68-.58l-1.84.29c-3-.16-4.48-.63-4.48-1.4,0-.27-.9-.62-2.72-1.05h-.4a1.26,1.26,0,0,0-.49.09,6.51,6.51,0,0,1-3-2.17l.09-.67v-.18a15.64,15.64,0,0,0-.65-1.69v-.29h.56q0,.36.36.36l.28-.07a18.17,18.17,0,0,0-.92-4.56.67.67,0,0,0,.12-.29h.25c.1,0,.37.48.79,1.43h.16l-.16-.47v-.75h.25c.73,1.13,1.17,1.69,1.32,1.69V290a21.69,21.69,0,0,1-.52-3,17.14,17.14,0,0,1,2-6.54h.4l.24.11a47,47,0,0,1-1.29,4.64,5.72,5.72,0,0,0-.12,1.43q0,1.47,2.73,4.71a12.55,12.55,0,0,0,2.24.85,1.55,1.55,0,0,0,1.31.76h.62v.47l-.13.2a6.81,6.81,0,0,0,2.92.67h.12v-.12a1.91,1.91,0,0,1-1.32-.75v-.09c0-.14.11-.2.28-.2a11.79,11.79,0,0,0,2.08.58,23.85,23.85,0,0,0,2.88.29l.25-.12q.15,0,.15.12c2.57,0,4-.32,4.41-.94a2.07,2.07,0,0,0,1.17-2v-.76a14.46,14.46,0,0,0-.37-2.1c.16-.47.34-.72.52-.75q-.56-1.44-4.69-4.45c-.27,0-.4,0-.4-.06-.39,0-.78.44-1.19,1.31h-.13c-.28-.38-.5-.58-.64-.58H245a14.62,14.62,0,0,0-.55,2.37H244a11,11,0,0,1-.52-3c-.95-.53-1.41-1-1.41-1.31l.76-.47c0-.29-.65-.85-2-1.7-.94-2.28-1.77-3.41-2.48-3.41a2,2,0,0,1-.65-1.32c.17,0,.25-.06.25-.18v-.09a6.29,6.29,0,0,0-1.29-1.81,7.37,7.37,0,0,1-.55-2.18q.52-3.78,1.32-3.78a3.23,3.23,0,0,0,.64-1.58,2.29,2.29,0,0,0,.55-1.54v-.65q2.82-2.65,4.29-2.65a16,16,0,0,0,2.61-.94c.45,0,.67,0,.67.06v.32c-.14,0-.27.09-.4.29,0,.1.12.15.28.15h.4A14.68,14.68,0,0,1,253.8,258Zm-23.32,31.38v.18h.16v-.18Zm0,1.05v.27c.61,1.64,1.32,2.46,2.12,2.46v-.07a5.36,5.36,0,0,1-2-2.66Zm10.88-10.78v.09h.25v-.09Zm3.8,7.28c.33.09.49.18.49.29v.36h-.89V287A1.48,1.48,0,0,0,245.16,286.89Zm2.48-2.46a1,1,0,0,1,1.17,1.05,2,2,0,0,1-.92.27h-.25c-.24,0-.42-.28-.52-.85C247.12,284.81,247.3,284.66,247.64,284.43Zm2.61-18.81-.28.26h.16l.24-.26ZM261.1,273h.27c.13,0,.25.1.37.29s-.16.23-.49.38h-.15c-.13,0-.26-.09-.4-.27v-.11C260.7,273.18,260.83,273.09,261.1,273Zm3.15-2.16c.7.18,1,.46,1,.84a.91.91,0,0,1-.52.5h-.92l-.12-.5v-.46C263.73,271.12,263.91,271,264.25,270.82Z"/><path class="cls-11" d="M196,345a14.89,14.89,0,0,1-3.26.28q-6.33-.42-7.82-7.52a31.57,31.57,0,0,1,.29-12,14.42,14.42,0,0,1-3,.08q-5.25-.16-6.09-4.13a2.82,2.82,0,0,1-.05-.86,9,9,0,0,1,1.3-4.75,21.24,21.24,0,0,1,5.8-6.25,18.73,18.73,0,0,1,7.07-3.19,17.43,17.43,0,0,1,3.62-.36.94.94,0,0,0,.62-.39q4.52-5.82,9.72-7.45a4.25,4.25,0,0,1,2.92.42,4.18,4.18,0,0,1,2,2.36q1.44,6.86-4,13.27a33,33,0,0,1-15.55,10.34.48.48,0,0,0-.4.48,33.72,33.72,0,0,0,.18,11.86q1.68,8,7.48,6.78,4-.84,8.93-7.55a50,50,0,0,0,4.62-8.05,18.09,18.09,0,0,1,1.39-2.83.67.67,0,0,1,.33.07q.15.7-1.84,4.93a41.26,41.26,0,0,1-7.76,11A12.8,12.8,0,0,1,196,345Zm-11.13-19.65c.25-.05.42-.38.53-1a34,34,0,0,1,1.15-3.78q3.07-8.73,7-13.5a.79.79,0,0,0,.18-.37.43.43,0,0,0-.33-.07,17.75,17.75,0,0,0-3.31.36,16.56,16.56,0,0,0-7.24,3.45,19.75,19.75,0,0,0-5,6.2,7.44,7.44,0,0,0-.82,4.91Q178,325.68,184.91,325.36Zm4.41-.86a24,24,0,0,0,7.33-3.2,34.14,34.14,0,0,0,8-7,16.82,16.82,0,0,0,3.46-6.44,12,12,0,0,0,.34-5.24,4.12,4.12,0,0,0-1.21-2.42,4,4,0,0,0-3.31-.91q-1.65.35-4.56,3.66c-1.94,2.21-2.87,3.46-2.81,3.76a.33.33,0,0,1,.2.06l.43.21a1.6,1.6,0,0,1,.45.3l-.3.13a.37.37,0,0,1-.27-.07,1.81,1.81,0,0,0-.81-.23c-.08,0-.19.12-.31.33a38.47,38.47,0,0,0-4.07,7.8A39.93,39.93,0,0,0,189.32,324.5Z"/><path class="cls-11" d="M217.8,334.84l-.37.07a14,14,0,0,1-2.38.17c-1.81-.29-3-1.84-3.59-4.66a29,29,0,0,1-.43-3.25,37,37,0,0,1,1.43-13.26q3.33-10.25,7.06-14.37,2.74-3,4.34-3.31a1.51,1.51,0,0,1,1.53.61,2.14,2.14,0,0,1,.46,1,5,5,0,0,1-.17,2.24A38.49,38.49,0,0,1,220,311.14a20.94,20.94,0,0,1-3.29,4l-.89.92q-.81,1-1.27,7.34a29.79,29.79,0,0,0,.12,7.26,7.86,7.86,0,0,0,.8,2.17c.38.68,1.16.89,2.34.65a2.44,2.44,0,0,0,1.14-.64,9.22,9.22,0,0,0,1.62-2c1.33-1.93,2.55-3.83,3.64-5.71q1-1.68,1.29-1.74a.26.26,0,0,1,.27,0,.33.33,0,0,0,.15.1.11.11,0,0,1,.08.08l-3.81,6.74C220.68,333.06,219.22,334.54,217.8,334.84Zm-1.86-19.52a46,46,0,0,0,4.32-5.55,34.79,34.79,0,0,0,3.85-7.18,6.91,6.91,0,0,0,.51-3.65c-.2-.94-.54-1.47-1-1.59-.09,0-.19.11-.33.27a16.35,16.35,0,0,0-3.4,5.36,61.7,61.7,0,0,0-2.67,7.17q-1.08,3.53-1.38,5.13Z"/><path class="cls-11" d="M227.61,333a6.87,6.87,0,0,1-1.77.11c-.91-.12-1.51-.84-1.79-2.17-.38-1.83-.05-4.4,1-7.69a29.82,29.82,0,0,1,2.48-6.13,4.29,4.29,0,0,1,1.85-1.19.63.63,0,0,1,.82.56,26.21,26.21,0,0,1-1.27,7,33.16,33.16,0,0,0-1.32,7.09l0,.52c.11.51.3.74.59.68a7.24,7.24,0,0,0,1.45-1.57q2.13-2.93,2.17-3.93a15.54,15.54,0,0,1,1.26-5.27c1.4-3.46,2.4-5.38,3-5.78a4.6,4.6,0,0,1,1.27-.66c.36-.08.62.23.76.91a3.24,3.24,0,0,1,0,1.34q-1,4.43-1.63,6.49a21.74,21.74,0,0,0-1,6.08c0,.13.2.16.53.09q2.79-2.46,6.35-9.55a.78.78,0,0,1,.49-.37c.45-.09.7,0,.74.18a1,1,0,0,1-.15.5,51.2,51.2,0,0,1-4.34,7.86,7.21,7.21,0,0,1-3.71,2.71l-1.08.29c-.8,0-1.32-.12-1.57-.47a6.32,6.32,0,0,1-.68-2.06,18.65,18.65,0,0,1-2,3A4.36,4.36,0,0,1,227.61,333Z"/><path class="cls-11" d="M243.21,332.66c-.28.06-.45,0-.49-.24a6.5,6.5,0,0,0-.21-.69,4.13,4.13,0,0,1-.21-.69,19.85,19.85,0,0,1-.4-5.26,60.07,60.07,0,0,1,1.44-12.59.7.7,0,0,1,.12-.36,111.41,111.41,0,0,1,4.43-14.42,25.34,25.34,0,0,1,8.16-11.53,5.81,5.81,0,0,1,2-.88c2-.43,3.36.39,4,2.44a14.38,14.38,0,0,1-1.13,9.52,23.12,23.12,0,0,1-5.7,7.48q-5.68,4.79-7.82,5.24a1.15,1.15,0,0,0-.8.9c-.06.42-.15.86-.26,1.33a31.94,31.94,0,0,0-.82,5.25c-.13,1.8-.26,3.19-.4,4.15a7.69,7.69,0,0,0-.12,1.23s.06,0,.07,0q4.38-11,8.66-11.9a1.81,1.81,0,0,1,2.41,1.5,4.13,4.13,0,0,1-.2,2.05,22.71,22.71,0,0,1-2.64,7.5c.2.14.71.12,1.52-.05,1.55-.33,3.24-2.08,5.08-5.27.51-1.18.92-1.8,1.2-1.86,0,0,.09,0,.15.1a5.73,5.73,0,0,1-.79,2.31,21.09,21.09,0,0,1-2.56,3.77,5.83,5.83,0,0,1-3.32,1.93,15.56,15.56,0,0,1-1.88.13,1,1,0,0,0-.32.33,10,10,0,0,1-2.77,2.76,9.09,9.09,0,0,1-3.22,1.5,2.31,2.31,0,0,1-1,0c-.33.06-.63,1.06-.91,3A1.42,1.42,0,0,1,243.21,332.66Zm4.3-5.65a2.87,2.87,0,0,0,1.7-1,21.77,21.77,0,0,0,1.4-2.1.74.74,0,0,0-.6-.14q-5,1-4.63,2.84C245.5,327.14,246.21,327.29,247.51,327ZM246,324.26a2.34,2.34,0,0,0,.69-.34,5.49,5.49,0,0,1,2.12-.85l2.05-.23c.77-.16,1.39-1.47,1.85-3.93a15.45,15.45,0,0,0,.44-4.9c-.16-.77-.44-1.11-.85-1-.57.12-1.34.9-2.31,2.35a31.5,31.5,0,0,0-2.34,4A34.65,34.65,0,0,0,246,324.26Zm.91-13.89q2.75-.57,7.16-4.44a19.67,19.67,0,0,0,6-8.53,15.42,15.42,0,0,0,.89-7.93,2.78,2.78,0,0,0-2.44-2.5,3,3,0,0,0-.94.06q-4.16.87-8,13.11a51.28,51.28,0,0,0-1.64,4.95c-.25,1-.63,2.8-1.12,5.31Z"/></g></g></svg>