<svg xmlns="http://www.w3.org/2000/svg" xmlns:xlink="http://www.w3.org/1999/xlink" viewBox="0 0 110.04 192.79"><defs><style>.cls-1{fill:url(#Degradado_sin_nombre_30);}.cls-2{fill:url(#Degradado_sin_nombre_15);}.cls-3{fill:url(#Degradado_sin_nombre_77);}.cls-4{fill:url(#Degradado_sin_nombre_21);}.cls-5{fill:url(#Degradado_sin_nombre_38);}.cls-6{fill:url(#Degradado_sin_nombre_17);}.cls-7{fill:url(#Degradado_sin_nombre_65);}.cls-8{fill:url(#Degradado_sin_nombre_64);}.cls-9{fill:url(#Degradado_sin_nombre_2);}.cls-10{fill:none;stroke:#fff;stroke-miterlimit:10;stroke-width:0.17px;}</style><radialGradient id="Degradado_sin_nombre_30" cx="49.5" cy="106.28" r="119.12" gradientUnits="userSpaceOnUse"><stop offset="0" stop-color="#7e8082"/><stop offset="0.38" stop-color="#201e1e"/><stop offset="0.83" stop-color="#201e1e"/><stop offset="0.88" stop-color="#6b6a6a"/><stop offset="0.93" stop-color="#b9b9b9"/><stop offset="0.96" stop-color="#d8d8d8"/></radialGradient><linearGradient id="Degradado_sin_nombre_15" x1="19.61" y1="-43.81" x2="30.31" y2="133.38" gradientUnits="userSpaceOnUse"><stop offset="0" stop-color="#d8d8d8"/><stop offset="0.07" stop-color="#d3d3d3"/><stop offset="0.15" stop-color="#c5c5c5"/><stop offset="0.23" stop-color="#adadad"/><stop offset="0.32" stop-color="#8c8c8c"/><stop offset="0.41" stop-color="#626262"/><stop offset="0.45" stop-color="#4d4d4d"/><stop offset="0.69" stop-color="#454545"/><stop offset="0.84" stop-color="#3d3c3c"/></linearGradient><linearGradient id="Degradado_sin_nombre_77" x1="32.5" y1="69.45" x2="73.41" y2="69.81" gradientUnits="userSpaceOnUse"><stop offset="0" stop-color="#d8d8d8"/><stop offset="0.54" stop-color="#767677"/><stop offset="0.56" stop-color="#7e7e7f"/><stop offset="0.57" stop-color="#8c8c8d"/><stop offset="0.59" stop-color="#9e9e9f"/><stop offset="0.63" stop-color="#bdbdbe"/><stop offset="0.66" stop-color="#d4d4d4"/><stop offset="0.7" stop-color="#e1e1e1"/><stop offset="0.73" stop-color="#e6e6e6"/><stop offset="1" stop-color="#4d4d4d"/><stop offset="1" stop-color="#6a6a6a"/><stop offset="1" stop-color="#b9b9b9"/><stop offset="1" stop-color="#d8d8d8"/></linearGradient><linearGradient id="Degradado_sin_nombre_21" x1="41.7" y1="69.65" x2="64.07" y2="69.65" gradientUnits="userSpaceOnUse"><stop offset="0" stop-color="#d8d8d8"/><stop offset="0.2" stop-color="#4d4d4d"/><stop offset="0.26" stop-color="#515151"/><stop offset="0.31" stop-color="#5c5c5c"/><stop offset="0.36" stop-color="#707070"/><stop offset="0.41" stop-color="#8b8b8b"/><stop offset="0.47" stop-color="#aeaeae"/><stop offset="0.52" stop-color="#d8d8d8"/><stop offset="0.53" stop-color="#fff"/><stop offset="0.55" stop-color="#d8d8d8"/><stop offset="0.84" stop-color="#4d4d4d"/><stop offset="0.87" stop-color="#6a6a6a"/><stop offset="0.96" stop-color="#b9b9b9"/><stop offset="1" stop-color="#d8d8d8"/></linearGradient><linearGradient id="Degradado_sin_nombre_38" x1="-41.43" y1="98.96" x2="56.81" y2="98.96" gradientUnits="userSpaceOnUse"><stop offset="0" stop-color="#d8d8d8"/><stop offset="0.45" stop-color="#333233"/><stop offset="0.49" stop-color="#3b3a3c"/><stop offset="0.54" stop-color="#525153"/><stop offset="0.61" stop-color="#767678"/><stop offset="0.68" stop-color="#9e9fa2"/><stop offset="0.71" stop-color="#9e9fa1"/><stop offset="0.76" stop-color="#929395"/><stop offset="0.83" stop-color="#76787a"/><stop offset="0.91" stop-color="#a7a8aa"/><stop offset="0.96" stop-color="#c6c7c9"/></linearGradient><linearGradient id="Degradado_sin_nombre_17" x1="32.87" y1="236.87" x2="27.02" y2="29" gradientUnits="userSpaceOnUse"><stop offset="0" stop-color="#4d4d4d"/><stop offset="0.26" stop-color="#d8d8d8"/><stop offset="0.6" stop-color="#d8d8d8"/><stop offset="0.61" stop-color="#c6c6c6"/><stop offset="0.64" stop-color="#9f9f9f"/><stop offset="0.66" stop-color="#878787"/><stop offset="0.68" stop-color="#7e7e7e"/><stop offset="0.69" stop-color="#727272"/><stop offset="0.72" stop-color="#5e5e5e"/><stop offset="0.74" stop-color="#515151"/><stop offset="0.77" stop-color="#4d4d4d"/></linearGradient><linearGradient id="Degradado_sin_nombre_65" x1="58.3" y1="164.85" x2="104.03" y2="55.71" gradientUnits="userSpaceOnUse"><stop offset="0" stop-color="#4d4d4d"/><stop offset="0.06" stop-color="#515151"/><stop offset="0.12" stop-color="#5d5d5d"/><stop offset="0.18" stop-color="#707070"/><stop offset="0.24" stop-color="#8c8c8c"/><stop offset="0.3" stop-color="#afafaf"/><stop offset="0.35" stop-color="#d8d8d8"/><stop offset="0.46" stop-color="#d8d8d8"/><stop offset="0.48" stop-color="#c6c6c6"/><stop offset="0.52" stop-color="#9f9f9f"/><stop offset="0.54" stop-color="#878787"/><stop offset="0.56" stop-color="#7e7e7e"/><stop offset="0.58" stop-color="#727272"/><stop offset="0.62" stop-color="#5e5e5e"/><stop offset="0.66" stop-color="#515151"/><stop offset="0.7" stop-color="#4d4d4d"/></linearGradient><linearGradient id="Degradado_sin_nombre_64" x1="5.64" y1="99.32" x2="129.95" y2="99.32" gradientUnits="userSpaceOnUse"><stop offset="0" stop-color="#d8d8d8"/><stop offset="0.36" stop-color="#aaacae"/><stop offset="0.48" stop-color="#d1d2d3"/><stop offset="0.58" stop-color="#c4c4c4"/><stop offset="0.61" stop-color="#cccdcd"/><stop offset="0.65" stop-color="#e3e4e4"/><stop offset="0.66" stop-color="#e7e8e8"/><stop offset="0.9" stop-color="#353435"/><stop offset="0.93" stop-color="#6b6a6b"/><stop offset="0.98" stop-color="#b9b9b9"/><stop offset="1" stop-color="#d8d8d8"/></linearGradient><linearGradient id="Degradado_sin_nombre_2" x1="-11.24" y1="99.4" x2="218.87" y2="99.4" gradientUnits="userSpaceOnUse"><stop offset="0" stop-color="#747474"/><stop offset="0.19" stop-color="#4d4d4d"/><stop offset="0.41" stop-color="#d8d8d8"/><stop offset="0.5" stop-color="#d8d8d8"/><stop offset="0.56" stop-color="#b5b5b5"/><stop offset="0.63" stop-color="#909090"/><stop offset="0.7" stop-color="#737373"/><stop offset="0.76" stop-color="#5e5e5e"/><stop offset="0.83" stop-color="#515151"/><stop offset="0.9" stop-color="#4d4d4d"/></linearGradient></defs><g id="Capa_2" data-name="Capa 2"><g id="Capa_1-2" data-name="Capa 1"><path class="cls-1" d="M39.25,149.19s13.71,9.54,31,0,28-39.51,28-39.51S104,97.14,104.1,96s3.4-22.73,3.14-23.39-10.71-4.7-10.71-4.7S72,77.29,70.79,77.42s-29.26-4.71-32.26-6.14-24.43-6.53-25-6.4-10.32,1.17-9.8,3,1.05,17.37,1.31,21S6,106,7.18,107.2s7.58,4.57,9.27,7.44,11.37,25,11.89,26.52"/><path class="cls-2" d="M5.52,79a111.22,111.22,0,0,0,1,18.59,8.38,8.38,0,0,0-2.66,7.15c4.4,2.3,5.49,5.7,6.36,10s-.28,11.83-1.49,16.36-1.7,5.72-1.5,8.43,2.25,6.24,10,20c7.38,13.14,20.7,26,21.82,27l.11.27,2,4.94,0,1A260.9,260.9,0,0,1,21.2,172.88,98.54,98.54,0,0,1,5.91,150c-2.78-5.62-2.74-8.75-1.74-11.54s2-7.27,2-7.27C10.49,109.33.1,106.3.1,106.3-.65,100.71,3,98.69,3,98.69a159.49,159.49,0,0,1-.78-26.35A101.79,101.79,0,0,1,6.09,49.09,60.12,60.12,0,0,1,19.37,25.54C26,18.27,35.43,14.61,41.31,11.87a47.09,47.09,0,0,0,9.78-6.1V5.28l.43,5.77v.06c-1.7,1.83-9,5.48-11.59,6.79S25.25,23.12,16.23,36.57,5.85,68.64,5.52,79Z"/><path class="cls-3" d="M66.2,126.18s-9.15,12.35-9.28,13.1H55V0s3.4,4.81,4.36,5.46v.75c0,.59-.16,2.5-.32,5.48v.07h0c-.77,15.2-2.15,57.94,3.86,96.82v0C63.25,112.5,64.46,121.33,66.2,126.18Z"/><path class="cls-4" d="M55,0V139.29h-.73s-6.91-10.37-9.39-13.12h0c1.25-6.54,2.31-13.06,3.2-19.48a501.42,501.42,0,0,0,3.49-95.59h0v-.06c-.21-3.3-.39-5.31-.43-5.77v-.1C52.89,4,55,0,55,0Z"/><path class="cls-5" d="M48,106.7c0-.55,0-1.1,0-1.66-.35-10.49-4.44-10.4-4.79-10.53a83.88,83.88,0,0,1-16.77-7.75c-7.88-4.92-17-12.06-17-12.06l.74,23.9s22.51,15.94,26.13,17.68c0,0-.91,49.19,2.77,70.53l-.11-.27c-1.12-1.06-14.44-13.91-21.82-27-7.71-13.71-9.77-17.24-10-20s.29-3.89,1.5-8.43,2.36-12,1.49-16.36-2-7.75-6.36-10a8.38,8.38,0,0,1,2.66-7.15A111.22,111.22,0,0,1,5.52,79C5.85,68.64,7.22,50,16.23,36.57S37.39,19.2,39.94,17.9s9.89-5,11.59-6.79A501.42,501.42,0,0,1,48,106.7Z"/><path class="cls-6" d="M44.84,126.18c3.59-23.9.56-27.17-.26-28.54s-3.79-1.92-3.79-1.92C30,93.22,12.84,80.37,12.84,80.37v17L40.1,115.11s-.55,27-.37,33.38c0,2.2.91,28.06.91,28.06l.52,9.24.45,7-.54-1-2-4.94c-3.68-21.34-2.77-70.53-2.77-70.53C32.69,114.54,10.18,98.6,10.18,98.6L9.44,74.7s9.14,7.14,17,12.06a83.88,83.88,0,0,0,16.77,7.75c.35.13,4.44,0,4.79,10.53,0,.56,0,1.11,0,1.66C47.15,113.12,46.09,119.64,44.84,126.18Z"/><path class="cls-7" d="M100,99.21,73.71,117.5c1.43,19.33-2.58,69.39-2.58,69.39l-2.26,5.9c.7-3.47,1.86-43.94,1.86-43.94,1-8.49-.2-34.18-.2-34.18L97.18,97.9,96.87,81S90,85.62,84.59,89.15,70.7,95.9,67.92,96.39s-3,3.78-3,3.78c-2,6.27,1.33,26,1.33,26-1.74-4.85-3-13.68-3.36-17.58v0c-.07-.64-.11-1.14-.14-1.47-.16-2.35.13-6.69,1.47-9.44S68.29,94.61,72,93.3,79.06,90,84.9,86.58,100.48,75.3,100.48,75.3C100.68,77.2,100,99.21,100,99.21Z"/><path class="cls-8" d="M106,104.56s-5.18,1.79-6.4,9.58,2.13,18.55,3,21.43.18,3.61.18,3.61c-6.8,23.38-31.58,47.71-31.58,47.71s4-50.06,2.58-69.39L100,99.21s.72-22,.52-23.91c0,0-9.75,7.89-15.58,11.28S75.67,92,72,93.3s-6.47,1.63-7.81,4.37-1.63,7.09-1.47,9.44c0,.33.07.83.14,1.47C56.83,69.7,58.21,27,59,11.76c.53,1.22,12.77,6.92,18.32,9.6a45.6,45.6,0,0,1,10.58,7.7c10.58,10.52,13.58,26.26,15.54,37.23s-.1,31.09-.1,31.09C107.1,101,106,104.56,106,104.56Z"/><path class="cls-9" d="M109.93,106.35s-8.14,3.79-7.09,16.15,3.65,18.2,3.65,18.2a5.45,5.45,0,0,1-.3,3.36A75.93,75.93,0,0,1,93,167.85C84,178.69,75.27,188,68.87,192.79l2.26-5.9s24.78-24.33,31.58-47.71c0,0,.65-.74-.18-3.61s-4.18-13.63-3-21.43,6.4-9.58,6.4-9.58,1.13-3.57-2.65-7.18c0,0,2.06-20.12.1-31.09s-5-26.71-15.54-37.23a45.6,45.6,0,0,0-10.58-7.7C71.75,18.68,59.51,13,59,11.76h0v-.07l.32-5.48V6a52.71,52.71,0,0,0,13.15,7.77C80.3,17,92.19,23.06,99.83,38.66s8,33.86,8,33.86.61,19.33-.61,26.12A8.73,8.73,0,0,1,109.93,106.35Z"/><path class="cls-10" d="M62.84,108.63v0"/></g></g></svg>