<svg xmlns="http://www.w3.org/2000/svg" xmlns:xlink="http://www.w3.org/1999/xlink" viewBox="0 0 476.97 132.39"><defs><style>.cls-1{fill:url(#Degradado_sin_nombre_6);}.cls-2{fill:#fff;}</style><linearGradient id="Degradado_sin_nombre_6" x1="-343.12" y1="66.19" x2="440.2" y2="66.19" gradientUnits="userSpaceOnUse"><stop offset="0" stop-color="#d5b46d"/><stop offset="0" stop-color="#deb457"/><stop offset="0.07" stop-color="#ebd07e"/><stop offset="0.14" stop-color="#f6e9a0"/><stop offset="0.2" stop-color="#fdf8b5"/><stop offset="0.23" stop-color="#fffdbd"/><stop offset="0.41" stop-color="#d6ab47"/><stop offset="0.51" stop-color="#d4a945"/><stop offset="0.54" stop-color="#cea240"/><stop offset="0.56" stop-color="#c29736"/><stop offset="0.58" stop-color="#b28628"/><stop offset="0.59" stop-color="#ae8225"/><stop offset="0.77" stop-color="#cf9e25"/><stop offset="0.92" stop-color="#bd912a"/><stop offset="1" stop-color="#b48a2d"/></linearGradient></defs><g id="Capa_2" data-name="Capa 2"><g id="Capa_1-2" data-name="Capa 1"><rect class="cls-1" width="476.97" height="132.39" rx="11.53"/><path class="cls-2" d="M83.3,86.81A23.21,23.21,0,0,1,75,85.34,19.34,19.34,0,0,1,63.89,74.79a21.29,21.29,0,0,1,0-16.05,19.32,19.32,0,0,1,4.43-6.37A20.15,20.15,0,0,1,75,48.19a23.3,23.3,0,0,1,8.36-1.46,22.94,22.94,0,0,1,9.11,1.74,17.79,17.79,0,0,1,6.84,5.12l-5.76,5.32a13.5,13.5,0,0,0-4.43-3.41,12.53,12.53,0,0,0-5.32-1.13,13.61,13.61,0,0,0-5,.88,11.31,11.31,0,0,0-3.93,2.55,11.8,11.8,0,0,0-2.57,3.93,14.24,14.24,0,0,0,0,10.07,11.74,11.74,0,0,0,2.57,3.94,11.43,11.43,0,0,0,3.93,2.54,13.61,13.61,0,0,0,5,.89A12.39,12.39,0,0,0,89.11,78a13.15,13.15,0,0,0,4.43-3.46l5.76,5.32A18.07,18.07,0,0,1,92.46,85,22.75,22.75,0,0,1,83.3,86.81Z"/><path class="cls-2" d="M118.89,86.59a17.43,17.43,0,0,1-8.44-2,15.1,15.1,0,0,1-5.81-5.45,15.77,15.77,0,0,1,0-15.83,14.9,14.9,0,0,1,5.81-5.43,19.11,19.11,0,0,1,16.86,0,14.77,14.77,0,0,1,5.81,5.4,15.14,15.14,0,0,1-5.81,21.31A17.52,17.52,0,0,1,118.89,86.59Zm0-7.09a7.55,7.55,0,0,0,3.88-1,7,7,0,0,0,2.71-2.85,10.25,10.25,0,0,0,0-8.83A7.08,7.08,0,0,0,122.77,64,8,8,0,0,0,115,64a7.22,7.22,0,0,0-2.74,2.82,10,10,0,0,0,0,8.83A7.17,7.17,0,0,0,115,78.5,7.49,7.49,0,0,0,118.89,79.5Z"/><path class="cls-2" d="M159.08,55.92a13.85,13.85,0,0,1,6.34,1.41,10.18,10.18,0,0,1,4.4,4.32,15.27,15.27,0,0,1,1.61,7.44v17h-8.64V70.42q0-3.6-1.57-5.31a5.75,5.75,0,0,0-4.46-1.72,7.8,7.8,0,0,0-3.68.86,6,6,0,0,0-2.55,2.63,9.86,9.86,0,0,0-.91,4.54V86.14H141V56.36h8.25v8.25l-1.55-2.49a11,11,0,0,1,4.59-4.6A14.21,14.21,0,0,1,159.08,55.92Z"/><path class="cls-2" d="M193.41,86.59a17.47,17.47,0,0,1-8.45-2,15.17,15.17,0,0,1-5.81-5.45,15.77,15.77,0,0,1,0-15.83A15,15,0,0,1,185,57.88a19.11,19.11,0,0,1,16.86,0,15.11,15.11,0,0,1,0,26.71A17.48,17.48,0,0,1,193.41,86.59Zm0-7.09a7.49,7.49,0,0,0,3.87-1A7,7,0,0,0,200,75.65a10.25,10.25,0,0,0,0-8.83A7,7,0,0,0,197.28,64a8,8,0,0,0-7.75,0,7.29,7.29,0,0,0-2.74,2.82,10.06,10.06,0,0,0,0,8.83,7.24,7.24,0,0,0,2.74,2.85A7.55,7.55,0,0,0,193.41,79.5Z"/><path class="cls-2" d="M229.89,86.59a18.27,18.27,0,0,1-8.58-2,15,15,0,0,1,0-26.74,18.27,18.27,0,0,1,8.58-2,16.38,16.38,0,0,1,8.19,2,12,12,0,0,1,5.15,5.62l-6.7,3.6a7.73,7.73,0,0,0-2.9-3.1,7.5,7.5,0,0,0-3.8-1,7.92,7.92,0,0,0-4,1,7.23,7.23,0,0,0-2.8,2.82,10.13,10.13,0,0,0,0,8.86,7.23,7.23,0,0,0,2.8,2.82,7.92,7.92,0,0,0,4,1,7.67,7.67,0,0,0,3.8-1,7.45,7.45,0,0,0,2.9-3.13l6.7,3.66a12,12,0,0,1-5.15,5.56A16.39,16.39,0,0,1,229.89,86.59Z"/><path class="cls-2" d="M263,86.59a19.19,19.19,0,0,1-8.94-2,14.69,14.69,0,0,1-6-5.45,14.89,14.89,0,0,1-2.1-7.89,15.14,15.14,0,0,1,2.07-7.94,14.75,14.75,0,0,1,5.68-5.43,17.82,17.82,0,0,1,16-.11,13.94,13.94,0,0,1,5.56,5.32,16,16,0,0,1,2.05,8.27q0,.49-.06,1.14c0,.42-.07.82-.11,1.19H253v-5h19.65l-3.32,1.49a8.26,8.26,0,0,0-.94-4,6.84,6.84,0,0,0-2.6-2.68,7.53,7.53,0,0,0-3.88-1,7.65,7.65,0,0,0-3.9,1,6.73,6.73,0,0,0-2.63,2.71,8.53,8.53,0,0,0-.94,4.12v1.33a8.34,8.34,0,0,0,1.08,4.29,7.05,7.05,0,0,0,3,2.83,10.43,10.43,0,0,0,4.63,1A11.23,11.23,0,0,0,267.4,79a10.3,10.3,0,0,0,3.29-2.16l4.59,5a13.36,13.36,0,0,1-5.14,3.57A19.09,19.09,0,0,1,263,86.59Z"/><path class="cls-2" d="M337,55.92a13.54,13.54,0,0,1,6.28,1.41,10.17,10.17,0,0,1,4.32,4.32,15.52,15.52,0,0,1,1.57,7.44v17H340.5V70.42q0-3.6-1.5-5.31a5.25,5.25,0,0,0-4.2-1.72,6.69,6.69,0,0,0-3.38.86,5.79,5.79,0,0,0-2.33,2.57,10.12,10.12,0,0,0-.83,4.38V86.14h-8.63V70.42q0-3.6-1.47-5.31A5.18,5.18,0,0,0,314,63.39a6.72,6.72,0,0,0-3.38.86,5.77,5.77,0,0,0-2.32,2.57,10.12,10.12,0,0,0-.83,4.38V86.14h-8.64V56.36h8.25V64.5l-1.55-2.38a10.71,10.71,0,0,1,4.4-4.63,13.23,13.23,0,0,1,6.51-1.57A12.53,12.53,0,0,1,323.59,58a10.11,10.11,0,0,1,4.07,6.34l-3.05-.83A12,12,0,0,1,329.4,58,14,14,0,0,1,337,55.92Z"/><path class="cls-2" d="M366.07,86.59a13.79,13.79,0,0,1-6-1.19,9.14,9.14,0,0,1-3.82-3.24,8.79,8.79,0,0,1,0-9.25,8.5,8.5,0,0,1,4.12-3.13,20.2,20.2,0,0,1,7.37-1.13h7.91v5h-7c-2,0-3.43.33-4.18,1a3.19,3.19,0,0,0-1.14,2.49,3.11,3.11,0,0,0,1.3,2.63,5.84,5.84,0,0,0,3.57,1,7.47,7.47,0,0,0,3.88-1,5.89,5.89,0,0,0,2.49-3l1.33,4a7.72,7.72,0,0,1-3.43,4.37A12.31,12.31,0,0,1,366.07,86.59Zm9.08-.45V80.33l-.55-1.27V68.65a5.56,5.56,0,0,0-1.69-4.32,7.45,7.45,0,0,0-5.17-1.55,15,15,0,0,0-4.68.75,12.39,12.39,0,0,0-3.9,2l-3.11-6a18.88,18.88,0,0,1,5.87-2.65,26.21,26.21,0,0,1,7-.94q6.81,0,10.57,3.21t3.77,10v17Zm-10.4-33.6,7.47-8h9.3l-10,8Z"/><path class="cls-2" d="M401.06,86.59a29,29,0,0,1-7.33-.92,18.28,18.28,0,0,1-5.57-2.29L391,77.17a19,19,0,0,0,4.85,2.08,19.69,19.69,0,0,0,5.51.8,9,9,0,0,0,4.23-.72,2.2,2.2,0,0,0,1.25-2,1.71,1.71,0,0,0-1-1.58,8.74,8.74,0,0,0-2.58-.8c-1.07-.18-2.24-.37-3.51-.55s-2.56-.44-3.85-.75a12.85,12.85,0,0,1-3.54-1.41,7.33,7.33,0,0,1-2.58-2.55,8.79,8.79,0,0,1,.67-9.13,10.72,10.72,0,0,1,4.73-3.41,19.91,19.91,0,0,1,7.42-1.24,30.28,30.28,0,0,1,6.2.66,16.85,16.85,0,0,1,5.26,1.94l-2.88,6.14a14.73,14.73,0,0,0-4.35-1.74,20.3,20.3,0,0,0-4.23-.47,8.79,8.79,0,0,0-4.21.77,2.29,2.29,0,0,0-1.33,2,1.79,1.79,0,0,0,1,1.66,8.79,8.79,0,0,0,2.58.88c1.06.23,2.24.42,3.51.58a33.5,33.5,0,0,1,3.85.75,14.08,14.08,0,0,1,3.51,1.41,7.35,7.35,0,0,1,2.58,2.5,7.64,7.64,0,0,1,1,4.12,7.72,7.72,0,0,1-1.66,4.9,10.84,10.84,0,0,1-4.79,3.35A21,21,0,0,1,401.06,86.59Z"/></g></g></svg>